<?xml version="1.0" encoding="UTF-8"?>
<!DOCTYPE svg PUBLIC "-//W3C//DTD SVG 1.1//EN" "http://www.w3.org/Graphics/SVG/1.1/DTD/svg11.dtd">
<!-- Creator: CorelDRAW X6 -->
<svg xmlns="http://www.w3.org/2000/svg" xml:space="preserve" width="20.9196mm" height="21.7327mm" version="1.1" style="shape-rendering:geometricPrecision; text-rendering:geometricPrecision; image-rendering:optimizeQuality; fill-rule:evenodd; clip-rule:evenodd"
viewBox="0 0 6947 7216"
 xmlns:xlink="http://www.w3.org/1999/xlink">
 <defs>
  <style type="text/css">
   <![CDATA[
    .fil3 {fill:#F2EFE3}
    .fil4 {fill:#2B2A29}
    .fil0 {fill:#365E5A}
    .fil2 {fill:#4D897C}
    .fil1 {fill:#FEFEFE}
   ]]>
  </style>
 </defs>
 <g id="Слой_x0020_1">
  <metadata id="CorelCorpID_0Corel-Layer"/>
  <rect class="fil0" x="37" y="2485" width="553" height="2058"/>
  <polygon class="fil0" points="5792,4440 4023,4440 4023,5864 4368,5864 6144,5864 6144,4440 "/>
  <path class="fil1" d="M4311 4622l0 1060 1545 0 0 -1060 -1545 0zm54 885l0 -710 247 0 0 710 -247 0zm0 122l0 -69 692 0 0 69 -692 0zm692 -450l0 328 -392 0 0 -328 392 0zm0 -382l0 328 -392 0 0 -328 392 0zm-692 -53l0 -69 692 0 0 69 -692 0zm745 885l0 -69 692 0 0 69 -692 0zm692 -832l0 710 -247 0 0 -710 247 0zm-692 -53l0 -69 692 0 0 69 -692 0zm0 381l0 -328 392 0 0 328 -392 0zm0 382l0 -328 392 0 0 328 -392 0z"/>
  <g id="_664109776">
   <path class="fil2" d="M6282 1606c-45,44 -100,59 -164,44 -6,-1 -17,-5 -33,-11 -5,-2 -11,-4 -13,-5 -56,-17 -116,0 -155,43 -21,24 -34,53 -37,85 46,66 122,110 209,110 139,0 252,-113 252,-252 0,-30 -5,-58 -15,-84 -8,23 -22,48 -44,70z"/>
   <path class="fil0" d="M6084 1597c3,1 8,3 14,5 9,3 25,8 29,9 51,12 92,2 127,-33 32,-32 42,-69 44,-99 -45,-67 -122,-111 -209,-111 -139,0 -252,113 -252,252 0,31 6,60 16,88 8,-21 19,-40 34,-57 49,-55 127,-77 197,-54z"/>
  </g>
  <path class="fil0" d="M612 2303c188,0 342,-145 356,-330 -6,1 -11,2 -17,4 -42,10 -70,51 -97,90 -4,6 -9,12 -13,18 -19,27 -46,62 -84,85 -42,26 -90,39 -138,39 -64,0 -127,-23 -176,-67 -53,-47 -85,-112 -89,-182 -4,-71 20,-139 67,-192 69,-78 178,-108 278,-76 4,1 11,4 20,7 12,4 35,12 40,13 47,11 86,10 120,-3 -66,-74 -161,-120 -267,-120 -197,0 -357,160 -357,357 0,197 160,357 357,357z"/>
  <path class="fil0" d="M747 1767c-8,-2 -24,-8 -46,-15 -8,-3 -16,-6 -19,-7 -79,-25 -165,-1 -220,60 -37,42 -55,96 -52,151 3,56 28,107 70,144 68,61 170,70 248,22 29,-18 51,-46 68,-69 4,-6 8,-12 12,-18 32,-45 67,-97 130,-113 9,-2 19,-4 30,-5 -5,-59 -24,-115 -55,-162 -47,23 -102,27 -166,12z"/>
  <path class="fil2" d="M1577 2663c177,0 323,-138 336,-312 -5,1 -10,2 -15,3 -40,10 -67,48 -92,86 -4,5 -8,11 -12,17 -19,26 -45,58 -80,80 -40,25 -86,37 -131,37 -60,0 -120,-22 -167,-63 -50,-45 -80,-106 -84,-173 -3,-67 19,-131 63,-181 66,-74 169,-102 264,-72 3,1 11,3 19,6 12,4 33,12 38,13 44,10 81,9 113,-4 -62,-69 -152,-113 -252,-113 -187,0 -338,151 -338,338 0,186 151,338 338,338z"/>
  <path class="fil2" d="M1704 2156c-7,-2 -23,-7 -43,-15 -8,-3 -15,-5 -18,-6 -75,-24 -156,-1 -208,57 -35,40 -53,90 -50,143 3,53 27,101 66,136 65,58 162,66 235,21 28,-17 49,-44 65,-66 3,-5 7,-11 11,-17 30,-43 64,-91 123,-106 9,-2 18,-4 28,-5 -4,-57 -22,-109 -51,-154 -45,22 -97,26 -158,12z"/>
  <path class="fil0" d="M1556 1750c-32,8 -56,38 -56,73 0,20 8,38 20,51 -83,11 -158,43 -220,92l-1 0c-104,82 -171,209 -171,352 0,248 201,448 448,448 248,0 448,-200 448,-448 0,-143 -66,-270 -170,-352l-1 0c-62,-49 -137,-81 -219,-92 12,-13 19,-31 19,-51 0,-35 -24,-65 -56,-73l0 -19 682 -522 -79 -125 -35 -56 -61 -95 -92 -146c0,0 -186,70 -438,70 -252,0 -433,-70 -433,-70l-97 153 -47 75 -38 59 -85 135 682 522 0 19zm-149 217l1 0c51,-25 108,-38 169,-38 60,0 117,13 168,38l1 0c130,63 220,197 220,351 0,215 -175,390 -390,390 -215,0 -390,-175 -390,-390 0,-154 90,-288 221,-351zm747 -888l-407 404 360 -479 47 75zm-586 243c52,0 107,-4 163,-9l-154 288 -153 -286c48,4 97,7 144,7zm271 -213c-86,13 -180,22 -269,22 -86,0 -174,-8 -255,-20l-49 -91c89,15 196,28 306,28 112,0 223,-14 316,-30l-49 91zm-840 -30l48 -75 360 479 -408 -404zm624 744c0,26 -21,47 -46,47 -26,0 -47,-21 -47,-47 0,-18 11,-34 26,-41l0 11c0,11 9,21 21,21 11,0 20,-10 20,-21l0 -11c15,7 26,23 26,41z"/>
  <path class="fil2" d="M6620 2124c-28,0 -51,23 -51,51 0,12 4,23 11,31l-266 265 -18 -227 -9 -120c25,-3 44,-25 44,-50 0,-28 -23,-51 -51,-51 -28,0 -50,23 -50,51 0,18 9,34 23,42l-188 332 -122 -353c31,-11 53,-40 53,-74 0,-44 -36,-79 -79,-79 -44,0 -79,35 -79,79 0,34 22,63 53,74l-123 353 -188 -332c14,-8 24,-24 24,-42 0,-28 -23,-51 -51,-51 -28,0 -51,23 -51,51 0,25 20,47 45,50l-27 347 -266 -265c6,-8 11,-19 11,-31 0,-28 -23,-51 -51,-51 -25,0 -46,18 -50,42l0 19c5,23 25,41 50,41 6,0 13,-1 18,-4l180 539 0 92 1009 0 0 -92 180 -539c6,3 12,4 19,4 28,0 50,-23 50,-51 0,-28 -22,-51 -50,-51z"/>
  <path class="fil0" d="M2725 6141c8,425 58,827 485,1075 427,-248 478,-650 486,-1075l-486 -88 -485 88z"/>
  <path class="fil3" d="M3210 7160c-171,-107 -287,-248 -354,-432 -62,-170 -77,-362 -82,-547l436 -78 436 78c-4,185 -20,377 -82,547 -66,184 -182,325 -354,432z"/>
  <path class="fil0" d="M3210 6128l-411 73c5,165 20,353 80,519 11,31 24,61 39,90l623 -623 -331 -59z"/>
  <path class="fil2" d="M2918 6810c65,131 161,237 292,321 160,-102 268,-237 332,-411 60,-166 74,-354 79,-519l-80 -14 -623 623z"/>
  <path class="fil1" d="M3071 6948c5,-3 3,-8 8,-16 5,-8 10,-4 17,-10 6,-7 3,-11 9,-17 6,-7 10,-3 17,-10 6,-6 2,-10 9,-17 6,-6 10,-3 16,-9 7,-7 2,-12 10,-17 8,-6 13,-3 16,-9 0,0 2,-3 0,-6 0,-1 -1,-2 -2,-3l39 -40c32,-32 153,-64 181,-72 4,0 7,0 10,0 42,-5 83,-26 116,-59 36,-37 56,-86 56,-133 -1,-36 -14,-69 -38,-93 -58,-55 -159,-44 -225,24 -35,36 -55,81 -56,126 -6,25 -35,152 -67,184l-39 40c-1,0 -2,-1 -3,-1 0,0 -3,-2 -5,0 -7,3 -4,10 -10,17 -6,6 -10,3 -16,9 -7,7 -3,11 -9,17 -7,7 -10,3 -17,10l0 0c-6,6 -3,10 -9,17 -6,6 -10,3 -16,9 -7,7 -3,10 -10,17 -6,6 -13,3 -17,10 -1,2 1,5 1,5 2,4 7,10 12,15 6,6 12,10 16,12 3,2 6,0 6,0zm308 -308l16 -17 17 16 -16 17 -17 -16zm13 19l-16 17 -16 -17 16 -16 16 16zm21 -140l-16 -17 16 -16 16 16 -16 17zm20 -14l16 16 -16 17 -17 -16 17 -17zm-23 17l-16 16 -17 -16 16 -16 17 16zm3 3l17 16 -16 17 -17 -17 16 -16zm1 72l-16 -16 16 -17 16 16 -16 17zm20 -14l16 16 -16 17 -17 -16 17 -17zm-17 -22l16 -17 17 16 -16 17 -17 -16zm-6 0l-17 16 -16 -16 16 -16 17 16zm-20 20l-16 16 -16 -16 16 -16 16 16zm4 3l16 16 -16 17 -17 -17 17 -16zm19 19l17 16 -16 17 -17 -16 16 -17zm20 19l17 17 -16 16 -17 -16 16 -17zm3 -3l16 -16 17 16 -16 16 -17 -16zm20 -20l16 -16 16 16 -16 17 -16 -17zm-4 -3l-16 -16 16 -17 17 17 -17 16zm3 -36l16 -16 17 16 -16 16 -17 -16zm-3 -3l-17 -16 16 -17 17 16 -16 17zm3 -36l16 -16 16 16 -16 16 -16 -16zm-4 -3l-16 -16 16 -17 16 16 -16 17zm3 -36l16 -17 17 17 -16 16 -17 -16zm-23 17l-16 -16 16 -17 17 16 -17 17zm-39 0l-16 -16 16 -16 17 16 -17 16zm-3 4l-16 16 -17 -16 17 -17 16 17zm-19 19l-16 17 -17 -16 16 -17 17 16zm3 3l17 17 -16 16 -17 -16 16 -17zm-2 36l-17 17 -16 -16 16 -17 17 16zm-20 20l-16 17 -17 -16 17 -17 16 16zm3 3l17 17 -16 16 -17 -16 16 -17zm20 20l17 16 -16 16 -17 -16 16 -16zm-2 36l-17 16 -16 -16 16 -17 17 17zm-20 19l-16 17 -16 -16 16 -17 16 16zm4 4l16 16 -16 16 -17 -16 17 -16zm23 16l16 -17 16 16 -16 17 -16 -16zm19 -20l16 -17 17 16 -17 17 -16 -16zm55 -17l17 16 -17 16 -16 -16 16 -16zm3 -4l16 -16 17 16 -16 17 -17 -17zm19 -19l17 -17 16 16 -16 17 -17 -16zm20 -20l16 -17 16 16 -16 17 -16 -16zm-4 -3l-16 -16 16 -17 17 16 -17 17zm3 -36l16 -17 17 16 -16 17 -17 -16zm-3 -3l-17 -17 16 -16 17 16 -16 17zm3 -36l16 -17 16 16 -16 17 -16 -16zm-4 -4l-16 -16 16 -16 17 16 -17 16zm3 -36l16 -16 17 16 -16 17 -17 -17zm-3 -3l-17 -16 16 -16 17 16 -16 16zm-39 1l-17 -16 16 -17 17 16 -16 17zm-20 -19l-17 -16 16 -17 17 16 -16 17zm-3 3l-16 16 -17 -16 16 -16 17 16zm-55 17l-17 -16 16 -17 17 16 -16 17zm-4 3l-16 17 -16 -16 16 -17 16 16zm-19 20l-16 17 -17 -16 17 -17 16 16zm-19 20l-16 17 -17 -17 16 -16 17 16zm3 3l17 16 -16 17 -17 -16 16 -17zm-3 36l-16 17 -16 -17 16 -16 16 16zm-19 20l-16 16 -17 -16 17 -16 16 16zm3 3l17 16 -16 17 -17 -16 16 -17zm20 19l17 16 -16 17 -17 -16 16 -17zm-2 36l-17 17 -16 -16 16 -17 17 16zm-20 20l-10 11c-6,-6 -10,-12 -14,-19l8 -8 16 16zm3 3l17 16 -8 9c-7,-4 -13,-9 -19,-14l10 -11zm20 19l17 17 0 0c-9,-2 -17,-5 -24,-9l7 -8zm23 16l16 -16 17 16 -4 4c-9,1 -18,0 -26,-1l-3 -3zm35 4l1 -1 1 1c-1,0 -1,0 -2,0zm8 -1l-4 -3 16 -17 15 14c-9,3 -18,5 -27,6zm31 -8l-15 -15 16 -17 16 17 -14 14c-1,1 -2,1 -3,1zm14 -5l7 -7 2 2c-3,2 -6,3 -9,5zm13 -7l-3 -3 16 -17 7 7c-6,5 -13,9 -20,13zm24 -16l-8 -7 16 -17 9 9c-6,5 -11,10 -17,15zm20 -19l-9 -8 16 -17 8 7c-5,7 -10,13 -15,18zm30 -42c-4,7 -8,14 -13,21l-7 -7 17 -17 3 3zm2 -4l-2 -2 5 -5c-1,2 -2,5 -3,7zm7 -18l-12 13 -17 -16 16 -17 15 15c-1,2 -1,3 -2,5zm8 -38c0,10 -2,19 -5,28l-13 -13 16 -17 2 2zm-21 12l-17 -16 17 -17 16 16 -16 17zm22 -25c0,1 0,2 0,3l-3 2 -16 -16 15 -16c3,8 4,17 4,27zm-23 -14l-16 -16 16 -17 17 16 -17 17zm17 -23l-14 -13 6 -6c3,6 6,13 8,19zm-11 -23l-6 7 -17 -16 9 -9c5,5 10,12 14,18zm-17 -21l-9 9 -17 -17 7 -6c6,4 13,8 19,14zm-23 -16l-6 5 -13 -13c7,2 13,5 19,8zm-9 9l-16 16 -17 -16 17 -17 16 17zm-20 -19l-16 16 -16 -16 1 -2c11,-1 21,0 31,2zm-41 -1c0,0 1,0 1,0l1 1 -16 16 -12 -12c8,-2 17,-4 26,-5zm-31 7l14 14 -16 16 -17 -16 11 -11c3,-1 5,-2 8,-3zm-23 10c1,-1 3,-2 5,-3l-4 4 -1 -1zm-4 2l2 2 -16 17 -6 -6c6,-5 13,-9 20,-13zm-24 15l7 7 -17 17 -8 -8c6,-6 12,-11 18,-16zm-21 19l8 8 -16 16 -7 -6c5,-6 10,-12 15,-18zm-30 41c4,-6 8,-13 13,-20l6 7 -16 16 -3 -3zm-2 5l2 1 -6 6c2,-3 3,-5 4,-7zm-8 18l13 -13 17 16 -17 16 -15 -14c1,-2 1,-3 2,-5zm-9 36c1,-9 3,-18 6,-27l13 14 -16 16 -3 -3zm0 6l0 0 0 1c0,-1 0,-1 0,-1zm2 35c-2,-8 -2,-16 -2,-23 0,-2 0,-3 0,-5l3 -4 17 17 -16 16 -2 -1zm21 -12l17 16 -16 17 -17 -17 16 -16zm-3 36l-7 7c-4,-7 -7,-15 -9,-23l16 16zm-36 -14c6,23 17,44 34,60 16,16 37,27 59,32 -50,14 -116,36 -152,63 26,-37 46,-104 59,-155z"/>
  <path class="fil1" d="M3005 6338l0 0c8,-9 14,-21 17,-33 3,-13 2,-26 -1,-39 -7,1 -14,3 -20,6 -41,15 -66,53 -67,93 26,4 53,-6 71,-27z"/>
  <path class="fil1" d="M3075 6403c-8,10 -14,21 -17,34 -3,12 -2,24 0,35 6,-1 12,-3 17,-5 40,-15 65,-51 67,-91 -25,-2 -50,8 -67,27z"/>
  <path class="fil1" d="M3037 6265c4,14 4,29 1,44 -4,14 -11,28 -21,40 0,0 0,0 0,0 -21,24 -52,36 -83,32 1,9 3,17 6,26 17,43 58,68 102,67 -3,-13 -3,-27 0,-41 4,-15 11,-29 20,-40 20,-24 50,-35 80,-33 -1,-9 -3,-19 -6,-28 -17,-42 -57,-68 -99,-67z"/>
  <path class="fil2" d="M3703 5088l-1 0c-14,-195 -105,-398 -269,-561 -317,-315 -788,-358 -1050,-95 -261,263 -216,734 101,1050 166,164 374,255 572,266 84,10 623,81 757,214 0,0 0,0 0,0 -2,2 -3,4 -4,6 -2,2 -3,4 -4,6 -9,15 -3,25 -1,27 10,21 33,9 64,27 30,18 10,43 35,68 25,25 42,8 66,33 25,24 8,41 33,66 25,24 42,8 67,32 24,25 8,42 33,66 24,25 50,5 68,35 18,31 6,55 27,64 2,2 12,8 27,-1 6,-4 14,-9 22,-16 1,0 1,-1 1,-1 3,-2 5,-4 8,-6 1,-1 3,-3 4,-4 2,-1 3,-3 5,-4 2,-2 5,-4 7,-7 1,0 2,-1 3,-2 6,-6 13,-13 20,-19 26,-27 48,-53 58,-69 2,-4 8,-14 4,-24 -11,-27 -45,-10 -68,-34 -25,-24 -8,-41 -33,-66 -25,-24 -41,-8 -66,-32 -25,-25 -8,-42 -33,-66l0 -1c-25,-24 -42,-8 -67,-32 -25,-25 -8,-42 -33,-66 -24,-25 -41,-8 -66,-33 -23,-23 -7,-57 -34,-68 -10,-4 -20,2 -24,5 -3,1 -6,4 -9,6 -1,0 -1,0 -1,0 -145,-144 -219,-764 -219,-764zm-593 593l-3 4c-7,0 -14,0 -21,0l-18 -18 80 -81 81 80 -7 7c-34,7 -68,10 -103,11l-9 -3zm-156 -1240l81 80 -80 80 -81 -80 80 -80zm-176 -15l80 -81 81 80 -80 81 -81 -80zm857 640l-11 11 -80 -80 63 -63c13,44 23,88 28,132zm-314 -451l-80 81 -80 -80 80 -81 80 80zm96 95l-80 81 -80 -80 80 -80 80 79zm-191 -190l-80 80 -81 -80 80 -80 81 80zm127 286l79 -80 81 80 -80 80 -80 -80zm176 175l-81 -80 80 -80 60 59c4,10 7,21 11,31l-70 70zm15 -175l7 -7c5,9 9,18 14,28l-21 -21zm-16 -16l-80 -80 29 -29c24,32 45,64 63,97l-12 12zm-96 -95l-80 -80 37 -37c27,28 52,56 75,85l-32 32zm-95 -95l-81 -80 31 -30c29,22 58,46 86,73l-36 37zm-96 -95l-80 -80 9 -9c33,17 66,38 99,61l-28 28zm-96 -96l-12 -11c6,2 11,5 16,7l-4 4zm-15 16l-80 80 -80 -80 65 -66c15,5 30,10 45,16l50 50zm-176 -15l-80 -80 3 -3c44,4 89,12 134,25l-57 58zm96 126l80 80 -80 80 -80 -80 80 -80zm96 95l80 80 -80 80 -80 -80 80 -80zm95 95l81 80 -80 81 -80 -80 79 -81zm96 96l81 80 -80 80 -81 -80 80 -80zm96 95l80 80 -80 80 -80 -80 80 -80zm96 95l80 80 -80 80 -80 -80 80 -80zm96 95l14 15c2,48 -1,96 -10,142l-4 4 -80 -80 80 -81zm-383 -29l-80 -80 80 -81 80 80 -80 81zm96 -65l80 80 -80 80 -80 -80 80 -80zm-111 -111l-80 80 -81 -80 80 -80 81 80zm-288 -286l-80 81 -80 -80 80 -81 80 80zm16 16l80 80 -80 80 -80 -80 80 -80zm-112 -111l-79 80 -81 -80 80 -80 80 80zm-175 -15l-81 -80 80 -80 81 80 -80 80zm303 301l79 -80 81 80 -80 80 -80 -80zm463 301l80 80 -80 80 -80 -80 80 -80zm15 175l80 -80 81 80 -80 80 -81 -80zm-877 -872l-23 -23c25,-14 52,-25 80,-34l-57 57zm767 953l-81 -80 80 -80 81 80 -80 80zm95 -65l80 80 -80 80 -80 -80 80 -80zm-494 -492l-80 81 -80 -80 79 -81 81 80zm303 301l80 80 -80 81 -80 -80 80 -81zm-288 -285l81 80 -80 80 -81 -80 80 -80zm16 175l80 -80 80 80 -80 80 -80 -80zm176 15l80 80 -80 80 -80 -80 80 -80zm-383 -221l-80 -79 80 -81 80 80 -80 80zm-96 -255l80 80 -80 80 -80 -80 80 -80zm-176 -15l80 -80 80 80 -79 80 -81 -80zm65 -96l-80 81 -39 -39c28,-27 58,-50 91,-69l28 27zm702 1049l80 -80 80 80 -80 80 -80 -80zm-96 -95l80 -81 80 80 -80 81 -80 -80zm-15 -16l-81 -79 80 -81 81 80 -80 80zm-655 -651l80 -80 80 80 -80 80 -80 -80zm-96 -95l80 -81 80 80 -80 81 -80 -80zm271 110l81 80 -80 80 -80 -80 79 -80zm96 95l81 80 -80 80 -81 -79 80 -81zm192 191l80 80 -80 80 -80 -80 80 -80zm-96 65l-80 -80 80 -81 80 80 -80 81zm191 30l81 80 -80 80 -80 -80 79 -80zm-590 -587l-79 80 -29 -28c19,-32 42,-63 69,-91l39 39zm208 588l81 80 -80 80 -80 -80 79 -80zm-175 -15l80 -80 80 80 -80 80 -80 -80zm191 191l80 -81 81 80 -80 80 -81 -79zm176 14l80 80 -80 81 -80 -80 80 -81zm96 96l80 80 -80 80 -80 -80 80 -80zm16 175l80 -80 80 80 -80 80 -80 -80zm-576 -762l80 -81 81 80 -80 81 -81 -80zm-15 -16l-80 -79 80 -81 80 80 -80 80zm766 602l80 80 -80 80 -80 -79 80 -81zm-96 65l-80 -80 80 -80 80 80 -80 80zm-95 -95l-81 -80 80 -80 81 80 -80 80zm-16 -176l-80 81 -80 -80 79 -81 81 80zm-176 -15l-80 -79 80 -81 80 80 -80 80zm-192 -350l81 80 -80 80 -81 -80 80 -80zm591 747l80 -81 80 80 -80 81 -80 -80zm-495 -492l-80 -80 80 -80 80 80 -80 80zm-303 -461l-60 60c10,-29 22,-57 36,-84l24 24zm192 381l-80 81 -80 -80 80 -81 80 80zm494 684l1 -1 1 1c-1,0 -1,0 -2,0zm-590 -779l-79 80 -81 -79 80 -81 80 80zm-175 16l80 80 -60 61c-13,-45 -22,-90 -26,-135l6 -6zm96 95l80 80 -80 80 -57 -56c-4,-12 -8,-23 -12,-35l69 -69zm287 446l-80 -80 80 -80 80 80 -80 80zm96 -65l80 80 -80 80 -80 -79 80 -81zm-191 -30l-81 -80 80 -80 80 80 -79 80zm-16 -176l-80 81 -80 -80 79 -81 81 80zm-176 16l80 80 -30 31c-23,-32 -44,-65 -62,-99l12 -12zm-22 -8c-5,-9 -9,-18 -13,-27l20 20 -7 7zm118 104l80 79 -39 40c-27,-27 -52,-56 -74,-86l33 -33zm96 95l80 80 -35 34c-29,-22 -58,-47 -85,-74l40 -40zm95 95l81 80 -15 15c-33,-18 -66,-39 -98,-62l32 -33zm96 95l30 30c-14,-6 -27,-13 -40,-19l10 -11zm16 -15l80 -81 80 80 -74 74c-6,-2 -13,-5 -20,-7l-66 -66zm175 15l81 80 -14 13c-44,-5 -88,-14 -132,-27l65 -66zm382 -1l34 33c-35,19 -72,34 -111,44l77 -77zm16 -16l80 -80 48 48c-28,27 -58,50 -91,70l-37 -38zm143 -47l-48 -48 80 -81 37 37c-19,33 -42,63 -69,92zm80 -112l-33 -32 74 -75c-10,37 -24,73 -41,107zm-740 -1086l5 5 -80 80 -73 -73c47,-10 97,-14 148,-12zm-547 409l76 75 -80 80 -9 -8c-1,-51 3,-100 13,-147zm1573 1170c-2,2 -4,4 -6,6 -147,-86 -386,-146 -582,-184 97,-27 186,-76 258,-149 73,-74 123,-164 148,-262 40,195 101,436 188,583 -2,2 -4,4 -6,6z"/>
  <path class="fil0" d="M1853 4467l-1 -1c228,-14 467,-118 659,-306 374,-366 430,-916 127,-1225 -304,-310 -855,-264 -1228,102 -195,192 -303,433 -319,664 -14,98 -104,728 -261,882 0,0 0,0 0,0 -3,-2 -5,-4 -7,-5 -3,-2 -5,-3 -7,-4 -18,-11 -29,-4 -32,-2 -24,11 -10,38 -32,74 -22,35 -51,12 -80,40 -29,29 -10,49 -39,77 -29,29 -49,9 -78,38 -29,28 -10,48 -39,77 -29,28 -48,9 -78,37 -29,29 -6,59 -41,80 -36,21 -64,7 -75,30 -2,3 -9,14 1,32 4,8 11,16 18,26 1,1 1,1 1,2 3,3 5,6 8,9 1,1 2,3 4,5 1,1 3,3 5,5 2,3 5,6 7,9 1,1 2,2 3,3 7,7 14,15 22,24 31,31 60,56 80,68 4,3 16,10 27,6 32,-13 13,-52 41,-79 29,-29 48,-9 77,-38 30,-29 10,-48 39,-77 30,-29 49,-9 78,-37l0 -1c30,-28 10,-48 39,-77 30,-28 49,-9 78,-37 29,-29 10,-49 39,-77 28,-27 67,-8 80,-39 5,-12 -2,-24 -5,-28 -2,-3 -5,-7 -8,-11 1,-1 1,-1 1,-1 170,-167 896,-245 896,-245zm-685 -701l-4 -4c0,-8 0,-16 0,-24l22 -21 92 95 -94 93 -8 -9c-7,-39 -11,-79 -12,-120l4 -10zm1452 -165l-95 93 -93 -94 95 -93 93 94zm20 -205l92 95 -94 93 -93 -95 95 -93zm-761 992l-12 -13 94 -92 73 74c-52,15 -104,25 -155,31zm531 -360l-92 -95 94 -92 93 94 -95 93zm-112 110l-93 -94 94 -93 93 95 -94 92zm225 -221l-93 -94 95 -93 93 95 -95 92zm-336 145l93 94 -95 93 -93 -95 95 -92zm-207 203l94 -93 93 95 -70 68c-12,5 -24,9 -36,13l-81 -83zm205 20l8 8c-11,6 -22,11 -33,16l25 -24zm18 -18l94 -93 34 35c-37,27 -75,51 -114,72l-14 -14zm113 -111l94 -92 43 43c-33,32 -66,60 -101,87l-36 -38zm112 -110l95 -93 35 36c-27,35 -56,68 -87,100l-43 -43zm113 -111l94 -92 11 10c-22,40 -46,78 -73,115l-32 -33zm112 -110l14 -14c-3,7 -6,13 -9,19l-5 -5zm-17 -18l-93 -95 94 -92 77 77c-6,17 -12,35 -19,52l-59 58zm20 -205l94 -93 3 3c-5,53 -15,105 -31,158l-66 -68zm-149 110l-95 93 -92 -95 94 -93 93 95zm-113 110l-94 93 -93 -94 95 -93 92 94zm-112 111l-95 93 -93 -95 95 -93 93 95zm-113 110l-95 93 -92 -94 94 -93 93 94zm-113 111l-94 93 -93 -95 95 -92 92 94zm-112 111l-95 92 -93 -94 95 -93 93 95zm-113 110l-17 17c-57,2 -112,-3 -166,-14l-4 -5 94 -92 93 94zm40 -446l95 -93 92 95 -94 93 -93 -95zm75 112l-95 93 -92 -94 94 -93 93 94zm131 -128l-93 -94 94 -93 93 94 -94 93zm338 -332l-93 -94 94 -93 93 95 -94 92zm-19 18l-94 93 -93 -94 95 -93 92 94zm131 -128l-92 -95 94 -92 93 94 -95 93zm20 -205l95 -93 92 95 -94 92 -93 -94zm-356 349l93 95 -95 93 -92 -95 94 -93zm-358 537l-94 93 -93 -95 94 -93 93 95zm-205 16l92 94 -94 93 -93 -94 95 -93zm1032 -1013l27 -26c16,30 28,61 39,94l-66 -68zm-1125 882l95 -92 93 94 -95 93 -93 -95zm75 113l-95 92 -92 -94 94 -93 93 95zm581 -571l-92 -94 94 -93 93 95 -95 92zm-356 350l-94 92 -93 -94 95 -93 92 95zm338 -332l-94 93 -93 -95 95 -92 92 94zm-205 16l93 95 -95 92 -93 -94 95 -93zm-20 205l-95 93 -92 -95 94 -92 93 94zm263 -444l95 -92 93 94 -95 93 -93 -95zm300 -108l-94 92 -93 -94 95 -93 92 95zm20 -205l93 94 -95 93 -92 -95 94 -92zm111 76l-93 -94 46 -45c31,33 58,69 79,107l-32 32zm-1235 806l92 94 -94 93 -93 -95 95 -92zm112 -111l93 95 -94 92 -93 -94 94 -93zm19 -18l94 -92 93 94 -95 93 -92 -95zm770 -756l93 95 -95 93 -93 -95 95 -93zm113 -110l92 94 -94 93 -93 -94 95 -93zm-133 315l-94 93 -93 -94 94 -93 93 94zm-113 111l-94 93 -93 -95 95 -93 92 95zm-225 221l-94 93 -93 -95 94 -92 93 94zm-74 -112l94 -93 93 95 -95 92 -92 -94zm-39 223l-94 92 -93 -94 95 -93 92 95zm695 -681l-93 -95 33 -33c38,23 73,51 105,82l-45 46zm-690 234l-95 93 -93 -95 95 -92 93 94zm20 -205l92 95 -94 92 -93 -94 95 -93zm-226 221l93 95 -94 92 -93 -94 94 -93zm-20 205l-94 93 -93 -95 95 -92 92 94zm-112 111l-95 92 -93 -94 95 -93 93 95zm-206 16l93 94 -94 93 -93 -95 94 -92zm899 -661l93 94 -94 93 -93 -95 94 -92zm19 -18l94 -93 93 95 -95 92 -92 -94zm-714 886l-95 93 -93 -95 95 -93 93 95zm-75 -112l95 -93 92 94 -94 93 -93 -94zm113 -111l94 -93 93 95 -95 93 -92 -95zm205 -16l-93 -94 95 -93 93 94 -95 93zm20 -205l94 -93 93 95 -94 93 -93 -95zm413 -219l-95 93 -93 -95 95 -93 93 95zm-882 679l93 94 -95 93 -92 -94 94 -93zm582 -570l94 -93 93 94 -95 93 -92 -94zm543 -348l-70 -71c34,12 67,26 98,43l-28 28zm-449 219l-92 -95 94 -92 93 94 -95 93zm-805 567l1 1 -1 1c0,0 0,-1 0,-2zm918 -678l-93 -94 95 -93 93 95 -95 92zm-16 -205l-94 93 -71 -72c53,-14 106,-24 158,-28l7 7zm-113 110l-94 93 -93 -94 67 -66c14,-5 27,-10 41,-14l79 81zm-525 330l95 -92 92 94 -94 93 -93 -95zm75 113l-95 92 -92 -94 94 -93 93 95zm38 -223l94 -93 93 95 -94 92 -93 -94zm205 -16l-92 -95 94 -93 93 95 -95 93zm-16 -206l-94 93 -36 -37c38,-26 77,-49 116,-70l14 14zm10 -26c11,-5 21,-10 32,-15l-24 24 -8 -9zm-122 137l-95 93 -46 -47c33,-31 67,-60 102,-86l39 40zm-113 110l-94 93 -41 -41c27,-34 57,-67 89,-99l46 47zm-113 111l-94 93 -17 -18c21,-39 46,-77 74,-113l37 38zm-112 110l-35 34c7,-15 15,-30 23,-46l12 12zm17 19l93 94 -94 93 -85 -87c2,-8 5,-16 8,-24l78 -76zm-19 205l-95 92 -16 -16c7,-51 18,-102 35,-154l76 78zm-5 446l-39 39c-22,-41 -38,-85 -50,-130l89 91zm18 18l93 95 -57 56c-31,-33 -58,-69 -80,-107l44 -44zm54 169l57 -56 92 94 -43 43c-38,-23 -74,-50 -106,-81zm129 94l38 -38 86 88c-43,-12 -85,-29 -124,-50zm1280 -849l-7 6 -92 -94 86 -85c11,56 15,114 13,173zm-470 -644l-89 87 -93 -95 10 -10c59,-1 116,5 172,18zm-1390 1820c-2,-2 -4,-4 -7,-6 102,-171 176,-450 224,-678 29,114 86,218 170,304 85,86 189,145 303,177 -228,43 -510,112 -683,211 -2,-3 -4,-5 -7,-8z"/>
  <path class="fil2" d="M6734 4652l0 0c50,-58 82,-141 82,-232 0,-177 -119,-321 -266,-321 -147,0 -266,144 -266,321 0,93 32,176 84,235 21,26 151,197 151,272 0,0 0,0 0,0 -1,0 -2,0 -2,0 -1,1 -2,1 -3,1 -7,2 -8,6 -8,7 -3,9 7,12 10,26 4,13 -9,15 -9,28 0,14 9,14 9,28 0,14 -9,14 -9,28 0,14 9,14 9,27 0,14 -9,14 -9,28 0,14 13,16 9,29 -3,14 -13,17 -10,25 0,2 1,6 8,8 3,0 6,1 11,1 0,0 0,1 0,1 1,0 3,0 4,0 1,0 1,0 2,0 1,0 2,0 3,0 1,0 2,0 4,0 0,0 0,1 1,1 3,0 7,0 11,0 15,0 28,-1 35,-3 2,-1 7,-2 8,-6 5,-10 -9,-15 -9,-28 0,-14 9,-14 9,-28 0,-14 -9,-14 -9,-27 0,-14 9,-14 9,-28l0 0c0,-14 -9,-14 -9,-28 0,-14 9,-14 9,-28 0,-13 -9,-13 -9,-27 0,-13 14,-18 9,-29 -1,-4 -6,-5 -8,-5 -1,-1 -2,-1 -4,-1 0,0 0,0 0,0 0,-81 153,-275 153,-275zm-332 -1l-2 0c-2,-2 -4,-3 -5,-5l0 -10 44 0 0 44 -3 0c-12,-7 -22,-16 -32,-25l-2 -4zm305 -389l0 44 -45 0 0 -44 45 0zm-45 -54l45 0 0 45 -45 0 0 -45zm59 419l-6 0 0 -45 35 0c-8,16 -18,31 -29,45zm39 -214l-45 0 0 -45 45 0 0 45zm0 54l-45 0 0 -45 45 0 0 45zm0 -107l-45 0 0 -45 45 0 0 45zm-45 115l45 0 0 45 -45 0 0 -45zm0 98l0 -44 45 0 0 33c-2,4 -4,8 -5,11l-40 0zm54 -44l4 0c-2,4 -3,8 -4,11l0 -11zm0 -9l0 -45 16 0c-2,16 -6,31 -10,45l-6 0zm0 -53l0 -45 20 0c0,15 -1,30 -3,45l-17 0zm0 -54l0 -45 17 0c2,15 3,30 3,45l-20 0zm0 -53l0 -45 5 0c4,14 8,29 10,45l-15 0zm0 -54l0 -6c0,2 1,4 2,6l-2 0zm-9 0l-45 0 0 -44 37 0c3,5 5,11 8,16l0 28zm-45 -53l0 -45 2 0c11,14 21,29 30,45l-32 0zm-8 62l0 45 -45 0 0 -45 45 0zm0 53l0 45 -45 0 0 -45 45 0zm0 54l0 45 -45 0 0 -45 45 0zm0 53l0 45 -45 0 0 -45 45 0zm0 54l0 44 -45 0 0 -44 45 0zm0 53l0 45 -45 0 0 -45 45 0zm0 54l0 8c-13,14 -28,26 -43,36l-2 0 0 -44 45 0zm-99 -116l0 -45 45 0 0 45 -45 0zm45 9l0 44 -45 0 0 -44 45 0zm0 -62l-45 0 0 -45 45 0 0 45zm0 -161l-45 0 0 -44 45 0 0 44zm0 9l0 45 -45 0 0 -45 45 0zm0 -62l-45 0 0 -45 45 0 0 45zm-45 -54l0 -44 45 0 0 44 -45 0zm0 169l45 0 0 45 -45 0 0 -45zm45 214l0 45 -45 0 0 -45 45 0zm-45 54l45 0 0 44 -45 0 0 -44zm0 -490l0 -13c11,4 22,8 32,13l-32 0zm-53 481l0 -45 45 0 0 45 -45 0zm45 9l0 44 -45 0 0 -44 45 0zm0 -276l-45 0 0 -45 45 0 0 45zm0 169l0 44 -45 0 0 -44 45 0zm0 -161l0 45 -45 0 0 -45 45 0zm-45 54l45 0 0 45 -45 0 0 -45zm45 53l0 45 -45 0 0 -45 45 0zm-45 -169l0 -44 45 0 0 44 -45 0zm45 -98l0 45 -45 0 0 -45 45 0zm-45 -53l45 0 0 44 -45 0 0 -44zm45 -9l-45 0 0 -22c15,1 30,3 45,7l0 15zm-99 490l45 0 0 44 -45 0 0 -44zm0 -54l45 0 0 45 -45 0 0 -45zm0 -9l0 -44 45 0 0 44 -45 0zm0 -365l45 0 0 45 -45 0 0 -45zm0 -53l45 0 0 44 -45 0 0 -44zm45 107l0 44 -45 0 0 -44 45 0zm0 53l0 45 -45 0 0 -45 45 0zm0 107l0 45 -45 0 0 -45 45 0zm-45 -9l0 -45 45 0 0 45 -45 0zm45 62l0 45 -45 0 0 -45 45 0zm0 -329l-45 0 0 -16c15,-3 30,-6 45,-6l0 22zm-107 222l0 45 -44 0 0 -45 44 0zm-44 -53l44 0 0 45 -44 0 0 -45zm0 107l44 0 0 45 -44 0 0 -45zm44 53l0 45 -44 0 0 -45 44 0zm0 54l0 44 -44 0 0 -44 44 0zm-44 53l44 0 0 45 -44 0 0 -45zm53 -374l45 0 0 45 -45 0 0 -45zm0 -9l0 -44 45 0 0 44 -45 0zm45 383l0 45 -45 0 0 -45 45 0zm-45 -9l0 -44 45 0 0 44 -45 0zm0 -53l0 -45 45 0 0 45 -45 0zm45 -53l-45 0 0 -45 45 0 0 45zm-45 -54l0 -45 45 0 0 45 -45 0zm45 -151l0 44 -45 0 0 -44 45 0zm-45 374l45 0 0 44 -45 0 0 -44zm0 -276l0 -45 45 0 0 45 -45 0zm45 -214l-34 0c11,-5 22,-10 34,-13l0 13zm-54 160l-44 0 0 -44 44 0 0 44zm-53 330l0 0 0 0c0,0 0,0 0,0zm53 -383l-44 0 0 -45 44 0 0 45zm-53 -45l0 45 -34 0c9,-16 19,-31 31,-45l3 0zm0 54l0 44 -45 0 0 -32c2,-4 4,-8 6,-12l39 0zm-45 205l0 -45 45 0 0 45 -45 0zm45 8l0 45 -45 0 0 -45 45 0zm-45 -62l0 -45 45 0 0 45 -45 0zm45 -53l-45 0 0 -45 45 0 0 45zm-53 -45l0 45 -18 0c3,-16 6,-31 11,-45l7 0zm-4 -9c1,-3 2,-7 4,-11l0 11 -4 0zm4 62l0 45 -23 0c1,-15 2,-30 4,-45l19 0zm0 54l0 45 -20 0c-2,-15 -3,-30 -3,-45l23 0zm0 53l0 45 -9 0c-4,-14 -7,-29 -10,-45l19 0zm0 54l0 16c-2,-5 -4,-11 -6,-16l6 0zm8 0l45 0 0 44 -41 0c-1,-2 -3,-5 -4,-7l0 -37zm45 53l0 45 -8 0c-10,-14 -20,-29 -29,-45l37 0zm107 107l0 19c-15,-5 -30,-11 -43,-19l43 0zm8 0l45 0 0 27c-15,0 -30,-2 -45,-6l0 -21zm54 27l0 -27 45 0 0 21c-15,3 -30,6 -45,6zm53 -9l0 -18 42 0c-13,8 -27,14 -42,18zm99 -511l0 3 -45 0 0 -41c16,11 31,24 45,38zm-268 -39l0 42 -44 0 0 -4c13,-15 28,-27 44,-38zm111 768c-1,0 -2,0 -3,0 -17,-65 -67,-149 -111,-215 35,20 73,31 114,31 41,0 80,-11 114,-31 -43,65 -94,150 -111,215 -1,0 -2,0 -3,0z"/>
  <path class="fil0" d="M6043 3964c3,-6 10,-18 17,-31 10,-19 28,-53 33,-61 69,-101 155,-146 270,-142 57,2 105,17 145,38 -25,112 -83,218 -174,302 -173,159 -416,194 -620,109 136,-15 260,-93 329,-215z"/>
  <path class="fil0" d="M6036 3340l-4 2c-62,34 -141,16 -217,-1 -12,-3 -24,-5 -36,-8 -53,-11 -124,-22 -194,-8 -67,13 -128,42 -180,81 32,-71 78,-138 139,-194 185,-170 451,-198 662,-90 -34,102 -91,175 -170,218z"/>
  <path class="fil0" d="M5602 3414c55,-10 114,-1 159,9 11,2 23,5 34,7 88,20 188,43 281,-8l3 -2c95,-51 165,-134 207,-248 29,22 57,46 82,74 111,121 161,275 153,427 -45,-19 -96,-33 -155,-35 -145,-5 -262,57 -348,183 -8,11 -21,35 -39,69 -6,12 -12,23 -15,29 -67,117 -197,183 -331,170 -32,-3 -64,-11 -93,-23 -10,-10 -20,-20 -30,-30 -111,-121 -161,-275 -153,-426 45,-99 135,-174 245,-196z"/>
  <g id="_804588352">
   <path class="fil0" d="M6677 3006l0 0c24,-13 44,-32 60,-55 16,-24 25,-51 28,-79 -15,-3 -30,-4 -45,-4 -93,0 -173,56 -208,136 51,29 113,30 165,2z"/>
   <path class="fil0" d="M6768 3192c-24,13 -44,32 -60,55 -14,21 -23,45 -27,70 13,3 26,4 39,4 91,0 169,-54 205,-131 -49,-25 -107,-25 -157,2z"/>
   <path class="fil2" d="M6799 2882c-3,31 -14,62 -33,89 -18,28 -43,50 -72,66 0,0 0,0 0,0 -61,33 -133,33 -193,1 -5,18 -7,37 -7,56 0,100 64,184 153,215 4,-29 15,-57 32,-82 18,-28 43,-50 72,-66 59,-32 128,-33 187,-5 5,-19 9,-40 9,-62 0,-97 -62,-180 -148,-212z"/>
  </g>
  <path class="fil0" d="M3725 4157c10,-7 21,-13 32,-19 6,-4 11,-6 17,-9 5,-3 11,-6 17,-8 23,-11 46,-20 69,-28 46,-17 91,-32 136,-47 27,-10 53,-19 79,-29 12,-52 23,-111 48,-140 35,-40 96,-74 149,-91 -9,49 -37,126 -71,166 -6,7 -14,14 -22,21 27,-12 53,-25 79,-39 24,-13 48,-27 70,-41 -4,-66 -19,-151 1,-198 23,-56 77,-116 129,-154 8,58 6,152 -17,208 -15,37 -48,79 -76,119 43,-30 84,-63 121,-100 28,-27 54,-56 78,-87 -23,-63 -61,-142 -55,-194 7,-60 42,-132 82,-183 24,54 48,144 41,204 -5,40 -25,90 -40,135 22,-32 43,-66 62,-101 5,-11 10,-21 15,-32 6,-11 10,-21 15,-32 9,-22 17,-44 24,-67 4,-12 7,-24 11,-36 -44,-51 -108,-110 -122,-160 -15,-58 -8,-139 10,-200 42,41 97,117 112,175 10,35 10,83 12,128 3,-15 5,-30 7,-45 9,-72 10,-145 4,-217 -51,-41 -132,-87 -156,-135 -26,-52 -36,-129 -30,-190 47,30 113,91 139,142 20,39 31,101 44,150 -1,-12 -2,-23 -4,-34 -11,-86 -29,-171 -54,-253 -46,-22 -84,-61 -105,-112 -21,-54 -18,-114 -4,-174 47,30 96,74 118,128 20,52 19,106 1,154 14,36 26,74 36,111 8,27 14,54 19,81 -3,-48 -11,-103 -5,-143 8,-57 52,-136 86,-180 25,57 41,133 33,190 -8,53 -71,123 -106,179 1,5 2,10 3,15 11,74 16,149 13,223 11,-54 14,-128 32,-175 21,-57 84,-127 129,-164 13,64 12,145 -10,201 -20,55 -104,114 -152,163 -1,14 -2,29 -4,43 -4,43 -12,86 -23,128 16,-35 33,-70 53,-93 39,-49 123,-98 179,-120 -8,66 -35,146 -74,194 -34,43 -123,73 -186,103 0,1 0,1 -1,2 -4,11 -9,23 -14,34 -5,11 -11,22 -16,33 -17,34 -36,67 -57,99 29,-32 59,-65 87,-84 53,-37 150,-60 212,-65 -27,63 -77,133 -130,170 -48,33 -147,35 -218,47 -20,25 -41,49 -64,71 -21,22 -42,42 -65,61 39,-22 80,-45 114,-54 62,-18 162,-8 222,7 -47,51 -117,101 -179,119 -54,15 -146,-13 -216,-26 -34,25 -70,48 -106,68 7,-1 14,-2 20,-3 58,-5 145,20 196,44 -50,37 -120,70 -178,75 -45,4 -111,-28 -168,-51 -46,21 -93,39 -140,57 -45,17 -91,32 -135,49 -22,8 -44,17 -65,27 -5,2 -10,5 -15,7 -5,3 -11,6 -15,9 -10,5 -20,11 -30,18 -38,25 -73,54 -101,89 -3,3 -5,5 -7,8l-11 -70c27,-28 58,-52 91,-72z"/>
  <path class="fil0" d="M4271 4157c-10,-7 -21,-13 -32,-19 -6,-4 -11,-6 -17,-9 -6,-3 -11,-6 -17,-8 -23,-11 -46,-20 -69,-28 -46,-17 -91,-32 -137,-47 -26,-10 -52,-19 -78,-29 -12,-52 -23,-111 -49,-140 -34,-40 -95,-74 -148,-91 9,49 36,126 71,166 6,7 13,14 22,21 -27,-12 -53,-25 -79,-39 -24,-13 -48,-27 -71,-41 5,-66 20,-151 0,-198 -23,-56 -77,-116 -129,-154 -9,58 -6,152 17,208 15,37 48,79 76,119 -43,-30 -84,-63 -121,-100 -28,-27 -54,-56 -78,-87 22,-63 61,-142 55,-194 -7,-60 -43,-132 -82,-183 -24,54 -48,144 -41,204 5,40 25,90 40,135 -22,-32 -43,-66 -62,-101 -5,-11 -11,-21 -16,-32 -5,-11 -10,-21 -14,-32 -9,-22 -17,-44 -24,-67 -4,-12 -8,-24 -11,-36 44,-51 108,-110 122,-160 15,-58 8,-139 -10,-200 -42,41 -97,117 -113,175 -9,35 -9,83 -11,128 -3,-15 -5,-30 -7,-45 -9,-72 -10,-145 -4,-217 51,-41 132,-87 156,-135 26,-52 36,-129 30,-190 -47,30 -114,91 -140,142 -19,39 -30,101 -43,150 1,-12 2,-23 4,-34 11,-86 28,-171 53,-253 47,-22 85,-61 106,-112 21,-54 18,-114 4,-174 -47,30 -96,74 -118,128 -20,52 -19,106 -1,154 -14,36 -26,74 -36,111 -8,27 -14,54 -19,81 3,-48 11,-103 5,-143 -8,-57 -52,-136 -86,-180 -25,57 -41,133 -33,190 7,53 70,123 106,179 -1,5 -2,10 -3,15 -11,74 -16,149 -13,223 -11,-54 -14,-128 -32,-175 -21,-57 -84,-127 -129,-164 -13,64 -12,145 10,201 20,55 104,114 152,163 1,14 2,29 4,43 4,43 12,86 23,128 -16,-35 -34,-70 -53,-93 -39,-49 -123,-98 -179,-120 8,66 35,146 74,194 34,43 123,73 186,103 0,1 0,1 1,2 4,11 9,23 14,34 5,11 10,22 16,33 17,34 36,67 57,99 -29,-32 -59,-65 -87,-84 -53,-37 -151,-60 -213,-65 28,63 78,133 131,170 48,33 147,35 218,47 20,25 41,49 64,71 20,22 42,42 65,61 -39,-22 -80,-45 -114,-54 -62,-18 -162,-8 -222,7 46,51 117,101 179,119 54,15 146,-13 216,-26 34,25 70,48 106,68 -7,-1 -14,-2 -21,-3 -57,-5 -144,20 -195,44 50,37 120,70 178,75 45,4 111,-28 167,-51 47,21 94,39 141,57 45,17 91,32 135,49 22,8 44,17 65,27 5,2 10,5 15,7 5,3 11,6 15,9 10,5 20,11 30,18 38,25 73,54 101,89 2,3 4,5 6,8l12 -70c-28,-28 -58,-52 -91,-72z"/>
  <path class="fil2" d="M1073 3256l-1 0c51,-59 83,-141 83,-232 0,-177 -120,-321 -267,-321 -146,0 -266,144 -266,321 0,92 33,176 85,234 20,27 151,198 151,272 0,0 0,0 0,0 -1,1 -2,1 -3,1 -1,0 -2,0 -2,1 -7,1 -8,6 -9,7 -2,8 7,11 11,25 3,14 -9,15 -9,29 0,14 9,14 9,28 0,14 -9,14 -9,27 0,14 9,14 9,28 0,14 -9,14 -9,28 0,14 12,15 9,29 -4,13 -13,17 -11,25 1,1 2,6 9,7 2,1 6,2 10,2 0,0 1,0 1,0 1,0 2,0 4,1 0,0 1,0 2,0 1,0 2,0 2,0 2,0 3,0 4,0 1,0 1,0 1,0 4,0 8,0 12,0 14,0 28,-1 35,-3 2,0 6,-1 8,-5 4,-10 -10,-15 -10,-28 0,-14 10,-14 10,-28 0,-14 -10,-14 -10,-28 0,-14 10,-14 10,-27l0 -1c0,-14 -10,-14 -10,-27 0,-14 10,-14 10,-28 0,-14 -10,-14 -10,-28 0,-13 14,-18 10,-28 -2,-4 -6,-5 -8,-6 -1,0 -3,0 -5,0 0,-1 0,-1 0,-1 0,-80 154,-274 154,-274zm-332 -1l-2 0c-2,-2 -4,-4 -6,-6l0 -10 45 0 0 45 -4 0c-11,-7 -22,-16 -32,-26l-1 -3zm304 -390l0 45 -45 0 0 -45 45 0zm-45 -53l45 0 0 45 -45 0 0 -45zm60 419l-6 0 0 -45 35 0c-9,16 -18,31 -29,45zm39 -214l-45 0 0 -45 45 0 0 45zm0 53l-45 0 0 -45 45 0 0 45zm0 -107l-45 0 0 -44 45 0 0 44zm-45 116l45 0 0 45 -45 0 0 -45zm0 98l0 -45 45 0 0 34c-2,3 -4,7 -6,11l-39 0zm53 -45l4 0c-1,4 -2,8 -4,12l0 -12zm0 -8l0 -45 17 0c-3,15 -6,30 -10,45l-7 0zm0 -54l0 -45 21 0c0,16 -1,31 -3,45l-18 0zm0 -53l0 -45 17 0c2,15 4,30 4,45l-21 0zm0 -54l0 -44 5 0c5,14 8,29 11,44l-16 0zm0 -53l0 -7c1,3 2,5 3,7l-3 0zm-8 0l-45 0 0 -45 37 0c2,6 5,11 8,17l0 28zm-45 -53l0 -45 1 0c12,13 22,28 31,45l-32 0zm-9 62l0 44 -45 0 0 -44 45 0zm0 53l0 45 -45 0 0 -45 45 0zm0 53l0 45 -45 0 0 -45 45 0zm0 54l0 45 -45 0 0 -45 45 0zm0 53l0 45 -45 0 0 -45 45 0zm0 54l0 45 -45 0 0 -45 45 0zm0 53l0 8c-13,14 -27,27 -42,37l-3 0 0 -45 45 0zm-98 -115l0 -45 45 0 0 45 -45 0zm45 8l0 45 -45 0 0 -45 45 0zm0 -62l-45 0 0 -45 45 0 0 45zm0 -160l-45 0 0 -45 45 0 0 45zm0 9l0 44 -45 0 0 -44 45 0zm0 -62l-45 0 0 -45 45 0 0 45zm-45 -54l0 -45 45 0 0 45 -45 0zm0 169l45 0 0 45 -45 0 0 -45zm45 214l0 45 -45 0 0 -45 45 0zm-45 53l45 0 0 45 -45 0 0 -45zm0 -489l0 -13c11,3 22,7 32,13l-32 0zm-53 481l0 -45 44 0 0 45 -44 0zm44 8l0 45 -44 0 0 -45 44 0zm0 -276l-44 0 0 -44 44 0 0 44zm0 169l0 45 -44 0 0 -45 44 0zm0 -160l0 45 -44 0 0 -45 44 0zm-44 53l44 0 0 45 -44 0 0 -45zm44 54l0 45 -44 0 0 -45 44 0zm-44 -169l0 -45 44 0 0 45 -44 0zm44 -98l0 45 -44 0 0 -45 44 0zm-44 -54l44 0 0 45 -44 0 0 -45zm44 -8l-44 0 0 -22c15,0 30,2 44,6l0 16zm-98 489l45 0 0 45 -45 0 0 -45zm0 -53l45 0 0 45 -45 0 0 -45zm0 -9l0 -45 45 0 0 45 -45 0zm0 -365l45 0 0 45 -45 0 0 -45zm0 -54l45 0 0 45 -45 0 0 -45zm45 107l0 45 -45 0 0 -45 45 0zm0 54l0 44 -45 0 0 -44 45 0zm0 106l0 45 -45 0 0 -45 45 0zm-45 -8l0 -45 45 0 0 45 -45 0zm45 62l0 45 -45 0 0 -45 45 0zm0 -329l-45 0 0 -16c15,-4 30,-6 45,-6l0 22zm-107 222l0 45 -45 0 0 -45 45 0zm-45 -53l45 0 0 44 -45 0 0 -44zm0 106l45 0 0 45 -45 0 0 -45zm45 54l0 45 -45 0 0 -45 45 0zm0 53l0 45 -45 0 0 -45 45 0zm-45 54l45 0 0 45 -45 0 0 -45zm54 -374l45 0 0 45 -45 0 0 -45zm0 -9l0 -45 45 0 0 45 -45 0zm45 383l0 45 -45 0 0 -45 45 0zm-45 -9l0 -45 45 0 0 45 -45 0zm0 -53l0 -45 45 0 0 45 -45 0zm45 -54l-45 0 0 -45 45 0 0 45zm-45 -53l0 -45 45 0 0 45 -45 0zm45 -152l0 45 -45 0 0 -45 45 0zm-45 374l45 0 0 45 -45 0 0 -45zm0 -276l0 -44 45 0 0 44 -45 0zm45 -213l-34 0c11,-6 22,-10 34,-14l0 14zm-54 160l-45 0 0 -45 45 0 0 45zm-54 329l1 0 0 1c0,0 -1,-1 -1,-1zm54 -382l-45 0 0 -45 45 0 0 45zm-53 -45l0 45 -34 0c9,-17 19,-32 30,-45l4 0zm0 53l0 45 -45 0 0 -32c2,-4 4,-9 6,-13l39 0zm-45 205l0 -45 45 0 0 45 -45 0zm45 9l0 45 -45 0 0 -45 45 0zm-45 -62l0 -45 45 0 0 45 -45 0zm45 -54l-45 0 0 -44 45 0 0 44zm-54 -44l0 44 -17 0c2,-15 6,-30 10,-44l7 0zm-4 -9c2,-4 3,-8 4,-11l0 11 -4 0zm4 62l0 45 -22 0c0,-15 1,-30 4,-45l18 0zm0 53l0 45 -19 0c-2,-14 -3,-29 -3,-45l22 0zm0 54l0 45 -8 0c-4,-15 -8,-30 -10,-45l18 0zm0 53l0 17c-2,-6 -4,-11 -5,-17l5 0zm9 0l45 0 0 45 -41 0c-2,-2 -3,-5 -4,-8l0 -37zm45 54l0 45 -8 0c-11,-14 -21,-29 -29,-45l37 0zm107 107l0 18c-16,-4 -30,-11 -44,-18l44 0zm8 0l45 0 0 27c-15,-1 -30,-3 -45,-6l0 -21zm54 27l0 -27 44 0 0 20c-14,4 -29,6 -44,7zm53 -9l0 -18 42 0c-14,7 -28,13 -42,18zm98 -511l0 3 -45 0 0 -41c17,11 32,23 45,38zm-267 -39l0 42 -45 0 0 -5c14,-14 29,-27 45,-37zm111 767c-1,0 -2,0 -4,1 -17,-65 -66,-150 -110,-215 34,20 73,31 113,31 41,0 80,-12 115,-32 -44,66 -94,150 -111,216 -1,0 -2,-1 -3,-1z"/>
  <g id="_804585976">
   <path class="fil2" d="M1184 6165c8,-5 15,-9 23,-13 4,-2 7,-4 11,-6 4,-2 8,-4 12,-6 15,-7 31,-13 47,-19 31,-11 62,-21 93,-32 18,-6 36,-13 54,-20 8,-35 16,-76 33,-95 23,-28 65,-51 101,-63 -6,34 -25,87 -48,114 -4,5 -9,10 -15,15 18,-9 36,-18 54,-27 16,-9 32,-19 48,-28 -3,-46 -13,-103 0,-136 16,-38 53,-79 89,-105 5,40 4,104 -12,142 -10,25 -33,55 -52,82 29,-21 57,-43 83,-69 19,-18 36,-38 53,-59 -16,-43 -42,-97 -38,-132 5,-41 29,-91 56,-126 17,37 33,99 28,140 -3,27 -17,61 -27,92 15,-22 29,-45 42,-69 4,-8 7,-15 11,-22 3,-7 7,-15 10,-22 6,-15 12,-30 16,-45 3,-9 5,-17 8,-26 -30,-34 -74,-74 -83,-108 -11,-40 -6,-95 6,-137 29,28 66,79 77,119 6,24 7,57 8,88 2,-10 3,-21 5,-31 6,-49 6,-99 3,-148 -35,-28 -91,-60 -107,-92 -18,-36 -24,-89 -21,-130 32,20 78,62 96,97 13,27 20,69 30,102 -1,-8 -2,-16 -3,-23 -8,-59 -20,-117 -37,-173 -31,-15 -58,-41 -72,-76 -15,-37 -12,-78 -3,-120 33,21 66,52 81,88 14,35 13,73 1,105 9,25 17,51 24,76 5,19 10,37 13,56 -2,-33 -7,-71 -4,-98 6,-39 36,-93 60,-123 17,39 28,91 22,130 -5,36 -48,84 -72,122 1,3 1,7 2,11 7,50 11,101 9,152 7,-37 9,-88 21,-120 15,-39 58,-87 89,-112 8,43 8,99 -7,138 -14,37 -71,77 -104,111 -1,9 -1,19 -3,29 -3,30 -8,59 -16,88 12,-24 23,-48 36,-64 27,-34 85,-67 123,-82 -6,45 -24,100 -51,133 -23,29 -84,49 -127,70 0,0 0,1 0,1 -3,8 -7,16 -10,23 -4,8 -7,15 -11,23 -11,23 -25,46 -39,68 20,-22 40,-45 60,-58 36,-25 102,-41 145,-44 -19,43 -53,91 -90,116 -32,22 -100,24 -149,32 -13,17 -28,33 -43,49 -14,14 -29,28 -44,41 26,-15 54,-30 77,-37 43,-12 111,-5 152,6 -32,34 -80,68 -122,80 -37,11 -100,-8 -148,-17 -23,17 -47,32 -72,46 5,0 9,-1 14,-2 39,-3 99,14 133,30 -34,26 -82,48 -121,52 -31,2 -76,-19 -115,-35 -31,14 -63,27 -96,38 -31,12 -62,23 -92,34 -15,6 -30,12 -44,19 -4,1 -7,3 -11,5 -3,1 -7,4 -10,5 -7,4 -13,8 -20,13 -26,17 -50,37 -70,61 -1,1 -2,3 -4,5l-8 -48c19,-19 40,-35 62,-49z"/>
   <path class="fil2" d="M1558 6165c-7,-5 -15,-9 -22,-13 -4,-2 -8,-4 -12,-6 -4,-2 -8,-4 -11,-6 -16,-7 -32,-13 -47,-19 -32,-11 -63,-21 -94,-32 -18,-6 -36,-13 -53,-20 -9,-35 -16,-76 -34,-95 -23,-28 -65,-51 -101,-63 6,34 25,87 48,114 4,5 10,10 15,15 -18,-9 -36,-18 -54,-27 -16,-9 -32,-19 -48,-28 3,-46 13,-103 0,-136 -16,-38 -53,-79 -88,-105 -6,40 -5,104 11,142 11,25 33,55 52,82 -29,-21 -57,-43 -82,-69 -20,-18 -37,-38 -54,-59 16,-43 42,-97 38,-132 -5,-41 -29,-91 -56,-126 -16,37 -33,99 -28,140 3,27 17,61 27,92 -15,-22 -29,-45 -42,-69 -4,-8 -7,-15 -11,-22 -3,-7 -7,-15 -10,-22 -6,-15 -11,-30 -16,-45 -3,-9 -5,-17 -7,-26 30,-34 74,-74 83,-108 10,-40 6,-95 -7,-137 -28,28 -66,79 -77,119 -6,24 -7,57 -8,88 -2,-10 -3,-21 -4,-31 -7,-49 -7,-99 -3,-148 34,-28 90,-60 107,-92 17,-36 24,-89 20,-130 -32,20 -78,62 -95,97 -14,27 -21,69 -30,102 0,-8 1,-16 2,-23 8,-59 20,-117 37,-173 32,-15 58,-41 72,-76 15,-37 12,-78 3,-120 -32,21 -66,52 -81,88 -14,35 -13,73 -1,105 -9,25 -17,51 -24,76 -5,19 -9,37 -13,56 2,-33 7,-71 4,-98 -6,-39 -36,-93 -60,-123 -16,39 -27,91 -22,130 5,36 48,84 72,122 0,3 -1,7 -2,11 -7,50 -11,101 -9,152 -7,-37 -9,-88 -21,-120 -15,-39 -58,-87 -89,-112 -8,43 -7,99 7,138 14,37 72,77 104,111 1,9 2,19 3,29 3,30 8,59 16,88 -11,-24 -23,-48 -36,-64 -27,-34 -84,-67 -123,-82 6,45 24,100 51,133 23,29 84,49 127,70 0,0 0,1 0,1 3,8 7,16 10,23 4,8 7,15 11,23 12,23 25,46 39,68 -20,-22 -40,-45 -59,-58 -37,-25 -103,-41 -146,-44 19,43 54,91 90,116 32,22 100,24 149,32 13,17 28,33 43,49 14,14 29,28 45,41 -27,-15 -55,-30 -78,-37 -43,-12 -111,-5 -152,6 32,34 80,68 122,80 37,11 100,-8 148,-17 23,17 48,32 72,46 -5,0 -9,-1 -14,-2 -39,-3 -98,14 -133,30 34,26 82,48 122,52 30,2 75,-19 114,-35 31,14 64,27 96,38 31,12 62,23 92,34 15,6 30,12 44,19 4,1 7,3 11,5 3,1 7,4 10,5 7,4 14,8 20,13 26,17 50,37 70,61 1,1 3,3 4,5l8 -48c-19,-19 -40,-35 -62,-49z"/>
  </g>
  <path class="fil0" d="M1549 5447l0 0c50,-59 82,-141 82,-232 0,-177 -119,-321 -266,-321 -147,0 -266,144 -266,321 0,92 32,176 84,234 21,27 152,198 152,272 0,0 0,0 0,1 -1,0 -2,0 -3,0 -1,0 -2,0 -3,1 -7,1 -8,6 -8,7 -3,8 7,12 10,25 4,14 -9,15 -9,29 0,14 9,14 9,28 0,14 -9,14 -9,27 0,14 9,14 9,28 0,14 -9,14 -9,28 0,14 13,15 9,29 -3,13 -13,17 -10,25 0,1 1,6 8,7 3,1 6,2 11,2 0,0 0,0 0,0 1,0 3,0 4,1 1,0 2,0 2,0 1,0 2,0 3,0 1,0 2,0 4,0 0,0 0,0 1,0 3,0 7,0 11,0 15,0 28,-1 36,-3 1,0 6,-1 7,-5 5,-10 -9,-15 -9,-28 0,-14 9,-14 9,-28 0,-14 -9,-14 -9,-28 0,-14 9,-14 9,-27l0 -1c0,-13 -9,-13 -9,-27 0,-14 9,-14 9,-28 0,-14 -9,-14 -9,-28 0,-13 14,-18 9,-28 -1,-4 -6,-5 -7,-5 -2,-1 -3,-1 -5,-1 0,0 0,-1 0,-1 0,-80 153,-274 153,-274zm-332 -1l-2 0c-2,-2 -3,-4 -5,-6l0 -10 45 0 0 45 -4 0c-11,-7 -22,-16 -32,-26l-2 -3zm305 -390l0 45 -45 0 0 -45 45 0zm-45 -53l45 0 0 45 -45 0 0 -45zm59 419l-6 0 0 -45 35 0c-8,16 -18,31 -29,45zm39 -214l-45 0 0 -45 45 0 0 45zm0 53l-45 0 0 -45 45 0 0 45zm0 -107l-45 0 0 -44 45 0 0 44zm-45 116l45 0 0 45 -45 0 0 -45zm0 98l0 -45 45 0 0 34c-2,3 -3,7 -5,11l-40 0zm54 -45l4 0c-1,4 -3,8 -4,12l0 -12zm0 -8l0 -45 16 0c-2,15 -5,30 -10,45l-6 0zm0 -54l0 -45 20 0c0,16 -1,31 -3,45l-17 0zm0 -53l0 -45 17 0c2,15 3,30 3,45l-20 0zm0 -54l0 -44 5 0c4,14 8,29 10,44l-15 0zm0 -53l0 -6c1,2 1,4 2,6l-2 0zm-9 0l-45 0 0 -45 37 0c3,6 6,11 8,17l0 28zm-45 -53l0 -45 2 0c11,13 22,28 30,45l-32 0zm-8 62l0 44 -45 0 0 -44 45 0zm0 53l0 45 -45 0 0 -45 45 0zm0 53l0 45 -45 0 0 -45 45 0zm0 54l0 45 -45 0 0 -45 45 0zm0 53l0 45 -45 0 0 -45 45 0zm0 54l0 45 -45 0 0 -45 45 0zm0 53l0 8c-13,14 -28,27 -43,37l-2 0 0 -45 45 0zm-99 -115l0 -45 45 0 0 45 -45 0zm45 8l0 45 -45 0 0 -45 45 0zm0 -62l-45 0 0 -45 45 0 0 45zm0 -160l-45 0 0 -45 45 0 0 45zm0 9l0 44 -45 0 0 -44 45 0zm0 -62l-45 0 0 -45 45 0 0 45zm-45 -54l0 -45 45 0 0 45 -45 0zm0 169l45 0 0 45 -45 0 0 -45zm45 214l0 45 -45 0 0 -45 45 0zm-45 53l45 0 0 45 -45 0 0 -45zm0 -489l0 -13c11,3 22,8 32,13l-32 0zm-53 481l0 -45 45 0 0 45 -45 0zm45 8l0 45 -45 0 0 -45 45 0zm0 -276l-45 0 0 -44 45 0 0 44zm0 169l0 45 -45 0 0 -45 45 0zm0 -160l0 45 -45 0 0 -45 45 0zm-45 53l45 0 0 45 -45 0 0 -45zm45 54l0 45 -45 0 0 -45 45 0zm-45 -169l0 -45 45 0 0 45 -45 0zm45 -98l0 45 -45 0 0 -45 45 0zm-45 -54l45 0 0 45 -45 0 0 -45zm45 -8l-45 0 0 -22c15,0 30,3 45,6l0 16zm-98 489l44 0 0 45 -44 0 0 -45zm0 -53l44 0 0 45 -44 0 0 -45zm0 -9l0 -45 44 0 0 45 -44 0zm0 -365l44 0 0 45 -44 0 0 -45zm0 -54l44 0 0 45 -44 0 0 -45zm44 107l0 45 -44 0 0 -45 44 0zm0 54l0 44 -44 0 0 -44 44 0zm0 106l0 45 -44 0 0 -45 44 0zm-44 -8l0 -45 44 0 0 45 -44 0zm44 62l0 45 -44 0 0 -45 44 0zm0 -329l-44 0 0 -16c14,-4 29,-6 44,-6l0 22zm-106 222l0 45 -45 0 0 -45 45 0zm-45 -53l45 0 0 44 -45 0 0 -44zm0 106l45 0 0 45 -45 0 0 -45zm45 54l0 45 -45 0 0 -45 45 0zm0 53l0 45 -45 0 0 -45 45 0zm-45 54l45 0 0 45 -45 0 0 -45zm53 -374l45 0 0 45 -45 0 0 -45zm0 -9l0 -45 45 0 0 45 -45 0zm45 383l0 45 -45 0 0 -45 45 0zm-45 -9l0 -45 45 0 0 45 -45 0zm0 -53l0 -45 45 0 0 45 -45 0zm45 -54l-45 0 0 -45 45 0 0 45zm-45 -53l0 -45 45 0 0 45 -45 0zm45 -152l0 45 -45 0 0 -45 45 0zm-45 374l45 0 0 45 -45 0 0 -45zm0 -276l0 -44 45 0 0 44 -45 0zm45 -213l-34 0c11,-6 22,-10 34,-14l0 14zm-53 160l-45 0 0 -45 45 0 0 45zm-54 329l0 0 0 1c0,0 0,-1 0,-1zm54 -382l-45 0 0 -45 45 0 0 45zm-54 -45l0 45 -34 0c9,-17 19,-32 31,-45l3 0zm0 53l0 45 -45 0 0 -32c2,-4 4,-9 7,-13l38 0zm-45 205l0 -45 45 0 0 45 -45 0zm45 9l0 45 -45 0 0 -45 45 0zm-45 -62l0 -45 45 0 0 45 -45 0zm45 -54l-45 0 0 -44 45 0 0 44zm-53 -44l0 44 -18 0c3,-15 6,-30 11,-44l7 0zm-4 -9c1,-4 2,-7 4,-11l0 11 -4 0zm4 62l0 45 -23 0c1,-15 2,-30 4,-45l19 0zm0 53l0 45 -20 0c-2,-14 -3,-29 -3,-45l23 0zm0 54l0 45 -9 0c-4,-15 -7,-30 -10,-45l19 0zm0 53l0 17c-2,-6 -4,-11 -6,-17l6 0zm8 0l45 0 0 45 -41 0c-1,-2 -2,-5 -4,-8l0 -37zm45 54l0 45 -7 0c-11,-14 -21,-29 -30,-45l37 0zm107 107l0 18c-15,-4 -30,-10 -43,-18l43 0zm9 0l44 0 0 27c-15,-1 -30,-3 -44,-6l0 -21zm53 27l0 -27 45 0 0 20c-15,4 -30,6 -45,7zm53 -9l0 -18 42 0c-13,7 -27,13 -42,18zm99 -511l0 3 -45 0 0 -41c16,11 31,24 45,38zm-267 -39l0 42 -45 0 0 -5c13,-14 28,-27 45,-37zm110 768c-1,0 -2,0 -3,0 -17,-65 -67,-149 -111,-215 35,20 73,31 114,31 41,0 80,-11 115,-32 -44,66 -94,150 -111,216 -2,0 -3,0 -4,0z"/>
  <circle class="fil1" cx="320" cy="3743" r="236"/>
  <g id="_804586216">
   <path class="fil2" d="M279 3658l0 0c23,-12 42,-29 57,-51 16,-23 24,-49 27,-75 -14,-3 -28,-5 -43,-5 -88,0 -164,54 -197,130 48,27 107,28 156,1z"/>
   <path class="fil2" d="M366 3836c-23,12 -42,29 -57,51 -14,21 -22,44 -26,68 12,2 25,3 37,3 87,0 161,-51 195,-125 -47,-23 -102,-23 -149,3z"/>
   <path class="fil2" d="M396 3541c-4,30 -15,59 -32,84 -17,27 -41,48 -69,63 0,0 0,0 0,0 -57,31 -126,31 -183,1 -5,17 -7,35 -7,54 0,94 61,174 146,203 4,-27 14,-54 30,-77 17,-27 41,-48 69,-63 55,-30 121,-31 177,-5 5,-18 8,-38 8,-58 0,-93 -58,-171 -139,-202z"/>
  </g>
  <path class="fil0" d="M4981 1867l0 0c50,-58 82,-141 82,-232 0,-177 -119,-321 -266,-321 -147,0 -266,144 -266,321 0,93 32,176 84,235 21,26 151,197 151,272 0,0 0,0 0,0 -1,0 -2,0 -2,1 -1,0 -2,0 -3,0 -7,2 -8,6 -8,7 -3,9 7,12 10,26 4,13 -9,15 -9,29 0,13 9,13 9,27 0,14 -9,14 -9,28 0,14 9,14 9,28 0,14 -9,14 -9,27 0,14 13,16 9,29 -3,14 -13,17 -10,26 0,1 1,5 8,7 3,1 6,1 11,2 0,0 0,0 0,0 1,0 3,0 4,0 1,0 1,0 2,0 1,0 2,0 3,0 1,1 2,1 4,1 0,0 0,0 1,0 3,0 7,0 11,0 15,0 28,-1 35,-3 2,0 7,-1 8,-5 5,-11 -9,-16 -9,-29 0,-14 9,-14 9,-28 0,-13 -9,-13 -9,-27 0,-14 9,-14 9,-28l0 0c0,-14 -9,-14 -9,-28 0,-14 9,-14 9,-27 0,-14 -9,-14 -9,-28 0,-13 14,-18 9,-29 -1,-4 -6,-5 -8,-5 -1,0 -2,-1 -4,-1 0,0 0,0 0,0 0,-81 153,-275 153,-275zm-332 -1l-2 0c-2,-1 -4,-3 -5,-5l0 -10 44 0 0 45 -3 0c-12,-8 -22,-17 -32,-26l-2 -4zm305 -389l0 45 -45 0 0 -45 45 0zm-45 -54l45 0 0 45 -45 0 0 -45zm59 419l-6 0 0 -45 35 0c-8,16 -18,31 -29,45zm39 -214l-45 0 0 -44 45 0 0 44zm0 54l-45 0 0 -45 45 0 0 45zm0 -107l-45 0 0 -45 45 0 0 45zm-45 115l45 0 0 45 -45 0 0 -45zm0 99l0 -45 45 0 0 33c-2,4 -3,8 -5,12l-40 0zm54 -45l4 0c-2,4 -3,8 -4,12l0 -12zm0 -9l0 -45 16 0c-2,16 -6,31 -10,45l-6 0zm0 -53l0 -45 20 0c0,15 -1,30 -3,45l-17 0zm0 -54l0 -44 17 0c2,14 3,29 3,44l-20 0zm0 -53l0 -45 5 0c4,15 8,30 10,45l-15 0zm0 -53l0 -7c0,2 1,4 2,7l-2 0zm-9 0l-45 0 0 -45 37 0c3,5 6,11 8,17l0 28zm-45 -54l0 -45 2 0c11,14 21,29 30,45l-32 0zm-8 62l0 45 -45 0 0 -45 45 0zm0 54l0 44 -45 0 0 -44 45 0zm0 53l0 45 -45 0 0 -45 45 0zm0 53l0 45 -45 0 0 -45 45 0zm0 54l0 45 -45 0 0 -45 45 0zm0 53l0 45 -45 0 0 -45 45 0zm0 54l0 8c-13,14 -28,26 -43,37l-2 0 0 -45 45 0zm-99 -116l0 -45 45 0 0 45 -45 0zm45 9l0 45 -45 0 0 -45 45 0zm0 -62l-45 0 0 -45 45 0 0 45zm0 -160l-45 0 0 -45 45 0 0 45zm0 8l0 45 -45 0 0 -45 45 0zm0 -62l-45 0 0 -45 45 0 0 45zm-45 -53l0 -45 45 0 0 45 -45 0zm0 169l45 0 0 44 -45 0 0 -44zm45 213l0 45 -45 0 0 -45 45 0zm-45 54l45 0 0 45 -45 0 0 -45zm0 -490l0 -13c11,4 22,8 32,13l-32 0zm-53 481l0 -45 45 0 0 45 -45 0zm45 9l0 45 -45 0 0 -45 45 0zm0 -276l-45 0 0 -45 45 0 0 45zm0 169l0 45 -45 0 0 -45 45 0zm0 -160l0 44 -45 0 0 -44 45 0zm-45 53l45 0 0 45 -45 0 0 -45zm45 53l0 45 -45 0 0 -45 45 0zm-45 -168l0 -45 45 0 0 45 -45 0zm45 -99l0 45 -45 0 0 -45 45 0zm-45 -53l45 0 0 45 -45 0 0 -45zm45 -9l-45 0 0 -22c15,1 30,3 45,7l0 15zm-98 490l44 0 0 45 -44 0 0 -45zm0 -54l44 0 0 45 -44 0 0 -45zm0 -8l0 -45 44 0 0 45 -44 0zm0 -366l44 0 0 45 -44 0 0 -45zm0 -53l44 0 0 45 -44 0 0 -45zm44 107l0 45 -44 0 0 -45 44 0zm0 53l0 45 -44 0 0 -45 44 0zm0 107l0 45 -44 0 0 -45 44 0zm-44 -9l0 -44 44 0 0 44 -44 0zm44 62l0 45 -44 0 0 -45 44 0zm0 -329l-44 0 0 -16c14,-3 29,-5 44,-6l0 22zm-107 223l0 44 -44 0 0 -44 44 0zm-44 -54l44 0 0 45 -44 0 0 -45zm0 107l44 0 0 45 -44 0 0 -45zm44 53l0 45 -44 0 0 -45 44 0zm0 54l0 45 -44 0 0 -45 44 0zm-44 53l44 0 0 45 -44 0 0 -45zm53 -374l45 0 0 45 -45 0 0 -45zm0 -8l0 -45 45 0 0 45 -45 0zm45 382l0 45 -45 0 0 -45 45 0zm-45 -8l0 -45 45 0 0 45 -45 0zm0 -54l0 -45 45 0 0 45 -45 0zm45 -53l-45 0 0 -45 45 0 0 45zm-45 -54l0 -44 45 0 0 44 -45 0zm45 -151l0 45 -45 0 0 -45 45 0zm-45 374l45 0 0 45 -45 0 0 -45zm0 -276l0 -45 45 0 0 45 -45 0zm45 -214l-34 0c11,-5 22,-10 34,-13l0 13zm-54 161l-44 0 0 -45 44 0 0 45zm-53 329l0 0 0 0c0,0 0,0 0,0zm53 -383l-44 0 0 -45 44 0 0 45zm-53 -45l0 45 -34 0c9,-16 19,-31 31,-45l3 0zm0 54l0 45 -45 0 0 -32c2,-5 4,-9 7,-13l38 0zm-45 205l0 -45 45 0 0 45 -45 0zm45 8l0 45 -45 0 0 -45 45 0zm-45 -62l0 -44 45 0 0 44 -45 0zm45 -53l-45 0 0 -45 45 0 0 45zm-53 -45l0 45 -18 0c3,-15 6,-30 11,-45l7 0zm-4 -8c1,-4 2,-8 4,-12l0 12 -4 0zm4 62l0 44 -23 0c1,-15 2,-30 4,-44l19 0zm0 53l0 45 -20 0c-2,-15 -3,-30 -3,-45l23 0zm0 53l0 45 -9 0c-4,-14 -7,-29 -10,-45l19 0zm0 54l0 16c-2,-5 -4,-11 -6,-16l6 0zm8 0l45 0 0 45 -41 0c-1,-3 -3,-5 -4,-8l0 -37zm45 53l0 45 -8 0c-10,-14 -20,-29 -29,-45l37 0zm107 107l0 19c-15,-5 -30,-11 -43,-19l43 0zm9 0l44 0 0 27c-15,0 -30,-2 -44,-6l0 -21zm53 27l0 -27 45 0 0 21c-15,4 -30,6 -45,6zm53 -9l0 -18 42 0c-13,8 -27,14 -42,18zm99 -510l0 3 -45 0 0 -41c16,10 31,23 45,38zm-268 -39l0 42 -44 0 0 -5c13,-15 28,-27 44,-37zm111 767c-1,0 -2,0 -3,0 -17,-65 -67,-149 -111,-214 35,19 73,30 114,30 41,0 80,-11 115,-31 -44,65 -94,150 -112,215 -1,0 -2,0 -3,0z"/>
  <g id="_804590800">
   <path class="fil0" d="M5336 6287c-69,68 -154,91 -254,68 -8,-2 -26,-8 -50,-16 -9,-4 -16,-6 -20,-8 -86,-27 -180,-1 -240,66 -32,37 -52,83 -56,131 70,103 188,170 322,170 215,0 389,-174 389,-389 0,-46 -8,-89 -22,-130 -13,36 -34,74 -69,108z"/>
   <path class="fil2" d="M5030 6273c4,2 13,5 23,8 13,5 37,13 43,15 80,18 143,2 197,-52 50,-49 65,-107 68,-153 -70,-103 -189,-171 -323,-171 -215,0 -389,174 -389,389 0,48 8,94 24,136 12,-32 30,-62 54,-88 75,-85 195,-118 303,-84z"/>
  </g>
  <g id="_803332288">
   <path class="fil2" d="M3340 2439c-7,-12 -18,-7 -36,-18 -16,-11 -7,-23 -22,-38 -14,-14 -22,-6 -36,-20 -14,-15 -7,-23 -21,-37 -14,-14 -22,-6 -36,-21 -15,-14 -7,-22 -21,-36 -15,-15 -27,-6 -38,-22 -11,-17 -6,-29 -17,-35 -2,-1 -7,-5 -15,-1 -1,1 -3,2 -5,3l-87 -87c-70,-70 -138,-338 -154,-401 0,-7 0,-14 -1,-21 -9,-93 -53,-185 -126,-257 -80,-81 -186,-127 -290,-127 -80,0 -154,29 -206,81 -124,124 -103,347 46,496 77,77 177,123 275,127 56,13 333,82 404,154l87 87c-1,2 -2,3 -3,5 -1,2 -4,7 -1,12 7,15 24,8 38,21 14,15 6,23 20,37 15,14 23,6 37,21 14,14 6,22 21,36l0 0c14,15 22,7 36,21 15,15 7,22 21,37 14,14 22,6 37,20 13,14 6,31 21,38 5,3 10,0 12,-1 8,-4 21,-14 33,-27 13,-13 23,-25 27,-33 4,-8 0,-13 0,-14zm-670 -688l-36 -36 36 -36 36 36 -36 36zm43 -29l36 36 -36 36 -36 -36 36 -36zm-309 -50l-36 36 -36 -36 36 -36 36 36zm-29 -43l36 -36 37 36 -37 36 -36 -36zm36 50l37 36 -37 36 -36 -36 36 -36zm7 -7l36 -36 37 36 -37 36 -36 -36zm159 0l-36 36 -37 -36 37 -36 36 36zm-29 -43l36 -36 36 36 -36 36 -36 -36zm-50 36l-37 -36 37 -36 36 36 -36 36zm0 14l36 36 -36 36 -37 -36 37 -36zm43 43l36 36 -36 36 -36 -36 36 -36zm7 -7l36 -36 36 36 -36 36 -36 -36zm43 -43l36 -36 36 36 -36 36 -36 -36zm43 -43l36 -36 36 36 -36 36 -36 -36zm-7 -7l-36 -36 36 -37 36 37 -36 36zm-43 -43l-36 -36 36 -37 36 36 -36 37zm-7 7l-36 36 -36 -36 36 -37 36 37zm-79 -7l-37 -37 37 -36 36 37 -36 36zm-7 7l-37 36 -36 -36 36 -37 37 37zm-80 -7l-36 -37 36 -36 37 36 -37 37zm-7 7l-36 36 -36 -36 36 -37 36 37zm-79 -7l-36 -37 36 -36 36 36 -36 37zm36 50l-36 36 -36 -36 36 -36 36 36zm0 86l-36 36 -36 -36 36 -36 36 36zm7 7l36 36 -36 36 -36 -36 36 -36zm43 43l37 36 -37 36 -36 -36 36 -36zm7 -7l36 -36 37 36 -37 36 -36 -36zm80 7l36 36 -36 36 -37 -36 37 -36zm43 43l36 36 -36 36 -37 -36 37 -36zm7 -7l36 -36 36 36 -36 36 -36 -36zm43 -43l36 -36 36 36 -36 36 -36 -36zm79 7l36 36 -36 36 -36 -36 36 -36zm43 43l36 36 -36 36 -36 -36 36 -36zm7 -7l36 -36 36 36 -36 36 -36 -36zm36 -50l-36 -36 36 -36 36 36 -36 36zm-43 -43l-36 -36 36 -36 36 36 -36 36zm-36 -122l36 -37 36 37 -36 36 -36 -36zm-7 -7l-36 -37 36 -36 36 36 -36 37zm-43 -43l-36 -37 36 -36 36 36 -36 37zm-43 -44l-36 -36 36 -36 36 36 -36 36zm-7 7l-36 37 -37 -37 37 -36 36 36zm-79 -7l-37 -36 37 -36 36 36 -36 36zm-7 7l-37 37 -36 -37 36 -36 37 36zm-80 -7l-36 -36 36 -36 37 36 -37 36zm-7 7l-36 37 -36 -37 36 -36 36 36zm-79 -7l-36 -36 36 -36 36 36 -36 36zm-7 7l-36 37 -36 -37 36 -36 36 36zm0 87l-36 36 -36 -36 36 -37 36 37zm-43 43l-36 36 -36 -36 36 -36 36 36zm7 7l36 36 -36 36 -36 -36 36 -36zm36 122l-36 36 -36 -36 36 -36 36 36zm7 7l36 36 -36 36 -36 -36 36 -36zm43 43l36 36 -36 36 -36 -36 36 -36zm43 43l37 36 -37 36 -36 -36 36 -36zm7 -7l36 -36 37 36 -37 36 -36 -36zm80 7l36 36 -36 36 -37 -36 37 -36zm43 43l36 36 -36 36 -37 -36 37 -36zm7 -7l36 -36 36 36 -36 36 -36 -36zm43 -43l36 -36 36 36 -36 36 -36 -36zm79 7l36 36 -36 36 -36 -36 36 -36zm43 43l23 23c-12,12 -26,22 -41,31l-18 -18 36 -36zm7 -7l36 -36 18 18c-8,15 -19,29 -31,41l-23 -23zm43 -43l36 -36 1 1c-5,18 -12,35 -21,51l-16 -16zm36 -50l-36 -36 36 -36 10 9c0,20 -1,39 -5,58l-5 5zm9 -77l-2 -2 2 -2c0,1 0,3 0,4zm-2 -16l-7 7 -36 -36 31 -31c6,20 10,40 12,60zm-16 -70l-34 34 -36 -36 36 -36 32 31c1,2 1,5 2,7zm-11 -30l-16 -15 5 -6c4,7 7,14 11,21zm-15 -30l-8 8 -36 -37 15 -15c11,14 20,29 29,44zm-35 -52l-16 17 -36 -37 19 -18c12,12 23,25 33,38zm-40 -45l-19 18 -36 -36 16 -16c13,11 26,22 39,34zm-92 -67c15,8 30,17 45,28l-15 14 -36 -36 6 -6zm-9 -5l-4 4 -12 -11c5,2 11,4 16,7zm-39 -17l28 28 -36 36 -37 -36 33 -32c4,1 8,3 12,4zm-84 -19c21,2 41,6 61,12l-28 28 -37 -36 4 -4zm26 47l-37 36 -36 -36 36 -36 37 36zm-56 -48c3,0 5,0 7,0l6 5 -37 36 -35 -35c19,-4 39,-6 59,-6zm-31 48l-36 36 -36 -36 36 -36 36 36zm-49 -36l-30 29 -12 -12c13,-7 27,-13 42,-17zm-51 22l14 14 -36 36 -19 -19c13,-12 26,-22 41,-31zm-48 38l19 19 -36 36 -14 -13c9,-15 19,-29 31,-42zm-36 51l12 11 -29 29c5,-14 10,-28 17,-40zm19 18l36 36 -36 37 -36 -37 36 -36zm-41 45l34 35 -36 36 -4 -4c-1,-23 1,-46 6,-67zm-5 89c0,0 0,-1 0,-2l3 -2 36 36 -27 27c-6,-19 -9,-39 -12,-59zm15 69l31 -30 36 36 -36 36 -25 -25c-2,-6 -4,-11 -6,-17zm21 52c-1,-4 -3,-8 -5,-11l8 8 -3 3zm5 9l5 -5 36 36 -13 13c-11,-14 -20,-29 -28,-44zm34 52l14 -14 36 36 -17 17c-12,-12 -23,-25 -33,-39zm40 46l17 -17 36 36 -15 15c-13,-10 -26,-21 -38,-34zm90 68c-15,-8 -30,-17 -44,-28l14 -14 36 36 -6 6zm9 5l4 -4 12 12c-5,-2 -10,-5 -16,-8zm40 18l-29 -29 36 -36 37 36 -33 33c-4,-1 -7,-2 -11,-4zm81 20c-20,-2 -40,-6 -60,-13l30 -29 36 36 -6 6zm12 2l1 -1 0 1c0,0 0,0 -1,0zm76 -4c-16,3 -33,5 -51,5 -3,0 -6,0 -9,-1l-8 -8 36 -36 36 36 -4 4zm-25 -47l36 -36 36 36 -36 36 -36 -36zm79 7l16 16c-16,9 -34,15 -52,20l36 -36zm-31 80c51,-12 97,-37 133,-73 35,-36 60,-80 72,-130 30,111 77,258 134,338 -80,-58 -227,-105 -339,-135z"/>
   <path class="fil0" d="M2485 2439c6,-12 18,-7 35,-18 17,-11 8,-23 22,-38 14,-14 22,-6 37,-20 14,-15 6,-23 20,-37 15,-14 23,-6 37,-21 14,-14 6,-22 21,-36 14,-15 26,-6 37,-22 12,-17 7,-29 18,-35 1,-1 7,-5 14,-1 2,1 4,2 5,3l87 -87c70,-70 139,-338 154,-401 0,-7 1,-14 1,-21 9,-93 54,-185 126,-257 81,-81 187,-127 290,-127 81,0 154,29 206,81 124,124 104,347 -46,496 -77,77 -176,123 -275,127 -56,13 -333,82 -404,154l-87 87c1,2 2,3 3,5 1,2 4,7 1,12 -7,15 -24,8 -37,21 -15,15 -7,23 -21,37 -14,14 -22,6 -37,21 -14,14 -6,22 -20,36l0 0c-15,15 -23,7 -37,21 -14,15 -6,22 -21,37 -14,14 -22,6 -36,20 -14,14 -7,31 -22,38 -5,3 -10,0 -12,-1 -8,-4 -20,-14 -33,-27 -13,-13 -23,-25 -27,-33 -4,-8 0,-13 1,-14zm670 -688l36 -36 -36 -36 -37 36 37 36zm-44 -29l-36 36 36 36 37 -36 -37 -36zm309 -50l36 36 36 -36 -36 -36 -36 36zm29 -43l-36 -36 -36 36 36 36 36 -36zm-36 50l-36 36 36 36 36 -36 -36 -36zm-7 -7l-36 -36 -36 36 36 36 36 -36zm-158 0l36 36 36 -36 -36 -36 -36 36zm29 -43l-36 -36 -36 36 36 36 36 -36zm50 36l36 -36 -36 -36 -36 36 36 36zm0 14l-36 36 36 36 36 -36 -36 -36zm-43 43l-36 36 36 36 36 -36 -36 -36zm-7 -7l-36 -36 -36 36 36 36 36 -36zm-43 -43l-36 -36 -37 36 37 36 36 -36zm-43 -43l-36 -36 -37 36 37 36 36 -36zm7 -7l36 -36 -36 -37 -37 37 37 36zm43 -43l36 -36 -36 -37 -36 36 36 37zm7 7l36 36 36 -36 -36 -37 -36 37zm79 -7l36 -37 -36 -36 -36 37 36 36zm7 7l36 36 36 -36 -36 -37 -36 37zm79 -7l36 -37 -36 -36 -36 36 36 37zm7 7l36 36 36 -36 -36 -37 -36 37zm79 -7l36 -37 -36 -36 -36 36 36 37zm-36 50l36 36 36 -36 -36 -36 -36 36zm0 86l36 36 36 -36 -36 -36 -36 36zm-7 7l-36 36 36 36 36 -36 -36 -36zm-43 43l-36 36 36 36 36 -36 -36 -36zm-7 -7l-36 -36 -36 36 36 36 36 -36zm-79 7l-36 36 36 36 36 -36 -36 -36zm-43 43l-36 36 36 36 36 -36 -36 -36zm-7 -7l-36 -36 -36 36 36 36 36 -36zm-43 -43l-36 -36 -37 36 37 36 36 -36zm-79 7l-37 36 37 36 36 -36 -36 -36zm-44 43l-36 36 36 36 37 -36 -37 -36zm-6 -7l-37 -36 -36 36 36 36 37 -36zm-37 -50l37 -36 -37 -36 -36 36 36 36zm43 -43l37 -36 -37 -36 -36 36 36 36zm37 -122l-37 -37 -36 37 36 36 37 -36zm7 -7l36 -37 -36 -36 -37 36 37 37zm43 -43l36 -37 -36 -36 -37 36 37 37zm43 -44l36 -36 -36 -36 -36 36 36 36zm7 7l36 37 36 -37 -36 -36 -36 36zm79 -7l36 -36 -36 -36 -36 36 36 36zm7 7l36 37 36 -37 -36 -36 -36 36zm79 -7l36 -36 -36 -36 -36 36 36 36zm7 7l36 37 36 -37 -36 -36 -36 36zm79 -7l36 -36 -36 -36 -36 36 36 36zm7 7l36 37 36 -37 -36 -36 -36 36zm0 87l36 36 36 -36 -36 -37 -36 37zm43 43l36 36 36 -36 -36 -36 -36 36zm-7 7l-36 36 36 36 36 -36 -36 -36zm-36 122l36 36 36 -36 -36 -36 -36 36zm-7 7l-36 36 36 36 36 -36 -36 -36zm-43 43l-36 36 36 36 36 -36 -36 -36zm-43 43l-36 36 36 36 36 -36 -36 -36zm-7 -7l-36 -36 -36 36 36 36 36 -36zm-79 7l-36 36 36 36 36 -36 -36 -36zm-43 43l-36 36 36 36 36 -36 -36 -36zm-7 -7l-36 -36 -36 36 36 36 36 -36zm-43 -43l-36 -36 -37 36 37 36 36 -36zm-79 7l-37 36 37 36 36 -36 -36 -36zm-44 43l-23 23c13,12 27,22 42,31l18 -18 -37 -36zm-6 -7l-37 -36 -18 18c9,15 19,29 31,41l24 -23zm-44 -43l-36 -36 0 1c4,18 11,35 20,51l16 -16zm-36 -50l36 -36 -36 -36 -9 9c-1,20 1,39 4,58l5 5zm-9 -77l2 -2 -1 -2c0,1 0,3 -1,4zm2 -16l7 7 36 -36 -30 -31c-6,20 -11,40 -13,60zm16 -70l34 34 37 -36 -37 -36 -32 31c0,2 -1,5 -2,7zm12 -30l15 -15 -5 -6c-4,7 -7,14 -10,21zm15 -30l7 8 37 -37 -16 -15c-10,14 -20,29 -28,44zm34 -52l16 17 37 -37 -19 -18c-12,12 -24,25 -34,38zm41 -45l19 18 36 -36 -16 -16c-14,11 -27,22 -39,34zm91 -67c-15,8 -30,17 -44,28l15 14 36 -36 -7 -6zm9 -5l5 4 11 -11c-5,2 -10,4 -16,7zm40 -17l-28 28 36 36 36 -36 -32 -32c-4,1 -8,3 -12,4zm83 -19c-20,2 -41,6 -61,12l29 28 36 -36 -4 -4zm-25 47l36 36 36 -36 -36 -36 -36 36zm55 -48c-2,0 -4,0 -7,0l-5 5 36 36 35 -35c-19,-4 -39,-6 -59,-6zm31 48l36 36 36 -36 -36 -36 -36 36zm49 -36l30 29 12 -12c-13,-7 -27,-13 -42,-17zm51 22l-14 14 36 36 19 -19c-12,-12 -26,-22 -41,-31zm48 38l-19 19 36 36 14 -13c-9,-15 -19,-29 -31,-42zm36 51l-12 11 29 29c-4,-14 -10,-28 -17,-40zm-19 18l-36 36 36 37 36 -37 -36 -36zm42 45l-35 35 36 36 4 -4c1,-23 -1,-46 -5,-67zm4 89c0,0 0,-1 0,-2l-3 -2 -36 36 27 27c6,-19 10,-39 12,-59zm-15 69l-31 -30 -36 36 36 36 25 -25c2,-6 4,-11 6,-17zm-21 52c2,-4 4,-8 5,-11l-8 8 3 3zm-5 9l-5 -5 -36 36 14 13c10,-14 19,-29 27,-44zm-33 52l-15 -14 -36 36 17 17c12,-12 24,-25 34,-39zm-40 46l-18 -17 -36 36 15 15c13,-10 26,-21 39,-34zm-91 68c15,-8 30,-17 44,-28l-14 -14 -36 36 6 6zm-9 5l-4 -4 -12 12c5,-2 11,-5 16,-8zm-40 18l29 -29 -36 -36 -36 36 33 33c3,-1 6,-2 10,-4zm-80 20c20,-2 40,-6 59,-13l-29 -29 -36 36 6 6zm-13 2l0 -1 -1 1c1,0 1,0 1,0zm-76 -4c17,3 34,5 51,5 3,0 6,0 10,-1l8 -8 -36 -36 -36 36 3 4zm26 -47l-36 -36 -37 36 37 36 36 -36zm-79 7l-16 16c16,9 33,15 51,20l-35 -36zm30 80c-51,-12 -96,-37 -132,-73 -36,-36 -60,-80 -72,-130 -30,111 -77,258 -135,338 81,-58 228,-105 339,-135z"/>
  </g>
  <path class="fil2" d="M4762 371c2,-35 3,-71 3,-107l-1280 0c0,239 47,457 115,649l0 0c0,0 0,0 0,0 2,0 4,0 7,0 34,0 67,14 90,40 8,9 15,19 20,30 6,13 9,27 11,41 3,37 -11,77 -39,103 134,280 298,480 380,569 5,9 2,29 -16,39 -24,13 -92,17 -102,47 -8,26 16,40 16,40 0,0 -68,16 -75,43 -7,28 31,42 31,42l-59 0 -99 47c23,0 41,39 41,87 0,48 -18,87 -41,87l-13 0 -91 45 0 106 928 0 0 -106 -91 -45 -14 0c-23,0 -41,-39 -41,-87 0,-48 18,-87 41,-87l-99 -47 -58 0c0,0 38,-14 31,-42 -7,-27 -75,-43 -75,-43 0,0 24,-14 16,-40 -10,-30 -78,-34 -102,-47 -18,-10 -21,-30 -16,-39l0 0c122,-134 433,-518 544,-1049 -1,-1 -2,-1 -3,-2 -21,-15 -39,-35 -50,-60 -1,0 -1,-1 -1,-1 -12,-26 -15,-54 -13,-80 6,-51 36,-101 86,-125l18 -8zm-125 227c1,1 1,2 2,3 5,11 12,23 20,33l-895 417c1,-10 1,-20 0,-31 -1,-18 -6,-36 -14,-52 -7,-15 -15,-28 -26,-40 -7,-8 -15,-15 -24,-21l927 -433c-2,9 -4,17 -5,26 -4,33 2,67 15,98z"/>
  <path class="fil0" d="M5697 1114c1,-14 2,-28 2,-43l-519 0c0,97 19,185 46,263l0 0c0,0 0,0 0,0 1,0 2,0 3,0 14,0 27,6 37,16 3,4 6,8 8,12 2,6 4,11 4,17 2,15 -4,31 -16,42 55,113 121,194 154,230 3,4 1,12 -6,16 -10,6 -37,7 -41,19 -3,11 6,16 6,16 0,0 -27,7 -30,18 -3,11 12,17 12,17l-24 0 -40 19c10,0 17,16 17,35 0,20 -7,35 -17,35l-5 0 -37 18 0 44 376 0 0 -44 -37 -18 -5 0c-9,0 -17,-15 -17,-35 0,-19 8,-35 17,-35l-40 -19 -24 0c0,0 16,-6 13,-17 -3,-11 -31,-18 -31,-18 0,0 10,-5 7,-16 -4,-12 -32,-13 -42,-19 -7,-4 -8,-12 -6,-16l0 0c50,-54 175,-210 220,-425 0,0 0,0 -1,-1 -8,-6 -15,-14 -20,-24 0,0 0,0 0,-1 -5,-10 -7,-21 -6,-32 3,-20 15,-41 35,-50l7 -4zm-50 92c0,1 0,1 0,1 3,5 5,10 9,14l-363 169c0,-4 0,-8 0,-13 -1,-7 -3,-14 -6,-21 -2,-6 -6,-11 -10,-16 -3,-3 -7,-6 -10,-9l376 -175c-1,4 -2,7 -2,11 -2,13 0,27 6,39z"/>
  <g id="_803330680">
   <path class="fil2" d="M1976 6339l0 0c38,-21 71,-50 95,-87 26,-38 41,-81 45,-125 -23,-5 -47,-8 -72,-8 -148,0 -275,90 -331,218 81,46 180,47 263,2z"/>
   <path class="fil2" d="M2121 6636c-39,21 -71,50 -96,87 -23,34 -37,73 -42,112 20,4 40,6 61,6 145,0 270,-86 327,-209 -78,-39 -171,-39 -250,4z"/>
   <path class="fil0" d="M2171 6142c-7,50 -24,99 -53,142 -29,44 -69,80 -115,105 0,0 0,0 0,0 -97,52 -212,52 -308,2 -7,28 -11,58 -11,89 0,158 102,293 244,341 7,-45 24,-90 51,-130 29,-43 69,-80 115,-105 93,-50 203,-52 297,-7 9,-32 14,-65 14,-99 0,-155 -98,-287 -234,-338z"/>
  </g>
  <g id="_803335120">
   <path class="fil0" d="M1759 780c105,0 191,-81 198,-184 -3,1 -6,1 -9,2 -23,6 -39,29 -54,50 -2,4 -5,7 -7,11 -11,15 -26,34 -47,47 -24,14 -50,21 -77,21 -35,0 -71,-12 -98,-37 -30,-26 -47,-62 -49,-101 -3,-40 11,-77 37,-107 38,-43 99,-60 155,-42 2,0 6,2 11,4 7,2 19,6 22,7 26,6 48,5 67,-2 -37,-41 -90,-67 -149,-67 -109,0 -198,89 -198,199 0,110 89,199 198,199z"/>
   <path class="fil2" d="M1834 481c-4,-1 -13,-4 -25,-8 -5,-2 -9,-3 -11,-4 -44,-14 -92,-1 -122,34 -21,23 -31,53 -29,84 2,31 15,59 39,80 38,34 94,39 138,12 16,-10 28,-26 38,-38 2,-4 4,-7 6,-10 18,-26 38,-54 73,-63 5,-1 11,-2 16,-3 -2,-33 -13,-64 -30,-90 -26,12 -57,15 -93,6z"/>
  </g>
  <g id="_803333128">
   <path class="fil0" d="M2829 1208c55,38 129,27 171,-25 -2,0 -4,-1 -6,-2 -14,-5 -31,1 -47,7 -2,1 -5,2 -7,3 -11,4 -26,8 -42,7 -18,-1 -34,-6 -48,-16 -19,-13 -33,-32 -39,-55 -6,-25 -2,-50 11,-72 13,-21 34,-36 58,-42 37,-9 75,4 98,33 0,2 2,4 4,7 3,3 8,10 9,12 12,12 23,20 36,23 -4,-35 -23,-68 -54,-89 -58,-40 -137,-25 -177,32 -40,58 -25,137 33,177z"/>
   <path class="fil0" d="M2976 1078c-1,-2 -5,-7 -10,-14 -2,-2 -3,-4 -4,-5 -18,-24 -48,-34 -77,-27 -19,5 -35,17 -46,34 -10,17 -13,37 -8,56 8,32 36,55 68,57 12,0 25,-4 34,-7 2,-1 5,-2 7,-3 19,-7 40,-15 61,-7 3,2 7,3 10,5 11,-19 16,-39 17,-59 -19,-3 -36,-13 -52,-30z"/>
  </g>
  <circle class="fil1" cx="320" cy="2761" r="236"/>
  <g id="_803333176">
   <path class="fil2" d="M485 2749c-38,38 -86,50 -140,37 -5,-1 -15,-4 -28,-9 -5,-1 -9,-3 -11,-4 -48,-15 -100,0 -133,37 -18,20 -28,45 -31,72 39,57 104,94 178,94 119,0 215,-96 215,-215 0,-25 -4,-49 -12,-72 -7,20 -19,41 -38,60z"/>
   <path class="fil2" d="M316 2741c2,1 7,3 12,5 8,2 21,7 24,8 44,10 79,1 109,-29 27,-27 36,-59 37,-84 -38,-57 -104,-95 -178,-95 -119,0 -215,96 -215,215 0,26 5,52 13,75 7,-18 17,-34 30,-49 42,-47 108,-65 168,-46z"/>
  </g>
  <g id="_803337256">
   <path class="fil2" d="M3234 163c-31,30 -69,40 -113,30 -3,-1 -11,-4 -22,-8 -4,-1 -7,-2 -9,-3 -38,-12 -80,0 -106,29 -15,17 -23,37 -25,58 31,46 83,76 143,76 95,0 172,-78 172,-173 0,-20 -4,-39 -10,-57 -6,16 -15,32 -30,48z"/>
   <path class="fil0" d="M3098 156c2,1 6,2 10,4 6,2 17,6 19,6 36,9 63,1 88,-23 21,-21 28,-47 29,-67 -31,-46 -83,-76 -142,-76 -96,0 -173,77 -173,172 0,21 4,42 11,60 6,-14 13,-27 24,-39 33,-37 86,-52 134,-37z"/>
  </g>
  <g id="_803332072">
   <path class="fil2" d="M2369 354c5,2 14,5 25,9 15,5 42,14 48,16 88,20 157,2 217,-57 30,-29 48,-62 59,-93 -69,-48 -153,-77 -244,-77 -173,0 -322,102 -390,250 81,-60 187,-79 285,-48z"/>
   <path class="fil2" d="M2676 696l-3 1c-51,12 -85,61 -117,108 -5,7 -10,15 -16,22 -23,33 -56,74 -101,102 -42,26 -90,40 -138,45 53,23 111,36 173,36 185,0 342,-117 402,-281 -69,-39 -136,-50 -200,-33z"/>
   <path class="fil2" d="M2404 871c35,-21 62,-56 82,-83 5,-7 10,-14 15,-21 37,-55 80,-117 156,-136l2 0c77,-20 156,-9 236,31 5,-26 7,-53 7,-81 0,-121 -49,-229 -129,-307 -15,32 -36,65 -67,96 -76,75 -170,100 -279,74 -10,-2 -29,-9 -55,-18 -10,-3 -19,-6 -23,-8 -95,-30 -198,-1 -264,73 -16,18 -29,38 -39,59 -1,10 -1,21 -1,31 0,120 49,229 129,307 74,31 160,26 230,-17z"/>
  </g>
  <circle class="fil1" cx="320" cy="3252" r="236"/>
  <g id="_803305408">
   <path class="fil2" d="M321 3467c113,0 206,-87 214,-198 -3,0 -6,1 -10,1 -25,7 -42,31 -58,55 -3,4 -6,7 -8,11 -12,16 -28,37 -51,51 -26,16 -55,23 -83,23 -39,0 -77,-13 -107,-40 -32,-28 -51,-67 -53,-110 -3,-42 11,-83 40,-115 42,-48 108,-66 168,-47 2,1 7,3 12,5 8,2 21,7 24,8 28,6 52,6 72,-2 -39,-45 -96,-73 -160,-73 -120,0 -216,97 -216,216 0,119 96,215 216,215z"/>
   <path class="fil2" d="M402 3144c-5,-1 -15,-5 -28,-9 -5,-2 -9,-4 -11,-4 -48,-15 -100,-1 -133,36 -22,25 -34,58 -32,91 2,34 17,65 42,87 42,37 103,42 150,13 18,-10 31,-28 41,-42 3,-3 5,-7 8,-10 19,-28 40,-59 78,-68 6,-2 12,-3 18,-4 -3,-35 -14,-69 -33,-98 -28,14 -62,17 -100,8z"/>
  </g>
  <circle class="fil1" cx="320" cy="4233" r="236"/>
  <g id="_803303992">
   <path class="fil2" d="M268 4120c2,0 7,2 12,4 7,2 21,7 24,8 44,10 79,1 109,-29 15,-14 24,-31 30,-46 -35,-25 -77,-39 -123,-39 -87,0 -161,51 -195,125 40,-30 93,-39 143,-23z"/>
   <path class="fil2" d="M422 4291l-2 0c-25,7 -42,31 -59,55 -2,3 -5,7 -7,11 -12,16 -28,37 -51,51 -21,13 -45,20 -69,22 26,12 55,18 86,18 93,0 172,-58 202,-141 -34,-19 -68,-24 -100,-16z"/>
   <path class="fil2" d="M285 4379c18,-11 31,-28 41,-42 3,-3 5,-7 8,-11 19,-27 40,-58 78,-67l1 -1c39,-10 79,-4 118,16 3,-13 4,-27 4,-41 0,-60 -25,-115 -65,-154 -7,17 -18,33 -33,48 -38,38 -86,51 -140,38 -5,-1 -15,-5 -28,-9 -5,-2 -9,-4 -11,-4 -48,-15 -100,-1 -133,36 -8,9 -14,19 -19,30 -1,5 -1,10 -1,15 0,61 25,115 65,154 37,16 80,14 115,-8z"/>
  </g>
  <g id="_803306608">
   <path class="fil2" d="M2924 3877c2,1 7,3 12,5 8,2 22,7 25,8 46,11 82,1 113,-30 15,-15 25,-32 31,-48 -36,-25 -80,-40 -127,-40 -90,0 -167,53 -203,130 43,-31 97,-41 149,-25z"/>
   <path class="fil2" d="M3083 4055l-2 0c-26,7 -44,32 -60,56 -3,4 -6,8 -9,12 -12,17 -29,38 -52,53 -22,13 -47,21 -72,23 28,12 58,19 90,19 96,0 178,-61 209,-146 -36,-20 -71,-26 -104,-17z"/>
   <path class="fil2" d="M2942 4146c18,-11 32,-29 42,-43 3,-4 5,-8 8,-11 20,-29 42,-61 81,-71l1 0c40,-10 81,-5 123,16 2,-13 4,-27 4,-42 0,-63 -26,-119 -68,-160 -7,17 -18,34 -34,50 -40,39 -89,52 -146,39 -4,-1 -14,-4 -28,-9 -5,-2 -10,-4 -12,-4 -49,-16 -103,-1 -137,37 -8,10 -15,20 -20,31 -1,5 -1,11 -1,16 0,63 26,119 67,159 38,17 83,14 120,-8z"/>
  </g>
  <rect class="fil4" y="4543" width="627.911" height="79.7069"/>
  <rect class="fil4" y="2408" width="627.911" height="79.7069"/>
  <g id="_661386840">
   <path class="fil2" d="M3949 2923l0 0c39,-21 71,-50 95,-87 26,-38 41,-82 45,-126 -23,-4 -47,-7 -72,-7 -148,0 -275,90 -331,217 81,46 180,48 263,3z"/>
   <path class="fil2" d="M4094 3220c-39,21 -71,50 -95,87 -24,34 -38,73 -43,112 20,4 40,5 61,5 145,0 270,-85 327,-208 -78,-40 -171,-39 -250,4z"/>
   <path class="fil2" d="M4144 2726c-6,50 -24,98 -53,142 -29,43 -69,80 -115,105 0,0 0,0 0,0 -97,52 -212,52 -308,2 -7,28 -11,58 -11,89 0,158 102,293 244,341 7,-46 24,-90 51,-130 29,-44 69,-80 115,-105 93,-51 203,-53 297,-8 9,-31 14,-64 14,-98 0,-155 -97,-287 -234,-338z"/>
  </g>
 </g>
</svg>
