<?xml version="1.0" encoding="UTF-8"?>
<!DOCTYPE svg PUBLIC "-//W3C//DTD SVG 1.1//EN" "http://www.w3.org/Graphics/SVG/1.1/DTD/svg11.dtd">
<!-- Creator: CorelDRAW X6 -->
<svg xmlns="http://www.w3.org/2000/svg" xml:space="preserve" width="247px" height="257px" version="1.1" style="shape-rendering:geometricPrecision; text-rendering:geometricPrecision; image-rendering:optimizeQuality; fill-rule:evenodd; clip-rule:evenodd"
viewBox="0 0 301 313"
 xmlns:xlink="http://www.w3.org/1999/xlink">
 <defs>
  <style type="text/css">
   <![CDATA[
    .fil3 {fill:#F2EFE3}
    .fil4 {fill:#2B2A29}
    .fil0 {fill:#365E5A}
    .fil2 {fill:#4D897C}
    .fil1 {fill:#FEFEFE}
   ]]>
  </style>
 </defs>
 <g id="Слой_x0020_1">
  <metadata id="CorelCorpID_0Corel-Layer"/>
  <rect class="fil0" x="2" y="108" width="24.015" height="89.3237"/>
  <polygon class="fil0" points="251,193 175,193 175,254 190,254 267,254 267,193 "/>
  <path class="fil1" d="M187 201l0 46 67 0 0 -46 -67 0zm2 38l0 -31 11 0 0 31 -11 0zm0 5l0 -3 30 0 0 3 -30 0zm30 -19l0 14 -17 0 0 -14 17 0zm0 -17l0 14 -17 0 0 -14 17 0zm-30 -2l0 -3 30 0 0 3 -30 0zm33 38l0 -3 30 0 0 3 -30 0zm30 -36l0 31 -11 0 0 -31 11 0zm-30 -2l0 -3 30 0 0 3 -30 0zm0 16l0 -14 17 0 0 14 -17 0zm0 17l0 -14 17 0 0 14 -17 0z"/>
  <g id="_548086152">
   <path class="fil2" d="M273 70c-2,2 -5,2 -8,2 0,0 0,-1 -1,-1 0,0 0,0 0,0 -3,-1 -6,0 -7,2 -1,1 -2,2 -2,3 2,3 5,5 9,5 6,0 11,-5 11,-11 0,-1 0,-2 0,-3 -1,1 -1,2 -2,3z"/>
   <path class="fil0" d="M264 69c0,0 0,0 1,1 0,0 1,0 1,0 2,0 4,0 5,-2 2,-1 2,-3 2,-4 -2,-3 -5,-5 -9,-5 -6,0 -11,5 -11,11 0,2 1,3 1,4 0,-1 1,-2 1,-2 3,-3 6,-4 9,-3z"/>
  </g>
  <path class="fil0" d="M27 100c8,0 14,-6 15,-14 0,0 0,0 -1,0 -2,0 -3,2 -4,4 0,0 0,0 0,0 -1,2 -3,3 -4,4 -2,1 -4,2 -6,2 -3,0 -6,-1 -8,-3 -2,-2 -3,-5 -4,-8 0,-3 1,-6 3,-8 3,-4 8,-5 12,-4 0,0 1,1 1,1 1,0 2,0 2,0 2,1 4,1 5,0 -3,-3 -7,-5 -11,-5 -9,0 -16,7 -16,15 0,9 7,16 16,16z"/>
  <path class="fil0" d="M32 77c0,0 -1,-1 -2,-1 0,0 0,0 0,0 -4,-1 -8,0 -10,2 -2,2 -2,4 -2,7 0,2 1,5 3,6 3,3 7,3 11,1 1,-1 2,-2 3,-3 0,0 0,0 0,-1 1,-2 3,-4 6,-5 0,0 1,0 1,0 0,-2 -1,-5 -2,-7 -2,1 -5,1 -8,1z"/>
  <path class="fil2" d="M68 116c8,0 14,-6 15,-14 0,0 0,0 -1,0 -1,1 -3,2 -4,4 0,0 0,0 0,1 -1,1 -2,2 -4,3 -1,1 -3,2 -5,2 -3,0 -6,-1 -8,-3 -2,-2 -3,-5 -3,-8 0,-2 1,-5 3,-7 2,-4 7,-5 11,-4 0,1 0,1 1,1 0,0 1,0 1,0 2,1 4,1 5,0 -2,-3 -6,-5 -11,-5 -8,0 -14,7 -14,15 0,8 6,15 14,15z"/>
  <path class="fil2" d="M74 94c0,-1 -1,-1 -2,-1 0,0 -1,0 -1,0 -3,-1 -6,0 -9,2 -1,2 -2,4 -2,6 0,3 1,5 3,6 3,3 7,3 10,1 1,-1 2,-2 3,-3 0,0 0,0 0,0 2,-2 3,-4 6,-5 0,0 1,0 1,0 0,-3 -1,-5 -2,-7 -2,1 -4,1 -7,1z"/>
  <path class="fil0" d="M68 76c-2,0 -3,2 -3,3 0,1 0,2 1,2 -4,1 -7,2 -10,4l0 0c-4,4 -7,9 -7,16 0,10 9,19 19,19 11,0 20,-9 20,-19 0,-7 -3,-12 -8,-16l0 0c-2,-2 -6,-3 -9,-4 0,0 1,-1 1,-2 0,-1 -1,-3 -3,-3l0 -1 30 -23 -4 -5 -1 -2 -3 -5 -4 -6c0,0 -8,3 -19,3 -11,0 -18,-3 -18,-3l-5 7 -2 3 -1 3 -4 5 30 23 0 1zm-7 9l0 0c2,-1 5,-1 7,-1 3,0 6,0 8,1l0 0c5,3 9,9 9,16 0,9 -7,17 -17,17 -9,0 -17,-8 -17,-17 0,-7 4,-13 10,-16zm32 -38l-17 17 15 -20 2 3zm-25 10c2,0 5,0 7,0l-7 12 -6 -12c2,0 4,0 6,0zm12 -9c-4,1 -8,1 -12,1 -4,0 -7,0 -11,-1l-2 -4c4,1 8,1 13,1 5,0 10,0 14,-1l-2 4zm-37 -1l2 -3 16 20 -18 -17zm27 32c0,1 0,2 -2,2 -1,0 -2,-1 -2,-2 0,-1 1,-1 2,-2l0 1c0,0 0,1 0,1 1,0 1,-1 1,-1l0 -1c1,1 1,1 1,2z"/>
  <path class="fil2" d="M287 92c-1,0 -2,1 -2,2 0,1 0,1 1,2l-12 11 -1 -10 0 -5c1,0 2,-1 2,-2 0,-1 -1,-2 -2,-2 -2,0 -3,1 -3,2 0,1 1,1 1,2l-8 14 -5 -15c1,-1 2,-2 2,-3 0,-2 -1,-4 -3,-4 -2,0 -4,2 -4,4 0,1 1,2 3,3l-6 15 -8 -14c1,-1 1,-1 1,-2 0,-1 -1,-2 -2,-2 -1,0 -2,1 -2,2 0,1 1,2 2,2l-1 15 -12 -11c0,-1 0,-1 0,-2 0,-1 -1,-2 -2,-2 -1,0 -2,1 -2,2l0 1c0,1 1,2 2,2 1,0 1,0 1,-1l8 24 0 4 44 0 0 -4 7 -24c1,1 1,1 1,1 1,0 2,-1 2,-3 0,-1 -1,-2 -2,-2z"/>
  <path class="fil0" d="M118 266c1,19 3,36 21,47 19,-11 21,-28 21,-47l-21 -3 -21 3z"/>
  <path class="fil3" d="M139 311c-7,-5 -12,-11 -15,-19 -3,-7 -3,-16 -4,-24l19 -3 19 3c0,8 -1,17 -3,24 -3,8 -8,14 -16,19z"/>
  <path class="fil0" d="M139 266l-18 3c1,7 1,15 4,23 0,1 1,2 2,4l27 -28 -15 -2z"/>
  <path class="fil2" d="M127 296c2,5 7,10 12,13 7,-4 12,-10 15,-17 2,-8 3,-16 3,-23l-3 -1 -27 28z"/>
  <path class="fil1" d="M133 302c0,-1 0,-1 1,-1 0,-1 0,0 0,-1 1,0 0,0 1,0 0,-1 0,0 0,-1 1,0 1,0 1,0 0,-1 0,-1 1,-1 0,0 0,0 0,-1 0,0 1,0 1,0 0,0 0,0 0,0 0,0 0,0 0,0l1 -2c2,-2 7,-3 8,-3 0,0 0,0 1,0 1,-1 3,-1 5,-3 1,-1 2,-4 2,-6 0,-1 -1,-3 -2,-4 -2,-2 -6,-2 -9,1 -2,2 -3,4 -3,6 0,1 -1,6 -3,8l-1 2c0,0 0,0 -1,0 0,0 0,-1 0,0 0,0 0,0 0,0 0,1 -1,0 -1,1 0,0 0,0 0,0 -1,1 -1,1 -1,1l0 0c0,0 0,0 0,1 -1,0 -1,0 -1,0 0,0 0,0 0,1 -1,0 -1,0 -1,0 0,0 0,0 0,0 0,1 0,1 0,1 1,0 1,0 1,1 0,0 0,0 0,0zm14 -14l0 -1 1 1 -1 1 0 -1zm0 1l0 1 -1 -1 1 -1 0 1zm1 -6l-1 -1 1 -1 1 1 -1 1zm1 -1l1 1 -1 1 -1 -1 1 -1zm-1 1l-1 1 0 -1 0 -1 1 1zm0 0l1 1 -1 1 -1 -1 1 -1zm0 3l-1 0 1 -1 1 1 -1 0zm1 0l1 0 -1 1 -1 -1 1 0zm-1 -1l1 -1 1 1 -1 0 -1 0zm0 0l-1 0 0 0 0 -1 1 1zm-1 1l-1 0 0 0 0 -1 1 1zm0 0l1 0 -1 1 0 -1 0 0zm1 1l1 0 -1 1 -1 -1 1 0zm1 0l1 1 -1 1 -1 -1 1 -1zm0 0l1 0 1 0 -1 1 -1 -1zm1 -1l1 0 0 0 0 1 -1 -1zm0 0l-1 0 1 -1 1 1 -1 0zm0 -1l1 -1 0 1 0 0 -1 0zm0 0l-1 -1 1 -1 1 1 -1 1zm0 -2l1 -1 0 1 0 1 -1 -1zm0 0l-1 -1 1 -1 1 1 -1 1zm0 -2l1 0 0 0 0 1 -1 -1zm-1 1l-1 -1 1 0 1 0 -1 1zm-2 0l0 -1 0 0 1 0 -1 1zm0 0l-1 1 0 -1 0 -1 1 1zm-1 1l0 1 -1 -1 1 -1 0 1zm0 0l1 1 -1 1 0 -1 0 -1zm0 2l0 0 -1 0 1 -1 0 1zm-1 1l0 0 -1 0 1 -1 0 1zm1 0l0 0 0 1 -1 -1 1 0zm0 1l1 0 -1 1 0 -1 0 0zm0 1l0 1 -1 -1 1 -1 0 1zm0 1l-1 1 -1 -1 1 -1 1 1zm0 0l0 1 0 1 -1 -1 1 -1zm1 1l0 -1 1 1 -1 1 0 -1zm0 -1l1 -1 1 1 -1 1 -1 -1zm3 -1l1 1 -1 1 -1 -1 1 -1zm0 0l1 -1 0 1 0 1 -1 -1zm1 -1l1 0 0 0 0 1 -1 -1zm1 -1l0 0 1 0 -1 1 0 -1zm0 0l-1 0 1 -1 0 1 0 0zm0 -1l0 -1 1 1 -1 0 0 0zm0 0l-1 -1 1 -1 0 1 0 1zm0 -2l0 -1 1 1 -1 1 0 -1zm0 0l-1 -1 0 -1 1 1 0 1zm0 -2l0 0 1 0 -1 1 0 -1zm-1 0l0 -1 0 0 1 0 -1 1zm-1 0l-1 -1 1 0 0 0 0 1zm-1 -1l-1 0 1 -1 1 1 -1 0zm0 0l-1 1 -1 -1 1 0 1 0zm-3 1l0 0 0 -1 1 0 -1 1zm0 0l0 1 -1 -1 1 0 0 0zm-1 1l0 1 -1 -1 1 0 0 0zm0 1l-1 1 -1 -1 1 -1 1 1zm0 0l0 1 0 1 -1 -1 1 -1zm0 2l-1 0 -1 0 1 -1 1 1zm-1 1l-1 0 -1 0 1 -1 1 1zm0 0l1 0 -1 1 -1 -1 1 0zm1 1l1 0 -1 1 -1 -1 1 0zm0 1l-1 1 -1 -1 1 -1 1 1zm-1 1l-1 0c0,0 0,0 0,0l0 -1 1 1zm0 0l1 1 -1 0c0,0 0,0 0,0l0 -1zm1 1l1 1 0 0c-1,0 -1,-1 -1,-1l0 0zm1 1l1 -1 0 1 0 0c0,0 -1,0 -1,0l0 0zm1 0l0 0 0 0c0,0 0,0 0,0zm1 0l0 0 0 -1 1 1c-1,0 -1,0 -1,0zm1 -1l-1 0 1 -1 1 1 -1 0c0,0 0,0 0,0zm1 0l0 0 0 0c0,0 0,0 0,0zm0 0l0 0 1 -1 0 0c0,1 -1,1 -1,1zm1 -1l0 0 1 -1 0 1c0,0 -1,0 -1,0zm1 -1l0 0 0 -1 1 1c0,0 -1,0 -1,0zm1 -1c0,0 0,0 0,0l0 0 0 -1 0 1zm0 -1l0 0 1 0c0,0 0,0 -1,0zm1 0l-1 0 0 0 0 -1 1 0c0,0 0,1 0,1zm0 -2c0,0 0,1 0,1l-1 0 1 -1 0 0zm-1 1l0 -1 0 -1 1 1 -1 1zm1 -2c0,0 0,0 0,1l0 0 -1 -1 1 -1c0,1 0,1 0,1zm-1 0l-1 -1 1 -1 1 1 -1 1zm1 -1l-1 -1 1 0c0,0 0,1 0,1zm-1 -1l0 0 -1 -1 1 0c0,0 0,1 0,1zm0 -1l-1 0 0 0 0 -1c0,0 0,1 1,1zm-1 -1l-1 0 0 0c0,0 0,0 1,0zm-1 1l0 0 -1 0 1 -1 0 1zm-1 -1l0 0 -1 0 0 0c1,0 1,0 1,0zm-1 0c0,0 0,0 0,0l0 0 -1 0 0 0c0,0 0,0 1,0zm-2 0l1 1 -1 0 0 0 0 -1c0,0 0,0 0,0zm-1 0c0,0 0,0 1,0l-1 1 0 -1zm0 1l0 0 0 0 -1 0c1,0 1,0 1,0zm-1 0l0 1 0 0 -1 0c1,0 1,-1 1,-1zm-1 1l1 0 -1 1 0 0c0,0 0,-1 0,-1zm-1 2c0,0 0,-1 0,-1l1 0 -1 1 0 0zm0 0l0 0 0 0c0,0 0,0 0,0zm-1 1l1 -1 1 1 -1 1 -1 -1c0,0 0,0 0,0zm0 1c0,0 0,0 0,-1l1 1 -1 1 0 -1zm0 1l0 0 0 0c0,0 0,0 0,0zm0 1c0,0 0,-1 0,-1 0,0 0,0 0,0l0 0 1 0 -1 1 0 0zm1 0l1 0 -1 1 -1 -1 1 0zm0 1l0 1c-1,-1 -1,-1 -1,-2l1 1zm-2 0c1,1 1,1 2,2 1,1 1,1 2,2 -2,0 -5,1 -6,2 1,-1 2,-4 2,-6z"/>
  <path class="fil1" d="M130 275l0 0c1,0 1,-1 1,-1 0,-1 0,-2 0,-2 0,0 -1,0 -1,0 -2,1 -3,2 -3,4 1,0 3,0 3,-1z"/>
  <path class="fil1" d="M133 278c0,0 0,1 0,1 0,1 0,1 0,2 0,0 0,0 0,0 2,-1 3,-3 3,-4 -1,0 -2,0 -3,1z"/>
  <path class="fil1" d="M132 272c0,0 0,1 0,2 0,0 -1,1 -1,2 0,0 0,0 0,0 -1,1 -2,1 -4,1 0,0 0,1 1,1 0,2 2,3 4,3 0,-1 0,-1 0,-2 0,0 0,-1 1,-2 1,-1 2,-1 3,-1 0,0 0,-1 0,-1 -1,-2 -2,-3 -4,-3z"/>
  <path class="fil2" d="M161 221l0 0c-1,-9 -5,-17 -12,-25 -14,-13 -34,-15 -46,-4 -11,12 -9,32 5,46 7,7 16,11 25,11 3,1 27,4 32,10 0,0 0,0 0,0 0,0 0,0 0,0 0,0 0,0 0,0 0,1 0,1 0,1 0,1 2,1 3,2 1,0 0,1 1,3 1,1 2,0 3,1 1,1 1,2 2,3 1,1 1,0 3,1 1,1 0,2 1,3 1,1 2,0 3,2 1,1 0,2 1,2 0,0 1,1 1,0 1,0 1,0 1,0 0,0 0,0 0,0 0,0 1,-1 1,-1 0,0 0,0 0,0 0,0 0,0 0,0 0,0 0,0 0,0 0,0 0,0 0,0 1,-1 1,-1 1,-1 1,-1 2,-2 3,-3 0,0 0,-1 0,-1 0,-1 -2,-1 -3,-2 -1,-1 0,-2 -1,-3 -1,-1 -2,0 -3,-1 -1,-1 -1,-2 -2,-3l0 0c-1,-1 -1,0 -3,-1 -1,-1 0,-2 -1,-3 -1,-1 -2,0 -3,-2 -1,-1 0,-2 -1,-3 -1,0 -1,1 -1,1 0,0 -1,0 -1,0 0,0 0,0 0,0 -6,-6 -9,-33 -9,-33zm-26 26l0 0c0,0 -1,0 -1,0l-1 -1 4 -4 3 4 0 0c-2,0 -3,1 -5,1l0 0zm-7 -54l4 3 -4 4 -3 -4 3 -3zm-7 -1l3 -3 4 3 -4 4 -3 -4zm37 28l-1 0 -3 -3 3 -3c0,2 1,4 1,6zm-14 -20l-3 4 -4 -4 4 -3 3 3zm4 4l-3 4 -4 -4 4 -3 3 3zm-8 -8l-3 4 -4 -4 3 -3 4 3zm5 13l4 -4 3 4 -3 3 -4 -3zm8 7l-3 -3 3 -4 3 3c0,0 0,1 0,1l-3 3zm1 -7l0 -1c0,1 1,1 1,1l-1 0zm-1 -1l-3 -4 1 -1c1,2 2,3 3,4l-1 1zm-4 -4l-4 -4 2 -1c1,1 2,2 3,3l-1 2zm-4 -4l-4 -4 2 -1c1,1 2,2 3,3l-1 2zm-4 -5l-4 -3 1 0c1,0 2,1 4,2l-1 1zm-5 -4l0 0c0,0 0,0 1,0l-1 0zm0 1l-4 4 -3 -4 3 -3c0,0 1,1 2,1l2 2zm-8 -1l-3 -3 0 0c2,0 4,0 6,1l-3 2zm4 6l4 3 -4 4 -3 -4 3 -3zm5 4l3 3 -3 4 -4 -4 4 -3zm4 4l3 4 -3 3 -4 -3 4 -4zm4 4l3 4 -3 3 -4 -3 4 -4zm4 4l3 4 -3 3 -3 -3 3 -4zm4 5l4 3 -4 3 -3 -3 3 -3zm4 4l1 0c0,2 0,4 -1,6l0 1 -3 -4 3 -3zm-16 -2l-4 -3 4 -4 3 4 -3 3zm4 -2l3 3 -3 3 -4 -3 4 -3zm-5 -5l-3 3 -4 -3 4 -4 3 4zm-12 -13l-4 4 -3 -4 3 -3 4 3zm0 1l4 3 -4 4 -3 -4 3 -3zm-5 -5l-3 4 -4 -4 4 -3 3 3zm-7 0l-4 -4 4 -3 3 3 -3 4zm13 13l3 -4 4 4 -4 3 -3 -3zm20 13l3 3 -3 4 -3 -4 3 -3zm1 7l3 -3 4 3 -4 4 -3 -4zm-38 -38l-1 -1c1,0 2,-1 3,-1l-2 2zm33 42l-4 -4 4 -3 3 3 -3 4zm4 -3l4 3 -4 4 -3 -4 3 -3zm-21 -21l-4 3 -3 -3 3 -4 4 4zm13 13l3 3 -3 4 -4 -4 4 -3zm-13 -13l4 4 -4 3 -3 -3 3 -4zm1 8l3 -4 4 4 -4 3 -3 -3zm8 1l3 3 -3 4 -4 -4 4 -3zm-17 -10l-4 -3 4 -4 3 3 -3 4zm-4 -11l3 3 -3 4 -4 -4 4 -3zm-8 -1l4 -3 3 3 -3 4 -4 -4zm3 -4l-4 4 -1 -2c1,-1 2,-2 4,-3l1 1zm30 46l4 -4 3 4 -3 3 -4 -3zm-4 -5l4 -3 3 3 -3 4 -4 -4zm0 0l-4 -4 4 -3 3 3 -3 4zm-29 -28l4 -4 3 4 -3 3 -4 -3zm-4 -5l3 -3 4 3 -3 4 -4 -4zm12 5l3 4 -3 3 -4 -3 4 -4zm4 4l3 4 -3 3 -4 -3 4 -4zm8 9l4 3 -4 4 -3 -4 3 -3zm-4 2l-3 -3 3 -4 4 4 -4 3zm8 2l4 3 -4 4 -3 -4 3 -3zm-25 -26l-4 4 -1 -1c1,-2 2,-3 3,-4l2 1zm9 26l3 3 -3 4 -4 -4 4 -3zm-8 -1l4 -3 3 3 -3 4 -4 -4zm9 8l3 -3 3 3 -3 4 -3 -4zm7 1l4 3 -4 4 -3 -3 3 -4zm4 4l4 4 -4 3 -3 -3 3 -4zm1 8l3 -4 4 4 -4 3 -3 -3zm-25 -33l4 -4 3 4 -3 3 -4 -3zm-1 -1l-3 -3 3 -4 4 4 -4 3zm34 26l3 4 -3 3 -4 -3 4 -4zm-5 3l-3 -4 3 -3 4 3 -4 4zm-4 -4l-3 -4 3 -3 4 3 -4 4zm0 -8l-4 4 -3 -4 3 -3 4 3zm-8 0l-3 -4 3 -3 3 3 -3 4zm-8 -16l3 4 -3 3 -4 -3 4 -4zm25 33l4 -4 3 4 -3 3 -4 -3zm-21 -22l-4 -3 4 -4 3 4 -3 3zm-13 -20l-3 3c0,-1 1,-2 2,-4l1 1zm8 17l-3 3 -4 -3 4 -4 3 4zm21 30l0 0 1 0c0,0 -1,0 -1,0zm-25 -34l-4 3 -3 -3 3 -4 4 4zm-8 1l4 3 -3 3c0,-2 -1,-4 -1,-6l0 0zm4 4l4 3 -4 4 -2 -3c0,0 0,-1 -1,-1l3 -3zm13 19l-4 -3 4 -4 3 4 -3 3zm4 -3l4 4 -4 3 -3 -3 3 -4zm-8 -1l-4 -4 4 -3 3 3 -3 4zm-1 -8l-3 4 -4 -4 4 -3 3 3zm-8 1l4 3 -1 2c-1,-2 -2,-3 -3,-5l0 0zm-1 0c0,-1 0,-1 0,-2l1 1 -1 1zm6 4l3 4 -2 1c-1,-1 -2,-2 -3,-3l2 -2zm4 4l3 4 -1 1c-2,-1 -3,-2 -4,-3l2 -2zm4 4l3 4 0 0c-2,0 -3,-1 -5,-2l2 -2zm4 4l1 2c0,-1 -1,-1 -1,-1l0 -1zm1 0l3 -4 4 4 -4 3c0,0 0,0 0,0l-3 -3zm7 0l4 4 -1 1c-2,-1 -4,-1 -6,-2l3 -3zm17 0l1 2c-1,1 -3,1 -4,2l3 -4zm1 0l3 -4 2 2c-1,2 -2,3 -4,3l-1 -1zm6 -2l-2 -2 3 -4 2 2c-1,1 -2,2 -3,4zm3 -5l-1 -2 3 -3c0,2 -1,3 -2,5zm-32 -47l0 0 -3 3 -3 -3c2,0 4,0 6,0zm-24 17l4 4 -4 3 0 0c0,-2 0,-5 0,-7zm69 51c0,0 0,0 -1,0 -6,-3 -16,-6 -25,-8 4,-1 8,-3 11,-6 4,-3 6,-7 7,-11 2,8 4,19 8,25 0,0 0,0 0,0z"/>
  <path class="fil0" d="M80 194l0 0c10,-1 21,-5 29,-13 16,-16 19,-40 5,-54 -13,-13 -37,-11 -53,5 -8,8 -13,19 -14,29 0,4 -4,31 -11,38 0,0 0,0 0,0 0,0 0,0 0,0 0,0 -1,0 -1,-1 0,0 -1,0 -1,0 -1,1 0,2 -1,4 -1,1 -3,0 -4,1 -1,2 0,2 -2,4 -1,1 -2,0 -3,1 -1,2 0,2 -2,4 -1,1 -2,0 -3,1 -1,2 0,3 -2,4 -1,1 -3,0 -3,1 0,0 0,1 0,1 0,1 0,1 1,2 0,0 0,0 0,0 0,0 0,0 0,0 0,0 0,0 0,0 0,0 0,0 1,1 0,0 0,0 0,0 0,0 0,0 0,0 0,0 1,1 1,1 1,1 3,2 3,3 1,0 1,0 2,0 1,0 0,-2 1,-3 2,-1 2,-1 4,-2 1,-1 0,-2 1,-3 2,-1 3,-1 4,-2l0 0c1,-1 0,-2 2,-3 1,-1 2,-1 3,-2 1,-1 0,-2 2,-3 1,-1 2,0 3,-2 0,0 0,-1 0,-1 0,0 0,0 0,0 0,0 0,-1 0,-1 7,-7 38,-10 38,-10zm-29 -31l0 0c0,0 0,0 0,-1l0 -1 4 4 -4 4 0 0c0,-2 0,-3 0,-5l0 -1zm63 -7l-4 4 -4 -4 4 -4 4 4zm1 -9l4 4 -5 5 -4 -5 5 -4zm-33 43l-1 0 4 -4 3 3c-2,1 -4,1 -6,1zm23 -15l-4 -4 4 -4 4 4 -4 4zm-5 5l-4 -5 4 -4 4 5 -4 4zm9 -10l-4 -4 5 -4 4 4 -5 4zm-14 6l4 4 -4 4 -4 -4 4 -4zm-9 9l4 -4 4 4 -3 3c-1,0 -1,1 -2,1l-3 -4zm9 1l0 0c0,1 -1,1 -1,1l1 -1zm1 -1l4 -4 1 2c-1,1 -3,2 -5,3l0 -1zm4 -5l5 -4 1 2c-1,2 -2,3 -4,4l-2 -2zm5 -4l4 -4 2 1c-1,2 -2,3 -4,4l-2 -1zm5 -5l4 -4 1 0c-1,2 -2,4 -3,5l-2 -1zm5 -5l1 -1c0,1 -1,1 -1,1l0 0zm-1 -1l-4 -4 4 -4 4 3c0,1 -1,2 -1,3l-3 2zm1 -9l4 -4 0 0c0,3 0,5 -1,7l-3 -3zm-6 5l-4 4 -4 -4 4 -4 4 4zm-5 5l-4 4 -4 -4 4 -4 4 4zm-5 5l-4 4 -4 -4 4 -4 4 4zm-5 4l-4 4 -4 -4 4 -4 4 4zm-5 5l-4 4 -4 -4 4 -4 4 4zm-5 5l-4 4 -4 -4 4 -4 4 4zm-5 5l0 1c-3,0 -5,-1 -7,-1l-1 0 4 -4 4 4zm2 -19l4 -5 4 5 -4 4 -4 -4zm3 4l-4 4 -4 -4 4 -4 4 4zm6 -5l-4 -4 4 -4 4 4 -4 4zm15 -15l-4 -4 4 -4 4 4 -4 4zm-1 1l-4 4 -4 -4 4 -4 4 4zm6 -5l-4 -4 4 -4 4 4 -4 4zm1 -9l4 -4 4 4 -4 4 -4 -4zm-16 15l4 4 -4 4 -4 -4 4 -4zm-15 23l-5 4 -4 -4 5 -4 4 4zm-9 1l4 4 -4 4 -4 -4 4 -4zm44 -44l2 -1c0,1 1,2 1,4l-3 -3zm-48 38l4 -4 4 4 -4 4 -4 -4zm3 5l-4 4 -4 -4 4 -4 4 4zm25 -25l-4 -4 4 -4 4 4 -4 4zm-15 15l-4 5 -4 -5 4 -4 4 4zm14 -14l-4 4 -4 -4 4 -4 4 4zm-9 1l4 4 -4 4 -4 -4 4 -4zm0 9l-5 4 -4 -4 5 -4 4 4zm11 -20l4 -4 4 5 -4 4 -4 -5zm13 -4l-4 4 -4 -4 4 -4 4 4zm1 -9l4 4 -4 4 -4 -4 4 -4zm5 3l-4 -4 2 -2c1,2 2,3 3,5l-1 1zm-54 35l4 4 -4 4 -4 -4 4 -4zm5 -5l4 4 -4 4 -4 -4 4 -4zm1 0l4 -4 4 4 -4 4 -4 -4zm33 -33l4 4 -4 4 -4 -4 4 -4zm5 -5l4 4 -4 4 -4 -4 4 -4zm-6 14l-4 4 -4 -4 4 -4 4 4zm-5 4l-4 4 -4 -4 4 -4 4 4zm-9 10l-4 4 -4 -4 4 -4 4 4zm-4 -5l4 -4 5 4 -5 4 -4 -4zm-1 10l-4 4 -4 -4 4 -4 4 4zm30 -30l-4 -4 1 -1c2,1 3,2 5,3l-2 2zm-30 10l-4 4 -4 -4 4 -4 4 4zm1 -8l4 4 -4 4 -4 -4 4 -4zm-10 9l4 4 -4 4 -4 -4 4 -4zm-1 9l-4 4 -4 -4 4 -4 4 4zm-5 5l-4 4 -4 -4 4 -4 4 4zm-9 1l4 4 -4 4 -4 -4 4 -4zm39 -29l4 4 -4 4 -4 -4 4 -4zm1 -1l4 -4 4 4 -4 4 -4 -4zm-31 39l-4 4 -4 -5 4 -4 4 5zm-3 -5l4 -4 4 4 -4 4 -4 -4zm5 -5l4 -4 4 4 -4 4 -4 -4zm9 -1l-4 -4 4 -4 4 4 -4 4zm1 -9l4 -4 4 4 -4 4 -4 -4zm17 -9l-4 4 -4 -4 4 -4 4 4zm-38 29l4 4 -4 4 -4 -4 4 -4zm25 -25l5 -4 4 5 -4 4 -5 -5zm24 -15l-3 -3c2,1 3,1 4,2l-1 1zm-19 10l-4 -4 4 -4 4 4 -4 4zm-35 24l0 1 0 0c0,0 0,0 0,-1zm39 -29l-4 -4 5 -4 4 4 -5 4zm0 -9l-4 4 -3 -3c2,-1 4,-1 6,-1l1 0zm-5 5l-4 4 -4 -4 3 -3c0,0 1,0 1,-1l4 4zm-23 14l4 -4 4 4 -4 4 -4 -4zm3 5l-4 4 -4 -4 4 -4 4 4zm2 -10l4 -4 4 5 -4 4 -4 -5zm9 0l-4 -4 4 -4 4 4 -4 4zm-1 -9l-4 4 -1 -2c1,-1 3,-2 5,-3l0 1zm1 -1c0,0 1,-1 1,-1l-1 1 0 0zm-6 6l-4 4 -2 -2c2,-2 3,-3 5,-4l1 2zm-5 4l-4 4 -1 -1c1,-2 2,-3 3,-5l2 2zm-4 5l-5 4 0 0c1,-2 2,-4 3,-5l2 1zm-5 5l-2 2c0,-1 1,-2 1,-2l1 0zm0 1l4 4 -4 4 -3 -4c0,0 0,0 0,-1l3 -3zm0 9l-5 4 0 -1c0,-2 1,-4 1,-7l4 4zm-1 19l-1 2c-1,-2 -2,-4 -3,-6l4 4zm1 1l4 4 -2 2c-2,-1 -3,-3 -4,-4l2 -2zm2 7l3 -2 4 4 -2 2c-2,-1 -3,-2 -5,-4zm6 4l2 -1 3 3c-1,0 -3,-1 -5,-2zm56 -37l-1 1 -4 -4 4 -4c1,2 1,5 1,7zm-21 -28l-4 4 -4 -4 1 0c2,0 5,0 7,0zm-60 80c0,-1 0,-1 0,-1 4,-7 7,-19 9,-29 2,5 4,9 8,13 3,4 8,6 13,8 -10,2 -22,5 -30,9 0,0 0,0 0,0z"/>
  <path class="fil2" d="M292 202l0 0c2,-3 4,-6 4,-10 0,-8 -5,-14 -12,-14 -6,0 -11,6 -11,14 0,4 1,7 3,10 1,1 7,9 7,12 0,0 0,0 0,0 0,0 0,0 0,0 0,0 0,0 0,0 -1,0 -1,0 -1,0 0,1 1,1 1,1 0,1 -1,1 -1,2 0,0 1,0 1,1 0,0 -1,0 -1,1 0,1 1,1 1,1 0,1 -1,1 -1,1 0,1 1,1 1,2 0,0 -1,0 -1,1 0,0 0,0 1,0 0,0 0,0 0,0 0,0 0,0 0,0 0,0 0,0 0,0 0,0 0,0 0,0 0,0 1,0 1,0 0,0 0,0 0,0 0,0 0,0 0,0 0,0 0,0 0,0 1,0 1,0 2,0 0,0 0,0 0,0 0,-1 0,-1 0,-1 0,-1 0,-1 0,-2 0,0 0,0 0,-1 0,0 0,0 0,-1l0 0c0,-1 0,-1 0,-1 0,-1 0,-1 0,-1 0,-1 0,-1 0,-2 0,0 0,0 0,-1 0,0 0,0 0,0 0,0 0,0 0,0 0,0 0,0 0,0 0,-4 6,-12 6,-12zm-14 0l0 0c0,0 0,0 0,0l0 -1 1 0 0 2 0 0c0,0 -1,-1 -1,-1l0 0zm13 -17l0 2 -2 0 0 -2 2 0zm-2 -2l2 0 0 2 -2 0 0 -2zm3 18l-1 0 0 -2 2 0c0,1 -1,1 -1,2zm1 -9l-2 0 0 -2 2 0 0 2zm0 2l-2 0 0 -2 2 0 0 2zm0 -5l-2 0 0 -2 2 0 0 2zm-2 5l2 0 0 2 -2 0 0 -2zm0 4l0 -1 2 0 0 1c0,0 0,0 0,0l-2 0zm3 -1l0 0c0,0 0,0 0,0l0 0zm0 -1l0 -2 0 0c0,1 0,2 0,2l0 0zm0 -2l0 -2 1 0c0,1 0,1 0,2l-1 0zm0 -2l0 -2 0 0c1,0 1,1 1,2l-1 0zm0 -3l0 -2 0 0c0,1 0,2 0,2l0 0zm0 -2l0 0c0,0 0,0 0,0l0 0zm-1 0l-2 0 0 -2 2 0c0,0 0,0 0,1l0 1zm-2 -2l0 -2 0 0c1,0 1,1 2,2l-2 0zm0 2l0 2 -2 0 0 -2 2 0zm0 3l0 2 -2 0 0 -2 2 0zm0 2l0 2 -2 0 0 -2 2 0zm0 2l0 2 -2 0 0 -2 2 0zm0 3l0 1 -2 0 0 -1 2 0zm0 2l0 2 -2 0 0 -2 2 0zm0 2l0 1c-1,0 -1,1 -2,1l0 0 0 -2 2 0zm-4 -5l0 -2 2 0 0 2 -2 0zm2 1l0 1 -2 0 0 -1 2 0zm0 -3l-2 0 0 -2 2 0 0 2zm0 -7l-2 0 0 -2 2 0 0 2zm0 0l0 2 -2 0 0 -2 2 0zm0 -2l-2 0 0 -2 2 0 0 2zm-2 -3l0 -2 2 0 0 2 -2 0zm0 8l2 0 0 2 -2 0 0 -2zm2 9l0 2 -2 0 0 -2 2 0zm-2 2l2 0 0 2 -2 0 0 -2zm0 -21l0 -1c0,1 1,1 1,1l-1 0zm-3 21l0 -2 2 0 0 2 -2 0zm2 0l0 2 -2 0 0 -2 2 0zm0 -12l-2 0 0 -2 2 0 0 2zm0 8l0 1 -2 0 0 -1 2 0zm0 -7l0 2 -2 0 0 -2 2 0zm-2 2l2 0 0 2 -2 0 0 -2zm2 2l0 2 -2 0 0 -2 2 0zm-2 -7l0 -2 2 0 0 2 -2 0zm2 -4l0 2 -2 0 0 -2 2 0zm-2 -3l2 0 0 2 -2 0 0 -2zm2 0l-2 0 0 -1c1,0 2,0 2,0l0 1zm-4 21l2 0 0 2 -2 0 0 -2zm0 -2l2 0 0 2 -2 0 0 -2zm0 -1l0 -1 2 0 0 1 -2 0zm0 -15l2 0 0 2 -2 0 0 -2zm0 -3l2 0 0 2 -2 0 0 -2zm2 5l0 2 -2 0 0 -2 2 0zm0 2l0 2 -2 0 0 -2 2 0zm0 5l0 2 -2 0 0 -2 2 0zm-2 0l0 -2 2 0 0 2 -2 0zm2 2l0 2 -2 0 0 -2 2 0zm0 -14l-2 0 0 -1c1,0 1,0 2,0l0 1zm-5 10l0 2 -1 0 0 -2 1 0zm-1 -3l1 0 0 2 -1 0 0 -2zm0 5l1 0 0 2 -1 0 0 -2zm1 2l0 2 -1 0 0 -2 1 0zm0 3l0 1 -1 0 0 -1 1 0zm-1 2l1 0 0 2 -1 0 0 -2zm2 -16l2 0 0 2 -2 0 0 -2zm0 -1l0 -2 2 0 0 2 -2 0zm2 17l0 2 -2 0 0 -2 2 0zm-2 -1l0 -1 2 0 0 1 -2 0zm0 -2l0 -2 2 0 0 2 -2 0zm2 -2l-2 0 0 -2 2 0 0 2zm-2 -2l0 -2 2 0 0 2 -2 0zm2 -7l0 2 -2 0 0 -2 2 0zm-2 16l2 0 0 2 -2 0 0 -2zm0 -12l0 -2 2 0 0 2 -2 0zm2 -9l-2 0c1,0 1,-1 2,-1l0 1zm-3 7l-1 0 0 -2 1 0 0 2zm-2 14l0 0 0 0c0,0 0,0 0,0zm2 -16l-1 0 0 -2 1 0 0 2zm-2 -2l0 2 -1 0c0,-1 0,-2 1,-2l0 0zm0 2l0 2 -2 0 0 -2c0,0 0,0 0,0l2 0zm-2 9l0 -2 2 0 0 2 -2 0zm2 0l0 2 -2 0 0 -2 2 0zm-2 -2l0 -2 2 0 0 2 -2 0zm2 -3l-2 0 0 -2 2 0 0 2zm-2 -2l0 2 -1 0c0,0 0,-1 1,-2l0 0zm0 0c0,0 0,0 0,-1l0 1 0 0zm0 3l0 2 -1 0c0,-1 0,-2 0,-2l1 0zm0 2l0 2 -1 0c0,-1 0,-1 0,-2l1 0zm0 2l0 2 -1 0c0,0 0,-1 0,-2l1 0zm0 3l0 0c0,0 0,0 0,0l0 0zm0 0l2 0 0 1 -2 0c0,0 0,0 0,0l0 -1zm2 2l0 2 0 0c-1,-1 -1,-1 -1,-2l1 0zm5 4l0 1c-1,0 -2,0 -2,-1l2 0zm0 0l2 0 0 2c-1,0 -1,0 -2,-1l0 -1zm2 2l0 -2 2 0 0 1c0,1 -1,1 -2,1zm3 -1l0 -1 2 0c-1,1 -2,1 -2,1zm4 -22l0 0 -2 0 0 -2c1,1 1,1 2,2zm-12 -2l0 2 -1 0 0 0c0,-1 1,-1 1,-2zm5 34c0,0 0,0 0,0 -1,-3 -3,-7 -5,-10 2,1 3,2 5,2 2,0 4,-1 5,-2 -2,3 -4,7 -5,10 0,0 0,0 0,0z"/>
  <path class="fil0" d="M262 172c0,0 1,-1 1,-1 0,-1 1,-3 1,-3 3,-4 7,-6 12,-6 3,0 5,1 6,2 -1,4 -3,9 -7,13 -8,7 -18,8 -27,4 6,0 11,-4 14,-9z"/>
  <path class="fil0" d="M262 145l0 0c-3,2 -6,1 -10,0 0,0 -1,0 -1,0 -3,-1 -6,-1 -9,-1 -3,1 -5,2 -7,4 1,-3 3,-6 6,-9 8,-7 19,-8 28,-3 -1,4 -4,7 -7,9z"/>
  <path class="fil0" d="M243 148c2,0 5,0 7,1 0,0 1,0 1,0 4,1 9,2 13,0l0 -1c4,-2 7,-5 9,-10 1,1 2,2 3,3 5,5 7,12 7,18 -2,0 -4,-1 -7,-1 -6,0 -11,2 -15,8 0,0 -1,1 -2,3 0,0 0,1 0,1 -3,5 -9,8 -15,7 -1,0 -2,0 -4,-1 0,0 0,0 -1,-1 -5,-5 -7,-12 -7,-18 2,-5 6,-8 11,-9z"/>
  <g id="_548487936">
   <path class="fil0" d="M290 130l0 0c1,0 2,-1 2,-2 1,-1 1,-2 2,-3 -1,0 -2,-1 -2,-1 -4,0 -8,3 -9,6 2,2 5,2 7,0z"/>
   <path class="fil0" d="M294 139c-1,0 -2,1 -3,2 -1,1 -1,2 -1,3 0,0 1,0 2,0 4,0 7,-2 9,-6 -3,-1 -5,-1 -7,1z"/>
   <path class="fil2" d="M295 125c0,1 -1,3 -1,4 -1,1 -2,2 -4,3 0,0 0,0 0,0 -2,1 -5,1 -8,0 0,1 0,1 0,2 0,5 3,8 6,10 1,-2 1,-3 2,-4 1,-1 2,-2 3,-3 3,-1 6,-1 8,0 0,-1 0,-2 0,-3 0,-4 -2,-8 -6,-9z"/>
  </g>
  <path class="fil0" d="M162 180c0,0 1,0 1,0 0,-1 1,-1 1,-1 0,0 0,0 1,0 1,-1 2,-1 3,-1 1,-1 3,-2 5,-2 2,-1 3,-1 4,-2 0,-2 1,-4 2,-6 1,-1 4,-3 6,-4 0,2 -1,6 -3,7 0,1 0,1 -1,1 2,0 3,-1 4,-1 1,-1 2,-1 3,-2 0,-3 -1,-7 0,-9 1,-2 3,-5 5,-6 1,2 1,6 0,9 -1,1 -2,3 -4,5 2,-1 4,-3 6,-4 1,-2 2,-3 3,-4 -1,-3 -3,-6 -2,-9 0,-2 2,-5 3,-8 1,3 2,7 2,9 0,2 -1,4 -2,6 1,-1 2,-3 3,-4 0,-1 0,-1 1,-2 0,0 0,-1 0,-1 1,-1 1,-2 1,-3 0,0 1,-1 1,-2 -2,-2 -5,-4 -5,-6 -1,-3 -1,-6 0,-9 2,2 4,5 5,7 0,2 0,4 0,6 0,-1 1,-1 1,-2 0,-3 0,-6 0,-9 -2,-2 -6,-4 -7,-6 -1,-2 -2,-6 -1,-8 2,1 5,3 6,6 1,1 1,4 2,6 0,0 0,-1 -1,-1 0,-4 -1,-8 -2,-11 -2,-1 -4,-3 -4,-5 -1,-2 -1,-5 -1,-8 2,2 5,4 6,6 0,2 0,4 0,7 0,1 1,3 1,4 0,2 1,3 1,4 0,-2 -1,-5 0,-6 0,-3 2,-6 3,-8 2,2 2,6 2,8 0,2 -3,5 -5,8 0,0 0,0 0,1 1,3 1,6 1,9 0,-2 1,-5 1,-7 1,-3 4,-6 6,-7 1,2 0,6 0,8 -1,3 -5,5 -7,7 0,1 0,2 0,2 0,2 -1,4 -1,6 0,-2 1,-3 2,-4 2,-2 5,-5 8,-6 0,3 -2,7 -3,9 -2,2 -6,3 -8,4 0,0 0,0 0,0 -1,1 -1,1 -1,2 0,0 -1,1 -1,1 -1,2 -1,3 -2,5 1,-2 2,-3 4,-4 2,-2 6,-3 9,-3 -1,3 -4,6 -6,8 -2,1 -6,1 -9,2 -1,1 -2,2 -3,3 -1,1 -2,1 -3,2 2,-1 3,-2 5,-2 3,-1 7,0 10,0 -2,3 -5,5 -8,5 -3,1 -6,0 -10,-1 -1,1 -3,2 -4,3 0,0 0,0 1,0 2,0 6,1 8,2 -2,2 -5,3 -7,3 -2,0 -5,-1 -8,-2 -2,1 -4,2 -6,3 -2,0 -4,1 -6,2 -1,0 -2,0 -3,1 0,0 0,0 0,0 0,0 -1,0 -1,1 0,0 -1,0 -1,0 -2,1 -3,3 -5,4 0,0 0,0 0,1l0 -3c1,-2 2,-3 4,-4z"/>
  <path class="fil0" d="M185 180c0,0 -1,0 -1,0 0,-1 -1,-1 -1,-1 0,0 0,0 -1,0 -1,-1 -2,-1 -3,-1 -1,-1 -3,-2 -5,-2 -2,-1 -3,-1 -4,-2 0,-2 -1,-4 -2,-6 -1,-1 -4,-3 -6,-4 0,2 1,6 3,7 0,1 0,1 1,1 -2,0 -3,-1 -4,-1 -1,-1 -2,-1 -3,-2 0,-3 1,-7 0,-9 -1,-2 -3,-5 -5,-6 -1,2 -1,6 0,9 1,1 2,3 4,5 -2,-1 -4,-3 -6,-4 -1,-2 -2,-3 -3,-4 1,-3 3,-6 2,-9 0,-2 -2,-5 -3,-8 -1,3 -2,7 -2,9 0,2 1,4 2,6 -1,-1 -2,-3 -3,-4 0,-1 0,-1 -1,-2 0,0 0,-1 0,-1 -1,-1 -1,-2 -1,-3 0,0 -1,-1 -1,-2 2,-2 5,-4 5,-6 1,-3 1,-6 0,-9 -2,2 -4,5 -5,7 0,2 0,4 0,6 0,-1 -1,-1 -1,-2 0,-3 0,-6 0,-9 2,-2 6,-4 7,-6 1,-2 2,-6 1,-8 -2,1 -5,3 -6,6 -1,1 -1,4 -2,6 0,0 0,-1 0,-1 1,-4 2,-8 3,-11 2,-1 4,-3 4,-5 1,-2 1,-5 1,-8 -2,2 -5,4 -6,6 0,2 0,4 0,7 0,1 -1,3 -1,4 0,2 -1,3 -1,4 0,-2 1,-5 0,-6 0,-3 -2,-6 -3,-8 -2,2 -2,6 -2,8 0,2 3,5 5,8 0,0 0,0 0,1 -1,3 -1,6 -1,9 0,-2 -1,-5 -1,-7 -1,-3 -4,-6 -6,-7 -1,2 0,6 0,8 1,3 5,5 7,7 0,1 0,2 0,2 0,2 1,4 1,6 0,-2 -1,-3 -2,-4 -2,-2 -5,-5 -8,-6 0,3 2,7 3,9 2,2 6,3 8,4 0,0 0,0 0,0 1,1 1,1 1,2 0,0 1,1 1,1 1,2 1,3 2,5 -1,-2 -2,-3 -4,-4 -2,-2 -6,-3 -9,-3 1,3 4,6 6,8 2,1 6,1 9,2 1,1 2,2 3,3 1,1 2,1 3,2 -2,-1 -3,-2 -5,-2 -3,-1 -7,0 -10,0 2,3 5,5 8,5 3,1 6,0 10,-1 1,1 3,2 4,3 0,0 0,0 -1,0 -2,0 -6,1 -8,2 2,2 5,3 7,3 2,0 5,-1 8,-2 2,1 4,2 6,3 2,0 4,1 6,2 1,0 2,0 3,1 0,0 0,0 0,0 0,0 1,0 1,1 0,0 1,0 1,0 2,1 3,3 5,4 0,0 0,0 0,1l0 -3c-1,-2 -2,-3 -4,-4z"/>
  <path class="fil2" d="M47 141l0 0c2,-2 3,-6 3,-10 0,-7 -5,-14 -11,-14 -7,0 -12,7 -12,14 0,4 1,8 4,10 1,2 6,9 6,12 0,0 0,0 0,0 0,0 0,0 0,0 0,0 0,0 0,0 0,0 0,1 0,1 0,0 0,0 0,1 0,0 0,0 0,1 0,1 0,1 0,1 0,1 0,1 0,1 0,1 0,1 0,2 0,0 0,0 0,1 0,0 0,0 0,1 0,1 0,1 0,1 0,0 0,0 0,0 0,0 0,0 0,0 0,0 0,0 0,0 1,0 1,0 1,0 0,1 0,1 0,1 0,0 0,0 0,0 0,0 0,0 0,0 0,0 0,0 0,0 0,0 0,0 1,0 0,0 1,-1 1,-1 0,0 0,0 0,0 1,0 0,0 0,-1 0,-1 0,-1 0,-1 0,-1 0,-1 0,-1 0,-1 0,-1 0,-2l0 0c0,0 0,0 0,-1 0,0 0,0 0,-1 0,-1 0,-1 0,-1 0,-1 1,-1 0,-2 0,0 0,0 0,0 0,0 0,0 0,0 0,0 0,0 0,0 0,-3 7,-12 7,-12zm-15 0l0 0c0,0 0,0 0,0l0 0 2 0 0 2 0 0c-1,-1 -1,-1 -2,-2l0 0zm13 -17l0 2 -2 0 0 -2 2 0zm-2 -2l2 0 0 2 -2 0 0 -2zm3 18l0 0 0 -2 1 0c0,1 -1,2 -1,2zm2 -9l-2 0 0 -2 2 0 0 2zm0 2l-2 0 0 -2 2 0 0 2zm0 -4l-2 0 0 -2 2 0 0 2zm-2 5l2 0 0 2 -2 0 0 -2zm0 4l0 -2 2 0 0 1c0,1 0,1 -1,1l-1 0zm2 -2l0 0c0,0 0,0 0,0l0 0zm0 0l0 -2 1 0c0,0 0,1 -1,2l0 0zm0 -3l0 -2 1 0c0,1 0,2 0,2l-1 0zm0 -2l0 -2 1 0c0,1 0,1 0,2l-1 0zm0 -2l0 -2 0 0c0,0 1,1 1,2l-1 0zm0 -3l0 0c0,0 0,0 0,0l0 0zm0 0l-2 0 0 -2 1 0c0,1 1,1 1,1l0 1zm-2 -2l0 -2 0 0c0,1 1,1 1,2l-1 0zm-1 3l0 2 -2 0 0 -2 2 0zm0 2l0 2 -2 0 0 -2 2 0zm0 2l0 2 -2 0 0 -2 2 0zm0 3l0 2 -2 0 0 -2 2 0zm0 2l0 2 -2 0 0 -2 2 0zm0 2l0 2 -2 0 0 -2 2 0zm0 3l0 0c0,1 -1,1 -1,2l-1 0 0 -2 2 0zm-4 -5l0 -2 2 0 0 2 -2 0zm2 0l0 2 -2 0 0 -2 2 0zm0 -3l-2 0 0 -2 2 0 0 2zm0 -7l-2 0 0 -2 2 0 0 2zm0 1l0 2 -2 0 0 -2 2 0zm0 -3l-2 0 0 -2 2 0 0 2zm-2 -2l0 -2 2 0 0 2 -2 0zm0 7l2 0 0 2 -2 0 0 -2zm2 9l0 2 -2 0 0 -2 2 0zm-2 3l2 0 0 2 -2 0 0 -2zm0 -22l0 0c1,0 1,0 1,0l-1 0zm-2 21l0 -2 2 0 0 2 -2 0zm2 1l0 2 -2 0 0 -2 2 0zm0 -12l-2 0 0 -2 2 0 0 2zm0 7l0 2 -2 0 0 -2 2 0zm0 -7l0 2 -2 0 0 -2 2 0zm-2 2l2 0 0 2 -2 0 0 -2zm2 3l0 2 -2 0 0 -2 2 0zm-2 -8l0 -2 2 0 0 2 -2 0zm2 -4l0 2 -2 0 0 -2 2 0zm-2 -2l2 0 0 2 -2 0 0 -2zm2 -1l-2 0 0 -1c0,0 1,0 2,1l0 0zm-5 22l2 0 0 2 -2 0 0 -2zm0 -3l2 0 0 2 -2 0 0 -2zm0 0l0 -2 2 0 0 2 -2 0zm0 -16l2 0 0 2 -2 0 0 -2zm0 -2l2 0 0 2 -2 0 0 -2zm2 4l0 2 -2 0 0 -2 2 0zm0 3l0 2 -2 0 0 -2 2 0zm0 4l0 2 -2 0 0 -2 2 0zm-2 0l0 -2 2 0 0 2 -2 0zm2 3l0 2 -2 0 0 -2 2 0zm0 -15l-2 0 0 0c1,-1 2,-1 2,-1l0 1zm-4 10l0 2 -2 0 0 -2 2 0zm-2 -2l2 0 0 2 -2 0 0 -2zm0 4l2 0 0 2 -2 0 0 -2zm2 3l0 2 -2 0 0 -2 2 0zm0 2l0 2 -2 0 0 -2 2 0zm-2 2l2 0 0 2 -2 0 0 -2zm2 -16l2 0 0 2 -2 0 0 -2zm0 0l0 -2 2 0 0 2 -2 0zm2 16l0 2 -2 0 0 -2 2 0zm-2 0l0 -2 2 0 0 2 -2 0zm0 -2l0 -2 2 0 0 2 -2 0zm2 -3l-2 0 0 -2 2 0 0 2zm-2 -2l0 -2 2 0 0 2 -2 0zm2 -7l0 2 -2 0 0 -2 2 0zm-2 17l2 0 0 2 -2 0 0 -2zm0 -12l0 -2 2 0 0 2 -2 0zm2 -10l-1 0c0,0 1,0 1,0l0 0zm-2 7l-2 0 0 -2 2 0 0 2zm-3 15l0 0 0 0c0,0 0,0 0,0zm3 -17l-2 0 0 -2 2 0 0 2zm-3 -2l0 2 -1 0c0,-1 1,-1 1,-2l0 0zm0 2l0 2 -1 0 0 -1c0,0 0,0 0,-1l1 0zm-1 9l0 -2 1 0 0 2 -1 0zm1 1l0 2 -1 0 0 -2 1 0zm-1 -3l0 -2 1 0 0 2 -1 0zm1 -2l-1 0 0 -2 1 0 0 2zm-2 -2l0 2 -1 0c0,-1 1,-2 1,-2l0 0zm0 -1c0,0 0,0 0,0l0 0 0 0zm0 3l0 2 -1 0c0,-1 0,-1 0,-2l1 0zm0 2l0 2 -1 0c0,0 0,-1 0,-2l1 0zm0 3l0 2 0 0c0,-1 -1,-2 -1,-2l1 0zm0 2l0 1c0,-1 0,-1 0,-1l0 0zm1 0l1 0 0 2 -1 0c0,0 0,0 0,0l0 -2zm1 2l0 2 0 0c0,0 -1,-1 -1,-2l1 0zm5 5l0 1c-1,0 -1,-1 -2,-1l2 0zm0 0l2 0 0 1c0,0 -1,0 -2,0l0 -1zm3 1l0 -1 2 0 0 1c-1,0 -2,0 -2,0zm2 0l0 -1 2 0c-1,0 -1,0 -2,1zm4 -22l0 0 -2 0 0 -2c1,0 2,1 2,2zm-11 -2l0 2 -2 0 0 -1c0,0 1,-1 2,-1zm5 33c0,0 -1,0 -1,0 0,-3 -2,-6 -4,-9 1,1 3,1 5,1 1,0 3,0 5,-1 -2,3 -5,6 -5,9 0,0 0,0 0,0z"/>
  <g id="_548126384">
   <path class="fil2" d="M51 268c1,-1 1,-1 1,-1 1,0 1,0 1,0 0,0 0,0 0,-1 1,0 2,0 2,0 2,-1 3,-1 4,-2 1,0 2,0 3,-1 0,-1 0,-3 1,-4 1,-1 3,-2 5,-2 -1,1 -1,3 -2,4 -1,1 -1,1 -1,1 1,0 1,-1 2,-1 1,0 2,-1 2,-1 0,-2 0,-5 0,-6 1,-2 3,-4 4,-5 0,2 0,5 0,6 -1,2 -2,3 -3,4 2,-1 3,-2 4,-3 1,-1 2,-2 2,-3 0,-1 -2,-4 -1,-5 0,-2 1,-4 2,-6 1,2 1,5 1,6 0,1 0,3 -1,4 1,-1 1,-2 2,-3 0,0 0,0 0,-1 1,0 1,0 1,-1 0,0 0,-1 1,-2 0,0 0,0 0,-1 -1,-1 -3,-3 -4,-4 0,-2 0,-4 1,-6 1,1 2,3 3,5 0,1 0,2 0,4 0,-1 0,-1 0,-2 1,-2 1,-4 1,-6 -2,-1 -4,-3 -5,-4 -1,-2 -1,-4 -1,-6 1,1 3,3 4,4 1,2 1,3 1,5 0,0 0,-1 0,-1 0,-3 0,-5 -1,-8 -2,0 -3,-1 -3,-3 -1,-2 -1,-3 0,-5 1,1 2,2 3,4 1,1 1,3 0,4 0,1 1,2 1,4 0,0 1,1 1,2 0,-1 -1,-3 0,-4 0,-2 1,-4 2,-6 1,2 1,4 1,6 0,2 -2,4 -3,5 0,0 0,1 0,1 0,2 0,4 0,6 1,-1 1,-3 1,-5 1,-1 3,-4 4,-5 1,2 1,5 0,6 -1,2 -3,4 -5,5 0,1 0,1 0,1 0,2 0,3 0,4 0,-1 1,-2 1,-3 1,-1 4,-2 5,-3 0,2 -1,4 -2,6 -1,1 -3,2 -5,3 0,0 0,0 0,0 0,0 -1,0 -1,1 0,0 0,0 0,1 -1,1 -1,2 -2,3 1,-1 2,-2 3,-3 1,-1 4,-2 6,-2 -1,2 -2,4 -4,5 -1,1 -4,1 -6,2 -1,0 -2,1 -2,2 -1,0 -1,1 -2,2 1,-1 2,-2 3,-2 2,-1 5,0 7,0 -2,2 -4,3 -5,4 -2,0 -5,-1 -7,-1 -1,1 -2,1 -3,2 0,0 0,0 1,0 1,0 4,1 5,1 -1,1 -3,2 -5,2 -1,1 -3,0 -5,-1 -1,1 -3,1 -4,2 -1,0 -3,1 -4,1 -1,0 -1,1 -2,1 0,0 0,0 0,0 -1,0 -1,0 -1,0 0,1 0,1 -1,1 -1,1 -2,1 -3,3 0,0 0,0 0,0l0 -2c1,-1 1,-2 2,-2z"/>
   <path class="fil2" d="M68 268c-1,-1 -1,-1 -1,-1 -1,0 -1,0 -1,0 0,0 0,0 0,-1 -1,0 -2,0 -2,0 -2,-1 -3,-1 -4,-2 -1,0 -2,0 -3,-1 0,-1 0,-3 -1,-4 -1,-1 -3,-2 -5,-2 1,1 1,3 2,4 1,1 1,1 1,1 -1,0 -1,-1 -2,-1 -1,0 -2,-1 -2,-1 0,-2 0,-5 0,-6 -1,-2 -3,-4 -4,-5 0,2 0,5 0,6 1,2 2,3 3,4 -2,-1 -3,-2 -4,-3 -1,-1 -2,-2 -2,-3 0,-1 2,-4 1,-5 0,-2 -1,-4 -2,-6 -1,2 -1,5 -1,6 0,1 0,3 1,4 -1,-1 -1,-2 -2,-3 0,0 0,0 0,-1 -1,0 -1,0 -1,-1 0,0 0,-1 -1,-2 0,0 0,0 0,-1 1,-1 3,-3 4,-4 0,-2 0,-4 -1,-6 -1,1 -2,3 -3,5 0,1 0,2 0,4 0,-1 0,-1 0,-2 -1,-2 -1,-4 -1,-6 2,-1 4,-3 5,-4 1,-2 1,-4 1,-6 -1,1 -3,3 -4,4 -1,2 -1,3 -1,5 0,0 0,-1 0,-1 0,-3 0,-5 1,-8 2,0 3,-1 3,-3 1,-2 1,-3 0,-5 -1,1 -2,2 -3,4 -1,1 -1,3 0,4 0,1 -1,2 -1,4 0,0 -1,1 -1,2 0,-1 1,-3 0,-4 0,-2 -1,-4 -2,-6 -1,2 -1,4 -1,6 0,2 2,4 3,5 0,0 0,1 0,1 0,2 0,4 0,6 -1,-1 -1,-3 -1,-5 -1,-1 -3,-4 -4,-5 -1,2 -1,5 0,6 1,2 3,4 5,5 0,1 0,1 0,1 0,2 0,3 0,4 0,-1 -1,-2 -1,-3 -1,-1 -4,-2 -5,-3 0,2 1,4 2,6 1,1 3,2 5,3 0,0 0,0 0,0 0,0 1,0 1,1 0,0 0,0 0,1 1,1 1,2 2,3 -1,-1 -2,-2 -3,-3 -1,-1 -4,-2 -6,-2 1,2 2,4 4,5 1,1 4,1 6,2 1,0 2,1 2,2 1,0 1,1 2,2 -1,-1 -2,-2 -3,-2 -2,-1 -5,0 -7,0 2,2 4,3 5,4 2,0 5,-1 7,-1 1,1 2,1 3,2 0,0 0,0 -1,0 -1,0 -4,1 -5,1 1,1 3,2 5,2 1,1 3,0 5,-1 1,1 3,1 4,2 1,0 3,1 4,1 1,0 1,1 2,1 0,0 0,0 0,0 1,0 1,0 1,0 0,1 0,1 1,1 1,1 2,1 3,3 0,0 0,0 0,0l0 -2c-1,-1 -1,-2 -2,-2z"/>
  </g>
  <path class="fil0" d="M67 236l0 0c2,-2 4,-6 4,-10 0,-7 -5,-14 -12,-14 -6,0 -11,7 -11,14 0,4 1,8 3,10 1,2 7,9 7,12 0,0 0,0 0,0 0,0 0,0 0,0 0,0 0,0 0,0 -1,0 -1,1 -1,1 0,0 1,0 1,1 0,0 -1,0 -1,1 0,1 1,1 1,1 0,1 -1,1 -1,1 0,1 1,1 1,2 0,0 -1,0 -1,1 0,0 1,0 1,1 0,1 -1,1 -1,1 0,0 0,0 1,0 0,1 0,1 0,1 0,0 0,0 0,0 0,0 0,0 0,0 0,0 0,0 0,0 0,0 0,0 1,0 0,0 0,0 0,0 0,0 0,0 0,0 0,0 0,0 0,0 1,0 1,0 2,-1 0,0 0,0 0,0 0,0 0,0 0,-1 0,-1 0,-1 0,-1 0,-1 0,-1 0,-1 0,-1 0,-1 0,-2l0 0c0,0 0,0 0,-1 0,0 0,0 0,-1 0,-1 0,-1 0,-1 0,-1 0,-1 0,-1 0,-1 0,-1 0,-1 0,0 0,0 0,0 0,0 0,0 0,0 0,-3 6,-12 6,-12zm-14 0l0 0c0,0 0,0 -1,0l0 0 2 0 0 2 0 0c0,-1 -1,-1 -1,-2l0 0zm13 -17l0 2 -2 0 0 -2 2 0zm-2 -2l2 0 0 2 -2 0 0 -2zm3 18l-1 0 0 -2 2 0c0,1 -1,2 -1,2zm1 -9l-2 0 0 -2 2 0 0 2zm0 2l-2 0 0 -2 2 0 0 2zm0 -4l-2 0 0 -2 2 0 0 2zm-2 5l2 0 0 2 -2 0 0 -2zm0 4l0 -2 2 0 0 1c0,1 0,1 0,1l-2 0zm3 -2l0 0c0,0 0,0 0,1l0 -1zm0 0l0 -2 0 0c0,0 0,1 0,2l0 0zm0 -3l0 -2 1 0c0,1 0,2 -1,2l0 0zm0 -2l0 -2 0 0c1,1 1,1 1,2l-1 0zm0 -2l0 -2 0 0c0,0 0,1 0,2l0 0zm0 -3l0 0c0,0 0,0 0,0l0 0zm-1 0l-2 0 0 -2 2 0c0,1 0,1 0,1l0 1zm-2 -2l0 -2 0 0c1,1 1,1 2,2l-2 0zm0 3l0 2 -2 0 0 -2 2 0zm0 2l0 2 -2 0 0 -2 2 0zm0 2l0 2 -2 0 0 -2 2 0zm0 3l0 2 -2 0 0 -2 2 0zm0 2l0 2 -2 0 0 -2 2 0zm0 2l0 2 -2 0 0 -2 2 0zm0 3l0 0c-1,1 -1,1 -2,2l0 0 0 -2 2 0zm-4 -5l0 -2 2 0 0 2 -2 0zm2 0l0 2 -2 0 0 -2 2 0zm0 -3l-2 0 0 -2 2 0 0 2zm0 -7l-2 0 0 -2 2 0 0 2zm0 1l0 2 -2 0 0 -2 2 0zm0 -3l-2 0 0 -2 2 0 0 2zm-2 -2l0 -2 2 0 0 2 -2 0zm0 7l2 0 0 2 -2 0 0 -2zm2 9l0 2 -2 0 0 -2 2 0zm-2 3l2 0 0 2 -2 0 0 -2zm0 -22l0 0c0,0 1,0 1,0l-1 0zm-3 21l0 -2 2 0 0 2 -2 0zm2 1l0 2 -2 0 0 -2 2 0zm0 -12l-2 0 0 -2 2 0 0 2zm0 7l0 2 -2 0 0 -2 2 0zm0 -7l0 2 -2 0 0 -2 2 0zm-2 2l2 0 0 2 -2 0 0 -2zm2 3l0 2 -2 0 0 -2 2 0zm-2 -8l0 -2 2 0 0 2 -2 0zm2 -4l0 2 -2 0 0 -2 2 0zm-2 -2l2 0 0 2 -2 0 0 -2zm2 -1l-2 0 0 -1c1,0 2,1 2,1l0 0zm-4 22l2 0 0 2 -2 0 0 -2zm0 -3l2 0 0 2 -2 0 0 -2zm0 0l0 -2 2 0 0 2 -2 0zm0 -16l2 0 0 2 -2 0 0 -2zm0 -2l2 0 0 2 -2 0 0 -2zm2 4l0 2 -2 0 0 -2 2 0zm0 3l0 2 -2 0 0 -2 2 0zm0 4l0 2 -2 0 0 -2 2 0zm-2 0l0 -2 2 0 0 2 -2 0zm2 3l0 2 -2 0 0 -2 2 0zm0 -15l-2 0 0 0c1,0 1,-1 2,-1l0 1zm-5 10l0 2 -2 0 0 -2 2 0zm-2 -2l2 0 0 2 -2 0 0 -2zm0 4l2 0 0 2 -2 0 0 -2zm2 3l0 2 -2 0 0 -2 2 0zm0 2l0 2 -2 0 0 -2 2 0zm-2 2l2 0 0 2 -2 0 0 -2zm3 -16l2 0 0 2 -2 0 0 -2zm0 0l0 -2 2 0 0 2 -2 0zm2 16l0 2 -2 0 0 -2 2 0zm-2 0l0 -2 2 0 0 2 -2 0zm0 -2l0 -2 2 0 0 2 -2 0zm2 -3l-2 0 0 -2 2 0 0 2zm-2 -2l0 -2 2 0 0 2 -2 0zm2 -7l0 2 -2 0 0 -2 2 0zm-2 17l2 0 0 2 -2 0 0 -2zm0 -12l0 -2 2 0 0 2 -2 0zm2 -10l-2 0c1,0 1,0 2,0l0 0zm-3 7l-2 0 0 -2 2 0 0 2zm-2 15l0 0 0 0c0,0 0,0 0,0zm2 -17l-2 0 0 -2 2 0 0 2zm-2 -2l0 2 -1 0c0,-1 0,-1 1,-2l0 0zm0 2l0 2 -2 0 0 -1c0,0 0,0 0,-1l2 0zm-2 9l0 -2 2 0 0 2 -2 0zm2 1l0 2 -2 0 0 -2 2 0zm-2 -3l0 -2 2 0 0 2 -2 0zm2 -2l-2 0 0 -2 2 0 0 2zm-2 -2l0 2 -1 0c0,-1 0,-2 1,-2l0 0zm0 -1c0,0 0,0 0,0l0 0 0 0zm0 3l0 2 -1 0c0,-1 0,-1 0,-2l1 0zm0 2l0 2 -1 0c0,0 0,-1 0,-2l1 0zm0 3l0 2 -1 0c0,-1 0,-2 0,-2l1 0zm0 2l0 1c0,-1 0,-1 0,-1l0 0zm0 0l2 0 0 2 -2 0c0,0 0,0 0,0l0 -2zm2 2l0 2 0 0c-1,0 -1,-1 -1,-2l1 0zm5 5l0 1c-1,0 -2,-1 -2,-1l2 0zm0 0l2 0 0 1c-1,0 -1,0 -2,0l0 -1zm2 1l0 -1 2 0 0 1c0,0 -1,0 -2,0zm3 0l0 -1 2 0c-1,0 -2,1 -2,1zm4 -22l0 0 -2 0 0 -2c1,0 1,1 2,2zm-12 -2l0 2 -2 0 0 0c1,-1 2,-2 2,-2zm5 33c0,0 0,0 0,0 -1,-3 -3,-6 -5,-9 2,1 3,1 5,1 2,0 4,0 5,-1 -2,3 -4,6 -5,9 0,0 0,0 0,0z"/>
  <circle class="fil1" cx="14" cy="162" r="10"/>
  <g id="_548127344">
   <path class="fil2" d="M12 159l0 0c1,-1 2,-2 3,-2 0,-1 1,-3 1,-4 -1,0 -1,0 -2,0 -4,0 -7,2 -9,6 2,1 5,1 7,0z"/>
   <path class="fil2" d="M16 166c-1,1 -2,2 -3,3 0,1 -1,2 -1,3 1,0 1,0 2,0 4,0 7,-2 8,-6 -2,-1 -4,-1 -6,0z"/>
   <path class="fil2" d="M17 154c0,1 0,2 -1,3 -1,1 -2,2 -3,3 0,0 0,0 0,0 -3,1 -6,1 -8,0 0,1 0,2 0,2 0,5 2,8 6,9 0,-1 0,-2 1,-3 1,-1 2,-2 3,-3 3,-1 5,-1 8,0 0,-1 0,-2 0,-3 0,-4 -2,-7 -6,-8z"/>
  </g>
  <path class="fil0" d="M216 81l0 0c2,-3 4,-6 4,-10 0,-8 -5,-14 -12,-14 -6,0 -11,6 -11,14 0,4 1,8 3,10 1,1 7,9 7,12 0,0 0,0 0,0 0,0 0,0 0,0 0,0 0,0 0,0 -1,0 -1,0 -1,0 0,1 1,1 1,1 0,1 -1,1 -1,2 0,0 1,0 1,1 0,0 -1,0 -1,1 0,1 1,1 1,1 0,1 -1,1 -1,1 0,1 1,1 1,2 0,0 -1,0 -1,1 0,0 0,0 1,0 0,0 0,0 0,0 0,0 0,0 0,0 0,0 0,0 0,0 0,0 0,0 0,0 0,0 0,0 0,0 1,0 1,0 1,0 0,0 0,0 0,0 0,0 0,0 0,0 1,0 1,0 2,0 0,0 0,0 0,0 0,-1 0,-1 0,-1 0,-1 0,-1 0,-2 0,0 0,0 0,-1 0,0 0,0 0,-1l0 0c0,-1 0,-1 0,-1 0,-1 0,-1 0,-1 0,-1 0,-1 0,-2 0,0 0,0 0,-1 0,0 0,0 0,0 0,0 0,0 0,0 0,0 0,0 0,0 0,-4 6,-12 6,-12zm-14 0l0 0c0,0 0,0 -1,0l0 -1 2 0 0 2 0 0c0,0 -1,0 -1,-1l0 0zm13 -17l0 2 -2 0 0 -2 2 0zm-2 -2l2 0 0 2 -2 0 0 -2zm3 18l-1 0 0 -2 2 0c-1,1 -1,1 -1,2zm1 -9l-2 0 0 -2 2 0 0 2zm0 2l-2 0 0 -2 2 0 0 2zm0 -5l-2 0 0 -2 2 0 0 2zm-2 5l2 0 0 2 -2 0 0 -2zm0 5l0 -2 2 0 0 1c0,0 0,0 0,1l-2 0zm3 -2l0 0c0,0 0,0 0,0l0 0zm0 -1l0 -2 0 0c0,1 0,2 0,2l0 0zm0 -2l0 -2 1 0c0,1 0,1 -1,2l0 0zm0 -2l0 -2 0 0c0,0 1,1 1,2l-1 0zm0 -3l0 -2 0 0c0,1 0,2 0,2l0 0zm0 -2l0 0c0,0 0,0 0,0l0 0zm-1 0l-2 0 0 -2 2 0c0,0 0,1 0,1l0 1zm-2 -2l0 -2 0 0c1,0 1,1 2,2l-2 0zm0 2l0 2 -2 0 0 -2 2 0zm0 3l0 2 -2 0 0 -2 2 0zm0 2l0 2 -2 0 0 -2 2 0zm0 2l0 2 -2 0 0 -2 2 0zm0 3l0 2 -2 0 0 -2 2 0zm0 2l0 2 -2 0 0 -2 2 0zm0 2l0 1c-1,0 -1,1 -2,1l0 0 0 -2 2 0zm-4 -5l0 -2 2 0 0 2 -2 0zm2 1l0 2 -2 0 0 -2 2 0zm0 -3l-2 0 0 -2 2 0 0 2zm0 -7l-2 0 0 -2 2 0 0 2zm0 0l0 2 -2 0 0 -2 2 0zm0 -2l-2 0 0 -2 2 0 0 2zm-2 -3l0 -2 2 0 0 2 -2 0zm0 8l2 0 0 2 -2 0 0 -2zm2 9l0 2 -2 0 0 -2 2 0zm-2 2l2 0 0 2 -2 0 0 -2zm0 -21l0 0c0,0 1,0 1,0l-1 0zm-3 21l0 -2 2 0 0 2 -2 0zm2 0l0 2 -2 0 0 -2 2 0zm0 -12l-2 0 0 -2 2 0 0 2zm0 8l0 2 -2 0 0 -2 2 0zm0 -7l0 2 -2 0 0 -2 2 0zm-2 2l2 0 0 2 -2 0 0 -2zm2 2l0 2 -2 0 0 -2 2 0zm-2 -7l0 -2 2 0 0 2 -2 0zm2 -4l0 2 -2 0 0 -2 2 0zm-2 -3l2 0 0 2 -2 0 0 -2zm2 0l-2 0 0 -1c1,0 2,0 2,0l0 1zm-4 21l2 0 0 2 -2 0 0 -2zm0 -2l2 0 0 2 -2 0 0 -2zm0 0l0 -2 2 0 0 2 -2 0zm0 -16l2 0 0 2 -2 0 0 -2zm0 -3l2 0 0 2 -2 0 0 -2zm2 5l0 2 -2 0 0 -2 2 0zm0 2l0 2 -2 0 0 -2 2 0zm0 5l0 2 -2 0 0 -2 2 0zm-2 0l0 -2 2 0 0 2 -2 0zm2 2l0 2 -2 0 0 -2 2 0zm0 -14l-2 0 0 -1c1,0 1,0 2,0l0 1zm-5 10l0 2 -2 0 0 -2 2 0zm-2 -3l2 0 0 2 -2 0 0 -2zm0 5l2 0 0 2 -2 0 0 -2zm2 2l0 2 -2 0 0 -2 2 0zm0 3l0 2 -2 0 0 -2 2 0zm-2 2l2 0 0 2 -2 0 0 -2zm3 -16l2 0 0 2 -2 0 0 -2zm0 -1l0 -2 2 0 0 2 -2 0zm2 17l0 2 -2 0 0 -2 2 0zm-2 0l0 -2 2 0 0 2 -2 0zm0 -3l0 -2 2 0 0 2 -2 0zm2 -2l-2 0 0 -2 2 0 0 2zm-2 -2l0 -2 2 0 0 2 -2 0zm2 -7l0 2 -2 0 0 -2 2 0zm-2 16l2 0 0 2 -2 0 0 -2zm0 -12l0 -2 2 0 0 2 -2 0zm2 -9l-2 0c1,0 1,0 2,-1l0 1zm-3 7l-2 0 0 -2 2 0 0 2zm-2 14l0 0 0 0c0,0 0,0 0,0zm2 -16l-2 0 0 -2 2 0 0 2zm-2 -2l0 2 -1 0c0,-1 0,-2 1,-2l0 0zm0 2l0 2 -2 0 0 -1c0,-1 0,-1 0,-1l2 0zm-2 9l0 -2 2 0 0 2 -2 0zm2 0l0 2 -2 0 0 -2 2 0zm-2 -2l0 -2 2 0 0 2 -2 0zm2 -3l-2 0 0 -2 2 0 0 2zm-2 -2l0 2 -1 0c0,0 0,-1 0,-2l1 0zm0 0c0,0 0,0 0,0l0 0 0 0zm0 3l0 2 -1 0c0,-1 0,-2 0,-2l1 0zm0 2l0 2 -1 0c0,-1 0,-1 0,-2l1 0zm0 2l0 2 -1 0c0,0 0,-1 0,-2l1 0zm0 3l0 0c0,0 0,0 -1,0l1 0zm0 0l2 0 0 2 -2 0c0,0 0,-1 0,-1l0 -1zm2 2l0 2 0 0c-1,-1 -1,-1 -2,-2l2 0zm5 5l0 0c-1,0 -2,0 -2,0l2 0zm0 0l2 0 0 1c-1,0 -1,0 -2,0l0 -1zm2 1l0 -1 2 0 0 1c0,0 -1,0 -2,0zm3 -1l0 0 2 0c-1,0 -2,0 -2,0zm4 -22l0 0 -2 0 0 -1c1,0 1,1 2,1zm-12 -1l0 1 -2 0 0 0c1,0 2,-1 2,-1zm5 33c0,0 0,0 0,0 -1,-3 -3,-7 -5,-9 2,0 3,1 5,1 2,0 4,-1 5,-1 -2,2 -4,6 -5,9 0,0 0,0 0,0z"/>
  <g id="_547262832">
   <path class="fil0" d="M232 273c-3,3 -7,4 -11,3 -1,0 -2,-1 -3,-1 0,0 0,0 -1,0 -3,-1 -7,0 -10,3 -1,1 -2,3 -2,5 3,5 8,8 14,8 9,0 17,-8 17,-17 0,-2 -1,-4 -1,-6 -1,2 -2,3 -3,5z"/>
   <path class="fil2" d="M218 272c0,0 1,0 1,1 1,0 2,0 2,0 4,1 6,0 9,-2 2,-2 3,-5 3,-7 -3,-4 -9,-7 -14,-7 -10,0 -17,7 -17,17 0,2 0,4 1,6 0,-2 1,-3 2,-4 3,-4 9,-5 13,-4z"/>
  </g>
  <g id="_547263360">
   <path class="fil2" d="M145 106c0,-1 -1,0 -2,-1 0,0 0,-1 -1,-2 0,0 -1,0 -1,0 -1,-1 0,-1 -1,-2 -1,-1 -1,0 -2,-1 0,-1 0,-1 -1,-2 0,0 -1,0 -1,-1 -1,0 0,-1 -1,-1 0,0 0,0 -1,0 0,0 0,0 0,0l-4 -4c-3,-3 -6,-14 -6,-17 0,0 0,-1 0,-1 -1,-4 -3,-8 -6,-11 -3,-4 -8,-6 -12,-6 -4,0 -7,2 -9,4 -6,5 -5,15 2,21 3,4 7,6 12,6 2,0 14,3 17,7l4 3c0,0 0,0 0,1 0,0 0,0 0,0 0,1 1,0 1,1 1,1 1,1 1,2 1,0 1,0 2,0 1,1 0,1 1,2l0 0c0,1 1,0 1,1 1,1 1,1 1,2 1,0 1,0 2,0 0,1 0,2 1,2 0,0 0,0 0,0 1,0 1,-1 2,-1 0,-1 1,-1 1,-2 0,0 0,0 0,0zm-29 -30l-2 -2 2 -1 1 1 -1 2zm2 -1l1 1 -1 2 -2 -2 2 -1zm-14 -2l-1 1 -2 -1 2 -2 1 2zm-1 -2l2 -2 1 2 -1 1 -2 -1zm2 2l1 1 -1 2 -2 -2 2 -1zm0 0l2 -2 1 2 -1 1 -2 -1zm7 0l-2 1 -1 -1 1 -2 2 2zm-1 -2l1 -2 2 2 -2 1 -1 -1zm-3 1l-1 -1 1 -2 2 2 -2 1zm0 1l2 1 -2 2 -1 -2 1 -1zm2 2l2 1 -2 2 -1 -2 1 -1zm1 -1l1 -1 2 1 -2 2 -1 -2zm1 -1l2 -2 2 2 -2 1 -2 -1zm2 -2l2 -2 1 2 -1 1 -2 -1zm0 -1l-2 -1 2 -2 2 2 -2 1zm-2 -1l-1 -2 1 -2 2 2 -2 2zm0 0l-2 1 -1 -1 1 -2 2 2zm-4 0l-1 -2 1 -2 2 2 -2 2zm0 0l-1 1 -2 -1 2 -2 1 2zm-3 0l-2 -2 2 -2 1 2 -1 2zm-1 0l-1 1 -2 -1 2 -2 1 2zm-3 0l-2 -2 2 -2 1 2 -1 2zm1 2l-1 1 -2 -1 2 -2 1 2zm0 3l-1 2 -2 -2 2 -1 1 1zm1 1l1 1 -1 2 -2 -2 2 -1zm2 2l1 1 -1 2 -2 -2 2 -1zm0 -1l2 -1 1 1 -1 2 -2 -2zm3 1l2 1 -2 2 -1 -2 1 -1zm2 1l2 2 -2 2 -1 -2 1 -2zm1 0l1 -1 2 1 -2 2 -1 -2zm1 -2l2 -1 2 1 -2 2 -2 -2zm4 1l1 1 -1 2 -2 -2 2 -1zm2 1l1 2 -1 2 -2 -2 2 -2zm0 0l2 -1 1 1 -1 2 -2 -2zm2 -2l-2 -2 2 -1 1 1 -1 2zm-2 -2l-2 -1 2 -2 1 2 -1 1zm-2 -5l2 -2 1 2 -1 1 -2 -1zm0 0l-2 -2 2 -2 1 2 -1 2zm-2 -2l-2 -2 2 -1 2 1 -2 2zm-2 -2l-1 -2 1 -1 2 1 -2 2zm0 0l-2 2 -1 -2 1 -1 2 1zm-4 0l-1 -2 1 -1 2 1 -2 2zm0 0l-1 2 -2 -2 2 -1 1 1zm-3 0l-2 -2 2 -1 1 1 -1 2zm-1 0l-1 2 -2 -2 2 -1 1 1zm-3 0l-2 -2 2 -1 1 1 -1 2zm0 0l-2 2 -2 -2 2 -1 2 1zm0 4l-2 1 -2 -1 2 -2 2 2zm-2 2l-2 1 -1 -1 1 -2 2 2zm0 0l2 2 -2 1 -2 -1 2 -2zm2 5l-2 2 -2 -2 2 -1 2 1zm0 1l1 1 -1 2 -2 -2 2 -1zm2 1l1 2 -1 2 -2 -2 2 -2zm2 2l1 2 -1 1 -2 -1 2 -2zm0 0l2 -2 1 2 -1 2 -2 -2zm3 0l2 2 -2 1 -1 -1 1 -2zm2 2l2 2 -2 1 -1 -1 1 -2zm1 0l1 -2 2 2 -2 1 -1 -1zm1 -2l2 -2 2 2 -2 2 -2 -2zm4 0l1 2 -1 1 -2 -1 2 -2zm2 2l1 1c-1,1 -1,1 -2,2l-1 -1 2 -2zm0 0l2 -2 0 1c0,1 0,1 -1,2l-1 -1zm2 -2l1 -2 0 0c0,1 0,2 0,3l-1 -1zm1 -2l-1 -2 1 -1 1 0c0,1 0,2 0,3l-1 0zm1 -3l0 -1 0 0c0,0 0,0 0,1zm0 -1l-1 0 -1 -1 1 -2c0,1 1,2 1,3zm-1 -3l-1 1 -2 -1 2 -2 1 1c0,1 0,1 0,1zm0 -2l-1 0 0 0c0,0 0,0 1,0zm-1 -1l0 1 -2 -2 1 -1c0,1 1,2 1,2zm-2 -2l0 1 -2 -2 1 -1c1,1 1,1 1,2zm-1 -2l-1 1 -2 -2 1 0c1,0 1,0 2,1zm-4 -3c0,0 1,1 2,1l-1 1 -2 -2 1 0zm-1 0l0 0 0 0c0,0 0,0 0,0zm-1 -1l1 1 -2 2 -1 -2 1 -1c0,0 0,0 1,0zm-4 -1c1,0 2,1 3,1l-2 1 -1 -2 0 0zm1 2l-1 2 -2 -2 2 -1 1 1zm-2 -2c0,0 0,0 0,0l0 0 -1 2 -2 -2c1,0 2,0 3,0zm-2 2l-1 2 -2 -2 2 -1 1 1zm-2 -1l-1 1 -1 0c1,-1 2,-1 2,-1zm-2 1l1 0 -2 2 -1 -1c1,0 1,-1 2,-1zm-2 1l1 1 -2 2 0 -1c0,0 0,-1 1,-2zm-2 3l1 0 -1 1c0,0 0,-1 0,-1zm1 0l2 2 -2 2 -1 -2 1 -2zm-2 2l2 2 -2 1 0 0c0,-1 0,-2 0,-3zm0 4c0,0 0,0 0,0l0 0 2 2 -1 1c-1,-1 -1,-2 -1,-3zm1 3l1 -1 2 1 -2 2 -1 -1c0,0 0,-1 0,-1zm1 2c0,0 0,0 0,0l0 0 0 0zm0 1l0 0 2 1 -1 1c0,-1 -1,-2 -1,-2zm1 2l1 -1 2 2 -1 1c-1,-1 -1,-1 -2,-2zm2 2l1 -1 1 2 0 1c-1,-1 -1,-1 -2,-2zm4 3c-1,0 -1,-1 -2,-1l1 -1 1 2 0 0zm0 0l1 0 0 1c0,-1 0,-1 -1,-1zm2 1l-1 -1 2 -2 1 2 -1 1c0,0 -1,0 -1,0zm4 1c-1,0 -2,0 -3,-1l1 -1 2 2 0 0zm0 0l0 0 0 0c0,0 0,0 0,0zm4 0c-1,0 -2,0 -3,0 0,0 0,0 0,0l0 0 1 -2 2 2 0 0zm-2 -2l2 -2 2 2 -2 1 -2 -1zm4 0l1 1c-1,0 -2,0 -3,1l2 -2zm-1 4c2,-1 4,-2 5,-4 2,-1 3,-3 3,-5 2,5 4,11 6,14 -3,-2 -10,-4 -14,-5z"/>
   <path class="fil0" d="M108 106c0,-1 1,0 1,-1 1,0 1,-1 1,-2 1,0 1,0 2,0 1,-1 0,-1 1,-2 0,-1 1,0 1,-1 1,-1 1,-1 1,-2 1,0 1,0 2,-1 0,0 0,-1 1,-1 0,0 0,0 0,0 0,0 0,0 1,0l3 -4c3,-3 6,-14 7,-17 0,0 0,-1 0,-1 0,-4 2,-8 5,-11 4,-4 9,-6 13,-6 4,0 7,2 9,4 5,5 5,15 -2,21 -3,4 -8,6 -12,6 -2,0 -14,3 -17,7l-4 3c0,0 0,0 0,1 0,0 0,0 0,0 0,1 -1,0 -2,1 0,1 0,1 -1,2 0,0 -1,0 -1,0 -1,1 0,1 -1,2l0 0c-1,1 -1,0 -2,1 0,1 0,1 -1,2 0,0 -1,0 -1,0 -1,1 0,2 -1,2 0,0 -1,0 -1,0 0,0 0,-1 -1,-1 -1,-1 -1,-1 -1,-2 0,0 0,0 0,0zm29 -30l1 -2 -1 -1 -2 1 2 2zm-2 -1l-2 1 2 2 2 -2 -2 -1zm13 -2l2 1 2 -1 -2 -2 -2 2zm2 -2l-2 -2 -1 2 1 1 2 -1zm-2 2l-1 1 1 2 2 -2 -2 -1zm0 0l-2 -2 -1 2 1 1 2 -1zm-7 0l2 1 1 -1 -1 -2 -2 2zm1 -2l-1 -2 -2 2 2 1 1 -1zm2 1l2 -1 -2 -2 -1 2 1 1zm0 1l-1 1 1 2 2 -2 -2 -1zm-1 2l-2 1 2 2 1 -2 -1 -1zm-1 -1l-1 -1 -2 1 2 2 1 -2zm-2 -1l-1 -2 -2 2 2 1 1 -1zm-2 -2l-1 -2 -2 2 2 1 1 -1zm1 -1l1 -1 -1 -2 -2 2 2 1zm2 -1l1 -2 -1 -2 -2 2 2 2zm0 0l2 1 1 -1 -1 -2 -2 2zm3 0l2 -2 -2 -2 -1 2 1 2zm1 0l1 1 2 -1 -2 -2 -1 2zm3 0l2 -2 -2 -2 -1 2 1 2zm0 0l2 1 2 -1 -2 -2 -2 2zm4 0l1 -2 -1 -2 -2 2 2 2zm-2 2l2 1 1 -1 -1 -2 -2 2zm0 3l2 2 1 -2 -1 -1 -2 1zm0 1l-2 1 2 2 2 -2 -2 -1zm-2 2l-1 1 1 2 2 -2 -2 -1zm0 -1l-2 -1 -1 1 1 2 2 -2zm-4 1l-1 1 1 2 2 -2 -2 -1zm-1 1l-2 2 2 2 1 -2 -1 -2zm-1 0l-1 -1 -2 1 2 2 1 -2zm-2 -2l-1 -1 -2 1 2 2 1 -2zm-3 1l-2 1 2 2 1 -2 -1 -1zm-2 1l-2 2 2 2 2 -2 -2 -2zm0 0l-2 -1 -1 1 1 2 2 -2zm-2 -2l2 -2 -2 -1 -1 1 1 2zm2 -2l2 -1 -2 -2 -2 2 2 1zm2 -5l-2 -2 -2 2 2 1 2 -1zm0 0l1 -2 -1 -2 -2 2 2 2zm2 -2l1 -2 -1 -1 -2 1 2 2zm2 -2l1 -2 -1 -1 -2 1 2 2zm0 0l2 2 1 -2 -1 -1 -2 1zm3 0l2 -2 -2 -1 -1 1 1 2zm1 0l1 2 2 -2 -2 -1 -1 1zm3 0l2 -2 -2 -1 -1 1 1 2zm0 0l2 2 2 -2 -2 -1 -2 1zm4 0l1 -2 -1 -1 -2 1 2 2zm0 0l2 2 1 -2 -1 -1 -2 1zm0 4l2 1 1 -1 -1 -2 -2 2zm2 2l2 1 1 -1 -1 -2 -2 2zm0 0l-2 2 2 1 1 -1 -1 -2zm-2 5l2 2 1 -2 -1 -1 -2 1zm0 1l-2 1 2 2 1 -2 -1 -1zm-2 1l-2 2 2 2 2 -2 -2 -2zm-2 2l-1 2 1 1 2 -1 -2 -2zm0 0l-2 -2 -1 2 1 2 2 -2zm-4 0l-1 2 1 1 2 -1 -2 -2zm-1 2l-2 2 2 1 1 -1 -1 -2zm-1 0l-1 -2 -2 2 2 1 1 -1zm-2 -2l-1 -2 -2 2 2 2 1 -2zm-3 0l-2 2 2 1 1 -1 -1 -2zm-2 2l-1 1c1,1 1,1 2,2l1 -1 -2 -2zm0 0l-2 -2 -1 1c1,1 1,1 2,2l1 -1zm-2 -2l-2 -2 0 0c0,1 1,2 1,3l1 -1zm-2 -2l2 -2 -2 -1 0 0c0,1 0,2 0,3l0 0zm0 -3l0 -1 0 0c0,0 0,0 0,1zm0 -1l0 0 2 -1 -1 -2c-1,1 -1,2 -1,3zm1 -3l1 1 2 -1 -2 -2 -1 1c0,1 0,1 0,1zm0 -2l1 0 0 0c-1,0 -1,0 -1,0zm1 -1l0 1 2 -2 -1 -1c0,1 -1,2 -1,2zm1 -2l1 1 2 -2 -1 -1c-1,1 -1,1 -2,2zm2 -2l1 1 1 -2 0 0c-1,0 -1,0 -2,1zm4 -3c-1,0 -1,1 -2,1l1 1 1 -2 0 0zm0 0l1 0 0 0c0,0 0,0 -1,0zm2 -1l-1 1 2 2 1 -2 -1 -1c-1,0 -1,0 -1,0zm4 -1c-1,0 -2,1 -3,1l1 1 2 -2 0 0zm-1 2l1 2 2 -2 -2 -1 -1 1zm2 -2c0,0 0,0 0,0l0 0 1 2 2 -2c-1,0 -2,0 -3,0zm1 2l2 2 2 -2 -2 -1 -2 1zm3 -1l1 1 0 0c0,-1 -1,-1 -1,-1zm2 1l-1 0 2 2 1 -1c-1,0 -2,-1 -2,-1zm2 1l-1 1 2 2 0 -1c0,0 -1,-1 -1,-2zm1 3l0 0 1 1c0,0 0,-1 -1,-1zm0 0l-2 2 2 2 1 -2 -1 -2zm1 2l-1 2 1 1 1 0c0,-1 0,-2 -1,-3zm1 4c0,0 0,0 0,0l-1 0 -1 2 1 1c0,-1 0,-2 1,-3zm-1 3l-1 -1 -2 1 2 2 1 -1c0,0 0,-1 0,-1zm-1 2c0,0 0,0 0,0l0 0 0 0zm0 1l0 0 -2 1 1 1c0,-1 0,-2 1,-2zm-2 2l0 -1 -2 2 1 1c0,-1 1,-1 1,-2zm-1 2l-1 -1 -2 2 1 1c1,-1 1,-1 2,-2zm-4 3c0,0 1,-1 2,-1l-1 -1 -2 2 1 0zm-1 0l0 0 0 1c0,-1 0,-1 0,-1zm-1 1l1 -1 -2 -2 -1 2 1 1c0,0 0,0 1,0zm-4 1c1,0 2,0 3,-1l-2 -1 -1 2 0 0zm0 0l0 0 -1 0c0,0 1,0 1,0zm-4 0c1,0 2,0 2,0 1,0 1,0 1,0l0 0 -1 -2 -2 2 0 0zm1 -2l-1 -2 -2 2 2 1 1 -1zm-3 0l-1 1c1,0 2,0 2,1l-1 -2zm1 4c-2,-1 -4,-2 -6,-4 -1,-1 -2,-3 -3,-5 -1,5 -3,11 -5,14 3,-2 9,-4 14,-5z"/>
  </g>
  <path class="fil2" d="M207 16c0,-1 0,-3 0,-5l-56 0c0,11 2,20 5,29l0 0c0,0 0,0 0,0 0,0 0,0 1,0 1,0 2,0 3,1 1,1 1,1 1,2 1,0 1,1 1,1 0,2 -1,4 -2,5 6,12 13,21 17,25 0,0 0,1 -1,1 -1,1 -4,1 -5,2 0,1 1,2 1,2 0,0 -3,1 -3,2 0,1 1,2 1,2l-2 0 -5 2c1,0 2,2 2,4 0,2 -1,3 -2,3l0 0 -4 2 0 5 40 0 0 -5 -4 -2 0 0c-1,0 -2,-1 -2,-3 0,-2 1,-4 2,-4l-5 -2 -2 0c0,0 1,-1 1,-2 0,-1 -3,-2 -3,-2 0,0 1,-1 1,-2 -1,-1 -4,-1 -5,-2 -1,0 -1,-1 -1,-1l0 0c6,-6 19,-23 24,-46 0,0 0,0 0,0 -1,-1 -2,-2 -2,-3 0,0 0,0 0,0 -1,-1 -1,-2 -1,-3 0,-2 2,-5 4,-6l1 0zm-6 10c0,0 0,0 0,0 1,1 1,1 1,2l-39 18c0,-1 0,-1 0,-2 0,-1 0,-1 0,-2 -1,-1 -1,-1 -1,-2 -1,0 -1,0 -1,-1l40 -18c0,0 0,0 0,1 -1,1 0,3 0,4z"/>
  <path class="fil0" d="M247 48c0,0 0,-1 0,-2l-22 0c0,5 1,9 2,12l0 0c0,0 0,0 0,0 0,0 0,0 0,0 1,0 1,0 2,1 0,0 0,0 0,0 0,0 0,1 0,1 0,0 0,1 -1,2 3,5 6,8 7,10 0,0 0,0 0,0 -1,1 -2,1 -2,1 0,1 0,1 0,1 0,0 -1,0 -1,1 0,0 0,0 0,0l-1 0 -1 1c0,0 0,1 0,2 0,1 0,1 0,1l-1 0 -1 1 0 2 16 0 0 -2 -1 -1 -1 0c0,0 0,0 0,-1 0,-1 0,-2 0,-2l-1 -1 -1 0c0,0 0,0 0,0 0,-1 -1,-1 -1,-1 0,0 0,0 0,-1 0,0 -1,0 -2,-1 0,0 0,0 0,0l0 0c2,-3 8,-9 10,-19 0,0 0,0 0,0 -1,0 -1,0 -1,-1 0,0 0,0 0,0 -1,0 -1,-1 -1,-1 1,-1 1,-2 2,-2l0 -1zm-2 4c0,0 0,0 0,0 0,1 0,1 0,1l-15 7c0,0 0,0 0,0 0,-1 0,-1 -1,-1 0,0 0,-1 0,-1 0,0 0,0 0,0l16 -8c0,0 0,0 0,1 0,0 0,1 0,1z"/>
  <g id="_547264320">
   <path class="fil2" d="M86 275l0 0c1,-1 3,-2 4,-4 1,-1 2,-3 2,-5 -1,0 -2,0 -3,0 -7,0 -12,3 -15,9 4,2 8,2 12,0z"/>
   <path class="fil2" d="M92 288c-2,1 -3,2 -4,4 -1,1 -2,3 -2,5 1,0 2,0 3,0 6,0 11,-4 14,-9 -4,-2 -8,-2 -11,0z"/>
   <path class="fil0" d="M94 267c0,2 -1,4 -2,6 -1,2 -3,3 -5,4 0,0 0,0 0,0 -4,3 -9,3 -13,0 -1,2 -1,3 -1,4 0,7 4,13 11,15 0,-2 1,-4 2,-6 1,-2 3,-3 5,-4 4,-2 9,-2 13,-1 0,-1 0,-2 0,-4 0,-6 -4,-12 -10,-14z"/>
  </g>
  <g id="_547927072">
   <path class="fil0" d="M76 34c5,0 9,-4 9,-8 0,0 0,0 0,0 -1,0 -2,1 -3,2 0,0 0,0 0,1 -1,0 -1,1 -2,2 -1,0 -2,1 -3,1 -2,0 -4,-1 -5,-2 -1,-1 -2,-3 -2,-4 0,-2 1,-4 2,-5 1,-2 4,-3 6,-2 1,0 1,0 1,0 0,0 1,1 1,1 1,0 2,0 3,-1 -2,-1 -4,-2 -7,-2 -4,0 -8,3 -8,8 0,5 4,9 8,9z"/>
   <path class="fil2" d="M80 21c-1,0 -1,0 -2,0 0,-1 0,-1 0,-1 -2,0 -4,0 -5,2 -1,1 -2,2 -2,3 1,2 1,3 2,4 2,1 4,2 6,0 1,0 1,-1 2,-1 0,0 0,0 0,-1 1,-1 2,-2 3,-2 0,0 1,0 1,0 0,-2 -1,-3 -1,-4 -2,0 -3,0 -4,0z"/>
  </g>
  <g id="_547927600">
   <path class="fil0" d="M123 52c2,2 5,2 7,-1 0,0 0,0 0,0 -1,0 -1,0 -2,1 0,0 0,0 0,0 -1,0 -2,0 -2,0 -1,0 -2,0 -2,-1 -1,0 -2,-1 -2,-2 0,-1 0,-2 0,-3 1,-1 2,-2 3,-2 2,0 3,0 4,1 0,0 0,1 0,1 1,0 1,0 1,0 0,1 1,1 1,1 0,-1 -1,-3 -2,-4 -2,-1 -6,-1 -8,2 -1,2 -1,6 2,7z"/>
   <path class="fil0" d="M129 47c0,0 0,-1 0,-1 0,0 0,0 0,0 -1,-1 -3,-2 -4,-1 -1,0 -1,1 -2,1 0,1 0,2 0,3 0,1 1,2 3,2 0,0 1,0 1,0 0,0 0,0 1,0 0,-1 1,-1 2,-1 0,0 1,1 1,1 0,-1 0,-2 0,-3 0,0 -1,0 -2,-1z"/>
  </g>
  <circle class="fil1" cx="14" cy="120" r="10"/>
  <g id="_547928344">
   <path class="fil2" d="M21 119c-2,2 -4,2 -6,2 0,0 -1,0 -1,0 0,-1 -1,-1 -1,-1 -2,0 -4,0 -5,2 -1,1 -2,2 -2,3 2,3 5,4 8,4 5,0 9,-4 9,-9 0,-1 0,-2 0,-3 -1,1 -1,1 -2,2z"/>
   <path class="fil2" d="M14 119c0,0 0,0 0,0 1,0 1,0 1,0 2,1 4,1 5,-1 1,-1 2,-2 2,-3 -2,-3 -5,-5 -8,-5 -5,0 -9,5 -9,10 0,1 0,2 0,3 0,-1 1,-1 1,-2 2,-2 5,-3 8,-2z"/>
  </g>
  <g id="_546047616">
   <path class="fil2" d="M140 7c-1,1 -3,2 -5,1 0,0 0,0 -1,0 0,0 0,0 0,0 -2,-1 -3,0 -5,1 0,1 -1,2 -1,3 2,2 4,3 7,3 4,0 7,-3 7,-8 0,0 0,-1 0,-2 -1,1 -1,1 -2,2z"/>
   <path class="fil0" d="M134 7c1,0 1,0 1,0 0,0 1,0 1,0 1,1 2,0 4,-1 0,-1 1,-2 1,-3 -2,-2 -4,-3 -6,-3 -5,0 -8,3 -8,7 0,1 0,2 1,3 0,-1 0,-1 1,-2 1,-1 3,-2 5,-1z"/>
  </g>
  <g id="_546048144">
   <path class="fil2" d="M103 15c0,0 0,1 1,1 1,0 2,0 2,0 4,1 7,1 9,-2 2,-1 2,-3 3,-4 -3,-2 -7,-3 -11,-3 -7,0 -14,4 -17,10 4,-2 9,-3 13,-2z"/>
   <path class="fil2" d="M116 30l0 0c-2,1 -4,3 -5,5 0,0 -1,1 -1,1 -1,1 -2,3 -4,4 -2,1 -4,2 -6,2 2,1 5,2 7,2 8,0 15,-5 18,-12 -3,-2 -6,-3 -9,-2z"/>
   <path class="fil2" d="M104 38c2,-1 3,-3 4,-4 0,0 0,0 1,-1 1,-2 3,-5 6,-6l0 0c4,0 7,0 11,2 0,-1 0,-3 0,-4 0,-5 -2,-10 -6,-13 0,1 -1,3 -3,4 -3,3 -7,4 -12,3 0,0 -1,0 -2,-1 -1,0 -1,0 -1,0 -4,-1 -9,0 -12,3 0,1 -1,2 -1,3 0,0 0,1 0,1 0,5 2,10 5,14 4,1 7,1 10,-1z"/>
  </g>
  <circle class="fil1" cx="14" cy="141" r="10"/>
  <g id="_546049104">
   <path class="fil2" d="M14 150c5,0 9,-3 9,-8 0,0 0,0 0,0 -1,0 -2,1 -3,2 0,0 0,1 0,1 -1,0 -1,1 -2,2 -1,1 -3,1 -4,1 -2,0 -3,-1 -5,-2 -1,-1 -2,-3 -2,-5 0,-1 1,-3 2,-5 2,-2 5,-2 7,-2 0,0 0,1 1,1 0,0 1,0 1,0 1,0 2,0 3,0 -2,-2 -4,-3 -7,-3 -5,0 -9,4 -9,9 0,5 4,9 9,9z"/>
   <path class="fil2" d="M17 136c0,0 0,0 -1,0 0,0 0,0 0,0 -2,-1 -5,0 -6,1 -1,2 -1,3 -1,4 0,2 0,3 1,4 2,2 5,2 7,1 1,-1 1,-1 2,-2 0,0 0,0 0,-1 1,-1 2,-2 3,-2 1,-1 1,-1 1,-1 0,-1 0,-3 -1,-4 -1,1 -3,1 -5,0z"/>
  </g>
  <circle class="fil1" cx="14" cy="184" r="10"/>
  <g id="_547452144">
   <path class="fil2" d="M12 179c0,0 0,0 0,0 0,0 1,0 1,0 2,1 4,0 5,-1 1,-1 1,-1 1,-2 -1,-1 -3,-2 -5,-2 -4,0 -7,3 -9,6 2,-1 4,-2 7,-1z"/>
   <path class="fil2" d="M18 186l0 0c-1,1 -2,2 -2,3 0,0 -1,0 -1,0 0,1 -1,2 -2,2 -1,1 -2,1 -3,1 1,1 3,1 4,1 4,0 7,-2 9,-6 -2,-1 -3,-1 -5,-1z"/>
   <path class="fil2" d="M12 190c1,0 2,-1 2,-2 0,0 0,0 0,0 1,-1 2,-3 4,-3l0 0c2,-1 3,0 5,0 0,0 0,-1 0,-1 0,-3 -1,-5 -3,-7 0,1 0,1 -1,2 -2,2 -4,2 -6,2 0,0 -1,0 -1,-1 -1,0 -1,0 -1,0 -2,0 -4,0 -6,2 0,0 0,1 0,1 0,0 0,0 0,1 0,2 1,5 2,6 2,1 4,1 5,0z"/>
  </g>
  <g id="_547452888">
   <path class="fil2" d="M127 168c0,0 0,0 0,0 1,1 1,1 2,1 1,0 3,0 4,-1 1,-1 1,-2 2,-3 -2,-1 -4,-1 -6,-1 -4,0 -7,2 -9,5 2,-1 5,-1 7,-1z"/>
   <path class="fil2" d="M134 176l0 0c-1,0 -2,1 -3,2 0,1 0,1 0,1 -1,1 -2,2 -3,2 -1,1 -2,1 -3,1 2,1 3,1 4,1 4,0 8,-3 9,-6 -1,-1 -3,-1 -4,-1z"/>
   <path class="fil2" d="M128 180c0,-1 1,-1 2,-2 0,0 0,0 0,0 1,-2 2,-3 3,-3l0 -1c2,0 4,0 6,1 0,0 0,-1 0,-2 0,-2 -1,-5 -3,-7 0,1 -1,2 -2,3 -1,1 -3,2 -6,1 0,0 0,0 -1,0 0,0 0,0 -1,0 -2,-1 -4,0 -6,1 0,1 0,1 0,2 0,0 0,0 0,0 0,3 1,6 2,7 2,1 4,1 6,0z"/>
  </g>
  <rect class="fil4" y="197" width="27.2494" height="3.45903"/>
  <rect class="fil4" y="104" width="27.2494" height="3.45903"/>
  <g id="_288962888">
   <path class="fil2" d="M171 127l0 0c2,-1 3,-2 5,-4 1,-2 1,-3 1,-5 -1,-1 -2,-1 -3,-1 -6,0 -12,4 -14,10 3,2 8,2 11,0z"/>
   <path class="fil2" d="M178 140c-2,1 -3,2 -4,3 -1,2 -2,4 -2,5 1,1 1,1 2,1 7,0 12,-4 15,-9 -4,-2 -8,-2 -11,0z"/>
   <path class="fil2" d="M180 118c0,2 -1,5 -2,6 -2,2 -3,4 -5,5 0,0 0,0 0,0 -5,2 -10,2 -14,0 0,1 0,3 0,4 0,7 4,13 10,15 1,-2 1,-4 2,-6 2,-2 3,-3 5,-4 5,-3 9,-3 13,-1 1,-1 1,-3 1,-4 0,-7 -4,-12 -10,-15z"/>
  </g>
 </g>
</svg>
