<?xml version="1.0" encoding="UTF-8"?>
<!DOCTYPE svg PUBLIC "-//W3C//DTD SVG 1.1//EN" "http://www.w3.org/Graphics/SVG/1.1/DTD/svg11.dtd">
<!-- Creator: CorelDRAW 2019 (64-Bit) -->
<svg xmlns="http://www.w3.org/2000/svg" xml:space="preserve" width="247px" height="257px" version="1.1" shape-rendering="geometricPrecision" text-rendering="geometricPrecision" image-rendering="optimizeQuality" fill-rule="evenodd" clip-rule="evenodd"
viewBox="0 0 160.99 167.25"
 xmlns:xlink="http://www.w3.org/1999/xlink"
 xmlns:xodm="http://www.corel.com/coreldraw/odm/2003">
 <g id="Слой_x0020_1">
  <metadata id="CorelCorpID_0Corel-Layer"/>
  <g id="_2828422017936">
   <rect fill="#365E5A" x="0.86" y="57.59" width="12.83" height="47.7"/>
   <g>
    <polygon fill="#365E5A" points="134.24,102.89 93.23,102.89 93.23,135.91 101.23,135.91 142.4,135.91 142.4,102.89 "/>
    <path fill="white" d="M99.92 107.12l0 24.56 35.79 0 0 -24.56 -35.79 0zm1.23 20.51l0 -16.46 5.73 0 0 16.46 -5.73 0zm0 2.82l0 -1.58 16.05 0 0 1.58 -16.05 0zm16.05 -10.43l0 7.61 -9.09 0 0 -7.61 9.09 0zm0 -8.85l0 7.61 -9.09 0 0 -7.61 9.09 0zm-16.05 -1.23l0 -1.58 16.05 0 0 1.58 -16.05 0zm17.28 20.51l0 -1.58 16.04 0 0 1.58 -16.04 0zm16.04 -19.28l0 16.46 -5.72 0 0 -16.46 5.72 0zm-16.04 -1.23l0 -1.58 16.04 0 0 1.58 -16.04 0zm0 8.84l0 -7.61 9.08 0 0 7.61 -9.08 0zm0 8.85l0 -7.61 9.08 0 0 7.61 -9.08 0z"/>
   </g>
   <g>
    <path fill="#4D897C" d="M145.59 37.22c-1.04,1.02 -2.32,1.36 -3.81,1.01 -0.13,-0.03 -0.39,-0.12 -0.75,-0.24 -0.13,-0.05 -0.25,-0.09 -0.31,-0.11 -1.29,-0.41 -2.7,-0.02 -3.59,0.99 -0.49,0.55 -0.78,1.23 -0.85,1.95 1.05,1.55 2.83,2.57 4.84,2.57 3.22,0 5.84,-2.62 5.84,-5.85 0,-0.68 -0.12,-1.34 -0.34,-1.95 -0.19,0.55 -0.51,1.11 -1.03,1.63z"/>
    <path fill="#365E5A" d="M141 37.01c0.06,0.02 0.19,0.06 0.34,0.11 0.19,0.07 0.56,0.2 0.65,0.22 1.19,0.28 2.13,0.03 2.95,-0.77 0.75,-0.73 0.97,-1.6 1.02,-2.3 -1.05,-1.55 -2.83,-2.57 -4.84,-2.57 -3.23,0 -5.84,2.62 -5.84,5.84 0,0.72 0.12,1.41 0.36,2.04 0.18,-0.48 0.45,-0.93 0.8,-1.32 1.14,-1.28 2.93,-1.77 4.56,-1.25z"/>
   </g>
   <g>
    <path fill="#365E5A" d="M14.19 53.36c4.35,0 7.91,-3.36 8.24,-7.62 -0.13,0.02 -0.26,0.04 -0.38,0.07 -0.98,0.24 -1.63,1.18 -2.26,2.09 -0.1,0.14 -0.19,0.29 -0.3,0.43 -0.45,0.63 -1.08,1.42 -1.95,1.96 -0.98,0.6 -2.09,0.89 -3.2,0.89 -1.47,0 -2.94,-0.52 -4.08,-1.54 -1.23,-1.09 -1.96,-2.59 -2.05,-4.22 -0.1,-1.64 0.45,-3.21 1.54,-4.44 1.6,-1.81 4.13,-2.5 6.44,-1.77 0.09,0.03 0.27,0.09 0.48,0.16 0.28,0.1 0.8,0.29 0.93,0.32 1.07,0.25 1.99,0.22 2.77,-0.09 -1.52,-1.7 -3.72,-2.78 -6.18,-2.78 -4.57,0 -8.27,3.71 -8.27,8.27 0,4.57 3.7,8.27 8.27,8.27z"/>
    <path fill="#365E5A" d="M17.3 40.95c-0.18,-0.04 -0.55,-0.17 -1.06,-0.35 -0.19,-0.07 -0.36,-0.13 -0.44,-0.16 -1.82,-0.57 -3.82,-0.03 -5.09,1.4 -0.85,0.97 -1.29,2.21 -1.21,3.5 0.08,1.29 0.65,2.48 1.62,3.33 1.58,1.41 3.94,1.62 5.74,0.51 0.68,-0.41 1.2,-1.07 1.58,-1.61 0.1,-0.13 0.19,-0.27 0.29,-0.41 0.73,-1.05 1.56,-2.25 3.01,-2.61 0.21,-0.05 0.45,-0.09 0.69,-0.12 -0.11,-1.38 -0.56,-2.66 -1.26,-3.76 -1.09,0.53 -2.39,0.62 -3.87,0.28z"/>
   </g>
   <path fill="#4D897C" d="M36.54 61.71c4.12,0 7.5,-3.18 7.8,-7.22 -0.12,0.02 -0.24,0.04 -0.35,0.07 -0.93,0.23 -1.55,1.12 -2.14,1.98 -0.1,0.13 -0.19,0.27 -0.28,0.4 -0.43,0.6 -1.03,1.35 -1.85,1.86 -0.93,0.57 -1.98,0.84 -3.03,0.84 -1.4,0 -2.78,-0.49 -3.87,-1.45 -1.16,-1.03 -1.85,-2.45 -1.94,-4 -0.09,-1.55 0.43,-3.04 1.46,-4.2 1.52,-1.72 3.92,-2.38 6.1,-1.68 0.08,0.03 0.26,0.09 0.45,0.16 0.27,0.09 0.76,0.26 0.88,0.29 1.01,0.24 1.88,0.21 2.62,-0.08 -1.43,-1.61 -3.52,-2.63 -5.85,-2.63 -4.32,0 -7.83,3.51 -7.83,7.83 0,4.32 3.51,7.83 7.83,7.83z"/>
   <path fill="#4D897C" d="M39.49 49.96c-0.17,-0.04 -0.52,-0.17 -1,-0.34 -0.19,-0.06 -0.34,-0.12 -0.42,-0.14 -1.72,-0.55 -3.61,-0.03 -4.82,1.32 -0.81,0.92 -1.22,2.09 -1.14,3.31 0.07,1.23 0.61,2.35 1.52,3.16 1.5,1.33 3.74,1.53 5.45,0.48 0.64,-0.39 1.13,-1.02 1.49,-1.52 0.09,-0.13 0.18,-0.26 0.27,-0.39 0.69,-1 1.48,-2.13 2.85,-2.47 0.2,-0.05 0.42,-0.09 0.65,-0.12 -0.1,-1.3 -0.52,-2.52 -1.19,-3.56 -1.03,0.5 -2.26,0.59 -3.66,0.27z"/>
   <path fill="#365E5A" d="M36.07 40.55c-0.75,0.2 -1.3,0.89 -1.3,1.7 0,0.46 0.17,0.87 0.45,1.18 -1.91,0.25 -3.66,1.01 -5.1,2.14l-0.03 0c-2.4,1.9 -3.95,4.84 -3.95,8.15 0,5.74 4.65,10.39 10.39,10.39 5.74,0 10.39,-4.65 10.39,-10.39 0,-3.31 -1.55,-6.25 -3.96,-8.15l-0.01 0c-1.44,-1.13 -3.18,-1.89 -5.09,-2.14 0.28,-0.31 0.45,-0.72 0.45,-1.18 0,-0.81 -0.55,-1.5 -1.3,-1.7l0 -0.43 15.81 -12.1 -1.83 -2.89 -0.82 -1.3 -1.4 -2.21 -2.14 -3.39c0,0 -4.31,1.62 -10.15,1.62 -5.84,0 -10.03,-1.62 -10.03,-1.62l-2.25 3.57 -1.09 1.71 -0.88 1.39 -1.98 3.12 15.82 12.1 0 0.43zm-3.47 5.03l0.04 0c1.18,-0.56 2.5,-0.88 3.9,-0.88 1.39,0 2.72,0.32 3.9,0.88l0.02 0c3.02,1.47 5.11,4.56 5.11,8.14 0,4.99 -4.06,9.04 -9.04,9.04 -4.99,0 -9.04,-4.05 -9.04,-9.04 0,-3.58 2.09,-6.67 5.11,-8.14zm17.33 -20.57l-9.45 9.37 8.34 -11.12 1.11 1.75zm-13.59 5.62c1.21,0 2.48,-0.08 3.77,-0.2l-3.57 6.67 -3.55 -6.63c1.13,0.1 2.26,0.16 3.35,0.16zm6.29 -4.92c-2.01,0.29 -4.18,0.49 -6.25,0.49 -1.98,0 -4.02,-0.19 -5.91,-0.45l-1.13 -2.12c2.07,0.36 4.54,0.65 7.08,0.65 2.62,0 5.18,-0.31 7.34,-0.68l-1.13 2.11zm-19.48 -0.7l1.11 -1.75 8.34 11.12 -9.45 -9.37zm14.47 17.24c0,0.6 -0.49,1.08 -1.08,1.08 -0.59,0 -1.08,-0.48 -1.08,-1.08 0,-0.42 0.25,-0.79 0.61,-0.96l0 0.27c0,0.26 0.21,0.47 0.47,0.47 0.26,0 0.47,-0.21 0.47,-0.47l0 -0.27c0.36,0.17 0.61,0.54 0.61,0.96z"/>
   <path fill="#4D897C" d="M153.41 49.23c-0.65,0 -1.17,0.53 -1.17,1.18 0,0.27 0.09,0.53 0.25,0.73l-6.16 6.13 -0.41 -5.27 -0.22 -2.78c0.58,-0.07 1.03,-0.56 1.03,-1.16 0,-0.65 -0.53,-1.18 -1.18,-1.18 -0.65,0 -1.17,0.53 -1.17,1.18 0,0.42 0.21,0.78 0.54,0.99l-4.35 7.67 -2.85 -8.16c0.72,-0.25 1.23,-0.93 1.23,-1.73 0,-1.01 -0.81,-1.83 -1.83,-1.83 -1.01,0 -1.83,0.82 -1.83,1.83 0,0.8 0.52,1.48 1.23,1.73l-2.84 8.16 -4.36 -7.67c0.33,-0.21 0.55,-0.57 0.55,-0.99 0,-0.65 -0.53,-1.18 -1.17,-1.18 -0.65,0 -1.18,0.53 -1.18,1.18 0,0.6 0.45,1.09 1.03,1.16l-0.63 8.05 -6.16 -6.13c0.15,-0.2 0.25,-0.46 0.25,-0.73 0,-0.65 -0.53,-1.18 -1.18,-1.18 -0.57,0 -1.05,0.41 -1.15,0.96l0 0.44c0.1,0.54 0.58,0.95 1.15,0.95 0.16,0 0.3,-0.03 0.43,-0.08l4.17 12.49 0 2.13 23.39 0 0 -2.13 4.16 -12.49c0.14,0.05 0.28,0.08 0.43,0.08 0.65,0 1.18,-0.52 1.18,-1.17 0,-0.65 -0.53,-1.18 -1.18,-1.18z"/>
   <g>
    <path fill="#365E5A" d="M63.14 142.31c0.19,9.87 1.36,19.17 11.26,24.94 9.9,-5.77 11.07,-15.07 11.26,-24.94l-11.26 -2.02 -11.26 2.02z"/>
    <path fill="white" d="M74.4 165.93c-3.97,-2.46 -6.66,-5.74 -8.21,-10 -1.43,-3.94 -1.78,-8.39 -1.89,-12.68l10.1 -1.81 10.11 1.81c-0.12,4.29 -0.47,8.73 -1.9,12.68 -1.55,4.26 -4.24,7.54 -8.21,10z"/>
    <path fill="#365E5A" d="M74.4 142.01l-9.53 1.71c0.12,3.81 0.46,8.16 1.85,12.02 0.27,0.72 0.57,1.42 0.9,2.09l14.44 -14.44 -7.66 -1.38z"/>
    <path fill="#4D897C" d="M67.62 157.83c1.51,3.04 3.75,5.49 6.78,7.43 3.7,-2.37 6.21,-5.49 7.68,-9.52 1.4,-3.86 1.73,-8.21 1.85,-12.02l-1.87 -0.33 -14.44 14.44z"/>
    <path fill="#FEFEFC" d="M71.18 161.02c0.11,-0.07 0.06,-0.19 0.18,-0.37 0.11,-0.18 0.24,-0.09 0.39,-0.24 0.15,-0.15 0.06,-0.23 0.21,-0.39 0.15,-0.15 0.23,-0.07 0.38,-0.22 0.15,-0.15 0.07,-0.24 0.22,-0.39 0.14,-0.15 0.23,-0.07 0.38,-0.22 0.15,-0.16 0.05,-0.28 0.22,-0.4 0.18,-0.12 0.31,-0.07 0.37,-0.19 0.01,-0.02 0.05,-0.07 0,-0.15 0,-0.02 -0.02,-0.04 -0.03,-0.06l0.9 -0.92c0.73,-0.75 3.54,-1.51 4.2,-1.68 0.07,0 0.14,-0.01 0.21,-0.02 0.99,-0.1 1.94,-0.58 2.69,-1.35 0.84,-0.87 1.31,-1.99 1.3,-3.08 -0.01,-0.84 -0.33,-1.61 -0.89,-2.15 -1.32,-1.29 -3.66,-1.04 -5.21,0.56 -0.8,0.82 -1.26,1.87 -1.29,2.91 -0.13,0.59 -0.82,3.51 -1.56,4.27l-0.9 0.93c-0.02,-0.02 -0.04,-0.03 -0.05,-0.04 -0.02,-0.01 -0.08,-0.03 -0.13,-0.01 -0.16,0.08 -0.08,0.26 -0.22,0.4 -0.15,0.16 -0.23,0.07 -0.38,0.23 -0.15,0.15 -0.07,0.23 -0.22,0.38 -0.14,0.16 -0.23,0.08 -0.38,0.23l0 0c-0.15,0.15 -0.06,0.23 -0.21,0.39 -0.15,0.15 -0.23,0.07 -0.38,0.22 -0.15,0.15 -0.07,0.24 -0.22,0.39 -0.14,0.14 -0.32,0.07 -0.39,0.23 -0.03,0.06 0,0.11 0.01,0.13 0.05,0.08 0.16,0.21 0.29,0.34 0.14,0.13 0.27,0.23 0.36,0.28 0.08,0.04 0.13,0 0.15,-0.01zm7.13 -7.15l0.37 -0.38 0.39 0.37 -0.38 0.39 -0.38 -0.38zm0.31 0.45l-0.37 0.39 -0.39 -0.38 0.38 -0.38 0.38 0.37zm0.48 -3.25l-0.38 -0.37 0.37 -0.39 0.39 0.38 -0.38 0.38zm0.45 -0.31l0.39 0.37 -0.38 0.39 -0.38 -0.38 0.37 -0.38zm-0.52 0.39l-0.37 0.38 -0.39 -0.37 0.38 -0.39 0.38 0.38zm0.08 0.07l0.38 0.37 -0.37 0.39 -0.39 -0.38 0.38 -0.38zm0.02 1.66l-0.39 -0.37 0.38 -0.39 0.38 0.38 -0.37 0.38zm0.45 -0.31l0.38 0.37 -0.37 0.39 -0.39 -0.37 0.38 -0.39zm-0.39 -0.52l0.37 -0.39 0.39 0.38 -0.38 0.38 -0.38 -0.37zm-0.15 0l-0.37 0.39 -0.39 -0.38 0.38 -0.38 0.38 0.37zm-0.44 0.46l-0.38 0.39 -0.38 -0.38 0.37 -0.38 0.39 0.37zm0.07 0.07l0.39 0.38 -0.38 0.38 -0.38 -0.37 0.37 -0.39zm0.46 0.45l0.39 0.37 -0.38 0.39 -0.38 -0.37 0.37 -0.39zm0.46 0.45l0.39 0.37 -0.38 0.39 -0.38 -0.38 0.37 -0.38zm0.07 -0.08l0.38 -0.38 0.38 0.37 -0.37 0.39 -0.39 -0.38zm0.45 -0.46l0.37 -0.38 0.39 0.37 -0.38 0.39 -0.38 -0.38zm-0.08 -0.07l-0.38 -0.37 0.37 -0.39 0.39 0.38 -0.38 0.38zm0.07 -0.83l0.37 -0.39 0.39 0.38 -0.38 0.38 -0.38 -0.37zm-0.08 -0.08l-0.38 -0.37 0.37 -0.38 0.39 0.37 -0.38 0.38zm0.06 -0.83l0.38 -0.38 0.38 0.37 -0.37 0.39 -0.39 -0.38zm-0.07 -0.07l-0.39 -0.38 0.38 -0.38 0.38 0.37 -0.37 0.39zm0.06 -0.83l0.37 -0.39 0.39 0.37 -0.37 0.39 -0.39 -0.37zm-0.52 0.38l-0.39 -0.37 0.38 -0.39 0.38 0.38 -0.37 0.38zm-0.91 0.02l-0.38 -0.38 0.37 -0.39 0.39 0.38 -0.38 0.39zm-0.07 0.07l-0.37 0.38 -0.39 -0.37 0.38 -0.39 0.38 0.38zm-0.44 0.46l-0.38 0.38 -0.39 -0.37 0.38 -0.39 0.39 0.38zm0.07 0.07l0.38 0.38 -0.37 0.38 -0.39 -0.37 0.38 -0.39zm-0.06 0.83l-0.38 0.39 -0.38 -0.38 0.37 -0.38 0.39 0.37zm-0.45 0.46l-0.37 0.39 -0.39 -0.38 0.38 -0.38 0.38 0.37zm0.07 0.08l0.39 0.37 -0.37 0.39 -0.39 -0.38 0.37 -0.38zm0.46 0.44l0.39 0.38 -0.37 0.38 -0.39 -0.37 0.37 -0.39zm-0.06 0.84l-0.37 0.38 -0.39 -0.37 0.38 -0.39 0.38 0.38zm-0.44 0.46l-0.38 0.38 -0.38 -0.37 0.37 -0.39 0.39 0.38zm0.07 0.07l0.39 0.37 -0.38 0.39 -0.38 -0.38 0.37 -0.38zm0.53 0.37l0.38 -0.38 0.38 0.37 -0.37 0.39 -0.39 -0.38zm0.45 -0.46l0.37 -0.38 0.39 0.37 -0.38 0.39 -0.38 -0.38zm1.28 -0.4l0.38 0.38 -0.37 0.38 -0.39 -0.37 0.38 -0.39zm0.07 -0.07l0.38 -0.39 0.38 0.38 -0.37 0.38 -0.39 -0.37zm0.45 -0.46l0.37 -0.39 0.39 0.38 -0.38 0.38 -0.38 -0.37zm0.44 -0.46l0.38 -0.39 0.38 0.38 -0.37 0.39 -0.39 -0.38zm-0.07 -0.07l-0.38 -0.38 0.37 -0.38 0.39 0.37 -0.38 0.39zm0.06 -0.84l0.38 -0.38 0.38 0.37 -0.37 0.39 -0.39 -0.38zm-0.07 -0.07l-0.39 -0.37 0.38 -0.39 0.38 0.38 -0.37 0.38zm0.06 -0.83l0.37 -0.39 0.39 0.38 -0.38 0.38 -0.38 -0.37zm-0.07 -0.07l-0.39 -0.38 0.37 -0.38 0.39 0.37 -0.37 0.39zm0.06 -0.84l0.37 -0.38 0.39 0.37 -0.38 0.39 -0.38 -0.38zm-0.08 -0.07l-0.38 -0.37 0.37 -0.39 0.39 0.37 -0.38 0.39zm-0.9 0.01l-0.39 -0.37 0.38 -0.39 0.38 0.38 -0.37 0.38zm-0.46 -0.44l-0.39 -0.38 0.38 -0.38 0.38 0.37 -0.37 0.39zm-0.08 0.07l-0.37 0.39 -0.39 -0.38 0.38 -0.38 0.38 0.37zm-1.28 0.4l-0.38 -0.38 0.37 -0.38 0.39 0.37 -0.38 0.39zm-0.07 0.07l-0.37 0.39 -0.39 -0.38 0.38 -0.38 0.38 0.37zm-0.44 0.46l-0.38 0.39 -0.38 -0.38 0.37 -0.38 0.39 0.37zm-0.45 0.46l-0.38 0.39 -0.38 -0.38 0.37 -0.38 0.39 0.37zm0.07 0.07l0.39 0.38 -0.38 0.38 -0.38 -0.37 0.37 -0.39zm-0.06 0.84l-0.37 0.38 -0.39 -0.37 0.38 -0.39 0.38 0.38zm-0.45 0.46l-0.37 0.38 -0.39 -0.37 0.38 -0.39 0.38 0.38zm0.08 0.07l0.38 0.37 -0.37 0.39 -0.39 -0.38 0.38 -0.38zm0.46 0.44l0.38 0.38 -0.37 0.39 -0.39 -0.38 0.38 -0.39zm-0.06 0.84l-0.38 0.38 -0.38 -0.37 0.37 -0.39 0.39 0.38zm-0.45 0.46l-0.24 0.25c-0.13,-0.13 -0.24,-0.28 -0.33,-0.43l0.18 -0.2 0.39 0.38zm0.07 0.07l0.39 0.38 -0.19 0.19c-0.16,-0.09 -0.3,-0.2 -0.44,-0.32l0.24 -0.25zm0.46 0.45l0.39 0.37 -0.01 0.01c-0.19,-0.05 -0.37,-0.12 -0.55,-0.21l0.17 -0.17zm0.54 0.37l0.37 -0.39 0.38 0.38 -0.09 0.1c-0.21,0.01 -0.41,0 -0.61,-0.04l-0.05 -0.05zm0.81 0.08l0.02 -0.02 0.02 0.02c-0.02,0 -0.03,0 -0.04,0zm0.17 -0.02l-0.08 -0.07 0.38 -0.39 0.32 0.32c-0.2,0.07 -0.41,0.11 -0.62,0.14zm0.73 -0.18l-0.36 -0.35 0.37 -0.39 0.39 0.38 -0.33 0.34c-0.02,0.01 -0.05,0.01 -0.07,0.02zm0.31 -0.12l0.16 -0.17 0.06 0.06c-0.07,0.03 -0.15,0.07 -0.22,0.11zm0.32 -0.17l-0.09 -0.08 0.38 -0.38 0.16 0.16c-0.15,0.11 -0.3,0.21 -0.45,0.3zm0.54 -0.36l-0.18 -0.17 0.38 -0.39 0.2 0.2c-0.13,0.13 -0.26,0.25 -0.4,0.36zm0.47 -0.44l-0.2 -0.19 0.37 -0.39 0.17 0.17c-0.1,0.14 -0.22,0.28 -0.34,0.41zm0.69 -0.97c-0.09,0.16 -0.18,0.32 -0.29,0.47l-0.16 -0.15 0.38 -0.39 0.07 0.07zm0.05 -0.1l-0.05 -0.04 0.12 -0.13c-0.02,0.06 -0.05,0.12 -0.07,0.17zm0.17 -0.41l-0.29 0.3 -0.39 -0.38 0.38 -0.38 0.34 0.33c-0.01,0.04 -0.03,0.09 -0.04,0.13zm0.19 -0.88c-0.02,0.21 -0.06,0.43 -0.12,0.64l-0.3 -0.3 0.37 -0.38 0.05 0.04zm-0.5 0.27l-0.38 -0.38 0.37 -0.38 0.39 0.37 -0.38 0.39zm0.51 -0.59c0,0.03 0,0.05 0,0.07l-0.06 0.06 -0.38 -0.37 0.36 -0.38c0.05,0.2 0.08,0.41 0.08,0.62zm-0.52 -0.32l-0.38 -0.37 0.37 -0.39 0.39 0.38 -0.38 0.38zm0.38 -0.52l-0.32 -0.31 0.13 -0.13c0.08,0.14 0.14,0.28 0.19,0.44zm-0.24 -0.53l-0.15 0.15 -0.39 -0.38 0.2 -0.2c0.13,0.13 0.24,0.27 0.34,0.43zm-0.41 -0.5l-0.2 0.2 -0.39 -0.37 0.15 -0.15c0.15,0.09 0.3,0.2 0.44,0.32zm-0.54 -0.37l-0.12 0.12 -0.31 -0.29c0.15,0.04 0.3,0.1 0.43,0.17zm-0.19 0.2l-0.38 0.38 -0.38 -0.37 0.37 -0.39 0.39 0.38zm-0.48 -0.43l-0.36 0.37 -0.38 -0.38 0.04 -0.04c0.24,-0.01 0.48,0 0.7,0.05zm-0.94 -0.03c0.01,0 0.02,0 0.02,0l0.03 0.02 -0.37 0.39 -0.29 -0.28c0.2,-0.06 0.41,-0.11 0.61,-0.13zm-0.72 0.16l0.33 0.32 -0.38 0.39 -0.38 -0.38 0.25 -0.26c0.06,-0.02 0.12,-0.05 0.18,-0.07zm-0.54 0.23c0.04,-0.02 0.08,-0.03 0.11,-0.05l-0.08 0.08 -0.03 -0.03zm-0.09 0.05l0.05 0.06 -0.38 0.38 -0.14 -0.14c0.15,-0.11 0.31,-0.21 0.47,-0.3zm-0.55 0.37l0.15 0.15 -0.37 0.38 -0.19 -0.18c0.13,-0.13 0.27,-0.25 0.41,-0.35zm-0.48 0.42l0.19 0.19 -0.38 0.38 -0.16 -0.16c0.11,-0.14 0.22,-0.27 0.35,-0.41zm-0.7 0.96c0.08,-0.16 0.18,-0.31 0.29,-0.46l0.15 0.14 -0.38 0.39 -0.06 -0.07zm-0.05 0.1l0.04 0.04 -0.12 0.13c0.02,-0.05 0.05,-0.11 0.08,-0.17zm-0.19 0.43l0.31 -0.31 0.38 0.37 -0.37 0.39 -0.35 -0.34c0.01,-0.04 0.02,-0.08 0.03,-0.11zm-0.19 0.84c0.02,-0.21 0.06,-0.42 0.12,-0.62l0.32 0.3 -0.38 0.39 -0.06 -0.07zm-0.01 0.14l0 0 -0.01 0c0.01,0 0.01,0 0.01,0zm0.04 0.79c-0.03,-0.17 -0.05,-0.35 -0.05,-0.53 0,-0.03 0,-0.07 0,-0.1l0.08 -0.09 0.39 0.38 -0.38 0.38 -0.04 -0.04zm0.49 -0.27l0.39 0.37 -0.38 0.39 -0.38 -0.38 0.37 -0.38zm-0.06 0.83l-0.16 0.17c-0.1,-0.17 -0.17,-0.35 -0.22,-0.54l0.38 0.37zm-0.84 -0.31c0.13,0.54 0.4,1.01 0.78,1.38 0.38,0.37 0.85,0.62 1.38,0.74 -1.16,0.33 -2.7,0.85 -3.53,1.47 0.6,-0.86 1.07,-2.41 1.37,-3.59z"/>
    <path fill="white" d="M69.64 146.89l0 0c0.19,-0.22 0.32,-0.48 0.39,-0.77 0.07,-0.3 0.05,-0.61 -0.03,-0.9 -0.15,0.03 -0.31,0.07 -0.46,0.13 -0.93,0.36 -1.51,1.22 -1.55,2.16 0.61,0.09 1.24,-0.14 1.65,-0.62z"/>
    <path fill="white" d="M71.26 148.4c-0.19,0.23 -0.32,0.49 -0.39,0.78 -0.06,0.27 -0.06,0.55 0,0.81 0.14,-0.03 0.27,-0.07 0.4,-0.12 0.91,-0.35 1.49,-1.18 1.55,-2.09 -0.59,-0.06 -1.17,0.17 -1.56,0.62z"/>
    <path fill="white" d="M70.39 145.19c0.08,0.33 0.08,0.67 0.01,1.01 -0.08,0.35 -0.25,0.67 -0.47,0.94 0,0 0,0 0,0 -0.49,0.56 -1.21,0.84 -1.93,0.75 0.02,0.2 0.07,0.4 0.15,0.59 0.38,0.99 1.34,1.59 2.35,1.55 -0.07,-0.3 -0.07,-0.62 0,-0.94 0.08,-0.34 0.24,-0.66 0.47,-0.93 0.47,-0.54 1.15,-0.82 1.85,-0.76 -0.02,-0.22 -0.07,-0.44 -0.15,-0.66 -0.37,-0.97 -1.3,-1.56 -2.28,-1.55z"/>
   </g>
   <path fill="#4D897C" d="M85.82 117.91l-0.02 0.01c-0.33,-4.52 -2.45,-9.23 -6.23,-13 -7.35,-7.31 -18.27,-8.3 -24.33,-2.2 -6.07,6.1 -5.02,17.01 2.33,24.32 3.84,3.82 8.66,5.91 13.24,6.17 1.95,0.24 14.46,1.89 17.55,4.96 0,0 0,0.01 0.01,0.01 -0.04,0.05 -0.07,0.09 -0.1,0.14 -0.03,0.05 -0.06,0.09 -0.08,0.13 -0.21,0.35 -0.07,0.57 -0.04,0.64 0.23,0.47 0.78,0.19 1.49,0.61 0.69,0.42 0.24,1.01 0.81,1.58 0.58,0.57 0.97,0.18 1.54,0.75 0.58,0.58 0.19,0.97 0.76,1.54 0.58,0.57 0.97,0.18 1.54,0.75 0.58,0.57 0.19,0.96 0.77,1.53 0.57,0.58 1.15,0.12 1.57,0.81 0.43,0.71 0.16,1.26 0.63,1.49 0.06,0.03 0.28,0.16 0.63,-0.04 0.15,-0.09 0.33,-0.21 0.52,-0.37 0.01,-0.01 0.02,-0.01 0.03,-0.02 0.05,-0.05 0.11,-0.09 0.17,-0.14 0.03,-0.03 0.07,-0.06 0.1,-0.09 0.04,-0.03 0.07,-0.06 0.11,-0.1 0.06,-0.05 0.11,-0.1 0.17,-0.15 0.02,-0.01 0.04,-0.03 0.05,-0.05 0.16,-0.14 0.31,-0.29 0.47,-0.45 0.62,-0.62 1.11,-1.21 1.35,-1.6 0.05,-0.08 0.19,-0.32 0.1,-0.55 -0.25,-0.62 -1.04,-0.23 -1.58,-0.78 -0.58,-0.57 -0.19,-0.96 -0.77,-1.53 -0.57,-0.57 -0.96,-0.18 -1.53,-0.75 -0.58,-0.58 -0.19,-0.96 -0.76,-1.54l-0.01 0c-0.58,-0.57 -0.96,-0.18 -1.54,-0.76 -0.57,-0.57 -0.19,-0.96 -0.76,-1.53 -0.58,-0.57 -0.96,-0.18 -1.54,-0.75 -0.54,-0.55 -0.16,-1.33 -0.78,-1.58 -0.23,-0.09 -0.47,0.05 -0.55,0.1 -0.07,0.05 -0.15,0.1 -0.23,0.16 -0.01,0 -0.01,-0.01 -0.01,-0.01 -3.36,-3.34 -5.08,-17.71 -5.08,-17.71zm-13.74 13.75l-0.08 0.08c-0.16,0.01 -0.31,0 -0.47,0l-0.42 -0.41 1.85 -1.87 1.87 1.86 -0.16 0.16c-0.78,0.15 -1.57,0.24 -2.38,0.26l-0.21 -0.08zm-3.62 -28.75l1.87 1.86 -1.86 1.86 -1.86 -1.85 1.85 -1.87zm-4.07 -0.34l1.85 -1.86 1.87 1.85 -1.85 1.86 -1.87 -1.85zm19.85 14.84l-0.24 0.24 -1.86 -1.85 1.44 -1.45c0.32,1.02 0.54,2.04 0.66,3.06zm-7.27 -10.45l-1.85 1.86 -1.86 -1.85 1.85 -1.86 1.86 1.85zm2.22 2.21l-1.85 1.86 -1.86 -1.85 1.85 -1.86 1.86 1.85zm-4.44 -4.42l-1.85 1.86 -1.86 -1.85 1.85 -1.86 1.86 1.85zm2.95 6.64l1.85 -1.87 1.86 1.86 -1.85 1.86 -1.86 -1.85zm4.08 4.06l-1.86 -1.86 1.85 -1.86 1.38 1.38c0.09,0.23 0.18,0.46 0.26,0.7l-1.63 1.64zm0.35 -4.08l0.16 -0.16c0.11,0.21 0.22,0.43 0.32,0.65l-0.48 -0.49zm-0.36 -0.35l-1.86 -1.85 0.68 -0.69c0.54,0.74 1.02,1.49 1.45,2.26l-0.27 0.28zm-2.22 -2.21l-1.86 -1.85 0.85 -0.86c0.63,0.64 1.21,1.3 1.74,1.98l-0.73 0.73zm-2.22 -2.21l-1.86 -1.85 0.7 -0.7c0.69,0.51 1.36,1.08 2.01,1.7l-0.85 0.85zm-2.22 -2.2l-1.86 -1.86 0.21 -0.21c0.78,0.42 1.55,0.89 2.29,1.42l-0.64 0.65zm-2.22 -2.21l-0.27 -0.27c0.12,0.06 0.24,0.11 0.36,0.17l-0.09 0.1zm-0.36 0.36l-1.85 1.86 -1.86 -1.85 1.52 -1.53c0.34,0.11 0.69,0.23 1.03,0.36l1.16 1.16zm-4.07 -0.35l-1.86 -1.85 0.07 -0.07c1.03,0.09 2.08,0.29 3.12,0.58l-1.33 1.34zm2.22 2.92l1.87 1.85 -1.86 1.86 -1.86 -1.85 1.85 -1.86zm2.22 2.21l1.87 1.85 -1.86 1.86 -1.86 -1.85 1.85 -1.86zm2.22 2.21l1.86 1.85 -1.85 1.86 -1.86 -1.85 1.85 -1.86zm2.22 2.2l1.86 1.86 -1.85 1.86 -1.86 -1.85 1.85 -1.87zm2.22 2.21l1.86 1.85 -1.85 1.86 -1.86 -1.85 1.85 -1.86zm2.22 2.21l1.86 1.85 -1.85 1.86 -1.86 -1.85 1.85 -1.86zm2.22 2.21l0.34 0.34c0.04,1.12 -0.04,2.22 -0.24,3.28l-0.09 0.09 -1.86 -1.85 1.85 -1.86zm-8.85 -0.69l-1.87 -1.86 1.85 -1.86 1.87 1.86 -1.85 1.86zm2.2 -1.51l1.87 1.85 -1.86 1.86 -1.86 -1.85 1.85 -1.86zm-2.57 -2.56l-1.85 1.86 -1.87 -1.85 1.86 -1.86 1.86 1.85zm-6.66 -6.62l-1.85 1.86 -1.86 -1.85 1.85 -1.87 1.86 1.86zm0.36 0.35l1.86 1.85 -1.85 1.86 -1.87 -1.85 1.86 -1.86zm-2.58 -2.56l-1.85 1.86 -1.86 -1.85 1.85 -1.86 1.86 1.85zm-4.07 -0.35l-1.86 -1.85 1.85 -1.86 1.86 1.85 -1.85 1.86zm7.01 6.98l1.86 -1.86 1.86 1.85 -1.85 1.86 -1.87 -1.85zm10.73 6.97l1.87 1.85 -1.86 1.86 -1.86 -1.85 1.85 -1.86zm0.37 4.07l1.85 -1.86 1.86 1.85 -1.85 1.86 -1.86 -1.85zm-20.33 -20.23l-0.54 -0.53c0.59,-0.31 1.21,-0.58 1.86,-0.79l-1.32 1.32zm17.77 22.09l-1.86 -1.85 1.85 -1.86 1.86 1.85 -1.85 1.86zm2.21 -1.5l1.86 1.85 -1.85 1.86 -1.87 -1.85 1.86 -1.86zm-11.46 -11.4l-1.85 1.86 -1.86 -1.85 1.85 -1.86 1.86 1.85zm7.02 6.98l1.86 1.85 -1.85 1.86 -1.86 -1.85 1.85 -1.86zm-6.66 -6.62l1.86 1.85 -1.85 1.86 -1.86 -1.85 1.85 -1.86zm0.37 4.07l1.85 -1.86 1.86 1.85 -1.85 1.86 -1.86 -1.85zm4.07 0.34l1.86 1.85 -1.85 1.87 -1.86 -1.86 1.85 -1.86zm-8.87 -5.11l-1.86 -1.85 1.85 -1.87 1.86 1.85 -1.85 1.87zm-2.23 -5.92l1.86 1.85 -1.85 1.86 -1.86 -1.85 1.85 -1.86zm-4.07 -0.35l1.85 -1.86 1.86 1.85 -1.85 1.86 -1.86 -1.85zm1.49 -2.22l-1.85 1.86 -0.9 -0.9c0.65,-0.62 1.36,-1.15 2.11,-1.59l0.64 0.63zm16.28 24.31l1.85 -1.86 1.86 1.85 -1.85 1.86 -1.86 -1.85zm-2.22 -2.21l1.85 -1.86 1.86 1.85 -1.85 1.86 -1.86 -1.85zm-0.36 -0.36l-1.86 -1.85 1.85 -1.86 1.86 1.85 -1.85 1.86zm-15.18 -15.09l1.85 -1.87 1.86 1.86 -1.85 1.86 -1.86 -1.85zm-2.22 -2.21l1.85 -1.86 1.86 1.85 -1.85 1.86 -1.86 -1.85zm6.29 2.55l1.86 1.85 -1.85 1.87 -1.86 -1.86 1.85 -1.86zm2.22 2.21l1.86 1.85 -1.85 1.86 -1.86 -1.85 1.85 -1.86zm4.44 4.41l1.86 1.86 -1.85 1.86 -1.86 -1.85 1.85 -1.87zm-2.21 1.51l-1.86 -1.85 1.85 -1.86 1.86 1.85 -1.85 1.86zm4.43 0.7l1.86 1.85 -1.85 1.87 -1.86 -1.86 1.85 -1.86zm-13.68 -13.6l-1.85 1.86 -0.66 -0.65c0.45,-0.76 0.99,-1.46 1.61,-2.11l0.9 0.9zm4.83 13.63l1.86 1.85 -1.85 1.86 -1.87 -1.85 1.86 -1.86zm-4.08 -0.35l1.86 -1.86 1.86 1.85 -1.85 1.86 -1.87 -1.85zm4.44 4.42l1.86 -1.87 1.86 1.86 -1.85 1.86 -1.87 -1.85zm4.08 0.34l1.86 1.85 -1.86 1.87 -1.86 -1.86 1.86 -1.86zm2.21 2.21l1.87 1.85 -1.86 1.86 -1.86 -1.85 1.85 -1.86zm0.37 4.07l1.85 -1.86 1.87 1.85 -1.86 1.86 -1.86 -1.85zm-13.33 -17.67l1.85 -1.87 1.87 1.86 -1.86 1.86 -1.86 -1.85zm-0.35 -0.36l-1.87 -1.85 1.86 -1.86 1.86 1.85 -1.85 1.86zm17.74 13.95l1.86 1.85 -1.85 1.86 -1.86 -1.85 1.85 -1.86zm-2.21 1.5l-1.86 -1.85 1.85 -1.86 1.86 1.85 -1.85 1.86zm-2.22 -2.2l-1.86 -1.86 1.85 -1.86 1.86 1.85 -1.85 1.87zm-0.37 -4.07l-1.85 1.86 -1.86 -1.85 1.85 -1.87 1.86 1.86zm-4.07 -0.35l-1.86 -1.85 1.85 -1.86 1.87 1.85 -1.86 1.86zm-4.45 -8.13l1.87 1.85 -1.86 1.87 -1.86 -1.86 1.85 -1.86zm13.69 17.32l1.85 -1.87 1.86 1.86 -1.85 1.86 -1.86 -1.85zm-11.46 -11.4l-1.86 -1.85 1.85 -1.86 1.87 1.85 -1.86 1.86zm-7.02 -10.69l-1.39 1.4c0.22,-0.68 0.5,-1.33 0.83,-1.96l0.56 0.56zm4.45 8.84l-1.85 1.86 -1.87 -1.85 1.86 -1.86 1.86 1.85zm11.45 15.84l0.02 -0.02 0.02 0.03c-0.02,0 -0.03,-0.01 -0.04,-0.01zm-13.67 -18.04l-1.85 1.86 -1.86 -1.85 1.85 -1.87 1.86 1.86zm-4.07 0.36l1.86 1.86 -1.4 1.4c-0.3,-1.04 -0.5,-2.08 -0.6,-3.12l0.14 -0.14zm2.22 2.21l1.86 1.85 -1.85 1.86 -1.32 -1.31c-0.1,-0.27 -0.2,-0.53 -0.28,-0.8l1.59 -1.6zm6.67 10.34l-1.86 -1.85 1.85 -1.87 1.86 1.86 -1.85 1.86zm2.21 -1.51l1.86 1.85 -1.85 1.86 -1.86 -1.85 1.85 -1.86zm-4.43 -0.7l-1.86 -1.85 1.85 -1.86 1.86 1.85 -1.85 1.86zm-0.37 -4.07l-1.85 1.86 -1.86 -1.85 1.85 -1.86 1.86 1.85zm-4.07 0.37l1.86 1.85 -0.71 0.72c-0.54,-0.74 -1.01,-1.51 -1.43,-2.29l0.28 -0.28zm-0.52 -0.19c-0.11,-0.21 -0.21,-0.42 -0.3,-0.63l0.46 0.46 -0.16 0.17zm2.74 2.4l1.86 1.85 -0.92 0.92c-0.62,-0.64 -1.19,-1.31 -1.71,-2l0.77 -0.77zm2.22 2.2l1.86 1.85 -0.8 0.81c-0.68,-0.52 -1.35,-1.1 -1.98,-1.73l0.92 -0.93zm2.22 2.21l1.86 1.85 -0.34 0.35c-0.78,-0.42 -1.54,-0.9 -2.27,-1.44l0.75 -0.76zm2.22 2.21l0.68 0.68c-0.31,-0.14 -0.61,-0.29 -0.92,-0.44l0.24 -0.24zm0.36 -0.36l1.85 -1.86 1.86 1.85 -1.7 1.71c-0.16,-0.05 -0.32,-0.11 -0.47,-0.17l-1.54 -1.53zm4.07 0.35l1.86 1.85 -0.31 0.31c-1.02,-0.11 -2.05,-0.33 -3.07,-0.64l1.52 -1.52zm8.85 -0.03l0.78 0.77c-0.81,0.44 -1.67,0.78 -2.57,1.03l1.79 -1.8zm0.36 -0.36l1.85 -1.86 1.12 1.12c-0.64,0.62 -1.35,1.16 -2.1,1.61l-0.87 -0.87zm3.33 -1.1l-1.13 -1.12 1.85 -1.86 0.86 0.85c-0.44,0.76 -0.97,1.48 -1.58,2.13zm1.84 -2.58l-0.76 -0.75 1.72 -1.73c-0.23,0.86 -0.56,1.69 -0.96,2.48zm-17.16 -25.18l0.13 0.12 -1.85 1.86 -1.71 -1.69c1.11,-0.23 2.26,-0.33 3.43,-0.29zm-12.66 9.48l1.75 1.74 -1.85 1.86 -0.2 -0.2c-0.04,-1.16 0.06,-2.31 0.3,-3.4zm36.45 27.11c-0.05,0.05 -0.09,0.09 -0.13,0.14 -3.4,-1.98 -8.96,-3.38 -13.49,-4.27 2.25,-0.61 4.3,-1.76 5.98,-3.44 1.69,-1.71 2.83,-3.79 3.43,-6.07 0.91,4.52 2.34,10.1 4.35,13.5 -0.05,0.05 -0.09,0.1 -0.14,0.14z"/>
   <path fill="#365E5A" d="M42.94 103.52l-0.01 -0.01c5.28,-0.33 10.82,-2.73 15.27,-7.1 8.65,-8.49 9.97,-21.23 2.93,-28.4 -7.04,-7.17 -19.8,-6.1 -28.45,2.39 -4.52,4.43 -7.03,10.02 -7.4,15.38 -0.31,2.27 -2.41,16.86 -6.05,20.42 0,0.01 0,0.01 -0.01,0.01 -0.05,-0.04 -0.1,-0.08 -0.16,-0.11 -0.05,-0.04 -0.1,-0.07 -0.15,-0.1 -0.41,-0.25 -0.67,-0.09 -0.74,-0.05 -0.55,0.26 -0.24,0.9 -0.75,1.72 -0.49,0.81 -1.17,0.27 -1.85,0.94 -0.67,0.66 -0.23,1.12 -0.9,1.78 -0.68,0.67 -1.13,0.21 -1.8,0.87 -0.68,0.66 -0.23,1.12 -0.91,1.79 -0.67,0.66 -1.12,0.2 -1.8,0.87 -0.68,0.66 -0.15,1.35 -0.97,1.83 -0.83,0.49 -1.46,0.16 -1.74,0.71 -0.03,0.07 -0.2,0.33 0.04,0.74 0.1,0.17 0.24,0.38 0.42,0.61 0.01,0.01 0.02,0.02 0.02,0.03 0.06,0.07 0.11,0.14 0.17,0.21 0.03,0.04 0.06,0.07 0.1,0.11 0.04,0.05 0.07,0.09 0.11,0.14 0.06,0.06 0.11,0.13 0.17,0.19 0.02,0.02 0.04,0.05 0.06,0.07 0.17,0.18 0.34,0.36 0.53,0.55 0.71,0.73 1.39,1.31 1.84,1.59 0.1,0.06 0.37,0.24 0.64,0.13 0.73,-0.28 0.29,-1.21 0.93,-1.83 0.68,-0.67 1.13,-0.21 1.81,-0.87 0.67,-0.67 0.22,-1.12 0.9,-1.79 0.68,-0.66 1.12,-0.2 1.8,-0.87l0.01 0c0.67,-0.67 0.23,-1.13 0.9,-1.79 0.68,-0.66 1.13,-0.21 1.8,-0.87 0.68,-0.66 0.23,-1.12 0.91,-1.78 0.64,-0.63 1.55,-0.18 1.85,-0.9 0.11,-0.27 -0.06,-0.55 -0.11,-0.64 -0.05,-0.08 -0.12,-0.18 -0.18,-0.27 0,-0.01 0,-0.01 0.01,-0.02 3.94,-3.87 20.76,-5.68 20.76,-5.68zm-15.87 -16.25l-0.09 -0.09c0,-0.18 0,-0.37 0.01,-0.55l0.49 -0.48 2.15 2.19 -2.19 2.15 -0.19 -0.19c-0.17,-0.9 -0.26,-1.83 -0.27,-2.78l0.09 -0.25zm33.64 -3.81l-2.19 2.15 -2.15 -2.19 2.19 -2.15 2.15 2.19zm0.46 -4.75l2.15 2.19 -2.19 2.15 -2.15 -2.19 2.19 -2.15zm-17.62 22.98l-0.28 -0.29 2.19 -2.15 1.68 1.71c-1.2,0.36 -2.4,0.6 -3.59,0.73zm12.31 -8.34l-2.15 -2.19 2.19 -2.15 2.15 2.19 -2.19 2.15zm-2.61 2.56l-2.15 -2.19 2.19 -2.15 2.15 2.19 -2.19 2.15zm5.22 -5.13l-2.15 -2.18 2.19 -2.15 2.15 2.19 -2.19 2.14zm-7.79 3.35l2.15 2.19 -2.19 2.15 -2.15 -2.19 2.19 -2.15zm-4.8 4.71l2.19 -2.15 2.15 2.19 -1.63 1.6c-0.27,0.1 -0.54,0.2 -0.82,0.29l-1.89 -1.93zm4.75 0.46l0.19 0.2c-0.25,0.13 -0.51,0.25 -0.76,0.36l0.57 -0.56zm0.42 -0.41l2.19 -2.15 0.79 0.81c-0.86,0.62 -1.75,1.18 -2.66,1.66l-0.32 -0.32zm2.61 -2.56l2.19 -2.15 0.99 1.01c-0.75,0.72 -1.53,1.39 -2.33,2l-0.85 -0.86zm2.61 -2.56l2.19 -2.15 0.82 0.83c-0.62,0.8 -1.29,1.58 -2.02,2.32l-0.99 -1zm2.62 -2.56l2.19 -2.15 0.24 0.24c-0.5,0.91 -1.06,1.8 -1.69,2.67l-0.74 -0.76zm2.61 -2.57l0.31 -0.31c-0.07,0.14 -0.13,0.28 -0.21,0.42l-0.1 -0.11zm-0.42 -0.42l-2.15 -2.19 2.19 -2.14 1.77 1.79c-0.13,0.4 -0.28,0.8 -0.44,1.2l-1.37 1.34zm0.46 -4.75l2.19 -2.15 0.08 0.08c-0.12,1.21 -0.36,2.43 -0.72,3.64l-1.55 -1.57zm-3.44 2.56l-2.19 2.14 -2.15 -2.19 2.19 -2.15 2.15 2.2zm-2.61 2.56l-2.19 2.15 -2.15 -2.19 2.19 -2.15 2.15 2.19zm-2.61 2.56l-2.19 2.15 -2.15 -2.19 2.19 -2.15 2.15 2.19zm-2.61 2.56l-2.19 2.15 -2.15 -2.19 2.19 -2.15 2.15 2.19zm-2.61 2.56l-2.19 2.15 -2.15 -2.19 2.19 -2.15 2.15 2.19zm-2.61 2.56l-2.19 2.15 -2.15 -2.19 2.19 -2.15 2.15 2.19zm-2.61 2.57l-0.41 0.39c-1.31,0.03 -2.6,-0.08 -3.83,-0.33l-0.1 -0.11 2.19 -2.15 2.15 2.2zm0.93 -10.34l2.19 -2.15 2.15 2.19 -2.19 2.15 -2.15 -2.19zm1.73 2.6l-2.19 2.15 -2.15 -2.19 2.19 -2.15 2.15 2.19zm3.03 -2.97l-2.15 -2.19 2.19 -2.15 2.15 2.19 -2.19 2.15zm7.83 -7.69l-2.15 -2.19 2.19 -2.15 2.15 2.19 -2.19 2.15zm-0.42 0.41l-2.19 2.15 -2.15 -2.19 2.19 -2.15 2.15 2.19zm3.03 -2.97l-2.15 -2.19 2.19 -2.15 2.15 2.19 -2.19 2.15zm0.46 -4.75l2.19 -2.15 2.15 2.19 -2.19 2.15 -2.15 -2.19zm-8.25 8.1l2.15 2.19 -2.19 2.15 -2.15 -2.19 2.19 -2.15zm-8.3 12.43l-2.19 2.15 -2.14 -2.19 2.19 -2.15 2.14 2.19zm-4.75 0.37l2.14 2.19 -2.19 2.15 -2.15 -2.19 2.2 -2.15zm23.91 -23.46l0.64 -0.62c0.35,0.7 0.65,1.42 0.89,2.17l-1.53 -1.55zm-26.06 20.44l2.2 -2.15 2.14 2.19 -2.19 2.15 -2.15 -2.19zm1.73 2.6l-2.19 2.15 -2.15 -2.19 2.19 -2.15 2.15 2.19zm13.48 -13.22l-2.15 -2.19 2.19 -2.15 2.15 2.19 -2.19 2.15zm-8.26 8.1l-2.19 2.15 -2.14 -2.19 2.18 -2.15 2.15 2.19zm7.84 -7.68l-2.19 2.14 -2.15 -2.18 2.19 -2.15 2.15 2.19zm-4.76 0.37l2.15 2.19 -2.19 2.15 -2.15 -2.19 2.19 -2.15zm-0.47 4.75l-2.19 2.15 -2.14 -2.19 2.19 -2.15 2.14 2.19zm6.11 -10.29l2.19 -2.15 2.15 2.19 -2.19 2.15 -2.15 -2.19zm6.95 -2.52l-2.19 2.15 -2.15 -2.19 2.19 -2.15 2.15 2.19zm0.46 -4.75l2.15 2.19 -2.19 2.15 -2.15 -2.19 2.19 -2.15zm2.57 1.78l-2.15 -2.19 1.07 -1.05c0.71,0.77 1.32,1.61 1.83,2.5l-0.75 0.74zm-28.63 18.66l2.15 2.19 -2.19 2.15 -2.15 -2.19 2.19 -2.15zm2.61 -2.56l2.15 2.19 -2.19 2.15 -2.15 -2.19 2.19 -2.15zm0.42 -0.41l2.19 -2.15 2.15 2.19 -2.19 2.15 -2.15 -2.19zm17.86 -17.52l2.15 2.19 -2.19 2.15 -2.15 -2.19 2.19 -2.15zm2.61 -2.56l2.15 2.19 -2.19 2.15 -2.15 -2.19 2.19 -2.15zm-3.07 7.31l-2.19 2.15 -2.15 -2.19 2.19 -2.15 2.15 2.19zm-2.61 2.56l-2.19 2.15 -2.15 -2.19 2.19 -2.15 2.15 2.19zm-5.23 5.13l-2.19 2.14 -2.14 -2.18 2.19 -2.15 2.14 2.19zm-1.72 -2.61l2.19 -2.15 2.15 2.19 -2.2 2.15 -2.14 -2.19zm-0.89 5.17l-2.19 2.15 -2.15 -2.19 2.19 -2.15 2.15 2.19zm16.09 -15.78l-2.15 -2.19 0.78 -0.76c0.87,0.53 1.69,1.16 2.43,1.9l-1.06 1.05zm-15.99 5.43l-2.19 2.15 -2.15 -2.19 2.19 -2.15 2.15 2.19zm0.46 -4.75l2.15 2.19 -2.19 2.15 -2.15 -2.19 2.19 -2.15zm-5.22 5.12l2.15 2.19 -2.19 2.15 -2.15 -2.19 2.19 -2.15zm-0.46 4.76l-2.19 2.14 -2.15 -2.19 2.19 -2.14 2.15 2.19zm-2.61 2.56l-2.19 2.15 -2.15 -2.19 2.19 -2.15 2.15 2.19zm-4.76 0.37l2.15 2.19 -2.19 2.15 -2.15 -2.19 2.19 -2.15zm20.84 -15.32l2.15 2.19 -2.19 2.15 -2.15 -2.19 2.19 -2.15zm0.42 -0.41l2.19 -2.15 2.15 2.19 -2.19 2.15 -2.15 -2.19zm-16.55 20.53l-2.19 2.15 -2.15 -2.19 2.19 -2.15 2.15 2.19zm-1.73 -2.6l2.19 -2.15 2.15 2.19 -2.19 2.15 -2.15 -2.19zm2.61 -2.56l2.19 -2.15 2.15 2.19 -2.19 2.15 -2.15 -2.19zm4.76 -0.38l-2.15 -2.19 2.19 -2.14 2.15 2.19 -2.19 2.14zm0.46 -4.75l2.19 -2.15 2.15 2.19 -2.19 2.15 -2.15 -2.19zm9.57 -5.08l-2.19 2.15 -2.15 -2.19 2.19 -2.15 2.15 2.19zm-20.43 15.74l2.15 2.19 -2.19 2.15 -2.15 -2.19 2.19 -2.15zm13.48 -13.22l2.19 -2.15 2.14 2.19 -2.19 2.15 -2.14 -2.19zm12.59 -8.06l-1.61 -1.64c0.78,0.27 1.54,0.6 2.27,1l-0.66 0.64zm-10.4 5.08l-2.15 -2.19 2.19 -2.15 2.15 2.19 -2.19 2.15zm-18.67 13.15l0.03 0.02 -0.03 0.03c0,-0.02 0,-0.04 0,-0.05zm21.28 -15.71l-2.14 -2.19 2.19 -2.15 2.14 2.19 -2.19 2.15zm-0.37 -4.76l-2.19 2.15 -1.62 -1.66c1.22,-0.34 2.44,-0.56 3.65,-0.66l0.16 0.17zm-2.61 2.56l-2.19 2.15 -2.15 -2.19 1.56 -1.53c0.31,-0.11 0.62,-0.22 0.93,-0.31l1.85 1.88zm-12.17 7.64l2.19 -2.15 2.15 2.19 -2.19 2.15 -2.15 -2.19zm1.73 2.61l-2.19 2.14 -2.15 -2.19 2.19 -2.14 2.15 2.19zm0.88 -5.17l2.19 -2.15 2.15 2.19 -2.19 2.15 -2.15 -2.19zm4.76 -0.37l-2.15 -2.19 2.19 -2.15 2.15 2.19 -2.19 2.15zm-0.37 -4.76l-2.19 2.15 -0.83 -0.85c0.87,-0.61 1.78,-1.16 2.69,-1.63l0.33 0.33zm0.23 -0.61c0.24,-0.12 0.49,-0.23 0.74,-0.34l-0.55 0.54 -0.19 -0.2zm-2.84 3.17l-2.19 2.15 -1.07 -1.09c0.76,-0.72 1.55,-1.37 2.36,-1.97l0.9 0.91zm-2.61 2.56l-2.19 2.15 -0.93 -0.95c0.62,-0.79 1.3,-1.56 2.05,-2.29l1.07 1.09zm-2.61 2.56l-2.19 2.15 -0.4 -0.4c0.5,-0.9 1.07,-1.78 1.71,-2.64l0.88 0.89zm-2.61 2.57l-0.81 0.78c0.17,-0.36 0.34,-0.71 0.53,-1.06l0.28 0.28zm0.41 0.42l2.15 2.19 -2.19 2.14 -1.98 -2.01c0.07,-0.18 0.14,-0.36 0.21,-0.55l1.81 -1.77zm-0.46 4.75l-2.19 2.15 -0.37 -0.37c0.15,-1.19 0.42,-2.39 0.8,-3.58l1.76 1.8zm-0.1 10.34l-0.91 0.9c-0.51,-0.95 -0.89,-1.96 -1.17,-3.01l2.08 2.11zm0.41 0.42l2.15 2.19 -1.32 1.3c-0.72,-0.76 -1.34,-1.59 -1.86,-2.48l1.03 -1.01zm1.24 3.91l1.32 -1.3 2.15 2.19 -1.01 0.99c-0.88,-0.52 -1.7,-1.15 -2.46,-1.88zm3 2.19l0.88 -0.87 2 2.03c-1.01,-0.29 -1.97,-0.67 -2.88,-1.16zm29.66 -19.69l-0.15 0.15 -2.15 -2.19 2.01 -1.96c0.25,1.29 0.35,2.64 0.29,4zm-10.9 -14.92l-2.05 2.02 -2.15 -2.19 0.23 -0.24c1.36,-0.02 2.7,0.12 3.97,0.41zm-32.2 42.19c-0.05,-0.05 -0.1,-0.1 -0.15,-0.15 2.36,-3.95 4.07,-10.42 5.17,-15.7 0.69,2.63 2,5.05 3.95,7.03 1.96,2.01 4.38,3.37 7.03,4.1 -5.3,1 -11.83,2.6 -15.84,4.89 -0.05,-0.06 -0.1,-0.11 -0.16,-0.17z"/>
   <path fill="#4D897C" d="M156.06 107.81l0 0c1.17,-1.35 1.9,-3.26 1.9,-5.37 0,-4.1 -2.76,-7.44 -6.17,-7.44 -3.4,0 -6.16,3.34 -6.16,7.44 0,2.14 0.75,4.08 1.96,5.43 0.47,0.62 3.5,4.58 3.5,6.31 0,0 0,0 0,0 -0.02,0.01 -0.05,0.01 -0.07,0.01 -0.02,0.01 -0.04,0.01 -0.06,0.02 -0.15,0.04 -0.17,0.14 -0.18,0.16 -0.07,0.2 0.16,0.28 0.24,0.59 0.07,0.32 -0.22,0.35 -0.22,0.67 0,0.32 0.22,0.32 0.22,0.64 0,0.32 -0.22,0.32 -0.22,0.65 0,0.32 0.22,0.32 0.22,0.64 0,0.32 -0.22,0.32 -0.22,0.64 0,0.32 0.29,0.36 0.22,0.67 -0.08,0.32 -0.31,0.39 -0.24,0.59 0.01,0.02 0.03,0.12 0.18,0.16 0.07,0.02 0.15,0.03 0.25,0.05 0,0 0.01,0 0.01,0 0.03,0 0.06,0 0.09,0.01 0.02,0 0.04,0 0.05,0 0.02,0 0.04,0 0.06,0 0.03,0.01 0.06,0.01 0.09,0.01 0.01,0 0.02,0 0.03,0 0.08,0 0.17,0.01 0.26,0.01 0.34,0 0.65,-0.03 0.82,-0.07 0.04,-0.01 0.15,-0.04 0.18,-0.13 0.11,-0.24 -0.22,-0.35 -0.22,-0.66 0,-0.32 0.22,-0.32 0.22,-0.64 0,-0.32 -0.22,-0.32 -0.22,-0.64 0,-0.32 0.22,-0.32 0.22,-0.64l0 -0.01c0,-0.32 -0.22,-0.32 -0.22,-0.64 0,-0.32 0.22,-0.32 0.22,-0.64 0,-0.32 -0.22,-0.32 -0.22,-0.64 0,-0.3 0.33,-0.42 0.22,-0.66 -0.03,-0.09 -0.14,-0.12 -0.18,-0.13 -0.03,0 -0.07,-0.01 -0.11,-0.02 0,0 0,0 0,0 0,-1.87 3.55,-6.37 3.55,-6.37zm-7.69 -0.01l-0.04 0c-0.04,-0.05 -0.09,-0.09 -0.13,-0.14l0 -0.23 1.04 0 0 1.04 -0.09 0c-0.26,-0.17 -0.51,-0.37 -0.74,-0.59l-0.04 -0.08zm7.06 -9.04l0 1.04 -1.04 0 0 -1.04 1.04 0zm-1.04 -1.24l1.04 0 0 1.04 -1.04 0 0 -1.04zm1.37 9.71l-0.13 0 0 -1.04 0.81 0c-0.2,0.38 -0.42,0.72 -0.68,1.04zm0.91 -4.95l-1.04 0 0 -1.04 1.04 0 0 1.04zm0 1.24l-1.04 0 0 -1.04 1.04 0 0 1.04zm0 -2.48l-1.04 0 0 -1.04 1.04 0 0 1.04zm-1.04 2.68l1.04 0 0 1.03 -1.04 0 0 -1.03zm0 2.27l0 -1.04 1.04 0 0 0.77c-0.04,0.09 -0.08,0.18 -0.13,0.27l-0.91 0zm1.24 -1.04l0.09 0c-0.03,0.1 -0.06,0.19 -0.09,0.28l0 -0.28zm0 -0.2l0 -1.03 0.38 0c-0.06,0.35 -0.13,0.7 -0.23,1.03l-0.15 0zm0 -1.23l0 -1.04 0.48 0c-0.01,0.35 -0.03,0.7 -0.07,1.04l-0.41 0zm0 -1.24l0 -1.04 0.39 0c0.05,0.34 0.08,0.68 0.08,1.04l-0.47 0zm0 -1.24l0 -1.04 0.11 0c0.11,0.34 0.19,0.68 0.25,1.04l-0.36 0zm0 -1.24l0 -0.15c0.02,0.05 0.03,0.1 0.05,0.15l-0.05 0zm-0.2 0l-1.04 0 0 -1.04 0.85 0c0.07,0.13 0.13,0.26 0.19,0.39l0 0.65zm-1.04 -1.24l0 -1.04 0.04 0c0.26,0.32 0.5,0.67 0.7,1.04l-0.74 0zm-0.2 1.44l0 1.04 -1.04 0 0 -1.04 1.04 0zm0 1.24l0 1.04 -1.04 0 0 -1.04 1.04 0zm0 1.24l0 1.04 -1.04 0 0 -1.04 1.04 0zm0 1.24l0 1.03 -1.04 0 0 -1.03 1.04 0zm0 1.23l0 1.04 -1.04 0 0 -1.04 1.04 0zm0 1.24l0 1.04 -1.04 0 0 -1.04 1.04 0zm0 1.24l0 0.19c-0.3,0.33 -0.64,0.61 -0.99,0.85l-0.05 0 0 -1.04 1.04 0zm-2.28 -2.68l0 -1.03 1.04 0 0 1.03 -1.04 0zm1.04 0.2l0 1.04 -1.04 0 0 -1.04 1.04 0zm0 -1.43l-1.04 0 0 -1.04 1.04 0 0 1.04zm0 -3.72l-1.04 0 0 -1.04 1.04 0 0 1.04zm0 0.2l0 1.04 -1.04 0 0 -1.04 1.04 0zm0 -1.44l-1.04 0 0 -1.04 1.04 0 0 1.04zm-1.04 -1.24l0 -1.03 1.04 0 0 1.03 -1.04 0zm0 3.92l1.04 0 0 1.04 -1.04 0 0 -1.04zm1.04 4.95l0 1.04 -1.04 0 0 -1.04 1.04 0zm-1.04 1.24l1.04 0 0 1.04 -1.04 0 0 -1.04zm0 -11.34l0 -0.3c0.26,0.08 0.5,0.18 0.74,0.3l-0.74 0zm-1.24 11.14l0 -1.04 1.04 0 0 1.04 -1.04 0zm1.04 0.2l0 1.04 -1.04 0 0 -1.04 1.04 0zm0 -6.39l-1.04 0 0 -1.04 1.04 0 0 1.04zm0 3.91l0 1.04 -1.04 0 0 -1.04 1.04 0zm0 -3.71l0 1.04 -1.04 0 0 -1.04 1.04 0zm-1.04 1.24l1.04 0 0 1.04 -1.04 0 0 -1.04zm1.04 1.24l0 1.03 -1.04 0 0 -1.03 1.04 0zm-1.04 -3.92l0 -1.04 1.04 0 0 1.04 -1.04 0zm1.04 -2.28l0 1.04 -1.04 0 0 -1.04 1.04 0zm-1.04 -1.23l1.04 0 0 1.03 -1.04 0 0 -1.03zm1.04 -0.2l-1.04 0 0 -0.51c0.36,0.01 0.71,0.06 1.04,0.15l0 0.36zm-2.27 11.34l1.03 0 0 1.04 -1.03 0 0 -1.04zm0 -1.24l1.03 0 0 1.04 -1.03 0 0 -1.04zm0 -0.2l0 -1.04 1.03 0 0 1.04 -1.03 0zm0 -8.47l1.03 0 0 1.04 -1.03 0 0 -1.04zm0 -1.23l1.03 0 0 1.03 -1.03 0 0 -1.03zm1.03 2.47l0 1.04 -1.03 0 0 -1.04 1.03 0zm0 1.24l0 1.04 -1.03 0 0 -1.04 1.03 0zm0 2.48l0 1.04 -1.03 0 0 -1.04 1.03 0zm-1.03 -0.2l0 -1.04 1.03 0 0 1.04 -1.03 0zm1.03 1.44l0 1.03 -1.03 0 0 -1.03 1.03 0zm0 -7.63l-1.03 0 0 -0.37c0.33,-0.09 0.68,-0.13 1.03,-0.14l0 0.51zm-2.47 5.15l0 1.04 -1.04 0 0 -1.04 1.04 0zm-1.04 -1.24l1.04 0 0 1.04 -1.04 0 0 -1.04zm0 2.48l1.04 0 0 1.04 -1.04 0 0 -1.04zm1.04 1.24l0 1.03 -1.04 0 0 -1.03 1.04 0zm0 1.23l0 1.04 -1.04 0 0 -1.04 1.04 0zm-1.04 1.24l1.04 0 0 1.04 -1.04 0 0 -1.04zm1.24 -8.67l1.04 0 0 1.04 -1.04 0 0 -1.04zm0 -0.2l0 -1.03 1.04 0 0 1.03 -1.04 0zm1.04 8.87l0 1.04 -1.04 0 0 -1.04 1.04 0zm-1.04 -0.2l0 -1.04 1.04 0 0 1.04 -1.04 0zm0 -1.24l0 -1.03 1.04 0 0 1.03 -1.04 0zm1.04 -1.23l-1.04 0 0 -1.04 1.04 0 0 1.04zm-1.04 -1.24l0 -1.04 1.04 0 0 1.04 -1.04 0zm1.04 -3.52l0 1.04 -1.04 0 0 -1.04 1.04 0zm-1.04 8.67l1.04 0 0 1.04 -1.04 0 0 -1.04zm0 -6.39l0 -1.04 1.04 0 0 1.04 -1.04 0zm1.04 -4.95l-0.78 0c0.25,-0.13 0.51,-0.24 0.78,-0.32l0 0.32zm-1.24 3.71l-1.04 0 0 -1.04 1.04 0 0 1.04zm-1.25 7.63l0.01 0 0 0.01c0,0 -0.01,0 -0.01,-0.01zm1.25 -8.87l-1.04 0 0 -1.04 1.04 0 0 1.04zm-1.24 -1.04l0 1.04 -0.79 0c0.21,-0.37 0.45,-0.72 0.71,-1.04l0.08 0zm0 1.24l0 1.04 -1.04 0 0 -0.74c0.05,-0.1 0.1,-0.2 0.15,-0.3l0.89 0zm-1.04 4.76l0 -1.04 1.04 0 0 1.04 -1.04 0zm1.04 0.2l0 1.03 -1.04 0 0 -1.03 1.04 0zm-1.04 -1.44l0 -1.04 1.04 0 0 1.04 -1.04 0zm1.04 -1.24l-1.04 0 0 -1.04 1.04 0 0 1.04zm-1.24 -1.04l0 1.04 -0.4 0c0.06,-0.36 0.14,-0.7 0.24,-1.04l0.16 0zm-0.09 -0.2c0.03,-0.09 0.06,-0.17 0.09,-0.26l0 0.26 -0.09 0zm0.09 1.44l0 1.04 -0.52 0c0.01,-0.36 0.04,-0.7 0.09,-1.04l0.43 0zm0 1.24l0 1.04 -0.45 0c-0.04,-0.34 -0.06,-0.69 -0.07,-1.04l0.52 0zm0 1.24l0 1.03 -0.19 0c-0.1,-0.33 -0.18,-0.68 -0.23,-1.03l0.42 0zm0 1.23l0 0.38c-0.05,-0.12 -0.09,-0.25 -0.13,-0.38l0.13 0zm0.2 0l1.04 0 0 1.04 -0.95 0c-0.03,-0.06 -0.06,-0.12 -0.09,-0.18l0 -0.86zm1.04 1.24l0 1.04 -0.18 0c-0.25,-0.32 -0.47,-0.66 -0.67,-1.04l0.85 0zm2.48 2.48l0 0.43c-0.35,-0.1 -0.69,-0.25 -1.01,-0.43l1.01 0zm0.2 0l1.03 0 0 0.63c-0.35,-0.01 -0.7,-0.06 -1.03,-0.14l0 -0.49zm1.23 0.62l0 -0.62 1.04 0 0 0.48c-0.33,0.09 -0.68,0.14 -1.04,0.14zm1.24 -0.2l0 -0.42 0.97 0c-0.31,0.17 -0.63,0.32 -0.97,0.42zm2.28 -11.84l0 0.07 -1.04 0 0 -0.94c0.37,0.24 0.72,0.54 1.04,0.87zm-6.19 -0.9l0 0.97 -1.04 0 0 -0.11c0.32,-0.33 0.66,-0.62 1.04,-0.86zm2.56 17.79c-0.03,0 -0.05,0 -0.07,0 -0.4,-1.51 -1.55,-3.46 -2.57,-4.98 0.8,0.46 1.69,0.72 2.63,0.72 0.96,0 1.86,-0.26 2.66,-0.73 -1.01,1.52 -2.17,3.47 -2.57,4.99 -0.03,0 -0.05,0 -0.08,0z"/>
   <path fill="#365E5A" d="M140.05 91.87c0.08,-0.13 0.23,-0.41 0.4,-0.73 0.22,-0.43 0.65,-1.23 0.76,-1.4 1.6,-2.34 3.59,-3.39 6.25,-3.3 1.32,0.04 2.43,0.4 3.36,0.89 -0.57,2.6 -1.92,5.06 -4.03,6.99 -4.01,3.69 -9.64,4.49 -14.35,2.53 3.14,-0.35 6,-2.16 7.61,-4.98z"/>
   <path fill="#365E5A" d="M139.89 77.4l-0.09 0.05c-1.45,0.79 -3.27,0.38 -5.03,-0.02 -0.28,-0.06 -0.56,-0.12 -0.83,-0.18 -1.24,-0.26 -2.87,-0.52 -4.52,-0.19 -1.54,0.3 -2.95,0.96 -4.15,1.89 0.73,-1.67 1.8,-3.21 3.22,-4.51 4.29,-3.95 10.44,-4.59 15.34,-2.07 -0.79,2.35 -2.1,4.04 -3.94,5.03z"/>
   <path fill="#365E5A" d="M129.83 79.13c1.27,-0.25 2.63,-0.03 3.68,0.19 0.26,0.06 0.53,0.12 0.8,0.18 2.04,0.46 4.35,0.98 6.5,-0.19l0.08 -0.05c2.21,-1.18 3.81,-3.11 4.78,-5.74 0.68,0.5 1.32,1.07 1.91,1.71 2.58,2.8 3.74,6.38 3.55,9.9 -1.03,-0.45 -2.23,-0.76 -3.59,-0.81 -3.37,-0.11 -6.08,1.31 -8.08,4.23 -0.16,0.25 -0.47,0.82 -0.88,1.6 -0.16,0.29 -0.29,0.55 -0.36,0.67 -1.55,2.71 -4.56,4.26 -7.66,3.94 -0.76,-0.07 -1.48,-0.26 -2.17,-0.54 -0.23,-0.22 -0.47,-0.45 -0.69,-0.69 -2.57,-2.79 -3.74,-6.37 -3.55,-9.88 1.04,-2.28 3.14,-4.02 5.68,-4.52z"/>
   <g>
    <path fill="#365E5A" d="M154.75 69.66l0 0c0.56,-0.3 1.02,-0.73 1.38,-1.26 0.38,-0.56 0.59,-1.19 0.65,-1.83 -0.34,-0.07 -0.68,-0.11 -1.04,-0.11 -2.15,0 -4.01,1.3 -4.81,3.16 1.17,0.67 2.61,0.69 3.82,0.04z"/>
    <path fill="#365E5A" d="M156.86 73.98c-0.57,0.3 -1.03,0.73 -1.39,1.26 -0.34,0.5 -0.54,1.07 -0.63,1.64 0.3,0.05 0.6,0.08 0.9,0.08 2.11,0 3.93,-1.24 4.76,-3.04 -1.14,-0.57 -2.5,-0.56 -3.64,0.06z"/>
    <path fill="#4D897C" d="M157.58 66.8c-0.09,0.72 -0.34,1.43 -0.76,2.06 -0.43,0.63 -1.01,1.16 -1.68,1.52 0,0 0,0 0,0 -1.41,0.77 -3.09,0.77 -4.48,0.03 -0.11,0.42 -0.17,0.85 -0.17,1.3 0,2.31 1.49,4.26 3.55,4.97 0.11,-0.67 0.36,-1.32 0.75,-1.9 0.42,-0.63 1,-1.16 1.67,-1.52 1.36,-0.74 2.96,-0.77 4.33,-0.11 0.13,-0.46 0.2,-0.94 0.2,-1.44 0,-2.25 -1.42,-4.17 -3.41,-4.91z"/>
   </g>
   <g>
    <path fill="#365E5A" d="M86.32 96.34c0.25,-0.16 0.5,-0.31 0.76,-0.45 0.13,-0.07 0.24,-0.13 0.38,-0.2 0.13,-0.07 0.26,-0.13 0.4,-0.19 0.53,-0.25 1.06,-0.45 1.59,-0.65 1.06,-0.38 2.12,-0.73 3.17,-1.09 0.61,-0.21 1.21,-0.43 1.81,-0.66 0.28,-1.2 0.55,-2.58 1.13,-3.26 0.8,-0.91 2.21,-1.71 3.44,-2.1 -0.21,1.15 -0.84,2.92 -1.63,3.84 -0.15,0.17 -0.32,0.34 -0.52,0.51 0.62,-0.29 1.24,-0.59 1.84,-0.91 0.55,-0.3 1.09,-0.62 1.62,-0.96 -0.1,-1.54 -0.44,-3.49 0.01,-4.59 0.53,-1.29 1.8,-2.68 3,-3.56 0.19,1.34 0.14,3.52 -0.39,4.81 -0.35,0.85 -1.12,1.85 -1.76,2.77 0.99,-0.7 1.93,-1.47 2.8,-2.32 0.64,-0.63 1.24,-1.31 1.8,-2.02 -0.52,-1.46 -1.41,-3.29 -1.28,-4.49 0.16,-1.39 0.99,-3.07 1.91,-4.24 0.55,1.23 1.1,3.34 0.94,4.73 -0.1,0.91 -0.56,2.07 -0.93,3.13 0.53,-0.76 1.01,-1.54 1.44,-2.36 0.13,-0.24 0.25,-0.49 0.37,-0.73 0.11,-0.25 0.23,-0.5 0.34,-0.75 0.21,-0.5 0.4,-1.02 0.56,-1.54 0.08,-0.28 0.16,-0.57 0.24,-0.85 -1.02,-1.16 -2.51,-2.53 -2.82,-3.69 -0.36,-1.36 -0.2,-3.22 0.23,-4.65 0.96,0.95 2.25,2.71 2.61,4.06 0.21,0.81 0.22,1.92 0.26,2.96 0.06,-0.34 0.12,-0.69 0.16,-1.03 0.22,-1.67 0.23,-3.36 0.1,-5.04 -1.18,-0.94 -3.07,-2.01 -3.63,-3.12 -0.6,-1.2 -0.81,-2.99 -0.69,-4.42 1.09,0.71 2.64,2.11 3.24,3.31 0.45,0.91 0.7,2.33 1.01,3.46 -0.02,-0.26 -0.05,-0.53 -0.09,-0.79 -0.25,-1.98 -0.67,-3.94 -1.25,-5.86 -1.06,-0.51 -1.96,-1.4 -2.43,-2.59 -0.51,-1.25 -0.42,-2.63 -0.1,-4.04 1.1,0.71 2.22,1.74 2.73,2.98 0.47,1.19 0.45,2.45 0.03,3.56 0.33,0.85 0.6,1.71 0.84,2.59 0.17,0.62 0.31,1.24 0.43,1.87 -0.08,-1.11 -0.25,-2.39 -0.13,-3.32 0.19,-1.33 1.21,-3.15 2.02,-4.17 0.57,1.31 0.94,3.08 0.75,4.41 -0.17,1.23 -1.63,2.85 -2.44,4.13 0.02,0.12 0.04,0.25 0.06,0.37 0.26,1.7 0.37,3.43 0.3,5.17 0.25,-1.27 0.33,-2.98 0.74,-4.07 0.49,-1.31 1.94,-2.94 2.99,-3.79 0.29,1.46 0.27,3.34 -0.23,4.66 -0.47,1.26 -2.42,2.62 -3.53,3.76 -0.02,0.34 -0.04,0.67 -0.08,1.01 -0.11,1 -0.29,1.99 -0.55,2.96 0.39,-0.8 0.78,-1.61 1.23,-2.17 0.9,-1.13 2.85,-2.26 4.16,-2.76 -0.19,1.53 -0.82,3.37 -1.72,4.5 -0.8,1 -2.86,1.68 -4.31,2.38 -0.01,0.01 -0.01,0.02 -0.02,0.04 -0.1,0.26 -0.22,0.52 -0.33,0.78 -0.12,0.26 -0.24,0.51 -0.37,0.77 -0.39,0.79 -0.84,1.56 -1.33,2.3 0.68,-0.74 1.37,-1.5 2.02,-1.96 1.23,-0.85 3.49,-1.39 4.93,-1.49 -0.64,1.45 -1.8,3.08 -3.03,3.93 -1.11,0.76 -3.41,0.82 -5.06,1.09 -0.46,0.57 -0.94,1.13 -1.46,1.66 -0.48,0.49 -0.99,0.95 -1.51,1.4 0.9,-0.5 1.84,-1.03 2.63,-1.25 1.44,-0.41 3.76,-0.19 5.15,0.18 -1.08,1.17 -2.71,2.33 -4.14,2.74 -1.26,0.35 -3.39,-0.3 -5.02,-0.59 -0.79,0.57 -1.61,1.09 -2.45,1.57 0.16,-0.03 0.32,-0.05 0.47,-0.07 1.35,-0.12 3.36,0.46 4.53,1.02 -1.15,0.86 -2.79,1.61 -4.13,1.73 -1.04,0.1 -2.56,-0.63 -3.87,-1.17 -1.07,0.48 -2.16,0.9 -3.26,1.31 -1.05,0.39 -2.1,0.75 -3.13,1.14 -0.52,0.19 -1.02,0.4 -1.5,0.62 -0.12,0.06 -0.24,0.12 -0.35,0.18 -0.11,0.06 -0.25,0.13 -0.36,0.19 -0.22,0.13 -0.45,0.27 -0.67,0.41 -0.89,0.58 -1.7,1.27 -2.36,2.08 -0.05,0.06 -0.1,0.12 -0.15,0.18l-0.26 -1.63c0.64,-0.64 1.35,-1.19 2.1,-1.66z"/>
    <path fill="#365E5A" d="M98.99 96.34c-0.25,-0.16 -0.5,-0.31 -0.76,-0.45 -0.13,-0.07 -0.24,-0.13 -0.38,-0.2 -0.13,-0.07 -0.27,-0.13 -0.4,-0.19 -0.53,-0.25 -1.06,-0.45 -1.59,-0.65 -1.07,-0.38 -2.12,-0.73 -3.17,-1.09 -0.61,-0.21 -1.21,-0.43 -1.81,-0.66 -0.28,-1.2 -0.55,-2.58 -1.13,-3.26 -0.8,-0.91 -2.21,-1.71 -3.44,-2.1 0.21,1.15 0.84,2.92 1.63,3.84 0.15,0.17 0.32,0.34 0.52,0.51 -0.62,-0.29 -1.24,-0.59 -1.84,-0.91 -0.55,-0.3 -1.09,-0.62 -1.62,-0.96 0.1,-1.54 0.44,-3.49 -0.01,-4.59 -0.54,-1.29 -1.8,-2.68 -3,-3.56 -0.19,1.34 -0.14,3.52 0.39,4.81 0.35,0.85 1.12,1.85 1.76,2.77 -0.99,-0.7 -1.93,-1.47 -2.8,-2.32 -0.65,-0.63 -1.24,-1.31 -1.8,-2.02 0.52,-1.46 1.41,-3.29 1.28,-4.49 -0.16,-1.39 -0.99,-3.07 -1.91,-4.24 -0.55,1.23 -1.1,3.34 -0.94,4.73 0.1,0.91 0.56,2.07 0.93,3.13 -0.53,-0.76 -1.01,-1.54 -1.44,-2.36 -0.13,-0.24 -0.25,-0.49 -0.37,-0.73 -0.12,-0.25 -0.23,-0.5 -0.34,-0.75 -0.21,-0.5 -0.4,-1.02 -0.56,-1.54 -0.09,-0.28 -0.16,-0.57 -0.24,-0.85 1.02,-1.16 2.51,-2.53 2.81,-3.69 0.37,-1.36 0.21,-3.22 -0.22,-4.65 -0.96,0.95 -2.25,2.71 -2.61,4.06 -0.21,0.81 -0.22,1.92 -0.26,2.96 -0.06,-0.34 -0.12,-0.69 -0.16,-1.03 -0.22,-1.67 -0.23,-3.36 -0.1,-5.04 1.18,-0.94 3.07,-2.01 3.63,-3.12 0.6,-1.2 0.81,-2.99 0.69,-4.42 -1.09,0.71 -2.64,2.11 -3.24,3.31 -0.45,0.91 -0.7,2.33 -1.01,3.46 0.02,-0.26 0.05,-0.53 0.09,-0.79 0.25,-1.98 0.67,-3.94 1.25,-5.86 1.06,-0.51 1.95,-1.4 2.43,-2.59 0.5,-1.25 0.42,-2.63 0.1,-4.04 -1.1,0.71 -2.22,1.74 -2.73,2.98 -0.47,1.19 -0.45,2.45 -0.04,3.56 -0.32,0.85 -0.59,1.71 -0.83,2.59 -0.17,0.62 -0.31,1.24 -0.43,1.87 0.08,-1.11 0.25,-2.39 0.12,-3.32 -0.18,-1.33 -1.2,-3.15 -2.01,-4.17 -0.57,1.31 -0.94,3.08 -0.75,4.41 0.17,1.23 1.63,2.85 2.44,4.13 -0.02,0.12 -0.04,0.25 -0.06,0.37 -0.26,1.7 -0.37,3.43 -0.3,5.17 -0.25,-1.27 -0.33,-2.98 -0.74,-4.07 -0.49,-1.31 -1.94,-2.94 -2.99,-3.79 -0.29,1.46 -0.27,3.34 0.23,4.66 0.47,1.26 2.42,2.62 3.53,3.76 0.02,0.34 0.04,0.67 0.08,1.01 0.11,1 0.29,1.99 0.55,2.96 -0.39,-0.8 -0.79,-1.61 -1.23,-2.17 -0.9,-1.13 -2.85,-2.26 -4.16,-2.76 0.19,1.53 0.82,3.37 1.72,4.5 0.8,1 2.86,1.68 4.31,2.38 0.01,0.01 0.01,0.02 0.02,0.04 0.1,0.26 0.22,0.52 0.33,0.78 0.12,0.26 0.24,0.51 0.37,0.77 0.39,0.79 0.84,1.56 1.33,2.3 -0.68,-0.74 -1.37,-1.5 -2.02,-1.96 -1.23,-0.85 -3.49,-1.39 -4.93,-1.49 0.64,1.45 1.8,3.08 3.03,3.93 1.11,0.76 3.41,0.82 5.05,1.09 0.47,0.57 0.95,1.13 1.47,1.66 0.48,0.49 0.99,0.95 1.51,1.4 -0.9,-0.5 -1.84,-1.03 -2.63,-1.25 -1.44,-0.41 -3.76,-0.19 -5.15,0.18 1.08,1.17 2.7,2.33 4.14,2.74 1.26,0.35 3.39,-0.3 5.02,-0.59 0.79,0.57 1.61,1.09 2.45,1.57 -0.17,-0.03 -0.32,-0.05 -0.48,-0.07 -1.34,-0.12 -3.35,0.46 -4.52,1.02 1.15,0.86 2.78,1.61 4.13,1.73 1.04,0.1 2.56,-0.63 3.87,-1.17 1.07,0.48 2.16,0.9 3.26,1.31 1.05,0.39 2.1,0.75 3.13,1.14 0.51,0.19 1.02,0.4 1.5,0.62 0.12,0.06 0.24,0.12 0.35,0.18 0.11,0.06 0.25,0.13 0.35,0.19 0.23,0.13 0.46,0.27 0.68,0.41 0.89,0.58 1.7,1.27 2.36,2.08 0.05,0.06 0.1,0.12 0.14,0.18l0.27 -1.63c-0.64,-0.64 -1.35,-1.19 -2.1,-1.66z"/>
   </g>
   <path fill="#4D897C" d="M24.86 75.45l-0.01 0c1.18,-1.35 1.91,-3.26 1.91,-5.37 0,-4.11 -2.77,-7.44 -6.17,-7.44 -3.4,0 -6.17,3.33 -6.17,7.44 0,2.14 0.76,4.07 1.96,5.43 0.48,0.62 3.51,4.58 3.51,6.31 0,0 0,0 0,0 -0.03,0 -0.05,0.01 -0.07,0.01 -0.02,0.01 -0.04,0.01 -0.06,0.02 -0.16,0.04 -0.18,0.14 -0.19,0.16 -0.07,0.2 0.16,0.27 0.24,0.59 0.08,0.31 -0.21,0.35 -0.21,0.67 0,0.32 0.22,0.32 0.22,0.64 0,0.32 -0.22,0.32 -0.22,0.64 0,0.33 0.22,0.33 0.22,0.65 0,0.32 -0.22,0.32 -0.22,0.64 0,0.32 0.29,0.35 0.21,0.67 -0.08,0.31 -0.31,0.39 -0.24,0.59 0.01,0.02 0.03,0.12 0.19,0.16 0.06,0.02 0.15,0.03 0.25,0.04 0,0.01 0,0.01 0.01,0.01 0.03,0 0.06,0 0.09,0 0.01,0.01 0.03,0.01 0.05,0.01 0.02,0 0.04,0 0.06,0 0.03,0.01 0.06,0.01 0.09,0.01 0.01,0 0.02,0 0.03,0 0.08,0 0.16,0 0.25,0 0.35,0 0.65,-0.02 0.83,-0.06 0.03,-0.01 0.14,-0.04 0.18,-0.13 0.1,-0.24 -0.22,-0.36 -0.22,-0.66 0,-0.32 0.21,-0.32 0.21,-0.64 0,-0.32 -0.21,-0.32 -0.21,-0.64 0,-0.32 0.21,-0.32 0.21,-0.64l0 -0.01c0,-0.32 -0.21,-0.32 -0.21,-0.64 0,-0.32 0.21,-0.32 0.21,-0.64 0,-0.32 -0.21,-0.32 -0.21,-0.64 0,-0.31 0.32,-0.42 0.22,-0.66 -0.04,-0.09 -0.15,-0.12 -0.18,-0.13 -0.03,0 -0.07,-0.01 -0.11,-0.02 0,0 0,0 0,0 0,-1.88 3.55,-6.37 3.55,-6.37zm-7.69 -0.02l-0.05 0c-0.04,-0.04 -0.08,-0.08 -0.13,-0.13l0 -0.23 1.04 0 0 1.04 -0.09 0c-0.25,-0.18 -0.5,-0.37 -0.73,-0.59l-0.04 -0.09zm7.05 -9.03l0 1.04 -1.03 0 0 -1.04 1.03 0zm-1.03 -1.24l1.03 0 0 1.04 -1.03 0 0 -1.04zm1.37 9.71l-0.14 0 0 -1.04 0.82 0c-0.2,0.37 -0.43,0.72 -0.68,1.04zm0.9 -4.95l-1.04 0 0 -1.04 1.04 0 0 1.04zm0 1.23l-1.04 0 0 -1.03 1.04 0 0 1.03zm0 -2.47l-1.04 0 0 -1.04 1.04 0 0 1.04zm-1.04 2.67l1.04 0 0 1.04 -1.04 0 0 -1.04zm0 2.28l0 -1.04 1.04 0 0 0.77c-0.04,0.09 -0.08,0.18 -0.12,0.27l-0.92 0zm1.24 -1.04l0.1 0c-0.03,0.09 -0.06,0.18 -0.1,0.27l0 -0.27zm0 -0.2l0 -1.04 0.38 0c-0.05,0.36 -0.13,0.71 -0.22,1.04l-0.16 0zm0 -1.24l0 -1.03 0.48 0c0,0.35 -0.02,0.7 -0.07,1.03l-0.41 0zm0 -1.23l0 -1.04 0.4 0c0.04,0.34 0.07,0.68 0.08,1.04l-0.48 0zm0 -1.24l0 -1.04 0.12 0c0.1,0.33 0.18,0.68 0.24,1.04l-0.36 0zm0 -1.24l0 -0.15c0.02,0.05 0.04,0.1 0.06,0.15l-0.06 0zm-0.2 0l-1.04 0 0 -1.04 0.86 0c0.06,0.13 0.12,0.26 0.18,0.39l0 0.65zm-1.04 -1.24l0 -1.04 0.04 0c0.26,0.32 0.5,0.67 0.71,1.04l-0.75 0zm-0.2 1.44l0 1.04 -1.03 0 0 -1.04 1.03 0zm0 1.24l0 1.04 -1.03 0 0 -1.04 1.03 0zm0 1.24l0 1.03 -1.03 0 0 -1.03 1.03 0zm0 1.23l0 1.04 -1.03 0 0 -1.04 1.03 0zm0 1.24l0 1.04 -1.03 0 0 -1.04 1.03 0zm0 1.24l0 1.04 -1.03 0 0 -1.04 1.03 0zm0 1.24l0 0.19c-0.3,0.32 -0.63,0.61 -0.99,0.85l-0.04 0 0 -1.04 1.03 0zm-2.27 -2.68l0 -1.04 1.04 0 0 1.04 -1.04 0zm1.04 0.2l0 1.04 -1.04 0 0 -1.04 1.04 0zm0 -1.44l-1.04 0 0 -1.03 1.04 0 0 1.03zm0 -3.71l-1.04 0 0 -1.04 1.04 0 0 1.04zm0 0.2l0 1.04 -1.04 0 0 -1.04 1.04 0zm0 -1.44l-1.04 0 0 -1.04 1.04 0 0 1.04zm-1.04 -1.24l0 -1.04 1.04 0 0 1.04 -1.04 0zm0 3.92l1.04 0 0 1.04 -1.04 0 0 -1.04zm1.04 4.95l0 1.04 -1.04 0 0 -1.04 1.04 0zm-1.04 1.24l1.04 0 0 1.04 -1.04 0 0 -1.04zm0 -11.35l0 -0.3c0.25,0.08 0.5,0.18 0.74,0.3l-0.74 0zm-1.24 11.15l0 -1.04 1.04 0 0 1.04 -1.04 0zm1.04 0.2l0 1.04 -1.04 0 0 -1.04 1.04 0zm0 -6.39l-1.04 0 0 -1.04 1.04 0 0 1.04zm0 3.91l0 1.04 -1.04 0 0 -1.04 1.04 0zm0 -3.71l0 1.04 -1.04 0 0 -1.04 1.04 0zm-1.04 1.24l1.04 0 0 1.03 -1.04 0 0 -1.03zm1.04 1.23l0 1.04 -1.04 0 0 -1.04 1.04 0zm-1.04 -3.91l0 -1.04 1.04 0 0 1.04 -1.04 0zm1.04 -2.28l0 1.04 -1.04 0 0 -1.04 1.04 0zm-1.04 -1.24l1.04 0 0 1.04 -1.04 0 0 -1.04zm1.04 -0.2l-1.04 0 0 -0.5c0.35,0.01 0.7,0.06 1.04,0.15l0 0.35zm-2.28 11.35l1.04 0 0 1.04 -1.04 0 0 -1.04zm0 -1.24l1.04 0 0 1.04 -1.04 0 0 -1.04zm0 -0.2l0 -1.04 1.04 0 0 1.04 -1.04 0zm0 -8.47l1.04 0 0 1.04 -1.04 0 0 -1.04zm0 -1.24l1.04 0 0 1.04 -1.04 0 0 -1.04zm1.04 2.48l0 1.04 -1.04 0 0 -1.04 1.04 0zm0 1.24l0 1.04 -1.04 0 0 -1.04 1.04 0zm0 2.48l0 1.03 -1.04 0 0 -1.03 1.04 0zm-1.04 -0.2l0 -1.04 1.04 0 0 1.04 -1.04 0zm1.04 1.43l0 1.04 -1.04 0 0 -1.04 1.04 0zm0 -7.63l-1.04 0 0 -0.36c0.34,-0.09 0.68,-0.13 1.04,-0.14l0 0.5zm-2.48 5.16l0 1.04 -1.04 0 0 -1.04 1.04 0zm-1.04 -1.24l1.04 0 0 1.04 -1.04 0 0 -1.04zm0 2.48l1.04 0 0 1.03 -1.04 0 0 -1.03zm1.04 1.23l0 1.04 -1.04 0 0 -1.04 1.04 0zm0 1.24l0 1.04 -1.04 0 0 -1.04 1.04 0zm-1.04 1.24l1.04 0 0 1.04 -1.04 0 0 -1.04zm1.24 -8.67l1.04 0 0 1.04 -1.04 0 0 -1.04zm0 -0.2l0 -1.04 1.04 0 0 1.04 -1.04 0zm1.04 8.87l0 1.04 -1.04 0 0 -1.04 1.04 0zm-1.04 -0.2l0 -1.04 1.04 0 0 1.04 -1.04 0zm0 -1.24l0 -1.04 1.04 0 0 1.04 -1.04 0zm1.04 -1.24l-1.04 0 0 -1.03 1.04 0 0 1.03zm-1.04 -1.23l0 -1.04 1.04 0 0 1.04 -1.04 0zm1.04 -3.52l0 1.04 -1.04 0 0 -1.04 1.04 0zm-1.04 8.67l1.04 0 0 1.04 -1.04 0 0 -1.04zm0 -6.39l0 -1.04 1.04 0 0 1.04 -1.04 0zm1.04 -4.96l-0.78 0c0.25,-0.12 0.51,-0.23 0.78,-0.31l0 0.31zm-1.24 3.72l-1.04 0 0 -1.04 1.04 0 0 1.04zm-1.25 7.63l0.01 0 0 0.01c0,0 0,-0.01 -0.01,-0.01zm1.25 -8.87l-1.04 0 0 -1.04 1.04 0 0 1.04zm-1.24 -1.04l0 1.04 -0.78 0c0.21,-0.37 0.44,-0.72 0.71,-1.04l0.07 0zm0 1.24l0 1.04 -1.03 0 0 -0.74c0.04,-0.1 0.09,-0.2 0.14,-0.3l0.89 0zm-1.03 4.75l0 -1.03 1.03 0 0 1.03 -1.03 0zm1.03 0.2l0 1.04 -1.03 0 0 -1.04 1.03 0zm-1.03 -1.43l0 -1.04 1.03 0 0 1.04 -1.03 0zm1.03 -1.24l-1.03 0 0 -1.04 1.03 0 0 1.04zm-1.23 -1.04l0 1.04 -0.41 0c0.06,-0.36 0.15,-0.71 0.25,-1.04l0.16 0zm-0.1 -0.2c0.03,-0.09 0.06,-0.17 0.1,-0.26l0 0.26 -0.1 0zm0.1 1.44l0 1.04 -0.52 0c0.01,-0.36 0.03,-0.7 0.08,-1.04l0.44 0zm0 1.24l0 1.03 -0.45 0c-0.05,-0.33 -0.07,-0.68 -0.07,-1.03l0.52 0zm0 1.23l0 1.04 -0.2 0c-0.09,-0.33 -0.17,-0.68 -0.23,-1.04l0.43 0zm0 1.24l0 0.38c-0.05,-0.12 -0.1,-0.25 -0.14,-0.38l0.14 0zm0.2 0l1.04 0 -0.01 1.04 -0.95 0c-0.03,-0.06 -0.06,-0.12 -0.08,-0.18l0 -0.86zm1.04 1.24l-0.01 1.04 -0.17 0c-0.25,-0.32 -0.48,-0.67 -0.68,-1.04l0.86 0zm2.47 2.48l0 0.43c-0.35,-0.1 -0.68,-0.25 -1,-0.43l1 0zm0.2 0l1.04 0 0 0.62c-0.36,0 -0.7,-0.05 -1.04,-0.13l0 -0.49zm1.24 0.62l0 -0.62 1.04 0 0 0.47c-0.34,0.09 -0.69,0.14 -1.04,0.15zm1.24 -0.2l0 -0.42 0.96 0c-0.31,0.17 -0.63,0.31 -0.96,0.42zm2.27 -11.84l0 0.07 -1.03 0 0 -0.95c0.37,0.25 0.72,0.54 1.03,0.88zm-6.19 -0.9l0 0.97 -1.04 0 0 -0.11c0.32,-0.33 0.67,-0.62 1.04,-0.86zm2.57 17.78c-0.03,0 -0.05,0 -0.08,0 -0.39,-1.5 -1.55,-3.45 -2.56,-4.97 0.79,0.46 1.69,0.72 2.63,0.72 0.95,0 1.85,-0.26 2.66,-0.73 -1.02,1.52 -2.18,3.47 -2.58,4.98 -0.02,0 -0.05,0 -0.07,0z"/>
   <g>
    <path fill="#4D897C" d="M27.45 142.87c0.17,-0.1 0.34,-0.2 0.51,-0.3 0.1,-0.05 0.17,-0.09 0.27,-0.14 0.09,-0.04 0.18,-0.09 0.27,-0.13 0.36,-0.16 0.73,-0.3 1.09,-0.44 0.72,-0.26 1.45,-0.5 2.16,-0.75 0.42,-0.14 0.83,-0.29 1.24,-0.45 0.19,-0.82 0.37,-1.76 0.77,-2.22 0.54,-0.63 1.51,-1.17 2.35,-1.44 -0.14,0.79 -0.57,2 -1.11,2.63 -0.1,0.11 -0.22,0.23 -0.36,0.34 0.43,-0.19 0.85,-0.4 1.26,-0.62 0.38,-0.2 0.75,-0.42 1.11,-0.66 -0.07,-1.04 -0.31,-2.38 0,-3.13 0.37,-0.88 1.23,-1.83 2.06,-2.43 0.12,0.91 0.09,2.4 -0.27,3.29 -0.24,0.58 -0.77,1.26 -1.21,1.89 0.68,-0.48 1.33,-1.01 1.92,-1.59 0.44,-0.43 0.85,-0.89 1.23,-1.38 -0.36,-1 -0.97,-2.24 -0.88,-3.06 0.11,-0.95 0.68,-2.1 1.31,-2.91 0.37,0.85 0.75,2.29 0.64,3.24 -0.07,0.62 -0.39,1.41 -0.63,2.14 0.36,-0.52 0.69,-1.06 0.98,-1.62 0.08,-0.16 0.17,-0.33 0.25,-0.5 0.08,-0.17 0.16,-0.34 0.23,-0.51 0.15,-0.34 0.27,-0.69 0.38,-1.05 0.06,-0.19 0.12,-0.39 0.17,-0.58 -0.7,-0.8 -1.71,-1.73 -1.92,-2.52 -0.25,-0.93 -0.14,-2.2 0.15,-3.18 0.66,0.65 1.53,1.85 1.78,2.78 0.15,0.55 0.16,1.31 0.18,2.02 0.04,-0.23 0.08,-0.47 0.11,-0.71 0.15,-1.14 0.16,-2.29 0.07,-3.44 -0.81,-0.64 -2.1,-1.37 -2.48,-2.13 -0.41,-0.82 -0.56,-2.04 -0.47,-3.02 0.74,0.48 1.8,1.44 2.21,2.26 0.31,0.62 0.48,1.59 0.69,2.37 -0.02,-0.18 -0.04,-0.36 -0.06,-0.54 -0.17,-1.36 -0.46,-2.7 -0.85,-4.01 -0.73,-0.35 -1.34,-0.96 -1.67,-1.77 -0.34,-0.85 -0.28,-1.79 -0.06,-2.76 0.74,0.48 1.52,1.19 1.86,2.04 0.33,0.81 0.31,1.67 0.03,2.43 0.22,0.58 0.4,1.17 0.56,1.77 0.12,0.42 0.22,0.85 0.3,1.28 -0.05,-0.76 -0.17,-1.64 -0.09,-2.27 0.13,-0.91 0.83,-2.16 1.38,-2.85 0.39,0.9 0.64,2.1 0.51,3.01 -0.11,0.84 -1.11,1.95 -1.67,2.83 0.02,0.08 0.03,0.16 0.05,0.25 0.17,1.16 0.25,2.34 0.21,3.53 0.17,-0.87 0.22,-2.04 0.5,-2.78 0.33,-0.9 1.32,-2.01 2.04,-2.59 0.2,1 0.18,2.28 -0.15,3.18 -0.32,0.86 -1.66,1.8 -2.41,2.57 -0.02,0.23 -0.04,0.46 -0.06,0.69 -0.08,0.68 -0.2,1.36 -0.38,2.03 0.27,-0.55 0.54,-1.11 0.84,-1.49 0.62,-0.77 1.95,-1.54 2.84,-1.88 -0.13,1.04 -0.55,2.3 -1.17,3.07 -0.55,0.68 -1.95,1.15 -2.95,1.62 0,0.01 0,0.02 -0.01,0.03 -0.07,0.19 -0.15,0.36 -0.23,0.54 -0.08,0.18 -0.16,0.35 -0.25,0.52 -0.27,0.54 -0.57,1.07 -0.9,1.57 0.46,-0.5 0.93,-1.02 1.38,-1.33 0.84,-0.58 2.38,-0.95 3.36,-1.02 -0.43,0.99 -1.23,2.1 -2.07,2.69 -0.75,0.52 -2.32,0.55 -3.45,0.73 -0.32,0.4 -0.65,0.78 -1,1.14 -0.33,0.34 -0.68,0.65 -1.04,0.96 0.62,-0.34 1.26,-0.7 1.81,-0.86 0.98,-0.28 2.56,-0.12 3.51,0.12 -0.73,0.8 -1.85,1.6 -2.83,1.88 -0.86,0.24 -2.31,-0.21 -3.43,-0.41 -0.54,0.39 -1.09,0.75 -1.67,1.08 0.11,-0.02 0.22,-0.04 0.32,-0.05 0.92,-0.08 2.29,0.32 3.1,0.7 -0.79,0.58 -1.91,1.1 -2.82,1.18 -0.72,0.07 -1.76,-0.43 -2.65,-0.8 -0.73,0.33 -1.48,0.62 -2.23,0.89 -0.71,0.27 -1.44,0.52 -2.14,0.78 -0.35,0.14 -0.69,0.28 -1.02,0.43 -0.08,0.04 -0.16,0.08 -0.24,0.12 -0.08,0.04 -0.17,0.09 -0.24,0.13 -0.16,0.09 -0.32,0.19 -0.47,0.28 -0.61,0.4 -1.16,0.87 -1.61,1.42 -0.03,0.04 -0.06,0.08 -0.1,0.13l-0.18 -1.12c0.44,-0.43 0.92,-0.81 1.44,-1.14z"/>
    <path fill="#4D897C" d="M36.1 142.87c-0.16,-0.1 -0.33,-0.2 -0.51,-0.3 -0.1,-0.05 -0.17,-0.09 -0.26,-0.14 -0.09,-0.04 -0.19,-0.09 -0.28,-0.13 -0.36,-0.16 -0.72,-0.3 -1.09,-0.44 -0.72,-0.26 -1.44,-0.5 -2.16,-0.75 -0.42,-0.14 -0.83,-0.29 -1.24,-0.45 -0.19,-0.82 -0.37,-1.76 -0.77,-2.22 -0.54,-0.63 -1.51,-1.17 -2.35,-1.44 0.14,0.79 0.58,2 1.12,2.63 0.1,0.11 0.22,0.23 0.35,0.34 -0.43,-0.19 -0.84,-0.4 -1.25,-0.62 -0.38,-0.2 -0.75,-0.42 -1.12,-0.66 0.08,-1.04 0.31,-2.38 0,-3.13 -0.37,-0.88 -1.23,-1.83 -2.05,-2.43 -0.13,0.91 -0.1,2.4 0.27,3.29 0.24,0.58 0.76,1.26 1.2,1.89 -0.68,-0.48 -1.32,-1.01 -1.91,-1.59 -0.45,-0.43 -0.86,-0.89 -1.24,-1.38 0.36,-1 0.97,-2.24 0.88,-3.06 -0.11,-0.95 -0.68,-2.1 -1.31,-2.91 -0.37,0.85 -0.75,2.29 -0.64,3.24 0.07,0.62 0.39,1.41 0.64,2.14 -0.36,-0.52 -0.69,-1.06 -0.99,-1.62 -0.08,-0.16 -0.17,-0.33 -0.25,-0.5 -0.08,-0.17 -0.16,-0.34 -0.23,-0.51 -0.14,-0.34 -0.27,-0.69 -0.38,-1.05 -0.06,-0.19 -0.12,-0.39 -0.17,-0.58 0.7,-0.8 1.71,-1.73 1.93,-2.52 0.24,-0.93 0.13,-2.2 -0.16,-3.18 -0.66,0.65 -1.53,1.85 -1.78,2.78 -0.15,0.55 -0.15,1.31 -0.18,2.02 -0.04,-0.23 -0.08,-0.47 -0.11,-0.71 -0.15,-1.14 -0.15,-2.29 -0.07,-3.44 0.81,-0.64 2.1,-1.37 2.48,-2.13 0.41,-0.82 0.56,-2.04 0.47,-3.02 -0.74,0.48 -1.8,1.44 -2.21,2.26 -0.31,0.62 -0.48,1.59 -0.69,2.37 0.02,-0.18 0.04,-0.36 0.06,-0.54 0.17,-1.36 0.46,-2.7 0.85,-4.01 0.73,-0.35 1.34,-0.96 1.67,-1.77 0.34,-0.85 0.28,-1.79 0.06,-2.76 -0.74,0.48 -1.51,1.19 -1.86,2.04 -0.32,0.81 -0.31,1.67 -0.02,2.43 -0.23,0.58 -0.41,1.17 -0.57,1.77 -0.12,0.42 -0.22,0.85 -0.3,1.28 0.05,-0.76 0.17,-1.64 0.09,-2.27 -0.13,-0.91 -0.83,-2.16 -1.38,-2.85 -0.39,0.9 -0.64,2.1 -0.51,3.01 0.12,0.84 1.11,1.95 1.67,2.83 -0.02,0.08 -0.03,0.16 -0.04,0.25 -0.18,1.16 -0.26,2.34 -0.21,3.53 -0.17,-0.87 -0.23,-2.04 -0.5,-2.78 -0.34,-0.9 -1.33,-2.01 -2.05,-2.59 -0.2,1 -0.18,2.28 0.15,3.18 0.33,0.86 1.66,1.8 2.42,2.57 0.01,0.23 0.03,0.46 0.05,0.69 0.08,0.68 0.2,1.36 0.38,2.03 -0.26,-0.55 -0.54,-1.11 -0.84,-1.49 -0.62,-0.77 -1.95,-1.54 -2.84,-1.88 0.13,1.04 0.56,2.3 1.17,3.07 0.55,0.68 1.95,1.15 2.95,1.62 0,0.01 0,0.02 0.01,0.03 0.07,0.19 0.15,0.36 0.23,0.54 0.08,0.18 0.16,0.35 0.25,0.52 0.27,0.54 0.57,1.07 0.91,1.57 -0.46,-0.5 -0.94,-1.02 -1.39,-1.33 -0.83,-0.58 -2.38,-0.95 -3.36,-1.02 0.44,0.99 1.23,2.1 2.07,2.69 0.75,0.52 2.33,0.55 3.45,0.73 0.32,0.4 0.65,0.78 1.01,1.14 0.32,0.34 0.67,0.65 1.03,0.96 -0.62,-0.34 -1.26,-0.7 -1.8,-0.86 -0.99,-0.28 -2.57,-0.12 -3.52,0.12 0.74,0.8 1.85,1.6 2.83,1.88 0.86,0.24 2.31,-0.21 3.43,-0.41 0.54,0.39 1.1,0.75 1.67,1.08 -0.11,-0.02 -0.22,-0.04 -0.32,-0.05 -0.92,-0.08 -2.29,0.32 -3.09,0.7 0.78,0.58 1.9,1.1 2.82,1.18 0.71,0.07 1.75,-0.43 2.64,-0.8 0.74,0.33 1.48,0.62 2.23,0.89 0.72,0.27 1.44,0.52 2.14,0.78 0.35,0.14 0.7,0.28 1.02,0.43 0.09,0.04 0.17,0.08 0.24,0.12 0.08,0.04 0.17,0.09 0.25,0.13 0.15,0.09 0.31,0.19 0.46,0.28 0.61,0.4 1.16,0.87 1.61,1.42 0.03,0.04 0.07,0.08 0.1,0.13l0.18 -1.12c-0.44,-0.43 -0.92,-0.81 -1.44,-1.14z"/>
   </g>
   <path fill="#365E5A" d="M35.9 126.23l-0.01 0c1.18,-1.36 1.91,-3.26 1.91,-5.37 0,-4.11 -2.77,-7.44 -6.17,-7.44 -3.4,0 -6.17,3.33 -6.17,7.44 0,2.14 0.76,4.07 1.96,5.43 0.48,0.61 3.51,4.58 3.51,6.31 0,0 0,0 0,0 -0.03,0 -0.05,0.01 -0.07,0.01 -0.02,0.01 -0.04,0.01 -0.06,0.02 -0.15,0.04 -0.18,0.14 -0.19,0.16 -0.06,0.2 0.17,0.27 0.24,0.59 0.08,0.31 -0.21,0.35 -0.21,0.67 0,0.32 0.22,0.32 0.22,0.64 0,0.32 -0.22,0.32 -0.22,0.64 0,0.32 0.22,0.32 0.22,0.64 0,0.33 -0.22,0.33 -0.22,0.65 0,0.32 0.29,0.35 0.21,0.67 -0.07,0.31 -0.3,0.39 -0.24,0.58 0.01,0.03 0.04,0.13 0.19,0.17 0.07,0.02 0.15,0.03 0.25,0.04 0,0 0.01,0 0.01,0.01 0.03,0 0.06,0 0.09,0 0.02,0.01 0.03,0.01 0.05,0.01 0.02,0 0.04,0 0.06,0 0.03,0 0.06,0.01 0.09,0.01 0.01,0 0.02,0 0.03,0 0.08,0 0.17,0 0.26,0 0.34,0 0.64,-0.02 0.82,-0.07 0.04,0 0.14,-0.03 0.18,-0.12 0.1,-0.24 -0.22,-0.36 -0.22,-0.66 0,-0.32 0.22,-0.32 0.22,-0.64 0,-0.32 -0.22,-0.32 -0.22,-0.64 0,-0.32 0.22,-0.32 0.22,-0.64l0 -0.01c0,-0.32 -0.22,-0.32 -0.22,-0.64 0,-0.32 0.22,-0.32 0.22,-0.64 0,-0.32 -0.22,-0.32 -0.22,-0.64 0,-0.31 0.32,-0.42 0.22,-0.66 -0.04,-0.09 -0.14,-0.12 -0.18,-0.13 -0.03,-0.01 -0.07,-0.01 -0.11,-0.02 0,0 0,0 0,0 0,-1.88 3.55,-6.37 3.55,-6.37zm-7.69 -0.02l-0.04 0c-0.05,-0.04 -0.09,-0.08 -0.13,-0.13l0 -0.23 1.04 0 0 1.04 -0.09 0c-0.26,-0.18 -0.51,-0.38 -0.74,-0.6l-0.04 -0.08zm7.06 -9.03l0 1.04 -1.04 0 0 -1.04 1.04 0zm-1.04 -1.24l1.04 0 0 1.04 -1.04 0 0 -1.04zm1.37 9.71l-0.13 0 0 -1.04 0.81 0c-0.2,0.37 -0.43,0.72 -0.68,1.04zm0.9 -4.95l-1.03 0 0 -1.04 1.03 0 0 1.04zm0 1.23l-1.03 0 0 -1.04 1.03 0 0 1.04zm0 -2.47l-1.03 0 0 -1.04 1.03 0 0 1.04zm-1.03 2.67l1.03 0 0 1.04 -1.03 0 0 -1.04zm0 2.28l0 -1.04 1.03 0 0 0.77c-0.04,0.09 -0.08,0.18 -0.12,0.27l-0.91 0zm1.24 -1.04l0.09 0c-0.03,0.09 -0.06,0.18 -0.09,0.27l0 -0.27zm0 -0.2l0 -1.04 0.38 0c-0.06,0.36 -0.13,0.71 -0.23,1.04l-0.15 0zm0 -1.24l0 -1.04 0.47 0c0,0.36 -0.02,0.71 -0.07,1.04l-0.4 0zm0 -1.23l0 -1.04 0.39 0c0.05,0.34 0.07,0.68 0.08,1.04l-0.47 0zm0 -1.24l0 -1.04 0.11 0c0.1,0.33 0.19,0.68 0.25,1.04l-0.36 0zm0 -1.24l0 -0.15c0.01,0.05 0.03,0.1 0.05,0.15l-0.05 0zm-0.21 0l-1.03 0 0 -1.04 0.85 0c0.06,0.13 0.13,0.26 0.18,0.39l0 0.65zm-1.03 -1.24l0 -1.04 0.03 0c0.27,0.32 0.5,0.67 0.71,1.04l-0.74 0zm-0.2 1.44l0 1.04 -1.04 0 0 -1.04 1.04 0zm0 1.24l0 1.04 -1.04 0 0 -1.04 1.04 0zm0 1.23l0 1.04 -1.04 0 0 -1.04 1.04 0zm0 1.24l0 1.04 -1.04 0 0 -1.04 1.04 0zm0 1.24l0 1.04 -1.04 0 0 -1.04 1.04 0zm0 1.24l0 1.04 -1.04 0 0 -1.04 1.04 0zm0 1.24l0 0.19c-0.31,0.32 -0.64,0.61 -0.99,0.85l-0.05 0 0 -1.04 1.04 0zm-2.28 -2.68l0 -1.04 1.04 0 0 1.04 -1.04 0zm1.04 0.2l0 1.04 -1.04 0 0 -1.04 1.04 0zm0 -1.44l-1.04 0 0 -1.04 1.04 0 0 1.04zm0 -3.71l-1.04 0 0 -1.04 1.04 0 0 1.04zm0 0.2l0 1.04 -1.04 0 0 -1.04 1.04 0zm0 -1.44l-1.04 0 0 -1.04 1.04 0 0 1.04zm-1.04 -1.24l0 -1.04 1.04 0 0 1.04 -1.04 0zm0 3.92l1.04 0 0 1.04 -1.04 0 0 -1.04zm1.04 4.95l0 1.04 -1.04 0 0 -1.04 1.04 0zm-1.04 1.24l1.04 0 0 1.04 -1.04 0 0 -1.04zm0 -11.35l0 -0.3c0.25,0.08 0.5,0.18 0.74,0.3l-0.74 0zm-1.24 11.15l0 -1.04 1.04 0 0 1.04 -1.04 0zm1.04 0.2l0 1.04 -1.04 0 0 -1.04 1.04 0zm0 -6.39l-1.04 0 0 -1.04 1.04 0 0 1.04zm0 3.91l0 1.04 -1.04 0 0 -1.04 1.04 0zm0 -3.71l0 1.04 -1.04 0 0 -1.04 1.04 0zm-1.04 1.23l1.04 0 0 1.04 -1.04 0 0 -1.04zm1.04 1.24l0 1.04 -1.04 0 0 -1.04 1.04 0zm-1.04 -3.91l0 -1.04 1.04 0 0 1.04 -1.04 0zm1.04 -2.28l0 1.04 -1.04 0 0 -1.04 1.04 0zm-1.04 -1.24l1.04 0 0 1.04 -1.04 0 0 -1.04zm1.04 -0.2l-1.04 0 0 -0.5c0.36,0.01 0.7,0.06 1.04,0.15l0 0.35zm-2.28 11.35l1.04 0 0 1.04 -1.04 0 0 -1.04zm0 -1.24l1.04 0 0 1.04 -1.04 0 0 -1.04zm0 -0.2l0 -1.04 1.04 0 0 1.04 -1.04 0zm0 -8.47l1.04 0 0 1.04 -1.04 0 0 -1.04zm0 -1.24l1.04 0 0 1.04 -1.04 0 0 -1.04zm1.04 2.48l0 1.04 -1.04 0 0 -1.04 1.04 0zm0 1.24l0 1.04 -1.04 0 0 -1.04 1.04 0zm0 2.47l0 1.04 -1.04 0 0 -1.04 1.04 0zm-1.04 -0.19l0 -1.04 1.04 0 0 1.04 -1.04 0zm1.04 1.43l0 1.04 -1.04 0 0 -1.04 1.04 0zm0 -7.63l-1.04 0 0 -0.36c0.34,-0.09 0.69,-0.13 1.04,-0.14l0 0.5zm-2.47 5.16l0 1.04 -1.04 0 0 -1.04 1.04 0zm-1.04 -1.24l1.04 0 0 1.04 -1.04 0 0 -1.04zm0 2.47l1.04 0 0 1.04 -1.04 0 0 -1.04zm1.04 1.24l0 1.04 -1.04 0 0 -1.04 1.04 0zm0 1.24l0 1.04 -1.04 0 0 -1.04 1.04 0zm-1.04 1.24l1.04 0 0 1.04 -1.04 0 0 -1.04zm1.23 -8.67l1.04 0 0 1.04 -1.04 0 0 -1.04zm0 -0.2l0 -1.04 1.04 0 0 1.04 -1.04 0zm1.04 8.87l0 1.04 -1.04 0 0 -1.04 1.04 0zm-1.04 -0.2l0 -1.04 1.04 0 0 1.04 -1.04 0zm0 -1.24l0 -1.04 1.04 0 0 1.04 -1.04 0zm1.04 -1.24l-1.04 0 0 -1.04 1.04 0 0 1.04zm-1.04 -1.23l0 -1.04 1.04 0 0 1.04 -1.04 0zm1.04 -3.52l0 1.04 -1.04 0 0 -1.04 1.04 0zm-1.04 8.67l1.04 0 0 1.04 -1.04 0 0 -1.04zm0 -6.39l0 -1.04 1.04 0 0 1.04 -1.04 0zm1.04 -4.96l-0.78 0c0.26,-0.12 0.52,-0.23 0.78,-0.31l0 0.31zm-1.23 3.72l-1.04 0 0 -1.04 1.04 0 0 1.04zm-1.25 7.63l0.01 0 0 0.01c-0.01,0 -0.01,-0.01 -0.01,-0.01zm1.25 -8.87l-1.04 0 0 -1.04 1.04 0 0 1.04zm-1.24 -1.04l0 1.04 -0.79 0c0.21,-0.37 0.45,-0.72 0.71,-1.04l0.08 0zm0 1.24l0 1.04 -1.04 0 0 -0.74c0.05,-0.1 0.09,-0.2 0.14,-0.3l0.9 0zm-1.04 4.75l0 -1.04 1.04 0 0 1.04 -1.04 0zm1.04 0.2l0 1.04 -1.04 0 0 -1.04 1.04 0zm-1.04 -1.43l0 -1.04 1.04 0 0 1.04 -1.04 0zm1.04 -1.24l-1.04 0 0 -1.04 1.04 0 0 1.04zm-1.24 -1.04l0 1.04 -0.4 0c0.06,-0.36 0.14,-0.71 0.24,-1.04l0.16 0zm-0.09 -0.2c0.02,-0.09 0.06,-0.17 0.09,-0.26l0 0.26 -0.09 0zm0.09 1.44l0 1.04 -0.52 0c0.01,-0.36 0.04,-0.7 0.08,-1.04l0.44 0zm0 1.23l0 1.04 -0.45 0c-0.04,-0.33 -0.07,-0.68 -0.07,-1.04l0.52 0zm0 1.24l0 1.04 -0.2 0c-0.09,-0.33 -0.17,-0.68 -0.22,-1.04l0.42 0zm0 1.24l0 0.38c-0.05,-0.12 -0.09,-0.25 -0.13,-0.38l0.13 0zm0.2 0l1.04 0 0 1.04 -0.96 0c-0.03,-0.06 -0.05,-0.12 -0.08,-0.18l0 -0.86zm1.04 1.24l0 1.04 -0.18 0c-0.25,-0.32 -0.48,-0.67 -0.67,-1.04l0.85 0zm2.47 2.48l0 0.43c-0.35,-0.11 -0.68,-0.25 -1,-0.43l1 0zm0.2 0l1.04 0 0 0.62c-0.35,0 -0.7,-0.05 -1.04,-0.14l0 -0.48zm1.24 0.62l0 -0.62 1.04 0 0 0.47c-0.34,0.09 -0.68,0.14 -1.04,0.15zm1.24 -0.2l0 -0.42 0.96 0c-0.3,0.17 -0.63,0.31 -0.96,0.42zm2.28 -11.84l0 0.07 -1.04 0 0 -0.95c0.37,0.25 0.72,0.54 1.04,0.88zm-6.19 -0.9l0 0.97 -1.04 0 0 -0.11c0.31,-0.33 0.66,-0.62 1.04,-0.86zm2.56 17.78c-0.03,0 -0.05,0 -0.08,0 -0.39,-1.5 -1.55,-3.45 -2.56,-4.97 0.8,0.46 1.69,0.72 2.63,0.72 0.95,0 1.85,-0.27 2.66,-0.73 -1.01,1.51 -2.18,3.47 -2.57,4.98 -0.03,0 -0.06,0 -0.08,0z"/>
   <circle fill="white" cx="7.42" cy="86.74" r="5.47"/>
   <g>
    <path fill="#4D897C" d="M6.47 84.79l0 0c0.54,-0.29 0.98,-0.7 1.32,-1.2 0.36,-0.53 0.56,-1.13 0.61,-1.74 -0.31,-0.07 -0.64,-0.1 -0.98,-0.1 -2.05,0 -3.81,1.24 -4.58,3 1.12,0.64 2.49,0.66 3.63,0.04z"/>
    <path fill="#4D897C" d="M8.48 88.89c-0.54,0.29 -0.98,0.69 -1.32,1.2 -0.32,0.48 -0.52,1.01 -0.59,1.56 0.27,0.05 0.56,0.07 0.85,0.07 2,0 3.73,-1.18 4.52,-2.88 -1.09,-0.55 -2.37,-0.54 -3.46,0.05z"/>
    <path fill="#4D897C" d="M9.17 82.07c-0.09,0.68 -0.33,1.36 -0.73,1.95 -0.41,0.61 -0.96,1.11 -1.59,1.45 0,0 0,0 -0.01,0 -1.34,0.73 -2.92,0.73 -4.25,0.03 -0.1,0.4 -0.16,0.81 -0.16,1.24 0,2.18 1.41,4.04 3.38,4.71 0.1,-0.63 0.33,-1.24 0.7,-1.8 0.41,-0.6 0.96,-1.1 1.6,-1.45 1.29,-0.7 2.81,-0.72 4.1,-0.1 0.13,-0.43 0.2,-0.89 0.2,-1.36 0,-2.14 -1.35,-3.97 -3.24,-4.67z"/>
   </g>
   <path fill="#365E5A" d="M115.44 43.27l-0.01 0c1.17,-1.35 1.91,-3.26 1.91,-5.37 0,-4.1 -2.77,-7.44 -6.17,-7.44 -3.4,0 -6.17,3.34 -6.17,7.44 0,2.14 0.75,4.08 1.96,5.43 0.48,0.62 3.5,4.58 3.5,6.31 0,0 0,0 0,0 -0.02,0.01 -0.04,0.01 -0.06,0.01 -0.02,0.01 -0.04,0.01 -0.06,0.02 -0.16,0.04 -0.18,0.14 -0.19,0.17 -0.07,0.19 0.16,0.27 0.24,0.58 0.08,0.32 -0.21,0.35 -0.21,0.67 0,0.32 0.21,0.32 0.21,0.65 0,0.32 -0.21,0.32 -0.21,0.64 0,0.32 0.21,0.32 0.21,0.64 0,0.32 -0.21,0.32 -0.21,0.64 0,0.32 0.29,0.36 0.21,0.67 -0.08,0.32 -0.31,0.39 -0.24,0.59 0.01,0.02 0.03,0.12 0.19,0.16 0.06,0.02 0.15,0.04 0.24,0.05 0.01,0 0.01,0 0.02,0 0.03,0 0.06,0 0.09,0.01 0.01,0 0.03,0 0.05,0 0.02,0 0.04,0 0.06,0.01 0.03,0 0.06,0 0.08,0 0.02,0 0.02,0 0.03,0 0.09,0 0.17,0.01 0.26,0.01 0.35,0 0.65,-0.03 0.83,-0.07 0.03,-0.01 0.14,-0.04 0.18,-0.13 0.1,-0.24 -0.22,-0.35 -0.22,-0.66 0,-0.32 0.21,-0.32 0.21,-0.64 0,-0.32 -0.21,-0.32 -0.21,-0.64 0,-0.32 0.21,-0.32 0.21,-0.64l0 -0.01c0,-0.32 -0.21,-0.32 -0.21,-0.64 0,-0.32 0.21,-0.32 0.21,-0.64 0,-0.32 -0.21,-0.32 -0.21,-0.64 0,-0.3 0.32,-0.42 0.22,-0.66 -0.04,-0.09 -0.15,-0.12 -0.18,-0.13 -0.04,0 -0.07,-0.01 -0.11,-0.02 0,0 0,0 0,0 0,-1.87 3.55,-6.37 3.55,-6.37zm-7.69 -0.01l-0.05 0c-0.04,-0.05 -0.08,-0.09 -0.13,-0.14l0 -0.23 1.04 0 0 1.04 -0.09 0c-0.26,-0.17 -0.5,-0.37 -0.73,-0.59l-0.04 -0.08zm7.05 -9.04l0 1.04 -1.04 0 0 -1.04 1.04 0zm-1.04 -1.23l1.04 0 0 1.03 -1.04 0 0 -1.03zm1.38 9.7l-0.14 0 0 -1.04 0.81 0c-0.19,0.38 -0.42,0.72 -0.67,1.04zm0.9 -4.95l-1.04 0 0 -1.04 1.04 0 0 1.04zm0 1.24l-1.04 0 0 -1.04 1.04 0 0 1.04zm0 -2.48l-1.04 0 0 -1.04 1.04 0 0 1.04zm-1.04 2.68l1.04 0 0 1.04 -1.04 0 0 -1.04zm0 2.27l0 -1.04 1.04 0 0 0.78c-0.04,0.09 -0.08,0.18 -0.12,0.26l-0.92 0zm1.24 -1.04l0.09 0c-0.03,0.1 -0.06,0.19 -0.09,0.28l0 -0.28zm0 -0.19l0 -1.04 0.38 0c-0.05,0.35 -0.13,0.7 -0.23,1.04l-0.15 0zm0 -1.24l0 -1.04 0.48 0c0,0.35 -0.03,0.7 -0.07,1.04l-0.41 0zm0 -1.24l0 -1.04 0.39 0c0.05,0.34 0.08,0.69 0.09,1.04l-0.48 0zm0 -1.24l0 -1.04 0.12 0c0.1,0.34 0.18,0.68 0.24,1.04l-0.36 0zm0 -1.24l0 -0.15c0.02,0.05 0.04,0.1 0.05,0.15l-0.05 0zm-0.2 0l-1.04 0 0 -1.04 0.86 0c0.06,0.13 0.12,0.26 0.18,0.39l0 0.65zm-1.04 -1.24l0 -1.03 0.04 0c0.26,0.31 0.5,0.66 0.71,1.03l-0.75 0zm-0.2 1.44l0 1.04 -1.04 0 0 -1.04 1.04 0zm0 1.24l0 1.04 -1.04 0 0 -1.04 1.04 0zm0 1.24l0 1.04 -1.04 0 0 -1.04 1.04 0zm0 1.24l0 1.04 -1.04 0 0 -1.04 1.04 0zm0 1.23l0 1.04 -1.04 0 0 -1.04 1.04 0zm0 1.24l0 1.04 -1.04 0 0 -1.04 1.04 0zm0 1.24l0 0.19c-0.3,0.33 -0.63,0.61 -0.99,0.85l-0.05 0 0 -1.04 1.04 0zm-2.27 -2.67l0 -1.04 1.04 0 0 1.04 -1.04 0zm1.04 0.19l0 1.04 -1.04 0 0 -1.04 1.04 0zm0 -1.43l-1.04 0 0 -1.04 1.04 0 0 1.04zm0 -3.72l-1.04 0 0 -1.04 1.04 0 0 1.04zm0 0.2l0 1.04 -1.04 0 0 -1.04 1.04 0zm0 -1.44l-1.04 0 0 -1.03 1.04 0 0 1.03zm-1.04 -1.23l0 -1.04 1.04 0 0 1.04 -1.04 0zm0 3.91l1.04 0 0 1.04 -1.04 0 0 -1.04zm1.04 4.95l0 1.04 -1.04 0 0 -1.04 1.04 0zm-1.04 1.24l1.04 0 0 1.04 -1.04 0 0 -1.04zm0 -11.34l0 -0.3c0.25,0.08 0.5,0.18 0.74,0.3l-0.74 0zm-1.24 11.14l0 -1.04 1.04 0 0 1.04 -1.04 0zm1.04 0.2l0 1.04 -1.04 0 0 -1.04 1.04 0zm0 -6.39l-1.04 0 0 -1.04 1.04 0 0 1.04zm0 3.91l0 1.04 -1.04 0 0 -1.04 1.04 0zm0 -3.71l0 1.04 -1.04 0 0 -1.04 1.04 0zm-1.04 1.24l1.04 0 0 1.04 -1.04 0 0 -1.04zm1.04 1.24l0 1.04 -1.04 0 0 -1.04 1.04 0zm-1.04 -3.92l0 -1.04 1.04 0 0 1.04 -1.04 0zm1.04 -2.27l0 1.03 -1.04 0 0 -1.03 1.04 0zm-1.04 -1.24l1.04 0 0 1.04 -1.04 0 0 -1.04zm1.04 -0.2l-1.04 0 0 -0.51c0.35,0.01 0.7,0.06 1.04,0.15l0 0.36zm-2.28 11.34l1.04 0 0 1.04 -1.04 0 0 -1.04zm0 -1.24l1.04 0 0 1.04 -1.04 0 0 -1.04zm0 -0.2l0 -1.04 1.04 0 0 1.04 -1.04 0zm0 -8.46l1.04 0 0 1.03 -1.04 0 0 -1.03zm0 -1.24l1.04 0 0 1.04 -1.04 0 0 -1.04zm1.04 2.47l0 1.04 -1.04 0 0 -1.04 1.04 0zm0 1.24l0 1.04 -1.04 0 0 -1.04 1.04 0zm0 2.48l0 1.04 -1.04 0 0 -1.04 1.04 0zm-1.04 -0.2l0 -1.04 1.04 0 0 1.04 -1.04 0zm1.04 1.44l0 1.04 -1.04 0 0 -1.04 1.04 0zm0 -7.63l-1.04 0 0 -0.37c0.34,-0.09 0.68,-0.13 1.04,-0.14l0 0.51zm-2.48 5.15l0 1.04 -1.04 0 0 -1.04 1.04 0zm-1.04 -1.24l1.04 0 0 1.04 -1.04 0 0 -1.04zm0 2.48l1.04 0 0 1.04 -1.04 0 0 -1.04zm1.04 1.24l0 1.04 -1.04 0 0 -1.04 1.04 0zm0 1.23l0 1.04 -1.04 0 0 -1.04 1.04 0zm-1.04 1.24l1.04 0 0 1.04 -1.04 0 0 -1.04zm1.24 -8.66l1.04 0 0 1.03 -1.04 0 0 -1.03zm0 -0.2l0 -1.04 1.04 0 0 1.04 -1.04 0zm1.04 8.86l0 1.04 -1.04 0 0 -1.04 1.04 0zm-1.04 -0.2l0 -1.04 1.04 0 0 1.04 -1.04 0zm0 -1.23l0 -1.04 1.04 0 0 1.04 -1.04 0zm1.04 -1.24l-1.04 0 0 -1.04 1.04 0 0 1.04zm-1.04 -1.24l0 -1.04 1.04 0 0 1.04 -1.04 0zm1.04 -3.52l0 1.04 -1.04 0 0 -1.04 1.04 0zm-1.04 8.67l1.04 0 0 1.04 -1.04 0 0 -1.04zm0 -6.39l0 -1.04 1.04 0 0 1.04 -1.04 0zm1.04 -4.95l-0.78 0c0.25,-0.13 0.51,-0.23 0.78,-0.31l0 0.31zm-1.24 3.71l-1.04 0 0 -1.04 1.04 0 0 1.04zm-1.25 7.63l0.01 0 0 0.01c0,0 0,0 -0.01,-0.01zm1.25 -8.87l-1.04 0 0 -1.03 1.04 0 0 1.03zm-1.24 -1.03l0 1.03 -0.78 0c0.21,-0.37 0.44,-0.72 0.71,-1.03l0.07 0zm0 1.23l0 1.04 -1.03 0 0 -0.74c0.04,-0.1 0.09,-0.2 0.14,-0.3l0.89 0zm-1.03 4.76l0 -1.04 1.03 0 0 1.04 -1.03 0zm1.03 0.2l0 1.04 -1.03 0 0 -1.04 1.03 0zm-1.03 -1.44l0 -1.04 1.03 0 0 1.04 -1.03 0zm1.03 -1.24l-1.03 0 0 -1.04 1.03 0 0 1.04zm-1.23 -1.04l0 1.04 -0.41 0c0.06,-0.36 0.14,-0.7 0.25,-1.04l0.16 0zm-0.1 -0.2c0.03,-0.09 0.06,-0.17 0.1,-0.26l0 0.26 -0.1 0zm0.1 1.44l0 1.04 -0.52 0c0.01,-0.35 0.03,-0.7 0.08,-1.04l0.44 0zm0 1.24l0 1.04 -0.45 0c-0.05,-0.34 -0.07,-0.69 -0.07,-1.04l0.52 0zm0 1.24l0 1.04 -0.2 0c-0.1,-0.34 -0.17,-0.69 -0.23,-1.04l0.43 0zm0 1.23l0 0.39c-0.05,-0.13 -0.1,-0.26 -0.14,-0.39l0.14 0zm0.2 0l1.03 0 0 1.04 -0.95 0c-0.03,-0.06 -0.06,-0.12 -0.09,-0.18l0.01 -0.86zm1.03 1.24l0 1.04 -0.17 0c-0.25,-0.32 -0.48,-0.66 -0.68,-1.04l0.85 0zm2.48 2.48l0 0.43c-0.35,-0.1 -0.68,-0.25 -1,-0.43l1 0zm0.2 0l1.04 0 0 0.63c-0.36,-0.01 -0.7,-0.06 -1.04,-0.14l0 -0.49zm1.24 0.63l0 -0.63 1.04 0 0 0.48c-0.34,0.09 -0.69,0.14 -1.04,0.15zm1.24 -0.21l0 -0.42 0.96 0c-0.31,0.17 -0.63,0.32 -0.96,0.42zm2.27 -11.83l0 0.07 -1.04 0 0 -0.95c0.38,0.24 0.73,0.54 1.04,0.88zm-6.19 -0.91l0 0.98 -1.04 0 0 -0.12c0.32,-0.33 0.67,-0.62 1.04,-0.86zm2.56 17.79c-0.02,0 -0.05,0 -0.07,0 -0.39,-1.51 -1.55,-3.46 -2.57,-4.97 0.8,0.45 1.7,0.71 2.64,0.71 0.95,0 1.85,-0.26 2.66,-0.73 -1.02,1.52 -2.18,3.47 -2.58,4.99 -0.02,0 -0.05,0 -0.08,0z"/>
   <g>
    <path fill="#365E5A" d="M123.67 145.71c-1.6,1.58 -3.58,2.11 -5.88,1.57 -0.2,-0.04 -0.6,-0.18 -1.16,-0.38 -0.21,-0.07 -0.39,-0.14 -0.48,-0.17 -1.98,-0.63 -4.16,-0.03 -5.55,1.53 -0.76,0.85 -1.2,1.91 -1.3,3.02 1.62,2.39 4.36,3.96 7.46,3.96 4.98,0 9.02,-4.04 9.02,-9.02 0,-1.06 -0.18,-2.07 -0.52,-3.02 -0.29,0.85 -0.79,1.72 -1.59,2.51z"/>
    <path fill="#4D897C" d="M116.58 145.39c0.1,0.03 0.29,0.1 0.52,0.18 0.31,0.11 0.87,0.31 1.01,0.34 1.85,0.43 3.3,0.05 4.56,-1.2 1.15,-1.13 1.5,-2.47 1.57,-3.54 -1.62,-2.4 -4.37,-3.97 -7.48,-3.97 -4.98,0 -9.02,4.04 -9.02,9.02 0,1.1 0.2,2.16 0.56,3.14 0.29,-0.74 0.7,-1.43 1.25,-2.04 1.75,-1.97 4.51,-2.73 7.03,-1.93z"/>
   </g>
   <g>
    <path fill="#4D897C" d="M77.4 56.51c-0.15,-0.26 -0.42,-0.14 -0.82,-0.4 -0.38,-0.26 -0.18,-0.54 -0.51,-0.88 -0.33,-0.33 -0.51,-0.15 -0.85,-0.48 -0.33,-0.33 -0.14,-0.51 -0.48,-0.84 -0.33,-0.34 -0.51,-0.15 -0.84,-0.49 -0.34,-0.33 -0.15,-0.51 -0.49,-0.84 -0.33,-0.33 -0.61,-0.13 -0.87,-0.51 -0.26,-0.4 -0.14,-0.67 -0.4,-0.82 -0.04,-0.02 -0.16,-0.1 -0.33,-0.01 -0.04,0.02 -0.09,0.04 -0.13,0.07l-2.01 -2.01c-1.63,-1.62 -3.21,-7.83 -3.56,-9.3 -0.01,-0.16 -0.02,-0.32 -0.03,-0.48 -0.21,-2.17 -1.24,-4.29 -2.92,-5.96 -1.87,-1.88 -4.32,-2.95 -6.72,-2.95 -1.87,0 -3.57,0.67 -4.78,1.88 -2.87,2.88 -2.4,8.04 1.07,11.5 1.78,1.79 4.09,2.84 6.38,2.94 1.29,0.31 7.7,1.91 9.36,3.56l2.01 2.02c-0.02,0.04 -0.05,0.08 -0.07,0.12 -0.02,0.04 -0.09,0.16 -0.03,0.28 0.17,0.34 0.56,0.18 0.88,0.5 0.33,0.33 0.15,0.51 0.48,0.84 0.33,0.33 0.51,0.15 0.84,0.48 0.34,0.34 0.15,0.52 0.49,0.85l0 0c0.33,0.34 0.51,0.15 0.85,0.49 0.33,0.33 0.14,0.51 0.48,0.84 0.33,0.33 0.51,0.15 0.84,0.48 0.32,0.32 0.16,0.71 0.5,0.87 0.12,0.07 0.24,0 0.28,-0.02 0.19,-0.1 0.47,-0.33 0.76,-0.62 0.3,-0.3 0.53,-0.58 0.63,-0.78 0.09,-0.17 0,-0.29 -0.01,-0.33zm-15.52 -15.93l-0.84 -0.84 0.84 -0.84 0.83 0.84 -0.83 0.84zm0.99 -0.68l0.84 0.84 -0.84 0.84 -0.83 -0.84 0.83 -0.84zm-7.15 -1.16l-0.83 0.84 -0.84 -0.84 0.84 -0.83 0.83 0.83zm-0.67 -1l0.84 -0.83 0.83 0.83 -0.83 0.84 -0.84 -0.84zm0.84 1.16l0.83 0.84 -0.83 0.84 -0.84 -0.84 0.84 -0.84zm0.16 -0.16l0.83 -0.83 0.84 0.83 -0.84 0.84 -0.83 -0.84zm3.67 0l-0.84 0.84 -0.84 -0.84 0.84 -0.83 0.84 0.83zm-0.68 -1l0.84 -0.83 0.84 0.83 -0.84 0.84 -0.84 -0.84zm-1.16 0.84l-0.84 -0.84 0.84 -0.83 0.84 0.83 -0.84 0.84zm0 0.32l0.84 0.84 -0.84 0.84 -0.84 -0.84 0.84 -0.84zm1 1l0.84 0.84 -0.84 0.84 -0.84 -0.84 0.84 -0.84zm0.16 -0.16l0.84 -0.84 0.84 0.84 -0.84 0.84 -0.84 -0.84zm1 -1l0.84 -0.83 0.83 0.83 -0.83 0.84 -0.84 -0.84zm1 -1l0.84 -0.83 0.83 0.83 -0.83 0.84 -0.84 -0.84zm-0.16 -0.16l-0.84 -0.83 0.84 -0.84 0.83 0.84 -0.83 0.83zm-1 -1l-0.84 -0.83 0.84 -0.84 0.84 0.84 -0.84 0.83zm-0.16 0.17l-0.84 0.83 -0.84 -0.83 0.84 -0.84 0.84 0.84zm-1.84 -0.17l-0.84 -0.83 0.84 -0.84 0.84 0.84 -0.84 0.83zm-0.16 0.17l-0.84 0.83 -0.83 -0.83 0.83 -0.84 0.84 0.84zm-1.83 -0.17l-0.84 -0.83 0.84 -0.84 0.83 0.84 -0.83 0.83zm-0.17 0.17l-0.83 0.83 -0.84 -0.83 0.84 -0.84 0.83 0.84zm-1.83 -0.17l-0.84 -0.83 0.84 -0.84 0.84 0.84 -0.84 0.83zm0.84 1.16l-0.84 0.84 -0.84 -0.84 0.84 -0.83 0.84 0.83zm0 2l-0.84 0.84 -0.84 -0.84 0.84 -0.84 0.84 0.84zm0.16 0.16l0.83 0.84 -0.83 0.84 -0.84 -0.84 0.84 -0.84zm1 1l0.83 0.84 -0.83 0.83 -0.84 -0.83 0.84 -0.84zm0.16 -0.16l0.83 -0.84 0.84 0.84 -0.84 0.84 -0.83 -0.84zm1.83 0.16l0.84 0.84 -0.84 0.83 -0.84 -0.83 0.84 -0.84zm1 1l0.84 0.84 -0.84 0.83 -0.84 -0.83 0.84 -0.84zm0.16 -0.16l0.84 -0.84 0.84 0.84 -0.84 0.83 -0.84 -0.83zm1 -1l0.84 -0.84 0.83 0.84 -0.83 0.84 -0.84 -0.84zm1.84 0.16l0.83 0.84 -0.83 0.83 -0.84 -0.83 0.84 -0.84zm0.99 1l0.84 0.84 -0.84 0.83 -0.83 -0.83 0.83 -0.84zm0.16 -0.16l0.84 -0.84 0.84 0.84 -0.84 0.83 -0.84 -0.83zm0.84 -1.16l-0.84 -0.84 0.84 -0.84 0.84 0.84 -0.84 0.84zm-1 -1l-0.83 -0.84 0.83 -0.83 0.84 0.83 -0.84 0.84zm-0.83 -2.83l0.83 -0.84 0.84 0.84 -0.84 0.83 -0.83 -0.83zm-0.16 -0.17l-0.84 -0.83 0.84 -0.84 0.83 0.84 -0.83 0.83zm-1 -0.99l-0.84 -0.84 0.84 -0.84 0.83 0.84 -0.83 0.84zm-1 -1l-0.84 -0.84 0.84 -0.84 0.84 0.84 -0.84 0.84zm-0.16 0.16l-0.84 0.84 -0.84 -0.84 0.84 -0.84 0.84 0.84zm-1.84 -0.16l-0.84 -0.84 0.84 -0.84 0.84 0.84 -0.84 0.84zm-0.16 0.16l-0.84 0.84 -0.83 -0.84 0.83 -0.84 0.84 0.84zm-1.83 -0.16l-0.84 -0.84 0.84 -0.84 0.83 0.84 -0.83 0.84zm-0.17 0.16l-0.83 0.84 -0.84 -0.84 0.84 -0.84 0.83 0.84zm-1.83 -0.16l-0.84 -0.84 0.84 -0.84 0.84 0.84 -0.84 0.84zm-0.16 0.16l-0.84 0.84 -0.84 -0.84 0.84 -0.84 0.84 0.84zm0 2l-0.84 0.83 -0.84 -0.83 0.84 -0.84 0.84 0.84zm-1 0.99l-0.84 0.84 -0.84 -0.84 0.84 -0.83 0.84 0.83zm0.16 0.17l0.84 0.83 -0.84 0.84 -0.84 -0.84 0.84 -0.83zm0.84 2.83l-0.84 0.84 -0.84 -0.84 0.84 -0.84 0.84 0.84zm0.16 0.16l0.84 0.84 -0.84 0.83 -0.84 -0.83 0.84 -0.84zm1 1l0.83 0.84 -0.83 0.83 -0.84 -0.83 0.84 -0.84zm1 1l0.83 0.83 -0.83 0.84 -0.84 -0.84 0.84 -0.83zm0.16 -0.16l0.83 -0.84 0.84 0.84 -0.84 0.83 -0.83 -0.83zm1.83 0.16l0.84 0.83 -0.84 0.84 -0.84 -0.84 0.84 -0.83zm1 1l0.84 0.83 -0.84 0.84 -0.84 -0.84 0.84 -0.83zm0.16 -0.17l0.84 -0.83 0.84 0.83 -0.84 0.84 -0.84 -0.84zm1 -0.99l0.84 -0.84 0.83 0.84 -0.83 0.83 -0.84 -0.83zm1.84 0.16l0.83 0.83 -0.83 0.84 -0.84 -0.84 0.84 -0.83zm0.99 1l0.54 0.53c-0.29,0.28 -0.61,0.52 -0.96,0.72l-0.41 -0.42 0.83 -0.83zm0.16 -0.17l0.84 -0.83 0.43 0.42c-0.2,0.34 -0.45,0.66 -0.73,0.95l-0.54 -0.54zm1 -0.99l0.84 -0.84 0.02 0.01c-0.12,0.42 -0.27,0.83 -0.48,1.21l-0.38 -0.38zm0.84 -1.16l-0.84 -0.84 0.84 -0.84 0.22 0.22c0.01,0.46 -0.02,0.91 -0.1,1.34l-0.12 0.12zm0.21 -1.79l-0.05 -0.05 0.04 -0.04c0,0.03 0,0.06 0.01,0.09zm-0.04 -0.38l-0.17 0.17 -0.84 -0.84 0.71 -0.71c0.14,0.46 0.24,0.92 0.3,1.38zm-0.38 -1.62l-0.79 0.79 -0.84 -0.84 0.84 -0.83 0.74 0.74c0.02,0.04 0.04,0.09 0.05,0.14zm-0.26 -0.68l-0.37 -0.36 0.13 -0.13c0.08,0.16 0.16,0.32 0.24,0.49zm-0.35 -0.7l-0.18 0.17 -0.84 -0.83 0.36 -0.36c0.25,0.33 0.47,0.67 0.66,1.02zm-0.79 -1.21l-0.39 0.39 -0.83 -0.84 0.43 -0.44c0.29,0.29 0.55,0.59 0.79,0.89zm-0.95 -1.05l-0.43 0.44 -0.84 -0.84 0.37 -0.37c0.31,0.24 0.61,0.5 0.9,0.77zm-2.12 -1.55c0.35,0.19 0.7,0.41 1.03,0.65l-0.34 0.34 -0.84 -0.84 0.15 -0.15zm-0.21 -0.11l-0.1 0.1 -0.27 -0.27c0.12,0.05 0.24,0.11 0.37,0.17zm-0.91 -0.38l0.65 0.64 -0.84 0.84 -0.84 -0.84 0.75 -0.74c0.09,0.03 0.19,0.06 0.28,0.1zm-1.93 -0.45c0.47,0.05 0.94,0.14 1.4,0.27l-0.66 0.66 -0.84 -0.84 0.1 -0.09zm0.58 1.09l-0.84 0.84 -0.83 -0.84 0.83 -0.83 0.84 0.83zm-1.28 -1.13c0.05,0 0.1,0.01 0.16,0.01l0.12 0.12 -0.83 0.84 -0.82 -0.82c0.44,-0.09 0.9,-0.15 1.37,-0.15zm-0.72 1.13l-0.83 0.84 -0.84 -0.84 0.84 -0.83 0.83 0.83zm-1.14 -0.85l-0.69 0.69 -0.28 -0.28c0.3,-0.16 0.63,-0.3 0.97,-0.41zm-1.18 0.53l0.33 0.32 -0.84 0.84 -0.44 -0.44c0.29,-0.28 0.61,-0.52 0.95,-0.72zm-1.11 0.88l0.44 0.44 -0.84 0.84 -0.32 -0.32c0.2,-0.35 0.44,-0.67 0.72,-0.96zm-0.84 1.16l0.28 0.28 -0.66 0.66c0.1,-0.32 0.23,-0.64 0.38,-0.94zm0.44 0.44l0.84 0.84 -0.84 0.83 -0.84 -0.83 0.84 -0.84zm-0.96 1.03l0.8 0.81 -0.84 0.83 -0.09 -0.09c-0.02,-0.54 0.03,-1.05 0.13,-1.55zm-0.09 2.08c-0.01,-0.02 -0.01,-0.04 -0.01,-0.05l0.06 -0.06 0.84 0.83 -0.63 0.63c-0.13,-0.45 -0.22,-0.9 -0.26,-1.35zm0.34 1.6l0.71 -0.72 0.84 0.84 -0.84 0.84 -0.58 -0.58c-0.04,-0.13 -0.09,-0.25 -0.13,-0.38zm0.48 1.19c-0.04,-0.09 -0.08,-0.17 -0.11,-0.26l0.18 0.19 -0.07 0.07zm0.12 0.21l0.11 -0.12 0.84 0.84 -0.31 0.31c-0.24,-0.33 -0.46,-0.68 -0.64,-1.03zm0.77 1.21l0.34 -0.33 0.84 0.84 -0.4 0.4c-0.28,-0.29 -0.54,-0.59 -0.78,-0.91zm0.93 1.07l0.41 -0.4 0.84 0.83 -0.35 0.35c-0.31,-0.24 -0.61,-0.5 -0.9,-0.78zm2.1 1.58c-0.35,-0.2 -0.69,-0.42 -1.02,-0.66l0.33 -0.32 0.83 0.83 -0.14 0.15zm0.21 0.11l0.1 -0.1 0.27 0.28c-0.12,-0.06 -0.25,-0.12 -0.37,-0.18zm0.93 0.42l-0.67 -0.68 0.83 -0.83 0.84 0.83 -0.76 0.76c-0.08,-0.02 -0.16,-0.05 -0.24,-0.08zm1.86 0.46c-0.46,-0.05 -0.92,-0.16 -1.38,-0.3l0.68 -0.68 0.84 0.84 -0.14 0.14zm0.29 0.03l0.01 -0.01 0.01 0.01c-0.01,0 -0.01,0 -0.02,0zm1.76 -0.08c-0.38,0.07 -0.77,0.11 -1.18,0.11 -0.07,0 -0.15,-0.01 -0.22,-0.01l-0.19 -0.19 0.84 -0.84 0.84 0.84 -0.09 0.09zm-0.59 -1.09l0.84 -0.83 0.83 0.83 -0.83 0.84 -0.84 -0.84zm1.84 0.16l0.36 0.37c-0.37,0.2 -0.77,0.35 -1.2,0.47l0.84 -0.84zm-0.71 1.85c1.18,-0.28 2.23,-0.85 3.06,-1.68 0.83,-0.83 1.4,-1.86 1.68,-3.02 0.69,2.58 1.77,5.97 3.11,7.83 -1.86,-1.35 -5.27,-2.44 -7.85,-3.13z"/>
    <path fill="#365E5A" d="M57.59 56.51c0.14,-0.26 0.42,-0.14 0.81,-0.4 0.39,-0.26 0.18,-0.54 0.51,-0.88 0.33,-0.33 0.52,-0.15 0.85,-0.48 0.33,-0.33 0.15,-0.51 0.48,-0.84 0.33,-0.34 0.52,-0.15 0.85,-0.49 0.33,-0.33 0.15,-0.51 0.48,-0.84 0.33,-0.33 0.61,-0.13 0.87,-0.51 0.26,-0.4 0.15,-0.67 0.41,-0.82 0.03,-0.02 0.15,-0.1 0.33,-0.01 0.04,0.02 0.08,0.04 0.12,0.07l2.02 -2.01c1.62,-1.62 3.2,-7.83 3.56,-9.3 0,-0.16 0.01,-0.32 0.03,-0.48 0.2,-2.17 1.23,-4.29 2.91,-5.96 1.87,-1.88 4.32,-2.95 6.73,-2.95 1.86,0 3.56,0.67 4.77,1.88 2.88,2.88 2.4,8.04 -1.07,11.5 -1.78,1.79 -4.08,2.84 -6.37,2.94 -1.3,0.31 -7.71,1.91 -9.37,3.56l-2.01 2.02c0.03,0.04 0.05,0.08 0.07,0.12 0.03,0.04 0.09,0.16 0.03,0.28 -0.17,0.34 -0.56,0.18 -0.87,0.5 -0.33,0.33 -0.15,0.51 -0.48,0.84 -0.34,0.33 -0.52,0.15 -0.85,0.48 -0.33,0.34 -0.15,0.52 -0.48,0.85l-0.01 0c-0.33,0.34 -0.51,0.15 -0.84,0.49 -0.33,0.33 -0.15,0.51 -0.48,0.84 -0.34,0.33 -0.52,0.15 -0.85,0.48 -0.31,0.32 -0.16,0.71 -0.5,0.87 -0.12,0.07 -0.24,0 -0.28,-0.02 -0.19,-0.1 -0.47,-0.33 -0.76,-0.62 -0.3,-0.3 -0.53,-0.58 -0.63,-0.78 -0.09,-0.17 0,-0.29 0.02,-0.33zm15.52 -15.93l0.84 -0.84 -0.84 -0.84 -0.84 0.84 0.84 0.84zm-1 -0.68l-0.84 0.84 0.84 0.84 0.84 -0.84 -0.84 -0.84zm7.15 -1.16l0.84 0.84 0.83 -0.84 -0.83 -0.83 -0.84 0.83zm0.68 -1l-0.84 -0.83 -0.84 0.83 0.84 0.84 0.84 -0.84zm-0.84 1.16l-0.84 0.84 0.84 0.84 0.84 -0.84 -0.84 -0.84zm-0.16 -0.16l-0.84 -0.83 -0.84 0.83 0.84 0.84 0.84 -0.84zm-3.67 0l0.83 0.84 0.84 -0.84 -0.84 -0.83 -0.83 0.83zm0.67 -1l-0.83 -0.83 -0.84 0.83 0.84 0.84 0.83 -0.84zm1.16 0.84l0.84 -0.84 -0.84 -0.83 -0.84 0.83 0.84 0.84zm0 0.32l-0.84 0.84 0.84 0.84 0.84 -0.84 -0.84 -0.84zm-1 1l-0.83 0.84 0.83 0.84 0.84 -0.84 -0.84 -0.84zm-0.16 -0.16l-0.83 -0.84 -0.84 0.84 0.84 0.84 0.83 -0.84zm-1 -1l-0.83 -0.83 -0.84 0.83 0.84 0.84 0.83 -0.84zm-0.99 -1l-0.84 -0.83 -0.84 0.83 0.84 0.84 0.84 -0.84zm0.16 -0.16l0.83 -0.83 -0.83 -0.84 -0.84 0.84 0.84 0.83zm1 -1l0.83 -0.83 -0.83 -0.84 -0.84 0.84 0.84 0.83zm0.16 0.17l0.83 0.83 0.84 -0.83 -0.84 -0.84 -0.83 0.84zm1.83 -0.17l0.84 -0.83 -0.84 -0.84 -0.84 0.84 0.84 0.83zm0.16 0.17l0.84 0.83 0.84 -0.83 -0.84 -0.84 -0.84 0.84zm1.84 -0.17l0.84 -0.83 -0.84 -0.84 -0.84 0.84 0.84 0.83zm0.16 0.17l0.84 0.83 0.83 -0.83 -0.83 -0.84 -0.84 0.84zm1.83 -0.17l0.84 -0.83 -0.84 -0.84 -0.83 0.84 0.83 0.83zm-0.83 1.16l0.83 0.84 0.84 -0.84 -0.84 -0.83 -0.83 0.83zm0 2l0.83 0.84 0.84 -0.84 -0.84 -0.84 -0.83 0.84zm-0.16 0.16l-0.84 0.84 0.84 0.84 0.83 -0.84 -0.83 -0.84zm-1 1l-0.84 0.84 0.84 0.83 0.84 -0.83 -0.84 -0.84zm-0.16 -0.16l-0.84 -0.84 -0.84 0.84 0.84 0.84 0.84 -0.84zm-1.84 0.16l-0.84 0.84 0.84 0.83 0.84 -0.83 -0.84 -0.84zm-1 1l-0.83 0.84 0.83 0.83 0.84 -0.83 -0.84 -0.84zm-0.16 -0.16l-0.83 -0.84 -0.84 0.84 0.84 0.83 0.83 -0.83zm-1 -1l-0.83 -0.84 -0.84 0.84 0.84 0.84 0.83 -0.84zm-1.83 0.16l-0.84 0.84 0.84 0.83 0.84 -0.83 -0.84 -0.84zm-1 1l-0.84 0.84 0.84 0.83 0.84 -0.83 -0.84 -0.84zm-0.16 -0.16l-0.84 -0.84 -0.84 0.84 0.84 0.83 0.84 -0.83zm-0.84 -1.16l0.84 -0.84 -0.84 -0.84 -0.84 0.84 0.84 0.84zm1 -1l0.84 -0.84 -0.84 -0.83 -0.84 0.83 0.84 0.84zm0.84 -2.83l-0.84 -0.84 -0.84 0.84 0.84 0.83 0.84 -0.83zm0.16 -0.17l0.84 -0.83 -0.84 -0.84 -0.84 0.84 0.84 0.83zm1 -0.99l0.83 -0.84 -0.83 -0.84 -0.84 0.84 0.84 0.84zm1 -1l0.83 -0.84 -0.83 -0.84 -0.84 0.84 0.84 0.84zm0.16 0.16l0.83 0.84 0.84 -0.84 -0.84 -0.84 -0.83 0.84zm1.83 -0.16l0.84 -0.84 -0.84 -0.84 -0.84 0.84 0.84 0.84zm0.16 0.16l0.84 0.84 0.84 -0.84 -0.84 -0.84 -0.84 0.84zm1.84 -0.16l0.84 -0.84 -0.84 -0.84 -0.84 0.84 0.84 0.84zm0.16 0.16l0.84 0.84 0.83 -0.84 -0.83 -0.84 -0.84 0.84zm1.83 -0.16l0.84 -0.84 -0.84 -0.84 -0.83 0.84 0.83 0.84zm0.17 0.16l0.83 0.84 0.84 -0.84 -0.84 -0.84 -0.83 0.84zm0 2l0.83 0.83 0.84 -0.83 -0.84 -0.84 -0.83 0.84zm0.99 0.99l0.84 0.84 0.84 -0.84 -0.84 -0.83 -0.84 0.83zm-0.16 0.17l-0.83 0.83 0.83 0.84 0.84 -0.84 -0.84 -0.83zm-0.83 2.83l0.83 0.84 0.84 -0.84 -0.84 -0.84 -0.83 0.84zm-0.17 0.16l-0.83 0.84 0.83 0.83 0.84 -0.83 -0.84 -0.84zm-0.99 1l-0.84 0.84 0.84 0.83 0.83 -0.83 -0.83 -0.84zm-1 1l-0.84 0.83 0.84 0.84 0.84 -0.84 -0.84 -0.83zm-0.16 -0.16l-0.84 -0.84 -0.84 0.84 0.84 0.83 0.84 -0.83zm-1.84 0.16l-0.84 0.83 0.84 0.84 0.84 -0.84 -0.84 -0.83zm-1 1l-0.83 0.83 0.83 0.84 0.84 -0.84 -0.84 -0.83zm-0.16 -0.17l-0.83 -0.83 -0.84 0.83 0.84 0.84 0.83 -0.84zm-1 -0.99l-0.83 -0.84 -0.84 0.84 0.84 0.83 0.83 -0.83zm-1.83 0.16l-0.84 0.83 0.84 0.84 0.84 -0.84 -0.84 -0.83zm-1 1l-0.54 0.53c0.29,0.28 0.61,0.52 0.96,0.72l0.42 -0.42 -0.84 -0.83zm-0.16 -0.17l-0.84 -0.83 -0.42 0.42c0.2,0.34 0.44,0.66 0.72,0.95l0.54 -0.54zm-1 -0.99l-0.84 -0.84 -0.01 0.01c0.11,0.42 0.27,0.83 0.47,1.21l0.38 -0.38zm-0.84 -1.16l0.84 -0.84 -0.84 -0.84 -0.22 0.22c-0.01,0.46 0.03,0.91 0.11,1.34l0.11 0.12zm-0.2 -1.79l0.04 -0.05 -0.04 -0.04c0,0.03 0,0.06 0,0.09zm0.03 -0.38l0.17 0.17 0.84 -0.84 -0.71 -0.71c-0.14,0.46 -0.24,0.92 -0.3,1.38zm0.38 -1.62l0.79 0.79 0.84 -0.84 -0.84 -0.83 -0.74 0.74c-0.01,0.04 -0.03,0.09 -0.05,0.14zm0.27 -0.68l0.36 -0.36 -0.13 -0.13c-0.08,0.16 -0.16,0.32 -0.23,0.49zm0.35 -0.7l0.17 0.17 0.84 -0.83 -0.36 -0.36c-0.24,0.33 -0.46,0.67 -0.65,1.02zm0.79 -1.21l0.38 0.39 0.84 -0.84 -0.44 -0.44c-0.28,0.29 -0.54,0.59 -0.78,0.89zm0.94 -1.05l0.44 0.44 0.84 -0.84 -0.37 -0.37c-0.32,0.24 -0.62,0.5 -0.91,0.77zm2.13 -1.55c-0.36,0.19 -0.7,0.41 -1.04,0.65l0.35 0.34 0.83 -0.84 -0.14 -0.15zm0.21 -0.11l0.1 0.1 0.27 -0.27c-0.13,0.05 -0.25,0.11 -0.37,0.17zm0.9 -0.38l-0.64 0.64 0.83 0.84 0.84 -0.84 -0.74 -0.74c-0.1,0.03 -0.19,0.06 -0.29,0.1zm1.94 -0.45c-0.48,0.05 -0.94,0.14 -1.41,0.27l0.66 0.66 0.84 -0.84 -0.09 -0.09zm-0.59 1.09l0.84 0.84 0.84 -0.84 -0.84 -0.83 -0.84 0.83zm1.28 -1.13c-0.05,0 -0.1,0.01 -0.15,0.01l-0.13 0.12 0.84 0.84 0.82 -0.82c-0.44,-0.09 -0.9,-0.15 -1.38,-0.15zm0.72 1.13l0.84 0.84 0.83 -0.84 -0.83 -0.83 -0.84 0.83zm1.15 -0.85l0.68 0.69 0.29 -0.28c-0.31,-0.16 -0.63,-0.3 -0.97,-0.41zm1.17 0.53l-0.32 0.32 0.83 0.84 0.44 -0.44c-0.28,-0.28 -0.6,-0.52 -0.95,-0.72zm1.11 0.88l-0.44 0.44 0.84 0.84 0.32 -0.32c-0.2,-0.35 -0.44,-0.67 -0.72,-0.96zm0.84 1.16l-0.28 0.28 0.67 0.66c-0.11,-0.32 -0.23,-0.64 -0.39,-0.94zm-0.44 0.44l-0.84 0.84 0.84 0.83 0.84 -0.83 -0.84 -0.84zm0.96 1.03l-0.8 0.81 0.84 0.83 0.09 -0.09c0.02,-0.54 -0.02,-1.05 -0.13,-1.55zm0.1 2.08c0,-0.02 0,-0.04 0,-0.05l-0.06 -0.06 -0.84 0.83 0.63 0.63c0.13,-0.45 0.22,-0.9 0.27,-1.35zm-0.35 1.6l-0.71 -0.72 -0.84 0.84 0.84 0.84 0.58 -0.58c0.05,-0.13 0.09,-0.25 0.13,-0.38zm-0.48 1.19c0.04,-0.09 0.08,-0.17 0.12,-0.26l-0.19 0.19 0.07 0.07zm-0.11 0.21l-0.12 -0.12 -0.84 0.84 0.32 0.31c0.24,-0.33 0.45,-0.68 0.64,-1.03zm-0.78 1.21l-0.34 -0.33 -0.83 0.84 0.4 0.4c0.28,-0.29 0.53,-0.59 0.77,-0.91zm-0.93 1.07l-0.41 -0.4 -0.83 0.83 0.35 0.35c0.31,-0.24 0.6,-0.5 0.89,-0.78zm-2.1 1.58c0.35,-0.2 0.69,-0.42 1.02,-0.66l-0.32 -0.32 -0.84 0.83 0.14 0.15zm-0.21 0.11l-0.09 -0.1 -0.28 0.28c0.12,-0.06 0.25,-0.12 0.37,-0.18zm-0.93 0.42l0.68 -0.68 -0.84 -0.83 -0.84 0.83 0.76 0.76c0.08,-0.02 0.16,-0.05 0.24,-0.08zm-1.86 0.46c0.47,-0.05 0.93,-0.16 1.38,-0.3l-0.68 -0.68 -0.84 0.84 0.14 0.14zm-0.29 0.03l-0.01 -0.01 -0.01 0.01c0.01,0 0.02,0 0.02,0zm-1.75 -0.08c0.37,0.07 0.77,0.11 1.17,0.11 0.08,0 0.15,-0.01 0.22,-0.01l0.19 -0.19 -0.83 -0.84 -0.84 0.84 0.09 0.09zm0.58 -1.09l-0.83 -0.83 -0.84 0.83 0.84 0.84 0.83 -0.84zm-1.83 0.16l-0.37 0.37c0.37,0.2 0.78,0.35 1.2,0.47l-0.83 -0.84zm0.7 1.85c-1.18,-0.28 -2.23,-0.85 -3.06,-1.68 -0.83,-0.83 -1.39,-1.86 -1.67,-3.02 -0.69,2.58 -1.78,5.97 -3.12,7.83 1.87,-1.35 5.27,-2.44 7.85,-3.13z"/>
   </g>
   <path fill="#4D897C" d="M110.35 8.6c0.05,-0.82 0.08,-1.64 0.08,-2.48l-29.66 0c0,5.53 1.08,10.59 2.66,15.03l0 0c0,0.01 0,0.01 0,0.01 0.05,0 0.1,0 0.16,0 0.78,0 1.55,0.33 2.09,0.92 0.18,0.2 0.34,0.44 0.46,0.7 0.14,0.31 0.22,0.62 0.25,0.94 0.08,0.88 -0.24,1.8 -0.9,2.4 3.1,6.49 6.92,11.12 8.8,13.19 0.13,0.2 0.06,0.66 -0.36,0.9 -0.56,0.31 -2.13,0.38 -2.35,1.1 -0.19,0.59 0.36,0.91 0.36,0.91 0,0 -1.58,0.37 -1.75,1.01 -0.16,0.65 0.72,0.96 0.72,0.96l-1.36 0 -2.29 1.1c0.52,0 0.95,0.9 0.95,2.02 0,1.11 -0.43,2.01 -0.95,2.01l-0.31 0 -2.11 1.03 0 2.47 21.52 0 0 -2.47 -2.12 -1.03 -0.32 0c-0.53,0 -0.95,-0.9 -0.95,-2.01 0,-1.12 0.42,-2.02 0.95,-2.02l-2.29 -1.1 -1.34 0c0,0 0.88,-0.31 0.72,-0.96 -0.17,-0.64 -1.75,-1.01 -1.75,-1.01 0,0 0.55,-0.32 0.36,-0.91 -0.22,-0.72 -1.8,-0.79 -2.35,-1.1 -0.42,-0.24 -0.49,-0.7 -0.36,-0.9l0 0c2.82,-3.11 10.02,-12 12.59,-24.32 -0.02,-0.01 -0.04,-0.03 -0.07,-0.04 -0.48,-0.34 -0.89,-0.81 -1.16,-1.39 -0.01,-0.01 -0.01,-0.02 -0.02,-0.04 -0.27,-0.59 -0.35,-1.23 -0.29,-1.83 0.14,-1.19 0.82,-2.36 1.98,-2.9l0.41 -0.19zm-2.88 5.26c0.01,0.02 0.02,0.04 0.03,0.06 0.13,0.27 0.28,0.53 0.47,0.78l-20.74 9.66c0.03,-0.23 0.03,-0.47 0.01,-0.71 -0.04,-0.43 -0.15,-0.85 -0.33,-1.23 -0.16,-0.33 -0.36,-0.64 -0.61,-0.91 -0.16,-0.19 -0.35,-0.35 -0.55,-0.5l21.48 -10.02c-0.05,0.2 -0.09,0.4 -0.11,0.6 -0.09,0.77 0.04,1.55 0.35,2.27z"/>
   <path fill="#365E5A" d="M132.04 25.82c0.02,-0.33 0.03,-0.66 0.03,-1l-12.02 0c0,2.24 0.44,4.29 1.08,6.09l0 0c0,0 0,0 0,0 0.02,0 0.04,0 0.06,0 0.32,0 0.63,0.14 0.85,0.38 0.07,0.08 0.14,0.18 0.19,0.28 0.05,0.13 0.08,0.25 0.1,0.38 0.03,0.36 -0.1,0.73 -0.37,0.97 1.26,2.63 2.8,4.51 3.57,5.35 0.05,0.08 0.02,0.27 -0.15,0.36 -0.22,0.13 -0.86,0.16 -0.95,0.45 -0.08,0.24 0.14,0.37 0.14,0.37 0,0 -0.64,0.15 -0.7,0.41 -0.07,0.26 0.29,0.39 0.29,0.39l-0.56 0 -0.92 0.45c0.21,0 0.38,0.36 0.38,0.81 0,0.45 -0.17,0.82 -0.38,0.82l-0.13 0 -0.85 0.42 0 1 8.72 0 0 -1 -0.86 -0.42 -0.13 0c-0.21,0 -0.38,-0.37 -0.38,-0.82 0,-0.45 0.17,-0.81 0.38,-0.81l-0.93 -0.45 -0.54 0c0,0 0.36,-0.13 0.29,-0.39 -0.07,-0.26 -0.71,-0.41 -0.71,-0.41 0,0 0.22,-0.13 0.15,-0.37 -0.09,-0.29 -0.73,-0.32 -0.95,-0.45 -0.18,-0.09 -0.2,-0.28 -0.15,-0.36l0 0c1.14,-1.26 4.06,-4.86 5.1,-9.85 -0.01,-0.01 -0.02,-0.02 -0.03,-0.02 -0.19,-0.14 -0.36,-0.33 -0.47,-0.57 0,0 0,0 0,-0.01 -0.11,-0.24 -0.15,-0.5 -0.12,-0.74 0.05,-0.48 0.33,-0.96 0.8,-1.18l0.17 -0.08zm-1.17 2.13c0,0.01 0.01,0.02 0.01,0.03 0.05,0.11 0.12,0.22 0.19,0.31l-8.4 3.92c0.01,-0.09 0.01,-0.19 0,-0.29 -0.02,-0.17 -0.06,-0.34 -0.13,-0.49 -0.07,-0.14 -0.15,-0.26 -0.25,-0.37 -0.07,-0.08 -0.14,-0.15 -0.22,-0.21l8.7 -4.06c-0.02,0.08 -0.03,0.16 -0.04,0.25 -0.04,0.31 0.01,0.63 0.14,0.91z"/>
   <g>
    <path fill="#4D897C" d="M45.79 146.91l0 0c0.89,-0.48 1.64,-1.16 2.21,-2.01 0.6,-0.88 0.94,-1.89 1.03,-2.91 -0.53,-0.11 -1.09,-0.17 -1.65,-0.17 -3.44,0 -6.39,2.07 -7.67,5.04 1.87,1.06 4.16,1.09 6.08,0.05z"/>
    <path fill="#4D897C" d="M49.15 153.79c-0.89,0.49 -1.64,1.17 -2.21,2.02 -0.54,0.79 -0.86,1.69 -0.99,2.61 0.46,0.08 0.94,0.12 1.43,0.12 3.36,0 6.25,-1.98 7.58,-4.84 -1.82,-0.91 -3.98,-0.9 -5.81,0.09z"/>
    <path fill="#365E5A" d="M50.31 142.35c-0.15,1.15 -0.55,2.28 -1.22,3.28 -0.68,1.02 -1.61,1.86 -2.68,2.43 0,0.01 0,0.01 0,0.01 -2.24,1.21 -4.91,1.21 -7.13,0.04 -0.17,0.66 -0.26,1.36 -0.26,2.07 0,3.67 2.36,6.79 5.65,7.91 0.17,-1.06 0.56,-2.09 1.18,-3.01 0.69,-1.02 1.61,-1.86 2.68,-2.44 2.16,-1.17 4.71,-1.22 6.89,-0.17 0.2,-0.73 0.32,-1.5 0.32,-2.29 0,-3.58 -2.26,-6.64 -5.43,-7.83z"/>
   </g>
   <g>
    <path fill="#365E5A" d="M40.77 18.07c2.43,0 4.41,-1.87 4.59,-4.25 -0.07,0.01 -0.14,0.03 -0.21,0.04 -0.54,0.14 -0.9,0.66 -1.25,1.17 -0.06,0.08 -0.11,0.16 -0.17,0.23 -0.25,0.35 -0.6,0.8 -1.09,1.09 -0.54,0.34 -1.16,0.5 -1.78,0.5 -0.82,0 -1.64,-0.29 -2.27,-0.85 -0.69,-0.61 -1.09,-1.45 -1.15,-2.36 -0.05,-0.91 0.26,-1.78 0.86,-2.47 0.9,-1 2.31,-1.39 3.59,-0.98 0.05,0.01 0.15,0.05 0.27,0.09 0.15,0.05 0.44,0.16 0.51,0.17 0.6,0.14 1.11,0.13 1.54,-0.05 -0.84,-0.94 -2.07,-1.54 -3.44,-1.54 -2.54,0 -4.6,2.06 -4.6,4.6 0,2.55 2.06,4.61 4.6,4.61z"/>
    <path fill="#4D897C" d="M42.51 11.15c-0.1,-0.02 -0.31,-0.09 -0.59,-0.19 -0.11,-0.04 -0.2,-0.07 -0.25,-0.09 -1.01,-0.32 -2.12,-0.01 -2.83,0.78 -0.48,0.54 -0.72,1.23 -0.68,1.95 0.05,0.72 0.37,1.38 0.9,1.86 0.89,0.78 2.2,0.9 3.2,0.28 0.38,-0.23 0.67,-0.6 0.88,-0.9 0.06,-0.07 0.11,-0.15 0.16,-0.22 0.41,-0.59 0.87,-1.26 1.68,-1.46 0.12,-0.03 0.25,-0.05 0.38,-0.07 -0.06,-0.76 -0.31,-1.48 -0.7,-2.09 -0.61,0.29 -1.33,0.35 -2.15,0.15z"/>
   </g>
   <g>
    <path fill="#365E5A" d="M65.56 28c1.28,0.88 3,0.61 3.96,-0.57 -0.04,-0.02 -0.09,-0.04 -0.13,-0.06 -0.34,-0.12 -0.72,0.02 -1.08,0.16 -0.06,0.02 -0.12,0.04 -0.18,0.06 -0.26,0.1 -0.6,0.2 -0.97,0.18 -0.4,-0.02 -0.79,-0.16 -1.11,-0.38 -0.44,-0.3 -0.76,-0.75 -0.89,-1.28 -0.14,-0.56 -0.05,-1.15 0.25,-1.65 0.3,-0.5 0.78,-0.85 1.35,-0.99 0.83,-0.21 1.72,0.1 2.25,0.78 0.02,0.03 0.06,0.08 0.1,0.15 0.07,0.08 0.18,0.24 0.21,0.28 0.26,0.29 0.54,0.46 0.83,0.53 -0.1,-0.81 -0.53,-1.57 -1.25,-2.06 -1.34,-0.92 -3.17,-0.59 -4.1,0.75 -0.92,1.34 -0.58,3.18 0.76,4.1z"/>
    <path fill="#365E5A" d="M68.98 24.99c-0.04,-0.05 -0.13,-0.17 -0.24,-0.32 -0.04,-0.06 -0.08,-0.11 -0.1,-0.14 -0.42,-0.53 -1.11,-0.77 -1.77,-0.61 -0.45,0.11 -0.83,0.39 -1.06,0.78 -0.24,0.39 -0.31,0.86 -0.2,1.3 0.18,0.74 0.83,1.27 1.58,1.31 0.28,0.02 0.57,-0.07 0.79,-0.15 0.05,-0.02 0.11,-0.04 0.16,-0.06 0.43,-0.16 0.91,-0.35 1.41,-0.16 0.08,0.03 0.15,0.06 0.23,0.1 0.25,-0.42 0.37,-0.89 0.39,-1.36 -0.43,-0.06 -0.82,-0.29 -1.19,-0.69z"/>
   </g>
   <g>
    <circle fill="white" cx="7.42" cy="63.99" r="5.47"/>
    <g>
     <path fill="#4D897C" d="M11.24 63.71c-0.89,0.87 -1.98,1.16 -3.25,0.87 -0.11,-0.03 -0.34,-0.11 -0.64,-0.21 -0.12,-0.04 -0.22,-0.08 -0.27,-0.1 -1.1,-0.34 -2.3,-0.01 -3.06,0.85 -0.42,0.47 -0.67,1.05 -0.73,1.67 0.9,1.32 2.41,2.18 4.13,2.18 2.75,0 4.98,-2.23 4.98,-4.98 0,-0.59 -0.1,-1.15 -0.28,-1.67 -0.17,0.47 -0.44,0.95 -0.88,1.39z"/>
     <path fill="#4D897C" d="M7.32 63.53c0.05,0.02 0.16,0.06 0.29,0.1 0.17,0.06 0.48,0.17 0.55,0.19 1.02,0.24 1.83,0.02 2.53,-0.67 0.63,-0.62 0.82,-1.36 0.86,-1.95 -0.9,-1.33 -2.41,-2.2 -4.13,-2.2 -2.75,0 -4.99,2.24 -4.99,4.99 0,0.61 0.11,1.19 0.32,1.74 0.15,-0.41 0.38,-0.79 0.68,-1.13 0.97,-1.09 2.5,-1.51 3.89,-1.07z"/>
    </g>
   </g>
   <g>
    <path fill="#365E5A" d="M74.94 3.77c-0.71,0.7 -1.59,0.93 -2.6,0.69 -0.09,-0.02 -0.27,-0.08 -0.52,-0.16 -0.09,-0.04 -0.17,-0.07 -0.21,-0.08 -0.88,-0.28 -1.84,-0.01 -2.45,0.68 -0.34,0.37 -0.54,0.84 -0.58,1.34 0.72,1.05 1.93,1.75 3.3,1.75 2.21,0 4,-1.79 4,-4 0,-0.46 -0.09,-0.91 -0.23,-1.33 -0.14,0.37 -0.35,0.76 -0.71,1.11z"/>
    <path fill="#365E5A" d="M71.8 3.63c0.04,0.01 0.13,0.04 0.23,0.08 0.14,0.04 0.39,0.13 0.45,0.15 0.82,0.19 1.46,0.02 2.02,-0.54 0.51,-0.5 0.66,-1.09 0.69,-1.56 -0.72,-1.06 -1.93,-1.76 -3.31,-1.76 -2.2,0 -3.99,1.79 -3.99,3.99 0,0.49 0.09,0.96 0.25,1.39 0.12,-0.32 0.31,-0.63 0.55,-0.9 0.77,-0.87 2,-1.21 3.11,-0.85z"/>
   </g>
   <g>
    <path fill="#4D897C" d="M54.91 8.21c0.1,0.03 0.32,0.11 0.57,0.2 0.34,0.12 0.96,0.34 1.11,0.37 2.04,0.48 3.63,0.06 5.03,-1.32 0.69,-0.68 1.11,-1.43 1.37,-2.16 -1.6,-1.12 -3.56,-1.77 -5.66,-1.77 -4,0 -7.45,2.37 -9.03,5.78 1.88,-1.38 4.33,-1.82 6.61,-1.1z"/>
    <path fill="#4D897C" d="M62.02 16.12l-0.07 0.02c-1.18,0.3 -1.96,1.42 -2.72,2.51 -0.12,0.18 -0.24,0.35 -0.35,0.52 -0.55,0.75 -1.3,1.71 -2.35,2.35 -0.99,0.61 -2.08,0.95 -3.19,1.04 1.22,0.54 2.57,0.84 3.99,0.84 4.28,0 7.93,-2.71 9.33,-6.51 -1.6,-0.89 -3.15,-1.15 -4.64,-0.77z"/>
    <path fill="#4D897C" d="M55.71 20.19c0.81,-0.49 1.44,-1.29 1.9,-1.93 0.11,-0.16 0.23,-0.33 0.34,-0.49 0.88,-1.27 1.88,-2.7 3.62,-3.14l0.06 -0.01c1.79,-0.46 3.61,-0.21 5.45,0.73 0.12,-0.61 0.18,-1.24 0.18,-1.89 0,-2.79 -1.15,-5.31 -3,-7.11 -0.34,0.75 -0.83,1.51 -1.55,2.22 -1.76,1.74 -3.94,2.32 -6.47,1.73 -0.22,-0.05 -0.67,-0.21 -1.28,-0.42 -0.23,-0.08 -0.43,-0.16 -0.53,-0.19 -2.18,-0.69 -4.58,-0.03 -6.11,1.68 -0.37,0.42 -0.67,0.88 -0.9,1.37 -0.02,0.24 -0.03,0.48 -0.03,0.72 0,2.79 1.15,5.31 3,7.11 1.7,0.72 3.7,0.62 5.32,-0.38z"/>
   </g>
   <circle fill="white" cx="7.42" cy="75.36" r="5.47"/>
   <g>
    <path fill="#4D897C" d="M7.43 80.36c2.63,0 4.78,-2.03 4.97,-4.61 -0.07,0.01 -0.15,0.03 -0.22,0.05 -0.59,0.14 -0.99,0.71 -1.37,1.26 -0.06,0.08 -0.12,0.17 -0.18,0.25 -0.27,0.39 -0.65,0.86 -1.18,1.19 -0.59,0.36 -1.26,0.54 -1.93,0.54 -0.89,0 -1.77,-0.32 -2.47,-0.93 -0.74,-0.66 -1.18,-1.56 -1.23,-2.55 -0.06,-0.99 0.27,-1.94 0.93,-2.68 0.97,-1.1 2.49,-1.51 3.89,-1.07 0.05,0.02 0.16,0.05 0.29,0.1 0.17,0.06 0.48,0.17 0.55,0.19 0.65,0.15 1.21,0.13 1.68,-0.06 -0.92,-1.02 -2.25,-1.67 -3.73,-1.67 -2.76,0 -5,2.23 -5,4.99 0,2.76 2.24,5 5,5z"/>
    <path fill="#4D897C" d="M9.31 72.86c-0.11,-0.03 -0.34,-0.11 -0.64,-0.21 -0.12,-0.05 -0.22,-0.08 -0.27,-0.1 -1.1,-0.35 -2.3,-0.01 -3.07,0.85 -0.52,0.58 -0.78,1.33 -0.73,2.11 0.04,0.78 0.39,1.5 0.97,2.01 0.96,0.85 2.39,0.98 3.47,0.31 0.41,-0.25 0.73,-0.65 0.96,-0.97 0.05,-0.08 0.11,-0.16 0.17,-0.25 0.44,-0.63 0.94,-1.36 1.82,-1.57 0.13,-0.04 0.27,-0.06 0.41,-0.08 -0.06,-0.83 -0.33,-1.61 -0.76,-2.27 -0.66,0.32 -1.44,0.38 -2.33,0.17z"/>
   </g>
   <circle fill="white" cx="7.42" cy="98.11" r="5.47"/>
   <path fill="#4D897C" d="M6.2 95.47c0.06,0.02 0.17,0.06 0.29,0.1 0.17,0.06 0.49,0.17 0.56,0.19 1.02,0.24 1.82,0.03 2.52,-0.66 0.35,-0.34 0.56,-0.72 0.69,-1.09 -0.8,-0.56 -1.78,-0.89 -2.84,-0.89 -2.01,0 -3.74,1.19 -4.53,2.9 0.94,-0.69 2.17,-0.91 3.31,-0.55z"/>
   <path fill="#4D897C" d="M9.77 99.44l-0.03 0.01c-0.59,0.15 -0.99,0.72 -1.36,1.26 -0.07,0.09 -0.12,0.18 -0.18,0.26 -0.28,0.38 -0.66,0.86 -1.18,1.18 -0.5,0.3 -1.05,0.48 -1.6,0.53 0.61,0.27 1.29,0.42 2,0.42 2.15,0 3.98,-1.37 4.68,-3.27 -0.8,-0.45 -1.58,-0.58 -2.33,-0.39z"/>
   <path fill="#4D897C" d="M6.61 101.49c0.41,-0.25 0.72,-0.65 0.95,-0.97 0.06,-0.09 0.12,-0.17 0.17,-0.25 0.44,-0.64 0.94,-1.36 1.82,-1.57l0.03 -0.01c0.9,-0.23 1.81,-0.11 2.73,0.36 0.06,-0.3 0.1,-0.62 0.1,-0.94 0,-1.4 -0.58,-2.67 -1.51,-3.57 -0.17,0.38 -0.42,0.76 -0.78,1.11 -0.88,0.87 -1.98,1.17 -3.25,0.87 -0.1,-0.03 -0.33,-0.1 -0.64,-0.21 -0.11,-0.04 -0.21,-0.08 -0.26,-0.09 -1.1,-0.35 -2.3,-0.02 -3.07,0.84 -0.19,0.21 -0.33,0.44 -0.45,0.69 -0.01,0.12 -0.02,0.24 -0.02,0.36 0,1.4 0.58,2.66 1.51,3.57 0.85,0.36 1.85,0.31 2.67,-0.19z"/>
   <g>
    <path fill="#365E5A" d="M67.75 89.86c0.06,0.02 0.17,0.06 0.3,0.1 0.18,0.06 0.5,0.18 0.58,0.2 1.06,0.24 1.89,0.02 2.61,-0.69 0.36,-0.35 0.58,-0.74 0.72,-1.12 -0.84,-0.58 -1.85,-0.92 -2.95,-0.92 -2.08,0 -3.87,1.23 -4.69,3 0.98,-0.72 2.25,-0.95 3.43,-0.57z"/>
    <path fill="#365E5A" d="M71.45 93.97l-0.04 0.01c-0.61,0.15 -1.01,0.74 -1.41,1.31 -0.06,0.09 -0.12,0.17 -0.18,0.26 -0.29,0.4 -0.68,0.89 -1.22,1.22 -0.51,0.32 -1.08,0.5 -1.66,0.55 0.63,0.28 1.34,0.43 2.07,0.43 2.23,0 4.13,-1.41 4.85,-3.38 -0.83,-0.46 -1.64,-0.6 -2.41,-0.4z"/>
    <path fill="#365E5A" d="M68.17 96.09c0.42,-0.26 0.75,-0.68 0.99,-1.01 0.06,-0.08 0.12,-0.17 0.18,-0.26 0.45,-0.65 0.97,-1.4 1.88,-1.62l0.03 -0.01c0.93,-0.24 1.88,-0.11 2.83,0.38 0.06,-0.32 0.1,-0.65 0.1,-0.98 0,-1.45 -0.6,-2.76 -1.57,-3.7 -0.17,0.39 -0.43,0.79 -0.8,1.15 -0.91,0.91 -2.05,1.21 -3.36,0.9 -0.11,-0.02 -0.35,-0.1 -0.67,-0.22 -0.12,-0.04 -0.22,-0.07 -0.27,-0.09 -1.14,-0.36 -2.38,-0.02 -3.18,0.87 -0.19,0.22 -0.34,0.46 -0.46,0.71 -0.01,0.13 -0.02,0.25 -0.02,0.38 0,1.45 0.6,2.76 1.56,3.69 0.88,0.38 1.92,0.32 2.76,-0.19z"/>
   </g>
   <rect fill="#2B2A29" y="105.29" width="14.55" height="1.85"/>
   <rect fill="#2B2A29" y="55.8" width="14.55" height="1.85"/>
   <g>
    <path fill="#4D897C" d="M91.52 67.74l0 0c0.89,-0.49 1.64,-1.16 2.21,-2.02 0.59,-0.88 0.93,-1.89 1.03,-2.91 -0.54,-0.11 -1.09,-0.16 -1.65,-0.16 -3.44,0 -6.39,2.07 -7.67,5.03 1.87,1.06 4.16,1.1 6.08,0.06z"/>
    <path fill="#4D897C" d="M94.88 74.62c-0.89,0.48 -1.64,1.16 -2.21,2.01 -0.54,0.8 -0.87,1.69 -0.99,2.61 0.46,0.08 0.94,0.12 1.43,0.12 3.35,0 6.25,-1.98 7.58,-4.83 -1.83,-0.92 -3.98,-0.9 -5.81,0.09z"/>
    <path fill="#4D897C" d="M96.03 63.18c-0.14,1.15 -0.54,2.28 -1.21,3.28 -0.69,1.01 -1.61,1.85 -2.68,2.43 0,0 0,0 0,0 -2.24,1.22 -4.91,1.22 -7.13,0.05 -0.17,0.66 -0.26,1.35 -0.26,2.07 0,3.66 2.36,6.78 5.65,7.9 0.17,-1.06 0.56,-2.09 1.18,-3.01 0.68,-1.01 1.61,-1.86 2.68,-2.43 2.16,-1.18 4.71,-1.22 6.88,-0.18 0.21,-0.73 0.32,-1.49 0.32,-2.28 0,-3.59 -2.25,-6.65 -5.43,-7.83z"/>
   </g>
  </g>
 </g>
</svg>
